<?xml version="1.0" encoding="UTF-8" standalone="no"?>
<!-- Created with Inkscape (http://www.inkscape.org/) -->

<svg
   xmlns:dc="http://purl.org/dc/elements/1.1/"
   xmlns:cc="http://creativecommons.org/ns#"
   xmlns:rdf="http://www.w3.org/1999/02/22-rdf-syntax-ns#"
   xmlns:svg="http://www.w3.org/2000/svg"
   xmlns="http://www.w3.org/2000/svg"
   version="1.1"
   width="332.276"
   height="365.37"
   viewBox="0 0 332.27599 365.37"
   id="Calque_1"
   xml:space="preserve"><metadata
   id="metadata273"><rdf:RDF><cc:Work
       rdf:about=""><dc:format>image/svg+xml</dc:format><dc:type
         rdf:resource="http://purl.org/dc/dcmitype/StillImage" /><dc:title></dc:title></cc:Work></rdf:RDF></metadata><defs
   id="defs271" />
<g
   transform="translate(-25.445004,-7.816)"
   id="g3">
	<path
   d="m 355.736,150.738 c -0.813,0 -1.43,-0.174 -1.957,-0.707 l 0.677,-0.677 c 0.339,0.339 0.798,0.452 1.295,0.452 0.617,0 0.948,-0.234 0.948,-0.663 0,-0.188 -0.053,-0.346 -0.166,-0.452 -0.105,-0.098 -0.226,-0.15 -0.474,-0.188 l -0.647,-0.09 c -0.46,-0.068 -0.798,-0.211 -1.039,-0.444 -0.256,-0.256 -0.384,-0.602 -0.384,-1.053 0,-0.956 0.707,-1.626 1.866,-1.626 0.737,0 1.272,0.181 1.731,0.625 l -0.662,0.655 c -0.339,-0.323 -0.745,-0.369 -1.099,-0.369 -0.556,0 -0.828,0.309 -0.828,0.677 0,0.136 0.045,0.279 0.158,0.384 0.105,0.098 0.278,0.18 0.496,0.21 l 0.633,0.09 c 0.489,0.068 0.798,0.204 1.023,0.414 0.286,0.271 0.414,0.662 0.414,1.136 0.002,1.039 -0.864,1.626 -1.985,1.626 z"
   id="path5"
   style="fill:#218fb2" />
	<path
   d="M 283.397,300.112 42.054,224.643 34.979,161.883 c 0,0 -0.655,-2.358 3.276,-3.014 l 57.65,-11.137 -0.917,-15.33 c 0,0 -0.262,-2.751 3.8,-3.145 l 54.636,-7.73 75.6,4.455 c 0,0 3.276,-0.262 3.538,4.455 l -1.834,52.016 c 0,0 1.441,1.703 2.62,1.703 l 89.75,14.281 c 0,0 2.096,-0.393 1.965,4.717 l -5.372,51.754 -36.294,45.204 z"
   id="path7"
   style="fill:#218fb2" />
	<path
   d="m 131.946,185.537 0.214,-29.654 c 0,0 -1.508,1.418 -2.885,1.937 -1.837,0.705 -3.96,0.994 -3.96,0.994 l 0.036,-5.007 c 0,0 2.999,-0.526 5.049,-2.026 1.758,-1.293 3.482,-3.892 3.482,-3.892 l 3.368,0.384 -0.273,37.837 -5.031,-0.573 z"
   id="path9"
   style="fill:#d7d6d1" />
	<g
   id="g11">
		<path
   d="m 231.759,270.688 c -3.578,-0.239 -7.056,-1.462 -9.987,-4.036 l 2.452,-4.047 c 2.645,2.208 5.061,3.113 7.831,3.297 3.77,0.252 6.628,-2.233 6.869,-6.131 0.235,-3.799 -1.468,-6.242 -6.084,-6.55 l -2.924,-0.195 0.302,-4.885 2.962,0.198 c 3.385,0.226 5.56,-2.453 5.795,-6.253 0.309,-4.984 -2.755,-6.03 -5.179,-6.192 -1.846,-0.123 -4.755,1.317 -6.151,3.899 l -2.657,-3.249 c 2.698,-4.279 6.078,-5.837 9.925,-5.58 7.001,0.468 8.952,6.395 8.671,10.935 -0.324,5.231 -2.956,8.424 -4.779,8.55 2.097,0.438 5.086,3.957 4.737,9.582 -0.432,7.006 -4.705,11.13 -11.783,10.657 z"
   id="path13"
   style="fill:#d7d6d1" />
	</g>
	<g
   id="g15">
		<path
   d="m 52.934,208.633 10.894,-9.079 c 0.908,-0.841 4.874,-3.934 5.071,-6.941 0.238,-3.643 -1.965,-5.266 -4.619,-5.964 -3.422,-0.9 -5.349,0.86 -5.518,3.442 l -0.079,1.203 -3.876,-1.019 0.084,-1.275 c 0.289,-4.421 4.07,-7.384 9.552,-5.943 4.959,1.304 9.12,4.486 8.732,10.427 -0.277,4.244 -4.316,7.355 -4.991,7.897 l -6.796,5.624 11.698,3.077 -0.247,3.785 -19.905,-5.234 z"
   id="path17"
   style="fill:#d7d6d1" />
	</g>
	<path
   d="m 181.986,207.741 c 0,0 105.735,23.584 106.521,23.191 l 35.376,-32.232 -90.537,-14.544 -51.36,23.585 z"
   id="path19"
   style="fill:#106377" />
	<path
   d="m 179.824,204.007 51.295,-22.208 1.572,-53.064 c 0,0 -0.393,-2.555 -1.965,-2.162 0,0 -51.295,15.133 -50.706,15.133 0.589,0 -0.196,62.301 -0.196,62.301 z"
   id="path21"
   style="fill:#106377" />
	<polygon
   points="97.214,171.185 95.904,147.732 37.468,159.655 "
   id="polygon23"
   style="fill:#106377" />
	<line
   stroke-miterlimit="10"
   x1="173.14"
   y1="116.499"
   x2="173.14"
   y2="20.899"
   id="line25"
   style="fill:#ffffff;stroke:#106377;stroke-miterlimit:10" />
	
		<line
   stroke-miterlimit="10"
   x1="83.237"
   y1="142.62601"
   x2="83.237"
   y2="74.342003"
   id="line27"
   style="fill:#ffffff;stroke:#106377;stroke-miterlimit:10;stroke-dasharray:3" />
	<g
   id="g29">
		<line
   x1="263.49799"
   y1="183.39101"
   x2="263.49799"
   y2="111.346"
   id="line31"
   style="fill:#ffffff" />
		<g
   id="g33">
			<line
   stroke-miterlimit="10"
   x1="263.49799"
   y1="183.39101"
   x2="263.49799"
   y2="181.89101"
   id="line35"
   style="fill:none;stroke:#106377;stroke-miterlimit:10" />
			
				<line
   stroke-miterlimit="10"
   x1="263.49799"
   y1="178.88901"
   x2="263.49799"
   y2="114.347"
   id="line37"
   style="fill:none;stroke:#106377;stroke-miterlimit:10;stroke-dasharray:3.0019, 3.0019" />
			<line
   stroke-miterlimit="10"
   x1="263.49799"
   y1="112.846"
   x2="263.49799"
   y2="111.346"
   id="line39"
   style="fill:none;stroke:#106377;stroke-miterlimit:10" />
		</g>
	</g>
	<g
   id="g41">
		<path
   d="m 28.481,67.505 h -1.507 v 2.948 H 25.445 V 62.62 h 3.037 c 1.617,0 2.585,1.111 2.585,2.442 0,1.331 -0.969,2.443 -2.586,2.443 z m -0.078,-3.521 h -1.43 v 2.146 h 1.43 c 0.693,0 1.133,-0.43 1.133,-1.067 10e-4,-0.639 -0.44,-1.079 -1.133,-1.079 z"
   id="path43"
   style="fill:#106377" />
		<path
   d="m 38.017,70.453 -0.462,-1.386 h -2.783 l -0.473,1.386 h -1.595 l 2.849,-7.833 h 1.199 l 2.86,7.833 h -1.595 z m -1.826,-5.523 -0.99,2.849 h 1.947 L 36.191,64.93 z"
   id="path45"
   style="fill:#106377" />
		<path
   d="m 44.948,67.24 v 3.213 H 43.429 V 67.24 l -2.354,-4.62 h 1.661 l 1.463,3.157 1.441,-3.157 h 1.661 l -2.353,4.62 z"
   id="path47"
   style="fill:#106377" />
		<path
   d="m 52.163,70.519 c -1.188,0 -2.09,-0.254 -2.86,-1.034 l 0.99,-0.99 c 0.495,0.495 1.166,0.66 1.892,0.66 0.902,0 1.386,-0.342 1.386,-0.969 0,-0.274 -0.077,-0.506 -0.242,-0.66 -0.154,-0.143 -0.33,-0.22 -0.693,-0.274 L 51.69,67.12 c -0.671,-0.1 -1.166,-0.309 -1.518,-0.649 -0.374,-0.374 -0.561,-0.88 -0.561,-1.54 0,-1.397 1.034,-2.377 2.729,-2.377 1.078,0 1.859,0.265 2.53,0.913 l -0.968,0.957 c -0.495,-0.473 -1.089,-0.539 -1.606,-0.539 -0.814,0 -1.21,0.451 -1.21,0.99 0,0.198 0.066,0.407 0.231,0.562 0.154,0.143 0.407,0.264 0.726,0.308 l 0.924,0.132 c 0.715,0.1 1.166,0.298 1.496,0.605 0.418,0.396 0.605,0.968 0.605,1.661 0,1.518 -1.266,2.376 -2.905,2.376 z"
   id="path49"
   style="fill:#106377" />
		<path
   d="m 67.475,69.705 c -0.517,0.517 -1.254,0.748 -2.068,0.748 H 62.58 V 62.62 h 2.828 c 0.814,0 1.551,0.23 2.068,0.748 0.88,0.88 0.792,1.958 0.792,3.136 0,1.176 0.088,2.321 -0.793,3.201 z M 66.408,64.468 C 66.144,64.15 65.792,63.985 65.264,63.985 h -1.155 v 5.104 h 1.155 c 0.528,0 0.88,-0.165 1.144,-0.484 0.286,-0.352 0.33,-0.913 0.33,-2.101 0,-1.189 -0.044,-1.684 -0.33,-2.036 z"
   id="path51"
   style="fill:#106377" />
		<path
   d="M 71.589,70.453 V 62.62 h 5.16 v 1.364 h -3.63 v 1.837 h 3.091 v 1.364 h -3.091 v 1.903 h 3.63 v 1.364 h -5.16 z"
   id="path53"
   style="fill:#106377" />
		<path
   d="M 84.316,70.453 V 62.62 h 1.529 v 6.469 h 3.554 v 1.364 h -5.083 z"
   id="path55"
   style="fill:#106377" />
		<path
   d="m 96.856,70.453 -0.462,-1.386 h -2.783 l -0.473,1.386 h -1.595 l 2.849,-7.833 h 1.199 l 2.86,7.833 H 96.856 z M 95.03,64.93 94.04,67.779 h 1.947 L 95.03,64.93 z"
   id="path57"
   style="fill:#106377" />
		<path
   d="M 105.49,70.453 V 62.62 h 1.529 v 6.469 h 3.554 v 1.364 h -5.083 z"
   id="path59"
   style="fill:#106377" />
		<path
   d="m 118.031,69.661 c -0.55,0.55 -1.221,0.858 -2.112,0.858 -0.891,0 -1.573,-0.309 -2.123,-0.858 -0.792,-0.792 -0.771,-1.771 -0.771,-3.125 0,-1.353 -0.022,-2.332 0.771,-3.124 0.55,-0.55 1.232,-0.858 2.123,-0.858 0.891,0 1.562,0.309 2.112,0.858 0.792,0.792 0.781,1.771 0.781,3.124 0.001,1.353 0.011,2.333 -0.781,3.125 z m -1.133,-5.325 c -0.22,-0.253 -0.561,-0.418 -0.979,-0.418 -0.418,0 -0.77,0.165 -0.99,0.418 -0.297,0.33 -0.374,0.693 -0.374,2.2 0,1.508 0.077,1.871 0.374,2.201 0.22,0.253 0.572,0.418 0.99,0.418 0.418,0 0.759,-0.165 0.979,-0.418 0.297,-0.33 0.385,-0.693 0.385,-2.201 0,-1.507 -0.088,-1.87 -0.385,-2.2 z"
   id="path61"
   style="fill:#106377" />
		<path
   d="M 122.133,70.453 V 62.62 h 1.529 v 7.833 h -1.529 z"
   id="path63"
   style="fill:#106377" />
		<path
   d="m 131.407,70.453 -1.529,-3.124 h -1.1 v 3.124 h -1.529 V 62.62 h 3.069 c 1.595,0 2.542,1.089 2.542,2.398 0,1.1 -0.671,1.782 -1.43,2.057 l 1.749,3.378 h -1.772 z m -1.188,-6.469 h -1.441 v 2.068 h 1.441 c 0.671,0 1.111,-0.43 1.111,-1.034 0,-0.605 -0.44,-1.034 -1.111,-1.034 z"
   id="path65"
   style="fill:#106377" />
		<path
   d="M 136.202,70.453 V 62.62 h 5.16 v 1.364 h -3.63 v 1.837 h 3.091 v 1.364 h -3.091 v 1.903 h 3.63 v 1.364 h -5.16 z"
   id="path67"
   style="fill:#106377" />
	</g>
	<g
   id="g69">
		<path
   d="m 143.622,15.714 h -3.278 V 7.881 h 3.146 c 1.529,0 2.42,0.858 2.42,2.2 0,0.869 -0.572,1.431 -0.968,1.617 0.473,0.22 1.078,0.715 1.078,1.761 0,1.463 -1.001,2.255 -2.398,2.255 z m -0.253,-6.469 h -1.496 v 1.804 h 1.496 c 0.649,0 1.012,-0.362 1.012,-0.901 0,-0.539 -0.363,-0.903 -1.012,-0.903 z m 0.099,3.18 h -1.595 v 1.925 h 1.595 c 0.693,0 1.023,-0.44 1.023,-0.968 0,-0.529 -0.33,-0.957 -1.023,-0.957 z"
   id="path71"
   style="fill:#106377" />
		<path
   d="m 153.5,15.714 -1.529,-3.124 h -1.1 v 3.124 h -1.529 V 7.881 h 3.069 c 1.595,0 2.542,1.089 2.542,2.398 0,1.1 -0.671,1.782 -1.43,2.057 l 1.749,3.378 H 153.5 z m -1.188,-6.469 h -1.441 v 2.068 h 1.441 c 0.671,0 1.111,-0.43 1.111,-1.034 0,-0.605 -0.44,-1.034 -1.111,-1.034 z"
   id="path73"
   style="fill:#106377" />
		<path
   d="M 158.295,15.714 V 7.881 h 5.16 v 1.364 h -3.63 v 1.837 h 3.091 v 1.364 h -3.091 v 1.903 h 3.63 v 1.364 h -5.16 z"
   id="path75"
   style="fill:#106377" />
		<path
   d="m 169.702,9.245 v 6.469 h -1.529 V 9.245 h -2.046 V 7.881 h 5.622 v 1.364 h -2.047 z"
   id="path77"
   style="fill:#106377" />
		<path
   d="m 178.546,15.714 -0.462,-1.386 h -2.783 l -0.473,1.386 h -1.595 l 2.849,-7.833 h 1.199 l 2.86,7.833 h -1.595 z m -1.826,-5.523 -0.99,2.849 h 1.947 l -0.957,-2.849 z"
   id="path79"
   style="fill:#106377" />
		<path
   d="m 187.588,14.889 c -0.605,0.616 -1.331,0.892 -2.211,0.892 -0.836,0 -1.541,-0.286 -2.112,-0.858 -0.341,-0.341 -0.55,-0.737 -0.638,-1.178 -0.088,-0.439 -0.132,-1.089 -0.132,-1.947 0,-0.857 0.044,-1.507 0.132,-1.947 0.088,-0.45 0.297,-0.836 0.638,-1.177 0.572,-0.572 1.276,-0.858 2.112,-0.858 1.782,0 2.739,1.145 2.948,2.509 h -1.54 c -0.188,-0.759 -0.649,-1.145 -1.408,-1.145 -0.407,0 -0.737,0.144 -0.979,0.418 -0.286,0.363 -0.374,0.649 -0.374,2.2 0,1.541 0.066,1.849 0.374,2.212 0.231,0.274 0.561,0.407 0.979,0.407 0.451,0 0.814,-0.144 1.089,-0.44 0.231,-0.264 0.352,-0.616 0.352,-1.045 v -0.297 h -1.441 v -1.276 h 2.959 v 1.144 c 0,1.142 -0.209,1.813 -0.748,2.386 z"
   id="path81"
   style="fill:#106377" />
		<path
   d="m 196.157,15.714 -3.103,-4.808 v 4.808 h -1.529 V 7.881 h 1.364 l 3.103,4.797 V 7.881 h 1.529 v 7.833 h -1.364 z"
   id="path83"
   style="fill:#106377" />
		<path
   d="M 201.107,15.714 V 7.881 h 5.159 v 1.364 h -3.63 v 1.837 h 3.091 v 1.364 h -3.091 v 1.903 h 3.63 v 1.364 h -5.159 z"
   id="path85"
   style="fill:#106377" />
	</g>
	<g
   id="g87">
		<path
   d="m 246.905,93.94 -1.529,-3.124 h -1.101 v 3.124 h -1.529 v -7.833 h 3.069 c 1.596,0 2.542,1.089 2.542,2.398 0,1.1 -0.671,1.782 -1.431,2.057 l 1.749,3.378 h -1.77 z m -1.188,-6.469 h -1.441 v 2.068 h 1.441 c 0.671,0 1.111,-0.43 1.111,-1.034 0,-0.605 -0.44,-1.034 -1.111,-1.034 z"
   id="path89"
   style="fill:#106377" />
		<path
   d="m 255.881,93.94 v -3.278 h -2.651 v 3.278 h -1.53 v -7.833 h 1.529 v 3.201 h 2.651 v -3.201 h 1.529 v 7.833 h -1.528 z"
   id="path91"
   style="fill:#106377" />
		<path
   d="m 265.737,93.148 c -0.55,0.55 -1.222,0.858 -2.112,0.858 -0.892,0 -1.573,-0.309 -2.123,-0.858 -0.793,-0.792 -0.771,-1.771 -0.771,-3.125 0,-1.353 -0.022,-2.332 0.771,-3.124 0.55,-0.55 1.231,-0.858 2.123,-0.858 0.891,0 1.562,0.309 2.112,0.858 0.792,0.792 0.781,1.771 0.781,3.124 0.001,1.353 0.011,2.333 -0.781,3.125 z m -1.199,-7.8 -0.913,-1.002 -0.913,1.002 h -1.111 l 1.452,-1.859 h 1.145 l 1.452,1.859 h -1.112 z m 0.066,2.474 c -0.22,-0.253 -0.561,-0.418 -0.979,-0.418 -0.418,0 -0.771,0.165 -0.99,0.418 -0.297,0.33 -0.374,0.693 -0.374,2.2 0,1.508 0.077,1.871 0.374,2.201 0.22,0.253 0.572,0.418 0.99,0.418 0.418,0 0.759,-0.165 0.979,-0.418 0.298,-0.33 0.386,-0.693 0.386,-2.201 -0.001,-1.506 -0.089,-1.869 -0.386,-2.2 z"
   id="path93"
   style="fill:#106377" />
		<path
   d="m 274.471,93.94 -3.103,-4.808 v 4.808 h -1.529 v -7.833 h 1.364 l 3.103,4.797 v -4.797 h 1.529 v 7.833 h -1.364 z"
   id="path95"
   style="fill:#106377" />
		<path
   d="m 279.42,93.94 v -7.833 h 5.16 v 1.364 h -3.631 v 1.837 h 3.092 v 1.364 h -3.092 v 1.903 h 3.631 v 1.364 h -5.16 z"
   id="path97"
   style="fill:#106377" />
		<path
   d="m 220.027,107.14 -0.462,-1.386 h -2.783 l -0.474,1.386 h -1.595 l 2.849,-7.833 h 1.199 l 2.86,7.833 h -1.594 z m -1.826,-5.523 -0.99,2.849 h 1.947 l -0.957,-2.849 z"
   id="path99"
   style="fill:#106377" />
		<path
   d="m 224.35,107.14 v -7.833 h 1.529 v 6.469 h 3.554 v 1.364 h -5.083 z"
   id="path101"
   style="fill:#106377" />
		<path
   d="m 235.472,104.192 h -1.508 v 2.948 h -1.529 v -7.833 h 3.037 c 1.617,0 2.585,1.111 2.585,2.442 0,1.331 -0.968,2.443 -2.585,2.443 z m -0.077,-3.521 h -1.431 v 2.146 h 1.431 c 0.692,0 1.133,-0.43 1.133,-1.067 -0.001,-0.639 -0.441,-1.079 -1.133,-1.079 z"
   id="path103"
   style="fill:#106377" />
		<path
   d="m 241.103,107.14 v -7.833 h 5.159 v 1.364 h -3.63 v 1.837 h 3.091 v 1.364 h -3.091 v 1.903 h 3.63 v 1.364 h -5.159 z"
   id="path105"
   style="fill:#106377" />
		<path
   d="m 251.674,107.206 c -1.188,0 -2.091,-0.254 -2.86,-1.034 l 0.99,-0.99 c 0.495,0.495 1.166,0.66 1.892,0.66 0.902,0 1.387,-0.342 1.387,-0.969 0,-0.274 -0.077,-0.506 -0.242,-0.66 -0.154,-0.143 -0.33,-0.22 -0.693,-0.274 l -0.946,-0.132 c -0.671,-0.1 -1.166,-0.309 -1.518,-0.649 -0.374,-0.374 -0.562,-0.88 -0.562,-1.54 0,-1.397 1.034,-2.377 2.729,-2.377 1.078,0 1.859,0.265 2.53,0.913 l -0.968,0.957 c -0.495,-0.473 -1.089,-0.539 -1.606,-0.539 -0.814,0 -1.21,0.451 -1.21,0.99 0,0.198 0.065,0.407 0.23,0.562 0.154,0.143 0.407,0.264 0.727,0.308 l 0.924,0.132 c 0.716,0.1 1.166,0.298 1.496,0.605 0.418,0.396 0.605,0.968 0.605,1.661 -0.001,1.518 -1.266,2.376 -2.905,2.376 z"
   id="path107"
   style="fill:#106377" />
		<path
   d="m 257.514,103.895 v -1.332 h 3.389 v 1.332 h -3.389 z"
   id="path109"
   style="fill:#106377" />
		<path
   d="m 268.68,107.14 -0.462,-1.386 h -2.783 l -0.473,1.386 h -1.596 l 2.85,-7.833 h 1.199 l 2.86,7.833 h -1.595 z m -1.826,-5.523 -0.99,2.849 h 1.947 l -0.957,-2.849 z"
   id="path111"
   style="fill:#106377" />
		<path
   d="m 273.002,107.14 v -7.833 h 1.529 v 6.469 h 3.554 v 1.364 h -5.083 z"
   id="path113"
   style="fill:#106377" />
		<path
   d="m 283.244,107.206 c -1.188,0 -2.091,-0.254 -2.86,-1.034 l 0.99,-0.99 c 0.495,0.495 1.166,0.66 1.892,0.66 0.902,0 1.387,-0.342 1.387,-0.969 0,-0.274 -0.077,-0.506 -0.242,-0.66 -0.154,-0.143 -0.33,-0.22 -0.693,-0.274 l -0.946,-0.132 c -0.671,-0.1 -1.166,-0.309 -1.518,-0.649 -0.374,-0.374 -0.562,-0.88 -0.562,-1.54 0,-1.397 1.034,-2.377 2.729,-2.377 1.078,0 1.859,0.265 2.53,0.913 l -0.968,0.957 c -0.495,-0.473 -1.089,-0.539 -1.606,-0.539 -0.814,0 -1.21,0.451 -1.21,0.99 0,0.198 0.065,0.407 0.23,0.562 0.154,0.143 0.407,0.264 0.727,0.308 l 0.924,0.132 c 0.716,0.1 1.166,0.298 1.496,0.605 0.418,0.396 0.605,0.968 0.605,1.661 0,1.518 -1.266,2.376 -2.905,2.376 z"
   id="path115"
   style="fill:#106377" />
		<path
   d="m 293.804,107.14 -0.462,-1.386 h -2.783 l -0.473,1.386 h -1.596 l 2.85,-7.833 h 1.199 l 2.86,7.833 h -1.595 z m -1.826,-5.523 -0.99,2.849 h 1.947 l -0.957,-2.849 z"
   id="path117"
   style="fill:#106377" />
		<path
   d="m 300.636,107.206 c -0.837,0 -1.541,-0.286 -2.112,-0.858 -0.342,-0.341 -0.551,-0.737 -0.639,-1.178 -0.088,-0.439 -0.132,-1.089 -0.132,-1.947 0,-0.857 0.044,-1.507 0.132,-1.947 0.088,-0.45 0.297,-0.836 0.639,-1.177 0.571,-0.572 1.275,-0.858 2.112,-0.858 1.507,0 2.618,0.881 2.882,2.476 h -1.551 c -0.165,-0.671 -0.583,-1.111 -1.32,-1.111 -0.418,0 -0.748,0.132 -0.979,0.407 -0.319,0.341 -0.385,0.693 -0.385,2.211 0,1.519 0.065,1.871 0.385,2.212 0.231,0.274 0.562,0.407 0.979,0.407 0.737,0 1.155,-0.44 1.32,-1.111 h 1.551 c -0.264,1.593 -1.386,2.474 -2.882,2.474 z"
   id="path119"
   style="fill:#106377" />
		<path
   d="m 306.597,107.14 v -7.833 h 5.159 v 1.364 h -3.63 v 1.837 h 3.091 v 1.364 h -3.091 v 1.903 h 3.63 v 1.364 h -5.159 z"
   id="path121"
   style="fill:#106377" />
	</g>
	<path
   d="m 119.777,346.227 h -1.891 v 3.698 h -1.918 v -9.826 h 3.809 c 2.028,0 3.243,1.394 3.243,3.064 0,1.67 -1.214,3.064 -3.243,3.064 z m -0.096,-4.417 h -1.794 v 2.691 h 1.794 c 0.869,0 1.421,-0.538 1.421,-1.339 0,-0.8 -0.552,-1.352 -1.421,-1.352 z"
   id="path123"
   style="fill:#d33c3d" />
	<path
   d="m 133.068,348.931 c -0.69,0.69 -1.532,1.077 -2.65,1.077 -1.118,0 -1.974,-0.387 -2.664,-1.077 -0.993,-0.993 -0.966,-2.222 -0.966,-3.919 0,-1.698 -0.028,-2.926 0.966,-3.919 0.69,-0.69 1.546,-1.076 2.664,-1.076 1.118,0 1.959,0.386 2.65,1.076 0.994,0.994 0.98,2.222 0.98,3.919 0,1.697 0.014,2.926 -0.98,3.919 z m -1.421,-6.679 c -0.276,-0.317 -0.704,-0.524 -1.228,-0.524 -0.524,0 -0.966,0.207 -1.242,0.524 -0.372,0.414 -0.469,0.87 -0.469,2.76 0,1.89 0.096,2.346 0.469,2.76 0.276,0.318 0.718,0.525 1.242,0.525 0.524,0 0.952,-0.207 1.228,-0.525 0.372,-0.414 0.483,-0.869 0.483,-2.76 0,-1.891 -0.111,-2.346 -0.483,-2.76 z"
   id="path125"
   style="fill:#d33c3d" />
	<path
   d="m 141.957,350.008 c -2.015,0 -3.615,-1.366 -3.615,-3.451 v -6.458 h 1.918 v 6.39 c 0,1.132 0.662,1.808 1.697,1.808 1.035,0 1.712,-0.677 1.712,-1.808 v -6.39 h 1.904 v 6.458 c 0,2.084 -1.6,3.451 -3.616,3.451 z"
   id="path127"
   style="fill:#d33c3d" />
	<path
   d="m 155.415,349.925 -1.918,-3.919 h -1.38 v 3.919 h -1.918 v -9.826 h 3.85 c 2.001,0 3.188,1.366 3.188,3.009 0,1.38 -0.842,2.236 -1.794,2.581 l 2.194,4.237 h -2.222 z m -1.491,-8.115 h -1.808 v 2.594 h 1.808 c 0.842,0 1.394,-0.538 1.394,-1.298 0,-0.758 -0.552,-1.296 -1.394,-1.296 z"
   id="path129"
   style="fill:#d33c3d" />
	<path
   d="m 169.672,349.925 v -7.894 l -2.001,1.739 v -1.932 l 2.001,-1.739 h 1.794 v 9.826 h -1.794 z"
   id="path131"
   style="fill:#d33c3d" />
	<path
   d="m 179.983,350.008 c -1.6,0 -2.994,-1.049 -2.994,-2.926 v -4.14 c 0,-1.877 1.394,-2.926 2.994,-2.926 1.601,0 2.981,1.048 2.981,2.926 v 4.14 c 0,1.876 -1.38,2.926 -2.981,2.926 z m 1.187,-7.038 c 0,-0.829 -0.483,-1.339 -1.187,-1.339 -0.704,0 -1.2,0.51 -1.2,1.339 v 4.098 c 0,0.828 0.497,1.325 1.2,1.325 0.703,0 1.187,-0.497 1.187,-1.325 v -4.098 z"
   id="path133"
   style="fill:#d33c3d" />
	<path
   d="m 195.65,350.008 c -1.6,0 -2.994,-1.049 -2.994,-2.926 v -4.14 c 0,-1.877 1.394,-2.926 2.994,-2.926 1.601,0 2.981,1.048 2.981,2.926 v 4.14 c 0,1.876 -1.38,2.926 -2.981,2.926 z m 1.187,-7.038 c 0,-0.829 -0.483,-1.339 -1.187,-1.339 -0.704,0 -1.2,0.51 -1.2,1.339 v 4.098 c 0,0.828 0.497,1.325 1.2,1.325 0.703,0 1.187,-0.497 1.187,-1.325 v -4.098 z"
   id="path135"
   style="fill:#d33c3d" />
	<path
   d="m 205.629,350.008 c -1.6,0 -2.994,-1.049 -2.994,-2.926 v -4.14 c 0,-1.877 1.394,-2.926 2.994,-2.926 1.601,0 2.981,1.048 2.981,2.926 v 4.14 c 0,1.876 -1.38,2.926 -2.981,2.926 z m 1.187,-7.038 c 0,-0.829 -0.483,-1.339 -1.187,-1.339 -0.704,0 -1.2,0.51 -1.2,1.339 v 4.098 c 0,0.828 0.497,1.325 1.2,1.325 0.704,0 1.187,-0.497 1.187,-1.325 v -4.098 z"
   id="path137"
   style="fill:#d33c3d" />
	<path
   d="m 215.608,350.008 c -1.6,0 -2.994,-1.049 -2.994,-2.926 v -4.14 c 0,-1.877 1.394,-2.926 2.994,-2.926 1.601,0 2.981,1.048 2.981,2.926 v 4.14 c 0,1.876 -1.38,2.926 -2.981,2.926 z m 1.187,-7.038 c 0,-0.829 -0.483,-1.339 -1.187,-1.339 -0.704,0 -1.2,0.51 -1.2,1.339 v 4.098 c 0,0.828 0.497,1.325 1.2,1.325 0.703,0 1.187,-0.497 1.187,-1.325 v -4.098 z"
   id="path139"
   style="fill:#d33c3d" />
	<path
   d="m 233.91,349.925 v -4.112 h -3.326 v 4.112 h -1.918 v -9.826 h 1.918 v 4.016 h 3.326 v -4.016 h 1.918 v 9.826 h -1.918 z"
   id="path141"
   style="fill:#d33c3d" />
	<path
   d="m 246.194,349.925 -0.58,-1.739 h -3.492 l -0.593,1.739 h -2.001 l 3.575,-9.826 h 1.504 l 3.588,9.826 h -2.001 z m -2.291,-6.928 -1.242,3.574 h 2.443 l -1.201,-3.574 z"
   id="path143"
   style="fill:#d33c3d" />
	<path
   d="m 256.008,349.925 h -4.112 v -9.826 h 3.946 c 1.918,0 3.036,1.077 3.036,2.76 0,1.09 -0.718,1.794 -1.215,2.029 0.594,0.276 1.352,0.897 1.352,2.208 0.001,1.835 -1.255,2.829 -3.007,2.829 z m -0.318,-8.115 h -1.876 v 2.263 h 1.876 c 0.814,0 1.27,-0.455 1.27,-1.132 0,-0.675 -0.456,-1.131 -1.27,-1.131 z m 0.124,3.989 h -2.001 v 2.415 h 2.001 c 0.87,0 1.283,-0.552 1.283,-1.215 0,-0.663 -0.413,-1.2 -1.283,-1.2 z"
   id="path145"
   style="fill:#d33c3d" />
	<path
   d="m 130.819,373.186 c -1.049,0 -1.932,-0.359 -2.65,-1.077 -0.428,-0.428 -0.69,-0.924 -0.8,-1.476 -0.11,-0.552 -0.165,-1.366 -0.165,-2.443 0,-1.077 0.055,-1.891 0.165,-2.443 0.111,-0.565 0.372,-1.049 0.8,-1.476 0.718,-0.718 1.601,-1.076 2.65,-1.076 1.891,0 3.285,1.104 3.616,3.105 h -1.946 c -0.207,-0.842 -0.731,-1.394 -1.656,-1.394 -0.524,0 -0.939,0.165 -1.228,0.511 -0.401,0.428 -0.483,0.869 -0.483,2.774 0,1.904 0.082,2.346 0.483,2.774 0.289,0.345 0.704,0.511 1.228,0.511 0.924,0 1.449,-0.553 1.656,-1.394 h 1.946 c -0.332,1.999 -1.739,3.104 -3.616,3.104 z"
   id="path147"
   style="fill:#218fb2" />
	<path
   d="m 143.821,373.103 v -4.112 h -3.326 v 4.112 h -1.918 v -9.826 h 1.918 v 4.016 h 3.326 v -4.016 h 1.918 v 9.826 h -1.918 z"
   id="path149"
   style="fill:#218fb2" />
	<path
   d="m 150.516,373.103 v -9.826 h 1.918 v 9.826 h -1.918 z"
   id="path151"
   style="fill:#218fb2" />
	<path
   d="m 159.128,364.988 v 2.415 h 3.878 v 1.711 h -3.878 v 3.988 h -1.918 v -9.826 h 6.472 v 1.712 h -4.554 z"
   id="path153"
   style="fill:#218fb2" />
	<path
   d="m 169.755,364.988 v 2.415 h 3.878 v 1.711 h -3.878 v 3.988 h -1.918 v -9.826 h 6.472 v 1.712 h -4.554 z"
   id="path155"
   style="fill:#218fb2" />
	<path
   d="m 183.681,373.103 -1.918,-3.919 h -1.38 v 3.919 h -1.918 v -9.826 h 3.85 c 2.001,0 3.188,1.366 3.188,3.009 0,1.38 -0.842,2.236 -1.794,2.581 l 2.194,4.237 h -2.222 z m -1.49,-8.115 h -1.808 v 2.594 h 1.808 c 0.842,0 1.394,-0.538 1.394,-1.298 0,-0.76 -0.552,-1.296 -1.394,-1.296 z"
   id="path157"
   style="fill:#218fb2" />
	<path
   d="m 189.976,373.103 v -9.826 h 6.472 v 1.712 h -4.554 v 2.304 h 3.878 v 1.711 h -3.878 v 2.388 h 4.554 v 1.711 h -6.472 z"
   id="path159"
   style="fill:#218fb2" />
	<path
   d="m 210.61,373.103 h -4.112 v -9.826 h 3.946 c 1.918,0 3.036,1.077 3.036,2.76 0,1.09 -0.718,1.794 -1.215,2.029 0.593,0.276 1.352,0.897 1.352,2.208 0.001,1.835 -1.254,2.829 -3.007,2.829 z m -0.317,-8.115 h -1.876 v 2.263 h 1.876 c 0.814,0 1.27,-0.455 1.27,-1.132 -10e-4,-0.675 -0.456,-1.131 -1.27,-1.131 z m 0.124,3.989 h -2.001 v 2.415 h 2.001 c 0.87,0 1.283,-0.552 1.283,-1.215 0,-0.662 -0.413,-1.2 -1.283,-1.2 z"
   id="path161"
   style="fill:#218fb2" />
	<path
   d="m 223.281,373.103 -1.918,-3.919 h -1.38 v 3.919 h -1.918 v -9.826 h 3.85 c 2.001,0 3.188,1.366 3.188,3.009 0,1.38 -0.842,2.236 -1.794,2.581 l 2.194,4.237 h -2.222 z m -1.491,-8.115 h -1.808 v 2.594 h 1.808 c 0.842,0 1.394,-0.538 1.394,-1.298 0,-0.76 -0.552,-1.296 -1.394,-1.296 z"
   id="path163"
   style="fill:#218fb2" />
	<path
   d="m 233.038,373.186 c -2.015,0 -3.615,-1.366 -3.615,-3.451 v -6.458 h 1.918 v 6.39 c 0,1.132 0.662,1.808 1.697,1.808 1.035,0 1.712,-0.677 1.712,-1.808 v -6.39 h 1.904 v 6.458 c 0,2.084 -1.6,3.451 -3.616,3.451 z"
   id="path165"
   style="fill:#218fb2" />
	<path
   d="m 245.033,364.988 v 8.114 h -1.918 v -8.114 h -2.567 v -1.712 h 7.052 v 1.712 h -2.567 z"
   id="path167"
   style="fill:#218fb2" />
	<path
   d="m 271.106,122.4 v -1.292 l 2.937,-3.412 c 0.287,-0.342 0.409,-0.585 0.409,-0.95 0,-0.585 -0.342,-0.983 -0.95,-0.983 -0.475,0 -0.961,0.243 -0.961,1.005 h -1.436 c 0,-1.436 1.049,-2.297 2.396,-2.297 1.391,0 2.385,0.872 2.385,2.285 0,0.762 -0.298,1.171 -0.84,1.8 l -2.198,2.551 h 3.037 v 1.292 h -4.779 z"
   id="path169"
   style="fill:#d33c3d" />
	<path
   d="m 281.421,122.466 c -1.391,0 -2.451,-0.873 -2.451,-2.43 0,-0.718 0.309,-1.381 0.662,-2.098 l 1.656,-3.402 h 1.568 l -1.634,3.247 c 0.188,-0.078 0.398,-0.099 0.585,-0.099 1.06,0 2.065,0.872 2.065,2.33 10e-4,1.547 -1.059,2.452 -2.451,2.452 z m 0,-3.589 c -0.585,0 -1.016,0.42 -1.016,1.149 0,0.728 0.43,1.148 1.016,1.148 0.586,0 1.016,-0.42 1.016,-1.148 10e-4,-0.696 -0.408,-1.149 -1.016,-1.149 z"
   id="path171"
   style="fill:#d33c3d" />
	<path
   d="m 289.164,122.4 v -6.317 l -1.601,1.391 v -1.546 l 1.601,-1.391 h 1.436 v 7.863 h -1.436 z"
   id="path173"
   style="fill:#d33c3d" />
	<path
   d="m 301.077,122.466 c -1.281,0 -2.485,-0.674 -2.507,-2.319 h 1.436 c 0.022,0.707 0.508,1.027 1.071,1.027 0.618,0 1.06,-0.387 1.06,-1.093 0,-0.652 -0.397,-1.083 -1.104,-1.083 h -0.21 v -1.248 h 0.21 c 0.696,0 0.994,-0.43 0.994,-0.983 0,-0.662 -0.442,-1.005 -0.961,-1.005 -0.541,0 -0.938,0.353 -0.971,0.95 h -1.436 c 0.033,-1.403 1.082,-2.242 2.407,-2.242 1.392,0 2.397,0.928 2.397,2.253 0,0.85 -0.387,1.336 -0.905,1.612 0.563,0.298 1.016,0.84 1.016,1.789 -0.001,1.569 -1.149,2.342 -2.497,2.342 z"
   id="path175"
   style="fill:#d33c3d" />
	<g
   id="g177">
		<path
   d="m 275.916,152.422 v 1.168 h -1.445 v -1.168 h -3.364 V 151 l 2.821,-5.642 h 1.641 L 272.748,151 h 1.723 v -1.538 h 1.445 V 151 h 0.751 v 1.422 h -0.751 z"
   id="path179"
   style="fill:#218fb2" />
		<path
   d="m 282.252,153.66 c -1.457,0 -2.636,-0.867 -2.636,-2.463 0,-1.006 0.578,-1.549 1.029,-1.849 -0.416,-0.289 -0.925,-0.833 -0.925,-1.711 0,-1.457 1.156,-2.347 2.532,-2.347 1.376,0 2.52,0.89 2.52,2.347 0,0.878 -0.509,1.422 -0.925,1.711 0.45,0.3 1.041,0.844 1.041,1.849 0.001,1.595 -1.179,2.463 -2.636,2.463 z m 0,-3.631 c -0.636,0 -1.133,0.509 -1.133,1.145 0,0.636 0.497,1.133 1.133,1.133 0.636,0 1.133,-0.497 1.133,-1.133 0.001,-0.636 -0.497,-1.145 -1.133,-1.145 z m 0,-3.387 c -0.59,0 -1.029,0.45 -1.029,1.04 0,0.601 0.439,1.041 1.029,1.041 0.59,0 1.017,-0.439 1.017,-1.041 10e-4,-0.589 -0.427,-1.04 -1.017,-1.04 z"
   id="path181"
   style="fill:#218fb2" />
		<path
   d="m 292.451,152.989 c -0.37,0.37 -0.959,0.671 -1.815,0.671 -0.855,0 -1.48,-0.301 -1.838,-0.659 -0.509,-0.509 -0.624,-1.11 -0.67,-1.711 h 1.503 c 0.081,0.647 0.382,1.017 1.006,1.017 0.289,0 0.532,-0.081 0.717,-0.266 0.266,-0.266 0.324,-0.705 0.324,-1.225 0,-0.948 -0.278,-1.48 -1.006,-1.48 -0.613,0 -0.89,0.347 -0.994,0.671 h -1.376 v -4.648 h 4.694 v 1.353 h -3.33 v 1.769 c 0.22,-0.208 0.682,-0.417 1.237,-0.417 0.682,0 1.202,0.22 1.537,0.555 0.647,0.648 0.74,1.422 0.74,2.197 -0.001,0.924 -0.128,1.572 -0.729,2.173 z"
   id="path183"
   style="fill:#218fb2" />
		<path
   d="m 301.274,153.59 v -1.353 l 3.075,-3.572 c 0.301,-0.358 0.428,-0.613 0.428,-0.994 0,-0.613 -0.358,-1.029 -0.994,-1.029 -0.497,0 -1.006,0.254 -1.006,1.052 h -1.503 c 0,-1.503 1.098,-2.405 2.509,-2.405 1.457,0 2.497,0.913 2.497,2.393 0,0.798 -0.312,1.225 -0.878,1.885 l -2.301,2.671 h 3.18 v 1.353 h -5.007 z"
   id="path185"
   style="fill:#218fb2" />
		<path
   d="m 312.073,153.66 c -1.457,0 -2.566,-0.913 -2.566,-2.544 0,-0.751 0.323,-1.445 0.694,-2.197 l 1.734,-3.561 h 1.641 l -1.711,3.399 c 0.197,-0.081 0.416,-0.104 0.613,-0.104 1.11,0 2.162,0.913 2.162,2.439 0,1.62 -1.11,2.568 -2.567,2.568 z m 0,-3.758 c -0.613,0 -1.063,0.44 -1.063,1.203 0,0.762 0.451,1.202 1.063,1.202 0.613,0 1.064,-0.44 1.064,-1.202 0,-0.729 -0.428,-1.203 -1.064,-1.203 z"
   id="path187"
   style="fill:#218fb2" />
		<path
   d="m 317.994,153.59 v -1.353 l 3.075,-3.572 c 0.301,-0.358 0.428,-0.613 0.428,-0.994 0,-0.613 -0.358,-1.029 -0.994,-1.029 -0.497,0 -1.006,0.254 -1.006,1.052 h -1.503 c 0,-1.503 1.098,-2.405 2.509,-2.405 1.457,0 2.497,0.913 2.497,2.393 0,0.798 -0.312,1.225 -0.878,1.885 l -2.301,2.671 H 323 v 1.353 h -5.006 z"
   id="path189"
   style="fill:#218fb2" />
	</g>
	<g
   id="g191">
		<path
   d="m 179.752,31.373 v -1.382 l 3.142,-3.651 c 0.307,-0.366 0.437,-0.626 0.437,-1.016 0,-0.626 -0.366,-1.051 -1.016,-1.051 -0.508,0 -1.028,0.26 -1.028,1.075 h -1.536 c 0,-1.536 1.122,-2.457 2.564,-2.457 1.489,0 2.552,0.933 2.552,2.445 0,0.816 -0.319,1.252 -0.898,1.926 l -2.351,2.729 h 3.249 v 1.382 h -5.115 z"
   id="path193"
   style="fill:#d33c3d" />
		<path
   d="m 193.048,27.632 -1.799,3.67 h -1.68 l 1.763,-3.502 c -0.202,0.083 -0.429,0.107 -0.631,0.107 -1.143,0 -2.24,-0.941 -2.24,-2.514 0,-1.668 1.144,-2.644 2.645,-2.644 1.501,0 2.644,0.941 2.644,2.621 0,0.773 -0.321,1.488 -0.702,2.262 z m -1.942,-3.49 c -0.631,0 -1.096,0.453 -1.096,1.239 0,0.75 0.441,1.239 1.096,1.239 0.631,0 1.096,-0.453 1.096,-1.239 -0.001,-0.787 -0.465,-1.239 -1.096,-1.239 z"
   id="path195"
   style="fill:#d33c3d" />
		<path
   d="m 199.684,31.373 c -1.501,0 -2.644,-0.941 -2.644,-2.621 0,-0.774 0.333,-1.489 0.715,-2.263 l 1.787,-3.67 h 1.691 l -1.763,3.503 c 0.203,-0.084 0.429,-0.107 0.631,-0.107 1.144,0 2.228,0.941 2.228,2.513 0,1.668 -1.144,2.645 -2.645,2.645 z m 0,-3.872 c -0.631,0 -1.096,0.453 -1.096,1.24 0,0.786 0.464,1.239 1.096,1.239 0.632,0 1.096,-0.453 1.096,-1.239 0.001,-0.752 -0.44,-1.24 -1.096,-1.24 z"
   id="path197"
   style="fill:#d33c3d" />
		<path
   d="m 212.583,31.301 v -6.814 l -1.727,1.501 V 24.32 l 1.727,-1.501 h 1.549 v 8.482 h -1.549 z"
   id="path199"
   style="fill:#d33c3d" />
	</g>
	<g
   id="g201">
		<path
   d="m 183.736,43.632 -1.799,3.67 h -1.68 L 182.02,43.8 c -0.202,0.083 -0.429,0.107 -0.631,0.107 -1.143,0 -2.24,-0.941 -2.24,-2.514 0,-1.668 1.144,-2.644 2.645,-2.644 1.501,0 2.644,0.941 2.644,2.621 0,0.773 -0.321,1.488 -0.702,2.262 z m -1.942,-3.49 c -0.631,0 -1.096,0.453 -1.096,1.239 0,0.75 0.441,1.239 1.096,1.239 0.631,0 1.096,-0.453 1.096,-1.239 0,-0.786 -0.465,-1.239 -1.096,-1.239 z"
   id="path203"
   style="fill:#218fb2" />
		<path
   d="m 192.291,46.681 c -0.381,0.382 -0.988,0.691 -1.87,0.691 -0.881,0 -1.525,-0.31 -1.894,-0.679 -0.524,-0.524 -0.643,-1.144 -0.691,-1.763 h 1.549 c 0.083,0.667 0.393,1.048 1.036,1.048 0.298,0 0.548,-0.083 0.739,-0.274 0.274,-0.274 0.334,-0.726 0.334,-1.263 0,-0.977 -0.286,-1.525 -1.036,-1.525 -0.632,0 -0.917,0.358 -1.025,0.691 h -1.418 v -4.79 h 4.837 v 1.394 h -3.431 v 1.823 c 0.227,-0.214 0.703,-0.429 1.275,-0.429 0.702,0 1.239,0.227 1.584,0.572 0.667,0.668 0.762,1.465 0.762,2.263 -0.001,0.955 -0.132,1.622 -0.751,2.241 z"
   id="path205"
   style="fill:#218fb2" />
		<path
   d="m 200.965,43.632 -1.799,3.67 h -1.68 l 1.763,-3.502 c -0.202,0.083 -0.429,0.107 -0.631,0.107 -1.143,0 -2.24,-0.941 -2.24,-2.514 0,-1.668 1.144,-2.644 2.645,-2.644 1.501,0 2.644,0.941 2.644,2.621 0.001,0.773 -0.321,1.488 -0.702,2.262 z m -1.942,-3.49 c -0.631,0 -1.096,0.453 -1.096,1.239 0,0.75 0.441,1.239 1.096,1.239 0.631,0 1.096,-0.453 1.096,-1.239 0,-0.786 -0.464,-1.239 -1.096,-1.239 z"
   id="path207"
   style="fill:#218fb2" />
		<path
   d="m 212.5,47.373 c -1.382,0 -2.681,-0.727 -2.704,-2.502 h 1.549 c 0.024,0.762 0.548,1.108 1.156,1.108 0.667,0 1.143,-0.417 1.143,-1.18 0,-0.703 -0.429,-1.168 -1.191,-1.168 h -0.227 v -1.346 h 0.227 c 0.751,0 1.072,-0.464 1.072,-1.06 0,-0.715 -0.476,-1.084 -1.037,-1.084 -0.584,0 -1.012,0.381 -1.048,1.025 h -1.549 c 0.036,-1.513 1.167,-2.418 2.597,-2.418 1.502,0 2.586,1.001 2.586,2.43 0,0.917 -0.417,1.442 -0.977,1.739 0.608,0.322 1.096,0.906 1.096,1.93 -0.001,1.692 -1.24,2.526 -2.693,2.526 z"
   id="path209"
   style="fill:#218fb2" />
		<path
   d="m 221.15,47.301 h -1.68 l 2.752,-7.089 h -2.24 v 1.334 h -1.477 v -2.728 h 5.397 v 1.394 l -2.752,7.089 z"
   id="path211"
   style="fill:#218fb2" />
		<path
   d="m 229.741,47.373 c -1.501,0 -2.644,-0.941 -2.644,-2.621 0,-0.774 0.333,-1.489 0.715,-2.263 l 1.787,-3.67 h 1.691 l -1.763,3.503 c 0.203,-0.084 0.429,-0.107 0.631,-0.107 1.144,0 2.228,0.941 2.228,2.513 0,1.668 -1.144,2.645 -2.645,2.645 z m 0,-3.872 c -0.631,0 -1.096,0.453 -1.096,1.24 0,0.786 0.464,1.239 1.096,1.239 0.632,0 1.096,-0.453 1.096,-1.239 0,-0.752 -0.441,-1.24 -1.096,-1.24 z"
   id="path213"
   style="fill:#218fb2" />
	</g>
	<g
   id="g215">
		<path
   d="m 90.421,85.685 v -1.293 l 2.94,-3.416 c 0.288,-0.343 0.409,-0.586 0.409,-0.951 0,-0.586 -0.343,-0.984 -0.951,-0.984 -0.475,0 -0.961,0.243 -0.961,1.006 h -1.437 c 0,-1.437 1.05,-2.299 2.399,-2.299 1.393,0 2.388,0.873 2.388,2.288 0,0.763 -0.298,1.172 -0.84,1.802 l -2.2,2.554 h 3.04 v 1.293 h -4.787 z"
   id="path217"
   style="fill:#d33c3d" />
		<path
   d="M 100.769,85.685 H 99.21 l 2.554,-6.578 h -2.078 v 1.238 h -1.371 v -2.532 h 5.007 v 1.293 l -2.553,6.579 z"
   id="path219"
   style="fill:#d33c3d" />
		<path
   d="m 108.763,85.751 c -1.393,0 -2.52,-0.829 -2.52,-2.355 0,-0.961 0.553,-1.481 0.984,-1.768 -0.398,-0.277 -0.884,-0.796 -0.884,-1.636 0,-1.393 1.105,-2.244 2.421,-2.244 1.316,0 2.41,0.851 2.41,2.244 0,0.84 -0.486,1.359 -0.884,1.636 0.431,0.287 0.995,0.807 0.995,1.768 -10e-4,1.526 -1.129,2.355 -2.522,2.355 z m 0,-3.471 c -0.608,0 -1.083,0.486 -1.083,1.094 0,0.608 0.475,1.084 1.083,1.084 0.608,0 1.084,-0.476 1.084,-1.084 0,-0.608 -0.476,-1.094 -1.084,-1.094 z m 0,-3.239 c -0.564,0 -0.984,0.431 -0.984,0.994 0,0.575 0.42,0.995 0.984,0.995 0.564,0 0.973,-0.42 0.973,-0.995 0,-0.563 -0.409,-0.994 -0.973,-0.994 z"
   id="path221"
   style="fill:#d33c3d" />
		<path
   d="m 121.405,85.685 v -6.323 l -1.602,1.393 v -1.548 l 1.602,-1.393 h 1.437 v 7.871 h -1.437 z"
   id="path223"
   style="fill:#d33c3d" />
		<g
   id="g225">
			<path
   d="m 92.399,100.967 v -6.323 l -1.602,1.393 v -1.548 l 1.602,-1.393 h 1.437 v 7.871 h -1.437 z"
   id="path227"
   style="fill:#218fb2" />
			<path
   d="m 105.213,101.034 c -1.282,0 -2.399,-0.84 -2.399,-2.343 v -3.316 c 0,-1.504 1.117,-2.343 2.399,-2.343 1.283,0 2.388,0.84 2.388,2.343 v 3.316 c 0,1.502 -1.106,2.343 -2.388,2.343 z m 0.951,-5.638 c 0,-0.664 -0.387,-1.072 -0.951,-1.072 -0.564,0 -0.961,0.409 -0.961,1.072 v 3.283 c 0,0.663 0.398,1.062 0.961,1.062 0.564,0 0.951,-0.398 0.951,-1.062 v -3.283 z"
   id="path229"
   style="fill:#218fb2" />
			<path
   d="m 113.207,101.034 c -1.282,0 -2.399,-0.84 -2.399,-2.343 v -3.316 c 0,-1.504 1.117,-2.343 2.399,-2.343 1.283,0 2.388,0.84 2.388,2.343 v 3.316 c -0.001,1.502 -1.106,2.343 -2.388,2.343 z m 0.95,-5.638 c 0,-0.664 -0.387,-1.072 -0.951,-1.072 -0.564,0 -0.961,0.409 -0.961,1.072 v 3.283 c 0,0.663 0.398,1.062 0.961,1.062 0.564,0 0.951,-0.398 0.951,-1.062 v -3.283 z"
   id="path231"
   style="fill:#218fb2" />
			<path
   d="m 123.013,97.562 -1.67,3.405 h -1.559 l 1.636,-3.25 c -0.188,0.077 -0.398,0.099 -0.586,0.099 -1.061,0 -2.078,-0.873 -2.078,-2.333 0,-1.547 1.062,-2.454 2.454,-2.454 1.392,0 2.454,0.873 2.454,2.432 0.001,0.72 -0.297,1.383 -0.651,2.101 z m -1.801,-3.238 c -0.586,0 -1.017,0.42 -1.017,1.15 0,0.696 0.409,1.15 1.017,1.15 0.586,0 1.017,-0.42 1.017,-1.15 -0.001,-0.73 -0.432,-1.15 -1.017,-1.15 z"
   id="path233"
   style="fill:#218fb2" />
			<path
   d="m 133.727,101.034 c -1.393,0 -2.454,-0.873 -2.454,-2.432 0,-0.718 0.309,-1.382 0.663,-2.1 l 1.658,-3.405 h 1.57 l -1.636,3.25 c 0.188,-0.078 0.398,-0.099 0.586,-0.099 1.062,0 2.067,0.873 2.067,2.332 0,1.548 -1.061,2.454 -2.454,2.454 z m 0,-3.593 c -0.586,0 -1.017,0.421 -1.017,1.15 0,0.729 0.431,1.15 1.017,1.15 0.586,0 1.017,-0.421 1.017,-1.15 0,-0.697 -0.409,-1.15 -1.017,-1.15 z"
   id="path235"
   style="fill:#218fb2" />
			<path
   d="m 141.71,101.034 c -1.283,0 -2.487,-0.675 -2.509,-2.321 h 1.437 c 0.022,0.707 0.509,1.028 1.072,1.028 0.619,0 1.061,-0.387 1.061,-1.094 0,-0.652 -0.398,-1.084 -1.105,-1.084 h -0.21 v -1.249 h 0.21 c 0.697,0 0.995,-0.431 0.995,-0.984 0,-0.663 -0.442,-1.006 -0.962,-1.006 -0.542,0 -0.939,0.353 -0.972,0.951 h -1.437 c 0.033,-1.404 1.083,-2.244 2.409,-2.244 1.393,0 2.399,0.929 2.399,2.255 0,0.851 -0.387,1.338 -0.906,1.614 0.564,0.298 1.017,0.84 1.017,1.791 -0.001,1.569 -1.15,2.343 -2.499,2.343 z"
   id="path237"
   style="fill:#218fb2" />
			<path
   d="m 149.471,100.967 v -6.323 l -1.602,1.393 v -1.548 l 1.602,-1.393 h 1.437 v 7.871 h -1.437 z"
   id="path239"
   style="fill:#218fb2" />
		</g>
	</g>
	<path
   d="m 345.473,150.648 -0.317,-0.948 h -1.904 l -0.323,0.948 h -1.092 l 1.949,-5.358 h 0.82 l 1.957,5.358 h -1.09 z m -1.249,-3.778 -0.677,1.949 h 1.332 l -0.655,-1.949 z"
   id="path241"
   style="fill:#218fb2" />
	<path
   d="m 348.58,150.648 v -5.358 h 1.046 v 4.425 h 2.431 v 0.933 h -3.477 z"
   id="path243"
   style="fill:#218fb2" />
	<g
   id="g245">
		<g
   id="g247">
			<path
   d="m 272.782,138.09 v -6.613 l -1.676,1.457 v -1.619 l 1.676,-1.457 h 1.503 v 8.232 h -1.503 z"
   id="path249"
   style="fill:#218fb2" />
			<path
   d="m 281.396,138.16 c -1.457,0 -2.566,-0.913 -2.566,-2.544 0,-0.751 0.323,-1.445 0.694,-2.197 l 1.734,-3.561 h 1.641 l -1.711,3.399 c 0.197,-0.081 0.417,-0.104 0.613,-0.104 1.11,0 2.162,0.913 2.162,2.439 0,1.62 -1.11,2.568 -2.567,2.568 z m 0,-3.758 c -0.613,0 -1.063,0.44 -1.063,1.203 0,0.762 0.45,1.202 1.063,1.202 0.613,0 1.064,-0.44 1.064,-1.202 0,-0.729 -0.428,-1.203 -1.064,-1.203 z"
   id="path251"
   style="fill:#218fb2" />
			<path
   d="m 291.618,137.489 c -0.37,0.37 -0.959,0.671 -1.815,0.671 -0.855,0 -1.48,-0.301 -1.838,-0.659 -0.509,-0.509 -0.624,-1.11 -0.67,-1.711 h 1.503 c 0.081,0.647 0.382,1.017 1.006,1.017 0.289,0 0.532,-0.081 0.717,-0.266 0.266,-0.266 0.324,-0.705 0.324,-1.225 0,-0.948 -0.278,-1.48 -1.006,-1.48 -0.613,0 -0.89,0.347 -0.994,0.671 h -1.376 v -4.648 h 4.694 v 1.353 h -3.33 v 1.769 c 0.22,-0.208 0.682,-0.417 1.237,-0.417 0.682,0 1.202,0.22 1.537,0.555 0.647,0.648 0.74,1.422 0.74,2.197 0,0.925 -0.128,1.572 -0.729,2.173 z"
   id="path253"
   style="fill:#218fb2" />
			<path
   d="m 298.117,138.16 c -1.457,0 -2.566,-0.913 -2.566,-2.544 0,-0.751 0.323,-1.445 0.694,-2.197 l 1.734,-3.561 h 1.641 l -1.711,3.399 c 0.197,-0.081 0.417,-0.104 0.613,-0.104 1.11,0 2.162,0.913 2.162,2.439 -0.001,1.62 -1.111,2.568 -2.567,2.568 z m 0,-3.758 c -0.613,0 -1.063,0.44 -1.063,1.203 0,0.762 0.451,1.202 1.063,1.202 0.612,0 1.064,-0.44 1.064,-1.202 -10e-4,-0.729 -0.428,-1.203 -1.064,-1.203 z"
   id="path255"
   style="fill:#218fb2" />
			<path
   d="m 308.802,138.09 v -1.353 l 3.075,-3.572 c 0.301,-0.358 0.428,-0.613 0.428,-0.994 0,-0.613 -0.358,-1.029 -0.994,-1.029 -0.497,0 -1.006,0.254 -1.006,1.052 h -1.503 c 0,-1.503 1.098,-2.405 2.509,-2.405 1.457,0 2.497,0.913 2.497,2.393 0,0.798 -0.312,1.225 -0.879,1.885 l -2.301,2.671 h 3.18 v 1.353 h -5.006 z"
   id="path257"
   style="fill:#218fb2" />
			<path
   d="m 319.346,138.09 v -6.613 l -1.676,1.457 v -1.619 l 1.676,-1.457 h 1.503 v 8.232 h -1.503 z"
   id="path259"
   style="fill:#218fb2" />
			<path
   d="m 327.95,138.16 c -1.341,0 -2.601,-0.705 -2.624,-2.428 h 1.503 c 0.023,0.74 0.532,1.075 1.121,1.075 0.647,0 1.11,-0.405 1.11,-1.145 0,-0.682 -0.416,-1.133 -1.156,-1.133 h -0.22 v -1.306 h 0.22 c 0.729,0 1.041,-0.45 1.041,-1.029 0,-0.694 -0.462,-1.052 -1.006,-1.052 -0.566,0 -0.982,0.37 -1.017,0.994 h -1.503 c 0.034,-1.469 1.133,-2.347 2.52,-2.347 1.457,0 2.509,0.971 2.509,2.358 0,0.89 -0.405,1.399 -0.948,1.688 0.59,0.312 1.063,0.879 1.063,1.873 0,1.642 -1.203,2.452 -2.613,2.452 z"
   id="path261"
   style="fill:#218fb2" />
		</g>
		<path
   d="m 344.667,137.917 -1.045,-2.137 h -0.753 v 2.137 h -1.046 v -5.358 h 2.1 c 1.092,0 1.739,0.745 1.739,1.641 0,0.752 -0.46,1.219 -0.979,1.407 l 1.196,2.311 h -1.212 z m -0.813,-4.425 h -0.986 v 1.415 h 0.986 c 0.459,0 0.76,-0.294 0.76,-0.707 0.001,-0.415 -0.301,-0.708 -0.76,-0.708 z"
   id="path263"
   style="fill:#218fb2" />
		<path
   d="m 351.964,137.917 v -2.243 h -1.814 v 2.243 h -1.046 v -5.358 h 1.046 v 2.19 h 1.814 v -2.19 h 1.046 v 5.358 h -1.046 z"
   id="path265"
   style="fill:#218fb2" />
		
			<line
   stroke-miterlimit="10"
   x1="346.25101"
   y1="135.908"
   x2="348.33401"
   y2="135.908"
   id="line267"
   style="fill:none;stroke:#218fb2;stroke-width:0.5;stroke-miterlimit:10" />
	</g>
</g>
</svg>