<?xml version="1.0" encoding="utf-8"?>
<!-- Generator: Adobe Illustrator 17.0.0, SVG Export Plug-In . SVG Version: 6.00 Build 0)  -->
<!DOCTYPE svg PUBLIC "-//W3C//DTD SVG 1.1//EN" "http://www.w3.org/Graphics/SVG/1.1/DTD/svg11.dtd">
<svg version="1.1" id="Calque_2_1_" xmlns="http://www.w3.org/2000/svg" xmlns:xlink="http://www.w3.org/1999/xlink" x="0px"
	 y="0px" width="385.333px" height="381px" viewBox="0 0 385.333 381" enable-background="new 0 0 385.333 381"
	 xml:space="preserve">
<g>
	<path fill="#218FB2" d="M283.853,292.583L42.51,217.114l-7.075-62.76c0,0-0.655-2.358,3.276-3.014l57.65-11.137l-0.917-15.33
		c0,0-0.262-2.751,3.8-3.145l54.636-7.73l75.6,4.455c0,0,3.276-0.262,3.538,4.455l-1.834,52.016c0,0,1.441,1.703,2.62,1.703
		l89.75,14.281c0,0,2.096-0.393,1.965,4.717l-5.372,51.754L283.853,292.583z"/>
	<path fill="#D7D6D1" d="M132.403,178.009l0.214-29.654c0,0-1.508,1.418-2.885,1.937c-1.837,0.705-3.96,0.994-3.96,0.994
		l0.036-5.007c0,0,2.999-0.526,5.049-2.026c1.758-1.293,3.482-3.892,3.482-3.892l3.368,0.384l-0.273,37.837L132.403,178.009z"/>
	<g>
		<path fill="#D7D6D1" d="M232.215,263.16c-3.578-0.239-7.056-1.462-9.987-4.036l2.452-4.047c2.645,2.208,5.061,3.113,7.831,3.298
			c3.77,0.252,6.628-2.233,6.869-6.131c0.235-3.799-1.468-6.242-6.084-6.55l-2.924-0.195l0.302-4.885l2.962,0.198
			c3.385,0.226,5.56-2.453,5.795-6.253c0.309-4.984-2.755-6.03-5.179-6.192c-1.846-0.123-4.755,1.317-6.151,3.899l-2.657-3.249
			c2.698-4.279,6.078-5.837,9.925-5.58c7.001,0.468,8.952,6.395,8.671,10.935c-0.324,5.231-2.955,8.424-4.779,8.55
			c2.097,0.438,5.086,3.957,4.737,9.582C243.566,259.509,239.294,263.633,232.215,263.16z"/>
	</g>
	<g>
		<path fill="#D7D6D1" d="M53.39,201.104l10.894-9.079c0.908-0.841,4.874-3.934,5.071-6.941c0.238-3.643-1.965-5.266-4.619-5.964
			c-3.422-0.9-5.349,0.86-5.518,3.442l-0.079,1.203l-3.876-1.019l0.083-1.273c0.289-4.421,4.07-7.384,9.552-5.943
			c4.959,1.304,9.12,4.486,8.732,10.427c-0.277,4.244-4.316,7.355-4.991,7.897l-6.796,5.624l11.698,3.077l-0.247,3.785
			L53.39,201.104z"/>
	</g>
	<path fill="#106377" d="M182.442,200.213c0,0,105.735,23.584,106.521,23.191l35.376-32.232l-90.537-14.544L182.442,200.213z"/>
	<path fill="#106377" d="M180.28,196.478l51.295-22.208l1.572-53.064c0,0-0.393-2.555-1.965-2.162c0,0-51.295,15.133-50.706,15.133
		S180.28,196.478,180.28,196.478z"/>
	<polygon fill="#106377" points="37.924,152.127 97.67,163.657 96.36,140.204 	"/>
	<line fill="#FFFFFF" stroke="#106377" stroke-miterlimit="10" x1="173.597" y1="108.971" x2="173.597" y2="13.371"/>
	
		<line fill="#FFFFFF" stroke="#106377" stroke-miterlimit="10" stroke-dasharray="3" x1="83.693" y1="135.098" x2="83.693" y2="66.813"/>
	<g>
		<line fill="#FFFFFF" x1="263.954" y1="175.862" x2="263.954" y2="103.818"/>
		<g>
			<line fill="none" stroke="#106377" stroke-miterlimit="10" x1="263.954" y1="175.862" x2="263.954" y2="174.362"/>
			
				<line fill="none" stroke="#106377" stroke-miterlimit="10" stroke-dasharray="3.0019,3.0019" x1="263.954" y1="171.36" x2="263.954" y2="106.819"/>
			<line fill="none" stroke="#106377" stroke-miterlimit="10" x1="263.954" y1="105.318" x2="263.954" y2="103.818"/>
		</g>
	</g>
	<g>
		<path fill="#106377" d="M28.937,59.977h-1.507v2.948H25.9v-7.833h3.037c1.617,0,2.585,1.111,2.585,2.442
			S30.554,59.977,28.937,59.977z M28.859,56.456h-1.43v2.146h1.43c0.693,0,1.133-0.43,1.133-1.067
			C29.993,56.896,29.552,56.456,28.859,56.456z"/>
		<path fill="#106377" d="M38.473,62.925l-0.462-1.386h-2.783l-0.473,1.386H33.16l2.849-7.833h1.199l2.86,7.833H38.473z
			 M36.647,57.402l-0.99,2.849h1.947L36.647,57.402z"/>
		<path fill="#106377" d="M45.404,59.712v3.213h-1.519v-3.213l-2.354-4.62h1.661l1.463,3.157l1.441-3.157h1.661L45.404,59.712z"/>
		<path fill="#106377" d="M52.619,62.991c-1.188,0-2.09-0.254-2.86-1.034l0.99-0.99c0.495,0.495,1.166,0.66,1.892,0.66
			c0.902,0,1.386-0.342,1.386-0.969c0-0.274-0.077-0.506-0.242-0.66c-0.154-0.143-0.33-0.22-0.693-0.274l-0.946-0.132
			c-0.671-0.1-1.166-0.309-1.518-0.649c-0.374-0.374-0.561-0.88-0.561-1.54c0-1.397,1.034-2.377,2.729-2.377
			c1.078,0,1.859,0.265,2.53,0.913l-0.968,0.957c-0.495-0.473-1.089-0.539-1.606-0.539c-0.814,0-1.21,0.451-1.21,0.99
			c0,0.198,0.066,0.407,0.231,0.562c0.154,0.143,0.407,0.264,0.726,0.308l0.924,0.132c0.715,0.1,1.166,0.298,1.496,0.605
			c0.418,0.396,0.605,0.968,0.605,1.661C55.523,62.133,54.258,62.991,52.619,62.991z"/>
		<path fill="#106377" d="M67.931,62.177c-0.517,0.517-1.254,0.748-2.068,0.748h-2.828v-7.833h2.828c0.814,0,1.551,0.23,2.068,0.748
			c0.88,0.88,0.792,1.958,0.792,3.136C68.724,60.152,68.812,61.297,67.931,62.177z M66.864,56.939
			c-0.264-0.318-0.616-0.483-1.144-0.483h-1.155v5.104h1.155c0.528,0,0.88-0.165,1.144-0.484c0.286-0.352,0.33-0.913,0.33-2.101
			C67.194,57.787,67.15,57.292,66.864,56.939z"/>
		<path fill="#106377" d="M72.045,62.925v-7.833h5.16v1.364h-3.63v1.837h3.091v1.364h-3.091v1.903h3.63v1.364H72.045z"/>
		<path fill="#106377" d="M84.771,62.925v-7.833h1.529v6.469h3.554v1.364H84.771z"/>
		<path fill="#106377" d="M97.312,62.925l-0.462-1.386h-2.783l-0.473,1.386h-1.595l2.849-7.833h1.199l2.86,7.833H97.312z
			 M95.486,57.402l-0.99,2.849h1.947L95.486,57.402z"/>
		<path fill="#106377" d="M105.946,62.925v-7.833h1.529v6.469h3.554v1.364H105.946z"/>
		<path fill="#106377" d="M118.487,62.133c-0.55,0.55-1.221,0.858-2.112,0.858s-1.573-0.309-2.123-0.858
			c-0.792-0.792-0.771-1.771-0.771-3.125c0-1.353-0.022-2.332,0.771-3.124c0.55-0.55,1.232-0.858,2.123-0.858
			s1.562,0.309,2.112,0.858c0.792,0.792,0.781,1.771,0.781,3.124C119.269,60.361,119.279,61.341,118.487,62.133z M117.354,56.808
			c-0.22-0.253-0.561-0.418-0.979-0.418s-0.77,0.165-0.99,0.418c-0.297,0.33-0.374,0.693-0.374,2.2c0,1.508,0.077,1.871,0.374,2.201
			c0.22,0.253,0.572,0.418,0.99,0.418s0.759-0.165,0.979-0.418c0.297-0.33,0.385-0.693,0.385-2.201
			C117.739,57.501,117.651,57.138,117.354,56.808z"/>
		<path fill="#106377" d="M122.589,62.925v-7.833h1.529v7.833H122.589z"/>
		<path fill="#106377" d="M131.863,62.925l-1.529-3.124h-1.1v3.124h-1.529v-7.833h3.069c1.595,0,2.542,1.089,2.542,2.398
			c0,1.1-0.671,1.782-1.43,2.057l1.749,3.378H131.863z M130.675,56.456h-1.441v2.068h1.441c0.671,0,1.111-0.43,1.111-1.034
			C131.786,56.885,131.346,56.456,130.675,56.456z"/>
		<path fill="#106377" d="M136.658,62.925v-7.833h5.16v1.364h-3.63v1.837h3.091v1.364h-3.091v1.903h3.63v1.364H136.658z"/>
	</g>
	<g>
		<path fill="#106377" d="M144.078,8.186H140.8V0.353h3.146c1.529,0,2.42,0.858,2.42,2.2c0,0.869-0.572,1.431-0.968,1.617
			c0.473,0.22,1.078,0.715,1.078,1.761C146.477,7.394,145.476,8.186,144.078,8.186z M143.825,1.717h-1.496v1.804h1.496
			c0.649,0,1.012-0.362,1.012-0.901S144.475,1.717,143.825,1.717z M143.924,4.896h-1.595v1.925h1.595
			c0.693,0,1.023-0.44,1.023-0.968C144.947,5.325,144.617,4.896,143.924,4.896z"/>
		<path fill="#106377" d="M153.956,8.186l-1.529-3.124h-1.1v3.124h-1.529V0.353h3.069c1.595,0,2.542,1.089,2.542,2.398
			c0,1.1-0.671,1.782-1.43,2.057l1.749,3.378H153.956z M152.768,1.717h-1.441v2.068h1.441c0.671,0,1.111-0.43,1.111-1.034
			C153.879,2.146,153.439,1.717,152.768,1.717z"/>
		<path fill="#106377" d="M158.751,8.186V0.353h5.16v1.364h-3.63v1.837h3.091v1.364h-3.091v1.903h3.63v1.364H158.751z"/>
		<path fill="#106377" d="M170.159,1.717v6.469h-1.529V1.717h-2.046V0.353h5.622v1.364H170.159z"/>
		<path fill="#106377" d="M179.002,8.186L178.541,6.8h-2.783l-0.473,1.386h-1.595l2.849-7.833h1.199l2.86,7.833H179.002z
			 M177.176,2.663l-0.99,2.849h1.947L177.176,2.663z"/>
		<path fill="#106377" d="M188.044,7.36c-0.605,0.616-1.331,0.892-2.211,0.892c-0.836,0-1.541-0.286-2.112-0.858
			c-0.341-0.341-0.55-0.737-0.638-1.178c-0.088-0.439-0.132-1.089-0.132-1.947c0-0.857,0.044-1.507,0.132-1.947
			c0.088-0.45,0.297-0.836,0.638-1.177c0.572-0.572,1.276-0.858,2.112-0.858c1.782,0,2.739,1.145,2.948,2.509h-1.54
			c-0.188-0.759-0.649-1.145-1.408-1.145c-0.407,0-0.737,0.144-0.979,0.418c-0.286,0.363-0.374,0.649-0.374,2.2
			c0,1.541,0.066,1.849,0.374,2.212c0.231,0.274,0.561,0.407,0.979,0.407c0.451,0,0.814-0.144,1.089-0.44
			c0.231-0.264,0.352-0.616,0.352-1.045V5.105h-1.441V3.829h2.959v1.144C188.792,6.117,188.583,6.788,188.044,7.36z"/>
		<path fill="#106377" d="M196.614,8.186l-3.103-4.808v4.808h-1.529V0.353h1.364l3.103,4.797V0.353h1.529v7.833H196.614z"/>
		<path fill="#106377" d="M201.562,8.186V0.353h5.16v1.364h-3.631v1.837h3.092v1.364h-3.092v1.903h3.631v1.364H201.562z"/>
	</g>
	<g>
		<path fill="#106377" d="M247.362,86.366l-1.529-3.124h-1.101v3.124h-1.529v-7.833h3.069c1.596,0,2.542,1.089,2.542,2.398
			c0,1.1-0.671,1.782-1.431,2.057l1.749,3.378H247.362z M246.173,79.897h-1.441v2.068h1.441c0.671,0,1.111-0.43,1.111-1.034
			C247.285,80.326,246.844,79.897,246.173,79.897z"/>
		<path fill="#106377" d="M256.337,86.366v-3.278h-2.651v3.278h-1.529v-7.833h1.529v3.201h2.651v-3.201h1.529v7.833H256.337z"/>
		<path fill="#106377" d="M266.194,85.574c-0.55,0.55-1.222,0.858-2.112,0.858c-0.892,0-1.573-0.309-2.123-0.858
			c-0.793-0.792-0.771-1.771-0.771-3.125c0-1.353-0.022-2.332,0.771-3.124c0.55-0.55,1.231-0.858,2.123-0.858
			c0.891,0,1.562,0.309,2.112,0.858c0.792,0.792,0.781,1.771,0.781,3.124C266.975,83.802,266.986,84.782,266.194,85.574z
			 M264.995,77.774l-0.913-1.002l-0.913,1.002h-1.111l1.452-1.859h1.145l1.452,1.859H264.995z M265.06,80.249
			c-0.22-0.253-0.561-0.418-0.979-0.418s-0.771,0.165-0.99,0.418c-0.297,0.33-0.374,0.693-0.374,2.2
			c0,1.508,0.077,1.871,0.374,2.201c0.22,0.253,0.572,0.418,0.99,0.418s0.759-0.165,0.979-0.418c0.298-0.33,0.386-0.693,0.386-2.201
			C265.446,80.942,265.358,80.579,265.06,80.249z"/>
		<path fill="#106377" d="M274.927,86.366l-3.103-4.808v4.808h-1.529v-7.833h1.364l3.103,4.797v-4.797h1.529v7.833H274.927z"/>
		<path fill="#106377" d="M279.876,86.366v-7.833h5.16v1.364h-3.631v1.837h3.092v1.364h-3.092v1.903h3.631v1.364H279.876z"/>
		<path fill="#106377" d="M220.484,99.566l-0.462-1.386h-2.783l-0.474,1.386h-1.595l2.849-7.833h1.199l2.86,7.833H220.484z
			 M218.658,94.043l-0.99,2.849h1.947L218.658,94.043z"/>
		<path fill="#106377" d="M224.806,99.566v-7.833h1.529v6.469h3.554v1.364H224.806z"/>
		<path fill="#106377" d="M235.928,96.618h-1.508v2.948h-1.529v-7.833h3.037c1.617,0,2.585,1.111,2.585,2.442
			S237.545,96.618,235.928,96.618z M235.851,93.097h-1.431v2.146h1.431c0.692,0,1.133-0.43,1.133-1.067
			C236.984,93.537,236.543,93.097,235.851,93.097z"/>
		<path fill="#106377" d="M241.559,99.566v-7.833h5.159v1.364h-3.63v1.837h3.091v1.364h-3.091v1.903h3.63v1.364H241.559z"/>
		<path fill="#106377" d="M252.13,99.632c-1.188,0-2.091-0.254-2.86-1.034l0.99-0.99c0.495,0.495,1.166,0.66,1.892,0.66
			c0.902,0,1.387-0.342,1.387-0.969c0-0.274-0.077-0.506-0.242-0.66c-0.154-0.143-0.33-0.22-0.693-0.274l-0.946-0.132
			c-0.671-0.1-1.166-0.309-1.518-0.649c-0.374-0.374-0.562-0.88-0.562-1.54c0-1.397,1.034-2.377,2.729-2.377
			c1.078,0,1.859,0.265,2.53,0.913l-0.968,0.957c-0.495-0.473-1.089-0.539-1.606-0.539c-0.814,0-1.21,0.451-1.21,0.99
			c0,0.198,0.065,0.407,0.23,0.562c0.154,0.143,0.407,0.264,0.727,0.308l0.924,0.132c0.716,0.1,1.166,0.298,1.496,0.605
			c0.418,0.396,0.605,0.968,0.605,1.661C255.035,98.774,253.769,99.632,252.13,99.632z"/>
		<path fill="#106377" d="M257.97,96.321v-1.332h3.389v1.332H257.97z"/>
		<path fill="#106377" d="M269.136,99.566l-0.462-1.386h-2.783l-0.473,1.386h-1.596l2.85-7.833h1.199l2.86,7.833H269.136z
			 M267.31,94.043l-0.99,2.849h1.947L267.31,94.043z"/>
		<path fill="#106377" d="M273.458,99.566v-7.833h1.529v6.469h3.554v1.364H273.458z"/>
		<path fill="#106377" d="M283.701,99.632c-1.188,0-2.091-0.254-2.86-1.034l0.99-0.99c0.495,0.495,1.166,0.66,1.892,0.66
			c0.902,0,1.387-0.342,1.387-0.969c0-0.274-0.077-0.506-0.242-0.66c-0.154-0.143-0.33-0.22-0.693-0.274l-0.946-0.132
			c-0.671-0.1-1.166-0.309-1.518-0.649c-0.374-0.374-0.562-0.88-0.562-1.54c0-1.397,1.034-2.377,2.729-2.377
			c1.078,0,1.859,0.265,2.53,0.913l-0.968,0.957c-0.495-0.473-1.089-0.539-1.606-0.539c-0.814,0-1.21,0.451-1.21,0.99
			c0,0.198,0.065,0.407,0.23,0.562c0.154,0.143,0.407,0.264,0.727,0.308l0.924,0.132c0.716,0.1,1.166,0.298,1.496,0.605
			c0.418,0.396,0.605,0.968,0.605,1.661C286.605,98.774,285.339,99.632,283.701,99.632z"/>
		<path fill="#106377" d="M294.26,99.566l-0.462-1.386h-2.783l-0.473,1.386h-1.596l2.85-7.833h1.199l2.86,7.833H294.26z
			 M292.434,94.043l-0.99,2.849h1.947L292.434,94.043z"/>
		<path fill="#106377" d="M301.092,99.632c-0.837,0-1.541-0.286-2.112-0.858c-0.342-0.341-0.551-0.737-0.639-1.178
			c-0.088-0.439-0.132-1.089-0.132-1.947c0-0.857,0.044-1.507,0.132-1.947c0.088-0.45,0.297-0.836,0.639-1.177
			c0.571-0.572,1.275-0.858,2.112-0.858c1.507,0,2.618,0.881,2.882,2.476h-1.551c-0.165-0.671-0.583-1.111-1.32-1.111
			c-0.418,0-0.748,0.132-0.979,0.407c-0.319,0.341-0.385,0.693-0.385,2.211c0,1.519,0.065,1.871,0.385,2.212
			c0.231,0.274,0.562,0.407,0.979,0.407c0.737,0,1.155-0.44,1.32-1.111h1.551C303.71,98.751,302.588,99.632,301.092,99.632z"/>
		<path fill="#106377" d="M307.053,99.566v-7.833h5.159v1.364h-3.63v1.837h3.091v1.364h-3.091v1.903h3.63v1.364H307.053z"/>
	</g>
	<path fill="#D33C3D" d="M117.159,338.522h-1.979v3.871h-2.008v-10.286h3.987c2.123,0,3.394,1.459,3.394,3.207
		C120.554,337.062,119.283,338.522,117.159,338.522z M117.058,333.899h-1.878v2.817h1.878c0.91,0,1.487-0.564,1.487-1.401
		C118.546,334.477,117.968,333.899,117.058,333.899z"/>
	<path fill="#D33C3D" d="M131.072,341.352c-0.723,0.723-1.603,1.127-2.774,1.127s-2.066-0.405-2.788-1.127
		c-1.04-1.04-1.011-2.326-1.011-4.102c0-1.777-0.029-3.062,1.011-4.103c0.723-0.723,1.618-1.126,2.788-1.126
		s2.051,0.404,2.774,1.126c1.04,1.04,1.026,2.326,1.026,4.103C132.097,339.027,132.112,340.313,131.072,341.352z M129.584,334.361
		c-0.289-0.332-0.737-0.549-1.285-0.549c-0.549,0-1.011,0.217-1.3,0.549c-0.39,0.434-0.491,0.91-0.491,2.889
		s0.101,2.456,0.491,2.889c0.289,0.333,0.751,0.549,1.3,0.549c0.549,0,0.997-0.217,1.285-0.549c0.39-0.433,0.506-0.91,0.506-2.889
		S129.974,334.794,129.584,334.361z"/>
	<path fill="#D33C3D" d="M140.376,342.48c-2.109,0-3.784-1.43-3.784-3.612v-6.76h2.008v6.688c0,1.184,0.693,1.893,1.776,1.893
		s1.792-0.708,1.792-1.893v-6.688h1.993v6.76C144.161,341.049,142.486,342.48,140.376,342.48z"/>
	<path fill="#D33C3D" d="M154.463,342.393l-2.008-4.103h-1.444v4.103h-2.008v-10.286h4.03c2.095,0,3.337,1.43,3.337,3.149
		c0,1.444-0.881,2.341-1.878,2.702l2.297,4.435H154.463z M152.903,333.899h-1.892v2.716h1.892c0.881,0,1.459-0.564,1.459-1.358
		C154.362,334.462,153.785,333.899,152.903,333.899z"/>
	<path fill="#D33C3D" d="M169.388,342.393v-8.263l-2.094,1.82v-2.023l2.094-1.82h1.878v10.286H169.388z"/>
	<path fill="#D33C3D" d="M180.181,342.48c-1.675,0-3.134-1.098-3.134-3.062v-4.334c0-1.965,1.459-3.062,3.134-3.062
		c1.676,0,3.12,1.098,3.12,3.062v4.334C183.301,341.381,181.857,342.48,180.181,342.48z M181.423,335.112
		c0-0.867-0.506-1.401-1.242-1.401s-1.256,0.534-1.256,1.401v4.29c0,0.867,0.52,1.387,1.256,1.387s1.242-0.521,1.242-1.387V335.112z
		"/>
	<path fill="#D33C3D" d="M196.58,342.48c-1.675,0-3.134-1.098-3.134-3.062v-4.334c0-1.965,1.459-3.062,3.134-3.062
		c1.676,0,3.12,1.098,3.12,3.062v4.334C199.7,341.381,198.256,342.48,196.58,342.48z M197.822,335.112
		c0-0.867-0.506-1.401-1.242-1.401s-1.256,0.534-1.256,1.401v4.29c0,0.867,0.52,1.387,1.256,1.387s1.242-0.521,1.242-1.387V335.112z
		"/>
	<path fill="#D33C3D" d="M207.026,342.48c-1.675,0-3.134-1.098-3.134-3.062v-4.334c0-1.965,1.459-3.062,3.134-3.062
		c1.676,0,3.12,1.098,3.12,3.062v4.334C210.146,341.381,208.702,342.48,207.026,342.48z M208.268,335.112
		c0-0.867-0.506-1.401-1.242-1.401c-0.737,0-1.256,0.534-1.256,1.401v4.29c0,0.867,0.52,1.387,1.256,1.387
		c0.737,0,1.242-0.521,1.242-1.387V335.112z"/>
	<path fill="#D33C3D" d="M217.472,342.48c-1.675,0-3.134-1.098-3.134-3.062v-4.334c0-1.965,1.459-3.062,3.134-3.062
		c1.676,0,3.12,1.098,3.12,3.062v4.334C220.592,341.381,219.148,342.48,217.472,342.48z M218.714,335.112
		c0-0.867-0.506-1.401-1.242-1.401s-1.256,0.534-1.256,1.401v4.29c0,0.867,0.52,1.387,1.256,1.387s1.242-0.521,1.242-1.387V335.112z
		"/>
	<path fill="#D33C3D" d="M236.63,342.393v-4.305h-3.481v4.305h-2.008v-10.286h2.008v4.204h3.481v-4.204h2.008v10.286H236.63z"/>
	<path fill="#D33C3D" d="M249.488,342.393l-0.607-1.82h-3.655l-0.621,1.82h-2.095l3.742-10.286h1.574l3.756,10.286H249.488z
		 M247.09,335.141l-1.3,3.741h2.557L247.09,335.141z"/>
	<path fill="#D33C3D" d="M259.761,342.393h-4.305v-10.286h4.131c2.008,0,3.178,1.127,3.178,2.889c0,1.141-0.752,1.878-1.271,2.124
		c0.622,0.289,1.415,0.939,1.415,2.311C262.909,341.352,261.595,342.393,259.761,342.393z M259.428,333.899h-1.964v2.369h1.964
		c0.852,0,1.329-0.477,1.329-1.184C260.757,334.376,260.281,333.899,259.428,333.899z M259.558,338.074h-2.094v2.528h2.094
		c0.91,0,1.343-0.578,1.343-1.271S260.469,338.074,259.558,338.074z"/>
	<path fill="#218FB2" d="M123.089,365.658c-1.049,0-1.932-0.359-2.65-1.077c-0.428-0.428-0.69-0.924-0.8-1.476
		c-0.11-0.552-0.165-1.366-0.165-2.443c0-1.077,0.055-1.891,0.165-2.443c0.111-0.565,0.372-1.049,0.8-1.476
		c0.718-0.718,1.601-1.076,2.65-1.076c1.891,0,3.285,1.104,3.616,3.105h-1.946c-0.207-0.842-0.731-1.394-1.656-1.394
		c-0.524,0-0.939,0.165-1.228,0.511c-0.401,0.428-0.483,0.869-0.483,2.774c0,1.904,0.082,2.346,0.483,2.774
		c0.289,0.345,0.704,0.511,1.228,0.511c0.924,0,1.449-0.553,1.656-1.394h1.946C126.374,364.553,124.966,365.658,123.089,365.658z"/>
	<path fill="#218FB2" d="M136.091,365.492v-4.112h-3.326v4.112h-1.918v-9.826h1.918v4.016h3.326v-4.016h1.918v9.826H136.091z"/>
	<path fill="#218FB2" d="M142.786,365.492v-9.826h1.918v9.826H142.786z"/>
	<path fill="#218FB2" d="M151.398,357.378v2.415h3.878v1.711h-3.878v3.988h-1.918v-9.826h6.472v1.712H151.398z"/>
	<path fill="#218FB2" d="M162.026,357.378v2.415h3.878v1.711h-3.878v3.988h-1.918v-9.826h6.472v1.712H162.026z"/>
	<path fill="#218FB2" d="M175.952,365.492l-1.918-3.919h-1.38v3.919h-1.918v-9.826h3.85c2.001,0,3.188,1.366,3.188,3.009
		c0,1.38-0.842,2.236-1.794,2.581l2.194,4.237H175.952z M174.461,357.378h-1.808v2.594h1.808c0.842,0,1.394-0.538,1.394-1.298
		C175.855,357.916,175.303,357.378,174.461,357.378z"/>
	<path fill="#218FB2" d="M182.246,365.492v-9.826h6.472v1.712h-4.554v2.304h3.878v1.711h-3.878v2.388h4.554v1.711H182.246z"/>
	<path fill="#218FB2" d="M210.237,365.492h-4.112v-9.826h3.946c1.918,0,3.036,1.077,3.036,2.76c0,1.09-0.718,1.794-1.215,2.029
		c0.593,0.276,1.352,0.897,1.352,2.208C213.245,364.498,211.989,365.492,210.237,365.492z M209.919,357.378h-1.876v2.263h1.876
		c0.814,0,1.27-0.455,1.27-1.132C211.189,357.833,210.734,357.378,209.919,357.378z M210.043,361.366h-2.001v2.415h2.001
		c0.87,0,1.283-0.552,1.283-1.215S210.913,361.366,210.043,361.366z"/>
	<path fill="#218FB2" d="M222.907,365.492l-1.918-3.919h-1.38v3.919h-1.918v-9.826h3.85c2.001,0,3.188,1.366,3.188,3.009
		c0,1.38-0.842,2.236-1.794,2.581l2.194,4.237H222.907z M221.417,357.378h-1.808v2.594h1.808c0.842,0,1.394-0.538,1.394-1.298
		C222.811,357.916,222.259,357.378,221.417,357.378z"/>
	<path fill="#218FB2" d="M232.665,365.575c-2.015,0-3.615-1.366-3.615-3.451v-6.458h1.918v6.39c0,1.132,0.662,1.808,1.697,1.808
		c1.035,0,1.712-0.677,1.712-1.808v-6.39h1.904v6.458C236.281,364.209,234.68,365.575,232.665,365.575z"/>
	<path fill="#218FB2" d="M244.66,357.378v8.114h-1.918v-8.114h-2.567v-1.712h7.052v1.712H244.66z"/>
	<path fill="#D33C3D" d="M271.562,115.244v-1.353l3.075-3.572c0.301-0.358,0.428-0.613,0.428-0.994c0-0.613-0.358-1.029-0.994-1.029
		c-0.497,0-1.006,0.254-1.006,1.052h-1.503c0-1.503,1.098-2.405,2.509-2.405c1.457,0,2.497,0.913,2.497,2.393
		c0,0.798-0.312,1.225-0.879,1.885l-2.301,2.671h3.18v1.353H271.562z"/>
	<path fill="#D33C3D" d="M287.933,115.313c-1.457,0-2.566-0.913-2.566-2.544c0-0.751,0.323-1.445,0.694-2.197l1.734-3.561h1.641
		l-1.711,3.399c0.197-0.081,0.417-0.104,0.613-0.104c1.11,0,2.162,0.913,2.162,2.439C290.5,114.365,289.389,115.313,287.933,115.313
		z M287.933,111.555c-0.613,0-1.063,0.44-1.063,1.203c0,0.762,0.45,1.202,1.063,1.202s1.064-0.44,1.064-1.202
		C288.997,112.03,288.569,111.555,287.933,111.555z"/>
	<path fill="#D33C3D" d="M296.039,115.244v-6.613l-1.676,1.457v-1.619l1.676-1.457h1.503v8.232H296.039z"/>
	<path fill="#D33C3D" d="M303.716,115.313c-1.341,0-2.601-0.705-2.624-2.428h1.503c0.023,0.74,0.532,1.075,1.121,1.075
		c0.647,0,1.11-0.405,1.11-1.145c0-0.682-0.416-1.133-1.156-1.133h-0.22v-1.306h0.22c0.729,0,1.041-0.45,1.041-1.029
		c0-0.694-0.462-1.052-1.006-1.052c-0.566,0-0.982,0.37-1.017,0.994h-1.503c0.034-1.469,1.133-2.347,2.52-2.347
		c1.457,0,2.509,0.971,2.509,2.358c0,0.89-0.405,1.399-0.948,1.688c0.59,0.312,1.063,0.879,1.063,1.873
		C306.329,114.504,305.127,115.313,303.716,115.313z"/>
	<path fill="#218FB2" d="M272.263,130.994v-6.613l-1.676,1.457v-1.619l1.676-1.457h1.503v8.232H272.263z"/>
	<path fill="#218FB2" d="M285.366,131.063c-1.457,0-2.566-0.913-2.566-2.544c0-0.751,0.323-1.445,0.694-2.197l1.734-3.561h1.641
		l-1.711,3.399c0.197-0.081,0.417-0.104,0.613-0.104c1.11,0,2.162,0.913,2.162,2.439
		C287.933,130.115,286.823,131.063,285.366,131.063z M285.366,127.305c-0.613,0-1.063,0.44-1.063,1.203
		c0,0.762,0.451,1.202,1.063,1.202c0.613,0,1.064-0.44,1.064-1.202C286.43,127.78,286.002,127.305,285.366,127.305z"/>
	<path fill="#218FB2" d="M295.588,130.392c-0.37,0.37-0.959,0.671-1.815,0.671c-0.855,0-1.48-0.301-1.838-0.659
		c-0.509-0.509-0.624-1.11-0.67-1.711h1.503c0.081,0.647,0.382,1.017,1.006,1.017c0.289,0,0.532-0.081,0.717-0.266
		c0.266-0.266,0.324-0.705,0.324-1.225c0-0.948-0.278-1.48-1.006-1.48c-0.613,0-0.89,0.347-0.994,0.671h-1.376v-4.648h4.694v1.353
		h-3.33v1.769c0.22-0.208,0.682-0.417,1.237-0.417c0.682,0,1.202,0.22,1.537,0.555c0.647,0.648,0.74,1.422,0.74,2.197
		C296.316,129.144,296.189,129.791,295.588,130.392z"/>
	<path fill="#218FB2" d="M302.086,131.063c-1.457,0-2.566-0.913-2.566-2.544c0-0.751,0.323-1.445,0.694-2.197l1.734-3.561h1.641
		l-1.711,3.399c0.197-0.081,0.417-0.104,0.613-0.104c1.11,0,2.162,0.913,2.162,2.439
		C304.653,130.115,303.543,131.063,302.086,131.063z M302.086,127.305c-0.613,0-1.063,0.44-1.063,1.203
		c0,0.762,0.451,1.202,1.063,1.202c0.613,0,1.064-0.44,1.064-1.202C303.15,127.78,302.722,127.305,302.086,127.305z"/>
	<path fill="#218FB2" d="M312.772,130.994v-1.353l3.075-3.572c0.301-0.358,0.428-0.613,0.428-0.994c0-0.613-0.358-1.029-0.994-1.029
		c-0.497,0-1.006,0.254-1.006,1.052h-1.503c0-1.503,1.098-2.405,2.509-2.405c1.457,0,2.497,0.913,2.497,2.393
		c0,0.798-0.312,1.225-0.879,1.885l-2.301,2.671h3.18v1.353H312.772z"/>
	<path fill="#218FB2" d="M323.316,130.994v-6.613l-1.676,1.457v-1.619l1.676-1.457h1.503v8.232H323.316z"/>
	<path fill="#218FB2" d="M331.92,131.063c-1.341,0-2.601-0.705-2.624-2.428h1.503c0.023,0.74,0.532,1.075,1.121,1.075
		c0.647,0,1.11-0.405,1.11-1.145c0-0.682-0.416-1.133-1.156-1.133h-0.22v-1.306h0.22c0.729,0,1.041-0.45,1.041-1.029
		c0-0.694-0.462-1.052-1.006-1.052c-0.566,0-0.982,0.37-1.017,0.994h-1.503c0.034-1.469,1.133-2.347,2.52-2.347
		c1.457,0,2.509,0.971,2.509,2.358c0,0.89-0.405,1.399-0.948,1.688c0.59,0.312,1.063,0.879,1.063,1.873
		C334.533,130.254,333.33,131.063,331.92,131.063z"/>
	<path fill="#218FB2" d="M273.894,144.196v1.168h-1.445v-1.168h-3.364v-1.422l2.821-5.642h1.641l-2.821,5.642h1.723v-1.538h1.445
		v1.538h0.751v1.422H273.894z"/>
	<path fill="#218FB2" d="M280.23,145.434c-1.457,0-2.636-0.867-2.636-2.463c0-1.006,0.578-1.549,1.029-1.849
		c-0.416-0.289-0.925-0.833-0.925-1.711c0-1.457,1.156-2.347,2.532-2.347s2.52,0.89,2.52,2.347c0,0.878-0.509,1.422-0.925,1.711
		c0.451,0.3,1.041,0.844,1.041,1.849C282.867,144.567,281.687,145.434,280.23,145.434z M280.23,141.803
		c-0.636,0-1.133,0.509-1.133,1.145c0,0.636,0.497,1.133,1.133,1.133c0.636,0,1.133-0.497,1.133-1.133
		C281.364,142.312,280.866,141.803,280.23,141.803z M280.23,138.416c-0.59,0-1.029,0.45-1.029,1.04c0,0.601,0.439,1.041,1.029,1.041
		c0.59,0,1.017-0.439,1.017-1.041C281.248,138.867,280.82,138.416,280.23,138.416z"/>
	<path fill="#218FB2" d="M290.428,144.763c-0.37,0.37-0.959,0.671-1.815,0.671c-0.855,0-1.48-0.301-1.838-0.659
		c-0.509-0.509-0.624-1.11-0.67-1.711h1.503c0.081,0.647,0.382,1.017,1.006,1.017c0.289,0,0.532-0.081,0.717-0.266
		c0.266-0.266,0.324-0.705,0.324-1.225c0-0.948-0.278-1.48-1.006-1.48c-0.613,0-0.89,0.347-0.994,0.671h-1.376v-4.648h4.694v1.353
		h-3.33v1.769c0.22-0.208,0.682-0.417,1.237-0.417c0.682,0,1.202,0.22,1.537,0.555c0.647,0.648,0.74,1.422,0.74,2.197
		C291.157,143.514,291.03,144.162,290.428,144.763z"/>
	<path fill="#218FB2" d="M299.252,145.364v-1.353l3.075-3.572c0.301-0.358,0.428-0.613,0.428-0.994c0-0.613-0.358-1.029-0.994-1.029
		c-0.497,0-1.006,0.254-1.006,1.052h-1.503c0-1.503,1.098-2.405,2.509-2.405c1.457,0,2.497,0.913,2.497,2.393
		c0,0.798-0.312,1.225-0.878,1.885l-2.301,2.671h3.18v1.353H299.252z"/>
	<path fill="#218FB2" d="M310.051,145.434c-1.457,0-2.566-0.913-2.566-2.544c0-0.751,0.323-1.445,0.694-2.197l1.734-3.561h1.641
		l-1.711,3.399c0.197-0.081,0.416-0.104,0.613-0.104c1.11,0,2.162,0.913,2.162,2.439
		C312.618,144.486,311.508,145.434,310.051,145.434z M310.051,141.676c-0.613,0-1.063,0.44-1.063,1.203
		c0,0.762,0.45,1.202,1.063,1.202s1.064-0.44,1.064-1.202C311.115,142.15,310.687,141.676,310.051,141.676z"/>
	<path fill="#218FB2" d="M315.972,145.364v-1.353l3.075-3.572c0.301-0.358,0.428-0.613,0.428-0.994c0-0.613-0.358-1.029-0.994-1.029
		c-0.497,0-1.006,0.254-1.006,1.052h-1.503c0-1.503,1.098-2.405,2.509-2.405c1.457,0,2.497,0.913,2.497,2.393
		c0,0.798-0.312,1.225-0.878,1.885l-2.301,2.671h3.18v1.353H315.972z"/>
	<path fill="#D33C3D" d="M180.209,23.845v-1.382l3.142-3.651c0.307-0.366,0.437-0.626,0.437-1.016c0-0.626-0.366-1.051-1.016-1.051
		c-0.508,0-1.028,0.26-1.028,1.075h-1.536c0-1.536,1.122-2.457,2.564-2.457c1.489,0,2.552,0.933,2.552,2.445
		c0,0.816-0.319,1.252-0.898,1.926l-2.351,2.729h3.249v1.382H180.209z"/>
	<path fill="#D33C3D" d="M197.835,20.104l-1.799,3.67h-1.68l1.763-3.502c-0.202,0.083-0.429,0.107-0.631,0.107
		c-1.143,0-2.24-0.941-2.24-2.514c0-1.668,1.144-2.644,2.645-2.644s2.644,0.941,2.644,2.621
		C198.537,18.615,198.216,19.329,197.835,20.104z M195.893,16.613c-0.631,0-1.096,0.453-1.096,1.239c0,0.75,0.441,1.239,1.096,1.239
		c0.631,0,1.096-0.453,1.096-1.239S196.524,16.613,195.893,16.613z"/>
	<path fill="#D33C3D" d="M204.471,23.845c-1.501,0-2.644-0.941-2.644-2.621c0-0.774,0.333-1.489,0.715-2.263l1.787-3.67h1.691
		l-1.763,3.503c0.203-0.084,0.429-0.107,0.631-0.107c1.144,0,2.228,0.941,2.228,2.513C207.116,22.868,205.972,23.845,204.471,23.845
		z M204.471,19.972c-0.631,0-1.096,0.453-1.096,1.24c0,0.786,0.464,1.239,1.096,1.239s1.096-0.453,1.096-1.239
		C205.568,20.461,205.127,19.972,204.471,19.972z"/>
	<path fill="#D33C3D" d="M213.039,23.773v-6.814l-1.727,1.501v-1.668l1.727-1.501h1.549v8.482H213.039z"/>
	<path fill="#218FB2" d="M184.192,35.714l-1.799,3.67h-1.68l1.763-3.502c-0.202,0.083-0.429,0.107-0.631,0.107
		c-1.143,0-2.24-0.941-2.24-2.514c0-1.668,1.144-2.644,2.645-2.644c1.501,0,2.644,0.941,2.644,2.621
		C184.895,34.225,184.573,34.939,184.192,35.714z M182.25,32.223c-0.631,0-1.096,0.453-1.096,1.239c0,0.75,0.441,1.239,1.096,1.239
		c0.631,0,1.096-0.453,1.096-1.239S182.882,32.223,182.25,32.223z"/>
	<path fill="#218FB2" d="M192.747,38.763c-0.381,0.382-0.988,0.691-1.87,0.691c-0.881,0-1.525-0.31-1.894-0.679
		c-0.524-0.524-0.643-1.144-0.691-1.763h1.549c0.083,0.667,0.393,1.048,1.036,1.048c0.298,0,0.548-0.083,0.739-0.274
		c0.274-0.274,0.334-0.726,0.334-1.263c0-0.977-0.286-1.525-1.036-1.525c-0.632,0-0.917,0.358-1.025,0.691h-1.418v-4.79h4.837v1.394
		h-3.431v1.823c0.227-0.214,0.703-0.429,1.275-0.429c0.702,0,1.239,0.227,1.584,0.572c0.667,0.668,0.762,1.465,0.762,2.263
		C193.498,37.477,193.367,38.144,192.747,38.763z"/>
	<path fill="#218FB2" d="M201.422,35.714l-1.799,3.67h-1.68l1.763-3.502c-0.202,0.083-0.429,0.107-0.631,0.107
		c-1.143,0-2.24-0.941-2.24-2.514c0-1.668,1.144-2.644,2.645-2.644s2.644,0.941,2.644,2.621
		C202.124,34.225,201.803,34.939,201.422,35.714z M199.48,32.223c-0.631,0-1.096,0.453-1.096,1.239c0,0.75,0.441,1.239,1.096,1.239
		c0.631,0,1.096-0.453,1.096-1.239S200.111,32.223,199.48,32.223z"/>
	<path fill="#218FB2" d="M212.956,39.455c-1.382,0-2.681-0.727-2.704-2.502h1.549c0.024,0.762,0.548,1.108,1.156,1.108
		c0.667,0,1.143-0.417,1.143-1.18c0-0.703-0.429-1.168-1.191-1.168h-0.227v-1.346h0.227c0.751,0,1.072-0.464,1.072-1.06
		c0-0.715-0.476-1.084-1.037-1.084c-0.584,0-1.012,0.381-1.048,1.025h-1.549c0.036-1.513,1.167-2.418,2.597-2.418
		c1.502,0,2.586,1.001,2.586,2.43c0,0.917-0.417,1.442-0.977,1.739c0.608,0.322,1.096,0.906,1.096,1.93
		C215.648,38.621,214.409,39.455,212.956,39.455z"/>
	<path fill="#218FB2" d="M221.606,39.383h-1.68l2.752-7.089h-2.24v1.334h-1.477v-2.728h5.397v1.394L221.606,39.383z"/>
	<path fill="#218FB2" d="M230.197,39.455c-1.501,0-2.644-0.941-2.644-2.621c0-0.774,0.333-1.489,0.715-2.263l1.787-3.67h1.691
		l-1.763,3.503c0.203-0.084,0.429-0.107,0.631-0.107c1.144,0,2.228,0.941,2.228,2.513C232.842,38.478,231.698,39.455,230.197,39.455
		z M230.197,35.582c-0.631,0-1.096,0.453-1.096,1.24c0,0.786,0.464,1.239,1.096,1.239s1.096-0.453,1.096-1.239
		C231.293,36.071,230.852,35.582,230.197,35.582z"/>
	<path fill="#D33C3D" d="M90.878,76.874V75.58l2.94-3.416c0.288-0.343,0.409-0.586,0.409-0.951c0-0.586-0.343-0.984-0.951-0.984
		c-0.475,0-0.961,0.243-0.961,1.006h-1.437c0-1.437,1.05-2.299,2.399-2.299c1.393,0,2.388,0.873,2.388,2.288
		c0,0.763-0.298,1.172-0.84,1.802l-2.2,2.554h3.04v1.293H90.878z"/>
	<path fill="#D33C3D" d="M106.499,76.874h-1.559l2.554-6.578h-2.078v1.238h-1.371v-2.532h5.007v1.293L106.499,76.874z"/>
	<path fill="#D33C3D" d="M114.493,76.94c-1.393,0-2.52-0.829-2.52-2.355c0-0.961,0.553-1.481,0.984-1.768
		c-0.398-0.277-0.884-0.796-0.884-1.636c0-1.393,1.105-2.244,2.421-2.244s2.41,0.851,2.41,2.244c0,0.84-0.486,1.359-0.884,1.636
		c0.431,0.287,0.995,0.807,0.995,1.768C117.013,76.111,115.885,76.94,114.493,76.94z M114.493,73.469
		c-0.608,0-1.083,0.486-1.083,1.094c0,0.608,0.475,1.084,1.083,1.084s1.084-0.476,1.084-1.084
		C115.576,73.955,115.101,73.469,114.493,73.469z M114.493,70.23c-0.564,0-0.984,0.431-0.984,0.994c0,0.575,0.42,0.995,0.984,0.995
		c0.564,0,0.973-0.42,0.973-0.995C115.465,70.661,115.056,70.23,114.493,70.23z"/>
	<path fill="#D33C3D" d="M121.862,76.874v-6.323l-1.602,1.393v-1.548l1.602-1.393h1.437v7.871H121.862z"/>
	<path fill="#218FB2" d="M92.966,92.624v-6.323l-1.602,1.393v-1.548l1.602-1.393h1.437v7.871H92.966z"/>
	<path fill="#218FB2" d="M105.781,92.69c-1.282,0-2.399-0.84-2.399-2.343V87.03c0-1.504,1.117-2.343,2.399-2.343
		c1.283,0,2.388,0.84,2.388,2.343v3.316C108.168,91.85,107.063,92.69,105.781,92.69z M106.731,87.052
		c0-0.664-0.387-1.072-0.951-1.072c-0.564,0-0.961,0.409-0.961,1.072v3.283c0,0.663,0.398,1.062,0.961,1.062
		c0.564,0,0.951-0.398,0.951-1.062V87.052z"/>
	<path fill="#218FB2" d="M113.774,92.69c-1.282,0-2.399-0.84-2.399-2.343V87.03c0-1.504,1.117-2.343,2.399-2.343
		c1.283,0,2.388,0.84,2.388,2.343v3.316C116.162,91.85,115.057,92.69,113.774,92.69z M114.725,87.052
		c0-0.664-0.387-1.072-0.951-1.072c-0.564,0-0.961,0.409-0.961,1.072v3.283c0,0.663,0.398,1.062,0.961,1.062
		c0.564,0,0.951-0.398,0.951-1.062V87.052z"/>
	<path fill="#218FB2" d="M123.581,89.219l-1.67,3.405h-1.559l1.636-3.25c-0.188,0.077-0.398,0.099-0.586,0.099
		c-1.061,0-2.078-0.873-2.078-2.333c0-1.547,1.062-2.454,2.454-2.454c1.393,0,2.454,0.873,2.454,2.432
		C124.233,87.837,123.935,88.5,123.581,89.219z M121.779,85.98c-0.586,0-1.017,0.42-1.017,1.15c0,0.696,0.409,1.15,1.017,1.15
		c0.586,0,1.017-0.42,1.017-1.15S122.365,85.98,121.779,85.98z"/>
	<path fill="#218FB2" d="M134.295,92.69c-1.393,0-2.454-0.873-2.454-2.432c0-0.718,0.309-1.382,0.663-2.1l1.658-3.405h1.57
		l-1.636,3.25c0.188-0.078,0.398-0.099,0.586-0.099c1.062,0,2.067,0.873,2.067,2.332C136.749,91.784,135.687,92.69,134.295,92.69z
		 M134.295,89.097c-0.586,0-1.017,0.421-1.017,1.15c0,0.729,0.431,1.15,1.017,1.15s1.017-0.421,1.017-1.15
		C135.312,89.55,134.903,89.097,134.295,89.097z"/>
	<path fill="#218FB2" d="M142.278,92.69c-1.283,0-2.487-0.675-2.509-2.321h1.437c0.022,0.707,0.509,1.028,1.072,1.028
		c0.619,0,1.061-0.387,1.061-1.094c0-0.652-0.398-1.084-1.105-1.084h-0.21V87.97h0.21c0.697,0,0.995-0.431,0.995-0.984
		c0-0.663-0.442-1.006-0.962-1.006c-0.542,0-0.939,0.353-0.972,0.951h-1.437c0.033-1.404,1.083-2.244,2.409-2.244
		c1.393,0,2.399,0.929,2.399,2.255c0,0.851-0.387,1.338-0.906,1.614c0.564,0.298,1.017,0.84,1.017,1.791
		C144.776,91.916,143.626,92.69,142.278,92.69z"/>
	<path fill="#218FB2" d="M150.039,92.624v-6.323l-1.602,1.393v-1.548l1.602-1.393h1.437v7.871H150.039z"/>
	<path fill="#218FB2" d="M253.124,365.544c-1.473,0-2.592-0.314-3.547-1.283l1.228-1.228c0.614,0.614,1.446,0.818,2.347,0.818
		c1.119,0,1.719-0.423,1.719-1.201c0-0.341-0.095-0.628-0.3-0.818c-0.191-0.177-0.409-0.273-0.86-0.341l-1.173-0.163
		c-0.832-0.123-1.446-0.382-1.883-0.805c-0.464-0.464-0.696-1.091-0.696-1.91c0-1.733,1.283-2.947,3.384-2.947
		c1.337,0,2.306,0.327,3.138,1.133l-1.201,1.187c-0.614-0.587-1.351-0.669-1.992-0.669c-1.009,0-1.501,0.559-1.501,1.228
		c0,0.245,0.082,0.505,0.286,0.696c0.191,0.177,0.505,0.327,0.9,0.382l1.146,0.164c0.887,0.123,1.446,0.368,1.856,0.75
		c0.519,0.491,0.75,1.201,0.75,2.061C256.726,364.48,255.157,365.544,253.124,365.544z"/>
	<path fill="#218FB2" d="M194.878,365.544c-1.473,0-2.592-0.314-3.547-1.283l1.228-1.228c0.614,0.614,1.446,0.818,2.347,0.818
		c1.119,0,1.719-0.423,1.719-1.201c0-0.341-0.095-0.628-0.3-0.818c-0.191-0.177-0.409-0.273-0.86-0.341l-1.173-0.163
		c-0.832-0.123-1.446-0.382-1.883-0.805c-0.464-0.464-0.696-1.091-0.696-1.91c0-1.733,1.283-2.947,3.384-2.947
		c1.337,0,2.306,0.327,3.138,1.133l-1.201,1.187c-0.614-0.587-1.351-0.669-1.992-0.669c-1.009,0-1.501,0.559-1.501,1.228
		c0,0.245,0.082,0.505,0.286,0.696c0.191,0.177,0.505,0.327,0.9,0.382l1.146,0.164c0.887,0.123,1.446,0.368,1.856,0.75
		c0.519,0.491,0.75,1.201,0.75,2.061C198.48,364.48,196.911,365.544,194.878,365.544z"/>
	<g>
		<path fill="#218FB2" d="M344.349,129.31l-0.696-1.421h-0.5v1.421h-0.696v-3.563h1.396c0.726,0,1.156,0.495,1.156,1.091
			c0,0.501-0.306,0.812-0.65,0.937l0.796,1.536H344.349z M343.808,126.367h-0.655v0.94h0.655c0.306,0,0.506-0.195,0.506-0.471
			S344.114,126.367,343.808,126.367z"/>
		<path fill="#218FB2" d="M348.428,129.31v-1.491h-1.206v1.491h-0.696v-3.563h0.696v1.456h1.206v-1.456h0.695v3.563H348.428z"/>
		<path fill="#218FB2" d="M352.908,128.949c-0.25,0.25-0.556,0.391-0.961,0.391s-0.716-0.141-0.966-0.391
			c-0.36-0.36-0.351-0.806-0.351-1.422c0-0.615-0.01-1.061,0.351-1.421c0.25-0.25,0.561-0.391,0.966-0.391s0.711,0.141,0.961,0.391
			c0.36,0.36,0.355,0.806,0.355,1.421C353.263,128.144,353.268,128.589,352.908,128.949z M352.363,125.4l-0.416-0.455l-0.415,0.455
			h-0.506l0.661-0.846h0.521l0.66,0.846H352.363z M352.392,126.527c-0.1-0.115-0.255-0.19-0.445-0.19s-0.351,0.075-0.45,0.19
			c-0.135,0.149-0.17,0.314-0.17,1c0,0.687,0.035,0.852,0.17,1.002c0.1,0.114,0.26,0.189,0.45,0.189s0.346-0.075,0.445-0.189
			c0.136-0.15,0.176-0.315,0.176-1.002C352.568,126.842,352.528,126.677,352.392,126.527z"/>
		<path fill="#218FB2" d="M356.878,129.31l-1.411-2.188v2.188h-0.696v-3.563h0.621l1.411,2.182v-2.182h0.695v3.563H356.878z"/>
		<path fill="#218FB2" d="M359.125,129.31v-3.563h2.348v0.621h-1.651v0.835h1.406v0.621h-1.406v0.866h1.651v0.62H359.125z"/>
		<path fill="#218FB2" d="M366.938,129.31l-0.21-0.631h-1.267l-0.215,0.631h-0.726l1.296-3.563h0.546l1.301,3.563H366.938z
			 M366.107,126.797l-0.45,1.297h0.886L366.107,126.797z"/>
		<path fill="#218FB2" d="M368.9,129.31v-3.563h0.696v2.943h1.616v0.62H368.9z"/>
		<path fill="#218FB2" d="M373.957,127.969h-0.686v1.341h-0.696v-3.563h1.382c0.735,0,1.176,0.506,1.176,1.111
			S374.693,127.969,373.957,127.969z M373.922,126.367h-0.65v0.976h0.65c0.315,0,0.516-0.195,0.516-0.485
			C374.438,126.566,374.238,126.367,373.922,126.367z"/>
		<path fill="#218FB2" d="M376.515,129.31v-3.563h2.348v0.621h-1.651v0.835h1.406v0.621h-1.406v0.866h1.651v0.62H376.515z"/>
		<path fill="#218FB2" d="M381.322,129.34c-0.541,0-0.951-0.115-1.302-0.471l0.451-0.45c0.225,0.225,0.53,0.3,0.86,0.3
			c0.41,0,0.631-0.155,0.631-0.44c0-0.125-0.035-0.229-0.11-0.3c-0.07-0.065-0.15-0.101-0.315-0.125l-0.431-0.061
			c-0.305-0.045-0.53-0.14-0.69-0.295c-0.17-0.17-0.255-0.4-0.255-0.701c0-0.636,0.471-1.081,1.241-1.081
			c0.49,0,0.846,0.12,1.151,0.416l-0.44,0.435c-0.226-0.215-0.496-0.245-0.731-0.245c-0.37,0-0.55,0.206-0.55,0.451
			c0,0.09,0.029,0.185,0.104,0.255c0.07,0.065,0.186,0.12,0.33,0.141l0.421,0.06c0.325,0.045,0.53,0.135,0.681,0.275
			c0.19,0.18,0.275,0.44,0.275,0.756C382.643,128.949,382.067,129.34,381.322,129.34z"/>
	</g>
	<g>
		<path fill="#218FB2" d="M340.306,144.773l-0.21-0.631h-1.267l-0.215,0.631h-0.726l1.296-3.563h0.546l1.301,3.563H340.306z
			 M339.475,142.261l-0.45,1.297h0.886L339.475,142.261z"/>
		<path fill="#218FB2" d="M342.268,144.773v-3.563h0.696v2.943h1.616v0.62H342.268z"/>
		<path fill="#218FB2" d="M346.924,144.804c-0.541,0-0.951-0.115-1.302-0.471l0.451-0.45c0.225,0.225,0.53,0.3,0.86,0.3
			c0.41,0,0.631-0.155,0.631-0.44c0-0.125-0.035-0.229-0.11-0.3c-0.07-0.065-0.15-0.101-0.315-0.125l-0.43-0.061
			c-0.306-0.045-0.531-0.14-0.691-0.295c-0.17-0.17-0.255-0.4-0.255-0.701c0-0.636,0.471-1.081,1.241-1.081
			c0.49,0,0.846,0.12,1.151,0.416l-0.44,0.435c-0.226-0.215-0.496-0.245-0.731-0.245c-0.37,0-0.55,0.206-0.55,0.451
			c0,0.09,0.029,0.185,0.104,0.255c0.07,0.065,0.186,0.12,0.331,0.141l0.42,0.06c0.325,0.045,0.53,0.135,0.681,0.275
			c0.19,0.18,0.275,0.44,0.275,0.756C348.246,144.413,347.67,144.804,346.924,144.804z"/>
		<path fill="#218FB2" d="M351.726,144.773l-0.21-0.631h-1.267l-0.215,0.631h-0.726l1.296-3.563h0.546l1.301,3.563H351.726z
			 M350.895,142.261l-0.45,1.297h0.886L350.895,142.261z"/>
		<path fill="#218FB2" d="M354.83,144.804c-0.38,0-0.7-0.131-0.961-0.391c-0.155-0.155-0.25-0.335-0.29-0.535
			s-0.061-0.496-0.061-0.887c0-0.39,0.021-0.686,0.061-0.886c0.04-0.205,0.135-0.38,0.29-0.535c0.261-0.261,0.581-0.391,0.961-0.391
			c0.686,0,1.191,0.4,1.312,1.126h-0.706c-0.075-0.305-0.265-0.505-0.601-0.505c-0.189,0-0.34,0.06-0.445,0.185
			c-0.145,0.155-0.175,0.315-0.175,1.006c0,0.691,0.03,0.852,0.175,1.007c0.105,0.125,0.256,0.185,0.445,0.185
			c0.336,0,0.525-0.2,0.601-0.505h0.706C356.021,144.403,355.51,144.804,354.83,144.804z"/>
		<path fill="#218FB2" d="M357.538,144.773v-3.563h2.348v0.621h-1.651v0.835h1.406v0.621h-1.406v0.866h1.651v0.62H357.538z"/>
	</g>
</g>
</svg>
