<?xml version="1.0" encoding="utf-8"?>
<!-- Generator: Adobe Illustrator 17.0.0, SVG Export Plug-In . SVG Version: 6.00 Build 0)  -->
<!DOCTYPE svg PUBLIC "-//W3C//DTD SVG 1.1//EN" "http://www.w3.org/Graphics/SVG/1.1/DTD/svg11.dtd">
<svg version="1.1" id="Calque_2_1_" xmlns="http://www.w3.org/2000/svg" xmlns:xlink="http://www.w3.org/1999/xlink" x="0px"
	 y="0px" width="385.333px" height="381px" viewBox="0 0 385.333 381" enable-background="new 0 0 385.333 381"
	 xml:space="preserve">
<g>
	<path fill="#218FB2" d="M364.403,150.052c-0.813,0-1.43-0.174-1.957-0.707l0.677-0.677c0.339,0.339,0.798,0.452,1.295,0.452
		c0.617,0,0.948-0.234,0.948-0.663c0-0.188-0.053-0.346-0.166-0.452c-0.105-0.098-0.226-0.15-0.474-0.188l-0.647-0.09
		c-0.46-0.068-0.798-0.211-1.039-0.444c-0.256-0.256-0.384-0.602-0.384-1.053c0-0.956,0.707-1.626,1.866-1.626
		c0.737,0,1.272,0.181,1.731,0.625l-0.662,0.655c-0.339-0.323-0.745-0.369-1.099-0.369c-0.556,0-0.828,0.309-0.828,0.677
		c0,0.136,0.045,0.279,0.158,0.384c0.105,0.098,0.278,0.18,0.496,0.21l0.633,0.09c0.489,0.068,0.798,0.204,1.023,0.414
		c0.286,0.271,0.414,0.662,0.414,1.136C366.389,149.465,365.524,150.052,364.403,150.052z"/>
	<path fill="#218FB2" d="M292.064,299.426L50.721,223.957l-7.075-62.76c0,0-0.655-2.358,3.276-3.014l57.65-11.137l-0.917-15.33
		c0,0-0.262-2.751,3.8-3.145l54.636-7.73l75.6,4.455c0,0,3.276-0.262,3.538,4.455l-1.834,52.016c0,0,1.441,1.703,2.62,1.703
		l89.75,14.281c0,0,2.096-0.393,1.965,4.717l-5.372,51.754L292.064,299.426z"/>
	<path fill="#D7D6D1" d="M140.613,184.851l0.214-29.654c0,0-1.508,1.418-2.885,1.937c-1.837,0.705-3.96,0.994-3.96,0.994
		l0.036-5.007c0,0,2.999-0.526,5.049-2.026c1.758-1.293,3.482-3.892,3.482-3.892l3.368,0.384l-0.273,37.837L140.613,184.851z"/>
	<g>
		<path fill="#D7D6D1" d="M240.426,270.002c-3.578-0.239-7.056-1.462-9.987-4.036l2.452-4.047c2.645,2.208,5.061,3.113,7.831,3.298
			c3.77,0.252,6.628-2.233,6.869-6.131c0.235-3.799-1.468-6.242-6.084-6.55l-2.924-0.195l0.302-4.885l2.962,0.198
			c3.385,0.226,5.56-2.453,5.795-6.253c0.309-4.984-2.755-6.03-5.179-6.192c-1.846-0.123-4.755,1.317-6.151,3.899l-2.657-3.249
			c2.698-4.279,6.078-5.837,9.925-5.58c7.001,0.468,8.952,6.395,8.671,10.935c-0.324,5.231-2.955,8.424-4.779,8.55
			c2.097,0.438,5.086,3.957,4.737,9.582C251.777,266.351,247.504,270.475,240.426,270.002z"/>
	</g>
	<g>
		<path fill="#D7D6D1" d="M61.601,207.947l10.894-9.079c0.908-0.841,4.874-3.934,5.071-6.941c0.238-3.643-1.965-5.266-4.619-5.964
			c-3.422-0.9-5.349,0.86-5.518,3.442l-0.079,1.203l-3.876-1.019l0.083-1.273c0.289-4.421,4.07-7.384,9.552-5.943
			c4.959,1.304,9.12,4.486,8.732,10.427c-0.277,4.244-4.316,7.355-4.991,7.897l-6.796,5.624l11.698,3.077l-0.247,3.785
			L61.601,207.947z"/>
	</g>
	<path fill="#106377" d="M190.653,207.055c0,0,105.735,23.584,106.521,23.191l35.376-32.232l-90.537-14.544L190.653,207.055z"/>
	<path fill="#106377" d="M188.491,203.321l51.295-22.208l1.572-53.064c0,0-0.393-2.555-1.965-2.162c0,0-51.295,15.133-50.706,15.133
		S188.491,203.321,188.491,203.321z"/>
	<polygon fill="#106377" points="46.135,158.969 105.881,170.499 104.571,147.046 	"/>
	<line fill="none" stroke="#106377" stroke-miterlimit="10" x1="181.807" y1="115.813" x2="181.807" y2="20.213"/>
	
		<line fill="none" stroke="#106377" stroke-miterlimit="10" stroke-dasharray="3" x1="91.904" y1="141.94" x2="91.904" y2="73.656"/>
	<g>
		<line fill="none" x1="272.165" y1="182.705" x2="272.165" y2="110.66"/>
		<g>
			<line fill="none" stroke="#106377" stroke-miterlimit="10" x1="272.165" y1="182.705" x2="272.165" y2="181.205"/>
			
				<line fill="none" stroke="#106377" stroke-miterlimit="10" stroke-dasharray="3.0019,3.0019" x1="272.165" y1="178.203" x2="272.165" y2="113.661"/>
			<line fill="none" stroke="#106377" stroke-miterlimit="10" x1="272.165" y1="112.16" x2="272.165" y2="110.66"/>
		</g>
	</g>
	<g>
		<path fill="#106377" d="M37.148,66.819H35.64v2.948h-1.529v-7.833h3.037c1.617,0,2.585,1.111,2.585,2.442
			S38.765,66.819,37.148,66.819z M37.07,63.298h-1.43v2.146h1.43c0.693,0,1.133-0.43,1.133-1.067
			C38.204,63.738,37.763,63.298,37.07,63.298z"/>
		<path fill="#106377" d="M46.684,69.767l-0.462-1.386h-2.783l-0.473,1.386h-1.595l2.849-7.833h1.199l2.86,7.833H46.684z
			 M44.858,64.244l-0.99,2.849h1.947L44.858,64.244z"/>
		<path fill="#106377" d="M53.615,66.554v3.213h-1.519v-3.213l-2.354-4.62h1.661l1.463,3.157l1.441-3.157h1.661L53.615,66.554z"/>
		<path fill="#106377" d="M60.83,69.833c-1.188,0-2.09-0.254-2.86-1.034l0.99-0.99c0.495,0.495,1.166,0.66,1.892,0.66
			c0.902,0,1.386-0.342,1.386-0.969c0-0.274-0.077-0.506-0.242-0.66c-0.154-0.143-0.33-0.22-0.693-0.274l-0.946-0.132
			c-0.671-0.1-1.166-0.309-1.518-0.649c-0.374-0.374-0.561-0.88-0.561-1.54c0-1.397,1.034-2.377,2.729-2.377
			c1.078,0,1.859,0.265,2.53,0.913l-0.968,0.957c-0.495-0.473-1.089-0.539-1.606-0.539c-0.814,0-1.21,0.451-1.21,0.99
			c0,0.198,0.066,0.407,0.231,0.562c0.154,0.143,0.407,0.264,0.726,0.308l0.924,0.132c0.715,0.1,1.166,0.298,1.496,0.605
			c0.418,0.396,0.605,0.968,0.605,1.661C63.734,68.975,62.469,69.833,60.83,69.833z"/>
		<path fill="#106377" d="M76.142,69.019c-0.517,0.517-1.254,0.748-2.068,0.748h-2.828v-7.833h2.828c0.814,0,1.551,0.23,2.068,0.748
			c0.88,0.88,0.792,1.958,0.792,3.136C76.935,66.994,77.023,68.139,76.142,69.019z M75.075,63.782
			c-0.264-0.318-0.616-0.483-1.144-0.483h-1.155v5.104h1.155c0.528,0,0.88-0.165,1.144-0.484c0.286-0.352,0.33-0.913,0.33-2.101
			C75.405,64.629,75.361,64.134,75.075,63.782z"/>
		<path fill="#106377" d="M80.256,69.767v-7.833h5.16v1.364h-3.63v1.837h3.091v1.364h-3.091v1.903h3.63v1.364h-5.16V69.767z"/>
		<path fill="#106377" d="M92.982,69.767v-7.833h1.529v6.469h3.554v1.364H92.982z"/>
		<path fill="#106377" d="M105.523,69.767l-0.462-1.386h-2.783l-0.473,1.386h-1.595l2.849-7.833h1.199l2.86,7.833H105.523z
			 M103.697,64.244l-0.99,2.849h1.947L103.697,64.244z"/>
		<path fill="#106377" d="M114.157,69.767v-7.833h1.529v6.469h3.554v1.364H114.157z"/>
		<path fill="#106377" d="M126.698,68.975c-0.55,0.55-1.221,0.858-2.112,0.858s-1.573-0.309-2.123-0.858
			c-0.792-0.792-0.771-1.771-0.771-3.125c0-1.353-0.022-2.332,0.771-3.124c0.55-0.55,1.232-0.858,2.123-0.858
			s1.562,0.309,2.112,0.858c0.792,0.792,0.781,1.771,0.781,3.124C127.48,67.203,127.49,68.183,126.698,68.975z M125.565,63.65
			c-0.22-0.253-0.561-0.418-0.979-0.418s-0.77,0.165-0.99,0.418c-0.297,0.33-0.374,0.693-0.374,2.2c0,1.508,0.077,1.871,0.374,2.201
			c0.22,0.253,0.572,0.418,0.99,0.418s0.759-0.165,0.979-0.418c0.297-0.33,0.385-0.693,0.385-2.201
			C125.95,64.343,125.862,63.98,125.565,63.65z"/>
		<path fill="#106377" d="M130.8,69.767v-7.833h1.529v7.833H130.8z"/>
		<path fill="#106377" d="M140.074,69.767l-1.529-3.124h-1.1v3.124h-1.529v-7.833h3.069c1.595,0,2.542,1.089,2.542,2.398
			c0,1.1-0.671,1.782-1.43,2.057l1.749,3.378H140.074z M138.886,63.298h-1.441v2.068h1.441c0.671,0,1.111-0.43,1.111-1.034
			C139.997,63.727,139.557,63.298,138.886,63.298z"/>
		<path fill="#106377" d="M144.869,69.767v-7.833h5.16v1.364h-3.63v1.837h3.091v1.364h-3.091v1.903h3.63v1.364h-5.16V69.767z"/>
	</g>
	<g>
		<path fill="#106377" d="M152.289,15.028h-3.278V7.195h3.146c1.529,0,2.42,0.858,2.42,2.2c0,0.869-0.572,1.431-0.968,1.617
			c0.473,0.22,1.078,0.715,1.078,1.761C154.687,14.236,153.686,15.028,152.289,15.028z M152.036,8.559h-1.496v1.804h1.496
			c0.649,0,1.012-0.362,1.012-0.901S152.685,8.559,152.036,8.559z M152.135,11.739h-1.595v1.925h1.595
			c0.693,0,1.023-0.44,1.023-0.968C153.158,12.167,152.828,11.739,152.135,11.739z"/>
		<path fill="#106377" d="M162.167,15.028l-1.529-3.124h-1.1v3.124h-1.529V7.195h3.069c1.595,0,2.542,1.089,2.542,2.398
			c0,1.1-0.671,1.782-1.43,2.057l1.749,3.378C163.939,15.028,162.167,15.028,162.167,15.028z M160.979,8.559h-1.441v2.068h1.441
			c0.671,0,1.111-0.43,1.111-1.034C162.089,8.988,161.649,8.559,160.979,8.559z"/>
		<path fill="#106377" d="M166.962,15.028V7.195h5.16v1.364h-3.63v1.837h3.091v1.364h-3.091v1.903h3.63v1.364L166.962,15.028
			L166.962,15.028z"/>
		<path fill="#106377" d="M178.369,8.559v6.469h-1.529V8.559h-2.046V7.195h5.622v1.364H178.369z"/>
		<path fill="#106377" d="M187.213,15.028l-0.462-1.386h-2.783l-0.473,1.386H181.9l2.849-7.833h1.199l2.86,7.833H187.213z
			 M185.387,9.505l-0.99,2.849h1.947L185.387,9.505z"/>
		<path fill="#106377" d="M196.255,14.202c-0.605,0.616-1.331,0.892-2.211,0.892c-0.836,0-1.541-0.286-2.112-0.858
			c-0.341-0.341-0.55-0.737-0.638-1.178c-0.088-0.439-0.132-1.089-0.132-1.947c0-0.857,0.044-1.507,0.132-1.947
			c0.088-0.45,0.297-0.836,0.638-1.177c0.572-0.572,1.276-0.858,2.112-0.858c1.782,0,2.739,1.145,2.948,2.509h-1.54
			c-0.188-0.759-0.649-1.145-1.408-1.145c-0.407,0-0.737,0.144-0.979,0.418c-0.286,0.363-0.374,0.649-0.374,2.2
			c0,1.541,0.066,1.849,0.374,2.212c0.231,0.274,0.561,0.407,0.979,0.407c0.451,0,0.814-0.144,1.089-0.44
			c0.231-0.264,0.352-0.616,0.352-1.045v-0.297h-1.441v-1.276h2.959v1.144C197.003,12.959,196.794,13.63,196.255,14.202z"/>
		<path fill="#106377" d="M204.824,15.028l-3.103-4.808v4.808h-1.529V7.195h1.364l3.103,4.797V7.195h1.529v7.833H204.824z"/>
		<path fill="#106377" d="M209.773,15.028V7.195h5.159v1.364h-3.63v1.837h3.091v1.364h-3.091v1.903h3.63v1.364L209.773,15.028
			L209.773,15.028z"/>
	</g>
	<g>
		<path fill="#106377" d="M255.572,93.254l-1.529-3.124h-1.101v3.124h-1.529v-7.833h3.069c1.596,0,2.542,1.089,2.542,2.398
			c0,1.1-0.671,1.782-1.431,2.057l1.749,3.378H255.572z M254.384,86.785h-1.441v2.068h1.441c0.671,0,1.111-0.43,1.111-1.034
			C255.495,87.214,255.055,86.785,254.384,86.785z"/>
		<path fill="#106377" d="M264.548,93.254v-3.278h-2.651v3.278h-1.529v-7.833h1.529v3.201h2.651v-3.201h1.529v7.833H264.548z"/>
		<path fill="#106377" d="M274.404,92.462c-0.55,0.55-1.222,0.858-2.112,0.858c-0.892,0-1.573-0.309-2.123-0.858
			c-0.793-0.792-0.771-1.771-0.771-3.125c0-1.353-0.022-2.332,0.771-3.124c0.55-0.55,1.231-0.858,2.123-0.858
			c0.891,0,1.562,0.309,2.112,0.858c0.792,0.792,0.781,1.771,0.781,3.124C275.186,90.69,275.196,91.67,274.404,92.462z
			 M273.205,84.662l-0.913-1.002l-0.913,1.002h-1.111l1.452-1.859h1.145l1.452,1.859H273.205z M273.271,87.136
			c-0.22-0.253-0.561-0.418-0.979-0.418s-0.771,0.165-0.99,0.418c-0.297,0.33-0.374,0.693-0.374,2.2
			c0,1.508,0.077,1.871,0.374,2.201c0.22,0.253,0.572,0.418,0.99,0.418s0.759-0.165,0.979-0.418c0.298-0.33,0.386-0.693,0.386-2.201
			C273.656,87.83,273.568,87.466,273.271,87.136z"/>
		<path fill="#106377" d="M283.138,93.254l-3.103-4.808v4.808h-1.529v-7.833h1.364l3.103,4.797v-4.797h1.529v7.833H283.138z"/>
		<path fill="#106377" d="M288.087,93.254v-7.833h5.16v1.364h-3.631v1.837h3.092v1.364h-3.092v1.903h3.631v1.364h-5.16V93.254z"/>
		<path fill="#106377" d="M228.694,106.454l-0.462-1.386h-2.783l-0.474,1.386h-1.595l2.849-7.833h1.199l2.86,7.833H228.694z
			 M226.868,100.931l-0.99,2.849h1.947L226.868,100.931z"/>
		<path fill="#106377" d="M233.017,106.454v-7.833h1.529v6.469h3.554v1.364H233.017z"/>
		<path fill="#106377" d="M244.139,103.506h-1.508v2.948h-1.529v-7.833h3.037c1.617,0,2.585,1.111,2.585,2.442
			S245.756,103.506,244.139,103.506z M244.062,99.985h-1.431v2.146h1.431c0.692,0,1.133-0.43,1.133-1.067
			C245.194,100.424,244.754,99.985,244.062,99.985z"/>
		<path fill="#106377" d="M249.77,106.454v-7.833h5.159v1.364h-3.63v1.837h3.091v1.364h-3.091v1.903h3.63v1.364h-5.159V106.454z"/>
		<path fill="#106377" d="M260.341,106.52c-1.188,0-2.091-0.254-2.86-1.034l0.99-0.99c0.495,0.495,1.166,0.66,1.892,0.66
			c0.902,0,1.387-0.342,1.387-0.969c0-0.274-0.077-0.506-0.242-0.66c-0.154-0.143-0.33-0.22-0.693-0.274l-0.946-0.132
			c-0.671-0.1-1.166-0.309-1.518-0.649c-0.374-0.374-0.562-0.88-0.562-1.54c0-1.397,1.034-2.377,2.729-2.377
			c1.078,0,1.859,0.265,2.53,0.913l-0.968,0.957c-0.495-0.473-1.089-0.539-1.606-0.539c-0.814,0-1.21,0.451-1.21,0.99
			c0,0.198,0.065,0.407,0.23,0.562c0.154,0.143,0.407,0.264,0.727,0.308l0.924,0.132c0.716,0.1,1.166,0.298,1.496,0.605
			c0.418,0.396,0.605,0.968,0.605,1.661C263.245,105.662,261.98,106.52,260.341,106.52z"/>
		<path fill="#106377" d="M266.181,103.209v-1.332h3.389v1.332H266.181z"/>
		<path fill="#106377" d="M277.347,106.454l-0.462-1.386h-2.783l-0.473,1.386h-1.596l2.85-7.833h1.199l2.86,7.833H277.347z
			 M275.521,100.931l-0.99,2.849h1.947L275.521,100.931z"/>
		<path fill="#106377" d="M281.669,106.454v-7.833h1.529v6.469h3.554v1.364H281.669z"/>
		<path fill="#106377" d="M291.911,106.52c-1.188,0-2.091-0.254-2.86-1.034l0.99-0.99c0.495,0.495,1.166,0.66,1.892,0.66
			c0.902,0,1.387-0.342,1.387-0.969c0-0.274-0.077-0.506-0.242-0.66c-0.154-0.143-0.33-0.22-0.693-0.274l-0.946-0.132
			c-0.671-0.1-1.166-0.309-1.518-0.649c-0.374-0.374-0.562-0.88-0.562-1.54c0-1.397,1.034-2.377,2.729-2.377
			c1.078,0,1.859,0.265,2.53,0.913l-0.968,0.957c-0.495-0.473-1.089-0.539-1.606-0.539c-0.814,0-1.21,0.451-1.21,0.99
			c0,0.198,0.065,0.407,0.23,0.562c0.154,0.143,0.407,0.264,0.727,0.308l0.924,0.132c0.716,0.1,1.166,0.298,1.496,0.605
			c0.418,0.396,0.605,0.968,0.605,1.661C294.815,105.662,293.55,106.52,291.911,106.52z"/>
		<path fill="#106377" d="M302.471,106.454l-0.462-1.386h-2.783l-0.473,1.386h-1.596l2.85-7.833h1.199l2.86,7.833H302.471z
			 M300.645,100.931l-0.99,2.849h1.947L300.645,100.931z"/>
		<path fill="#106377" d="M309.303,106.52c-0.837,0-1.541-0.286-2.112-0.858c-0.342-0.341-0.551-0.737-0.639-1.178
			c-0.088-0.439-0.132-1.089-0.132-1.947c0-0.857,0.044-1.507,0.132-1.947c0.088-0.45,0.297-0.836,0.639-1.177
			c0.571-0.572,1.275-0.858,2.112-0.858c1.507,0,2.618,0.881,2.882,2.476h-1.551c-0.165-0.671-0.583-1.111-1.32-1.111
			c-0.418,0-0.748,0.132-0.979,0.407c-0.319,0.341-0.385,0.693-0.385,2.211c0,1.519,0.065,1.871,0.385,2.212
			c0.231,0.274,0.562,0.407,0.979,0.407c0.737,0,1.155-0.44,1.32-1.111h1.551C311.921,105.639,310.799,106.52,309.303,106.52z"/>
		<path fill="#106377" d="M315.264,106.454v-7.833h5.159v1.364h-3.63v1.837h3.091v1.364h-3.091v1.903h3.63v1.364h-5.159V106.454z"/>
	</g>
	<g>
		<path fill="#218FB2" d="M284.583,151.736v1.168h-1.445v-1.168h-3.364v-1.422l2.821-5.642h1.641l-2.821,5.642h1.723v-1.538h1.445
			v1.538h0.751v1.422H284.583z"/>
		<path fill="#218FB2" d="M290.919,152.974c-1.457,0-2.636-0.867-2.636-2.463c0-1.006,0.578-1.549,1.029-1.849
			c-0.416-0.289-0.925-0.833-0.925-1.711c0-1.457,1.156-2.347,2.532-2.347s2.52,0.89,2.52,2.347c0,0.878-0.509,1.422-0.925,1.711
			c0.451,0.3,1.041,0.844,1.041,1.849C293.556,152.106,292.376,152.974,290.919,152.974z M290.919,149.343
			c-0.636,0-1.133,0.509-1.133,1.145s0.497,1.133,1.133,1.133s1.133-0.497,1.133-1.133S291.555,149.343,290.919,149.343z
			 M290.919,145.956c-0.59,0-1.029,0.45-1.029,1.04c0,0.601,0.439,1.041,1.029,1.041s1.017-0.439,1.017-1.041
			C291.937,146.406,291.509,145.956,290.919,145.956z"/>
		<path fill="#218FB2" d="M301.117,152.303c-0.37,0.37-0.959,0.671-1.815,0.671c-0.855,0-1.48-0.301-1.838-0.659
			c-0.509-0.509-0.624-1.11-0.67-1.711h1.503c0.081,0.647,0.382,1.017,1.006,1.017c0.289,0,0.532-0.081,0.717-0.266
			c0.266-0.266,0.324-0.705,0.324-1.225c0-0.948-0.278-1.48-1.006-1.48c-0.613,0-0.89,0.347-0.994,0.671h-1.376v-4.648h4.694v1.353
			h-3.33v1.769c0.22-0.208,0.682-0.417,1.237-0.417c0.682,0,1.202,0.22,1.537,0.555c0.647,0.648,0.74,1.422,0.74,2.197
			C301.846,151.054,301.719,151.702,301.117,152.303z"/>
		<path fill="#218FB2" d="M309.941,152.904v-1.353l3.075-3.572c0.301-0.358,0.428-0.613,0.428-0.994
			c0-0.613-0.358-1.029-0.994-1.029c-0.497,0-1.006,0.254-1.006,1.052h-1.503c0-1.503,1.098-2.405,2.509-2.405
			c1.457,0,2.497,0.913,2.497,2.393c0,0.798-0.312,1.225-0.878,1.885l-2.301,2.671h3.18v1.353L309.941,152.904L309.941,152.904z"/>
		<path fill="#218FB2" d="M320.74,152.974c-1.457,0-2.566-0.913-2.566-2.544c0-0.751,0.323-1.445,0.694-2.197l1.734-3.561h1.641
			l-1.711,3.399c0.197-0.081,0.416-0.104,0.613-0.104c1.11,0,2.162,0.913,2.162,2.439
			C323.307,152.026,322.197,152.974,320.74,152.974z M320.74,149.216c-0.613,0-1.063,0.44-1.063,1.203
			c0,0.762,0.45,1.202,1.063,1.202s1.064-0.44,1.064-1.202C321.804,149.69,321.376,149.216,320.74,149.216z"/>
		<path fill="#218FB2" d="M326.661,152.904v-1.353l3.075-3.572c0.301-0.358,0.428-0.613,0.428-0.994
			c0-0.613-0.358-1.029-0.994-1.029c-0.497,0-1.006,0.254-1.006,1.052h-1.503c0-1.503,1.098-2.405,2.509-2.405
			c1.457,0,2.497,0.913,2.497,2.393c0,0.798-0.312,1.225-0.878,1.885l-2.301,2.671h3.18v1.353L326.661,152.904L326.661,152.904z"/>
	</g>
	<g>
		<path fill="#218FB2" d="M192.403,42.946l-1.799,3.67h-1.68l1.763-3.502c-0.202,0.083-0.429,0.107-0.631,0.107
			c-1.143,0-2.24-0.941-2.24-2.514c0-1.668,1.144-2.644,2.645-2.644s2.644,0.941,2.644,2.621
			C193.105,41.457,192.784,42.172,192.403,42.946z M190.461,39.456c-0.631,0-1.096,0.453-1.096,1.239
			c0,0.75,0.441,1.239,1.096,1.239c0.631,0,1.096-0.453,1.096-1.239S191.092,39.456,190.461,39.456z"/>
		<path fill="#218FB2" d="M200.958,45.995c-0.381,0.382-0.988,0.691-1.87,0.691c-0.881,0-1.525-0.31-1.894-0.679
			c-0.524-0.524-0.643-1.144-0.691-1.763h1.549c0.083,0.667,0.393,1.048,1.036,1.048c0.298,0,0.548-0.083,0.739-0.274
			c0.274-0.274,0.334-0.726,0.334-1.263c0-0.977-0.286-1.525-1.036-1.525c-0.632,0-0.917,0.358-1.025,0.691h-1.418v-4.79h4.837
			v1.394h-3.431v1.823c0.227-0.214,0.703-0.429,1.275-0.429c0.702,0,1.239,0.227,1.584,0.572c0.667,0.668,0.762,1.465,0.762,2.263
			C201.708,44.709,201.577,45.376,200.958,45.995z"/>
		<path fill="#218FB2" d="M209.632,42.946l-1.799,3.67h-1.68l1.763-3.502c-0.202,0.083-0.429,0.107-0.631,0.107
			c-1.143,0-2.24-0.941-2.24-2.514c0-1.668,1.144-2.644,2.645-2.644s2.644,0.941,2.644,2.621
			C210.335,41.457,210.013,42.172,209.632,42.946z M207.69,39.456c-0.631,0-1.096,0.453-1.096,1.239c0,0.75,0.441,1.239,1.096,1.239
			c0.631,0,1.096-0.453,1.096-1.239S208.322,39.456,207.69,39.456z"/>
		<path fill="#218FB2" d="M221.166,46.687c-1.382,0-2.681-0.727-2.704-2.502h1.549c0.024,0.762,0.548,1.108,1.156,1.108
			c0.667,0,1.143-0.417,1.143-1.18c0-0.703-0.429-1.168-1.191-1.168h-0.227V41.6h0.227c0.751,0,1.072-0.464,1.072-1.06
			c0-0.715-0.476-1.084-1.037-1.084c-0.584,0-1.012,0.381-1.048,1.025h-1.549c0.036-1.513,1.167-2.418,2.597-2.418
			c1.502,0,2.586,1.001,2.586,2.43c0,0.917-0.417,1.442-0.977,1.739c0.608,0.322,1.096,0.906,1.096,1.93
			C223.859,45.853,222.62,46.687,221.166,46.687z"/>
		<path fill="#218FB2" d="M229.817,46.615h-1.68l2.752-7.089h-2.24v1.334h-1.477v-2.728h5.397v1.394L229.817,46.615z"/>
		<path fill="#218FB2" d="M238.408,46.687c-1.501,0-2.644-0.941-2.644-2.621c0-0.774,0.333-1.489,0.715-2.263l1.787-3.67h1.691
			l-1.763,3.503c0.203-0.084,0.429-0.107,0.631-0.107c1.144,0,2.228,0.941,2.228,2.513C241.053,45.71,239.909,46.687,238.408,46.687
			z M238.408,42.815c-0.631,0-1.096,0.453-1.096,1.24c0,0.786,0.464,1.239,1.096,1.239s1.096-0.453,1.096-1.239
			C239.504,43.303,239.063,42.815,238.408,42.815z"/>
	</g>
	<g>
		<path fill="#218FB2" d="M101.066,100.281v-6.323l-1.602,1.393v-1.548l1.602-1.393h1.437v7.871
			C102.503,100.281,101.066,100.281,101.066,100.281z"/>
		<path fill="#218FB2" d="M113.88,100.348c-1.282,0-2.399-0.84-2.399-2.343v-3.316c0-1.504,1.117-2.343,2.399-2.343
			c1.283,0,2.388,0.84,2.388,2.343v3.316C116.268,99.507,115.162,100.348,113.88,100.348z M114.83,94.71
			c0-0.664-0.387-1.072-0.951-1.072c-0.564,0-0.961,0.409-0.961,1.072v3.283c0,0.663,0.398,1.062,0.961,1.062
			c0.564,0,0.951-0.398,0.951-1.062V94.71z"/>
		<path fill="#218FB2" d="M121.873,100.348c-1.282,0-2.399-0.84-2.399-2.343v-3.316c0-1.504,1.117-2.343,2.399-2.343
			c1.283,0,2.388,0.84,2.388,2.343v3.316C124.261,99.507,123.156,100.348,121.873,100.348z M122.824,94.71
			c0-0.664-0.387-1.072-0.951-1.072c-0.564,0-0.961,0.409-0.961,1.072v3.283c0,0.663,0.398,1.062,0.961,1.062
			c0.564,0,0.951-0.398,0.951-1.062V94.71z"/>
		<path fill="#218FB2" d="M131.68,96.876l-1.67,3.405h-1.559l1.636-3.25c-0.188,0.077-0.398,0.099-0.586,0.099
			c-1.061,0-2.078-0.873-2.078-2.333c0-1.547,1.061-2.454,2.454-2.454c1.393,0,2.454,0.873,2.454,2.432
			C132.332,95.495,132.034,96.158,131.68,96.876z M129.878,93.638c-0.586,0-1.017,0.42-1.017,1.15c0,0.696,0.409,1.15,1.017,1.15
			c0.586,0,1.017-0.42,1.017-1.15S130.464,93.638,129.878,93.638z"/>
		<path fill="#218FB2" d="M142.394,100.348c-1.393,0-2.454-0.873-2.454-2.432c0-0.718,0.309-1.382,0.663-2.1l1.658-3.405h1.57
			l-1.636,3.25c0.188-0.078,0.398-0.099,0.586-0.099c1.061,0,2.067,0.873,2.067,2.332
			C144.848,99.441,143.786,100.348,142.394,100.348z M142.394,96.755c-0.586,0-1.017,0.421-1.017,1.15
			c0,0.729,0.431,1.15,1.017,1.15s1.017-0.421,1.017-1.15C143.411,97.208,143.002,96.755,142.394,96.755z"/>
		<path fill="#218FB2" d="M150.377,100.348c-1.283,0-2.487-0.675-2.509-2.321h1.437c0.022,0.707,0.509,1.028,1.072,1.028
			c0.619,0,1.061-0.387,1.061-1.094c0-0.652-0.398-1.084-1.105-1.084h-0.21v-1.249h0.21c0.697,0,0.995-0.431,0.995-0.984
			c0-0.663-0.442-1.006-0.962-1.006c-0.542,0-0.939,0.353-0.972,0.951h-1.437c0.033-1.404,1.083-2.244,2.409-2.244
			c1.393,0,2.399,0.929,2.399,2.255c0,0.851-0.387,1.338-0.906,1.614c0.564,0.298,1.017,0.84,1.017,1.791
			C152.875,99.574,151.726,100.348,150.377,100.348z"/>
		<path fill="#218FB2" d="M158.138,100.281v-6.323l-1.602,1.393v-1.548l1.602-1.393h1.437v7.871
			C159.575,100.281,158.138,100.281,158.138,100.281z"/>
	</g>
	<path fill="#218FB2" d="M354.14,149.962l-0.317-0.948h-1.904l-0.323,0.948h-1.092l1.949-5.358h0.82l1.957,5.358H354.14z
		 M352.891,146.184l-0.677,1.949h1.332L352.891,146.184z"/>
	<path fill="#218FB2" d="M357.247,149.962v-5.358h1.046v4.425h2.431v0.933H357.247z"/>
	<g>
		<g>
			<path fill="#218FB2" d="M281.449,137.404v-6.613l-1.676,1.457v-1.619l1.676-1.457h1.503v8.232L281.449,137.404L281.449,137.404z"
				/>
			<path fill="#218FB2" d="M290.063,137.474c-1.457,0-2.566-0.913-2.566-2.544c0-0.751,0.323-1.445,0.694-2.197l1.734-3.561h1.641
				l-1.711,3.399c0.197-0.081,0.417-0.104,0.613-0.104c1.11,0,2.162,0.913,2.162,2.439
				C292.63,136.526,291.52,137.474,290.063,137.474z M290.063,133.716c-0.613,0-1.063,0.44-1.063,1.203
				c0,0.762,0.45,1.202,1.063,1.202s1.064-0.44,1.064-1.202C291.127,134.19,290.699,133.716,290.063,133.716z"/>
			<path fill="#218FB2" d="M300.285,136.803c-0.37,0.37-0.959,0.671-1.815,0.671c-0.855,0-1.48-0.301-1.838-0.659
				c-0.509-0.509-0.624-1.11-0.67-1.711h1.503c0.081,0.647,0.382,1.017,1.006,1.017c0.289,0,0.532-0.081,0.717-0.266
				c0.266-0.266,0.324-0.705,0.324-1.225c0-0.948-0.278-1.48-1.006-1.48c-0.613,0-0.89,0.347-0.994,0.671h-1.376v-4.648h4.694v1.353
				h-3.33v1.769c0.22-0.208,0.682-0.417,1.237-0.417c0.682,0,1.202,0.22,1.537,0.555c0.647,0.648,0.74,1.422,0.74,2.197
				C301.013,135.555,300.886,136.202,300.285,136.803z"/>
			<path fill="#218FB2" d="M306.784,137.474c-1.457,0-2.566-0.913-2.566-2.544c0-0.751,0.323-1.445,0.694-2.197l1.734-3.561h1.641
				l-1.711,3.399c0.197-0.081,0.417-0.104,0.613-0.104c1.11,0,2.162,0.913,2.162,2.439
				C309.35,136.526,308.24,137.474,306.784,137.474z M306.784,133.716c-0.613,0-1.063,0.44-1.063,1.203
				c0,0.762,0.45,1.202,1.063,1.202s1.064-0.44,1.064-1.202C307.847,134.19,307.419,133.716,306.784,133.716z"/>
			<path fill="#218FB2" d="M317.469,137.404v-1.353l3.075-3.572c0.301-0.358,0.428-0.613,0.428-0.994
				c0-0.613-0.358-1.029-0.994-1.029c-0.497,0-1.006,0.254-1.006,1.052h-1.503c0-1.503,1.098-2.405,2.509-2.405
				c1.457,0,2.497,0.913,2.497,2.393c0,0.798-0.312,1.225-0.879,1.885l-2.301,2.671h3.18v1.353L317.469,137.404L317.469,137.404z"/>
			<path fill="#218FB2" d="M328.013,137.404v-6.613l-1.676,1.457v-1.619l1.676-1.457h1.503v8.232L328.013,137.404L328.013,137.404z"
				/>
			<path fill="#218FB2" d="M336.617,137.474c-1.341,0-2.601-0.705-2.624-2.428h1.503c0.023,0.74,0.532,1.075,1.121,1.075
				c0.647,0,1.11-0.405,1.11-1.145c0-0.682-0.416-1.133-1.156-1.133h-0.22v-1.306h0.22c0.729,0,1.041-0.45,1.041-1.029
				c0-0.694-0.462-1.052-1.006-1.052c-0.566,0-0.982,0.37-1.017,0.994h-1.503c0.034-1.469,1.133-2.347,2.52-2.347
				c1.457,0,2.509,0.971,2.509,2.358c0,0.89-0.405,1.399-0.948,1.688c0.59,0.312,1.063,0.879,1.063,1.873
				C339.23,136.664,338.027,137.474,336.617,137.474z"/>
		</g>
		<path fill="#218FB2" d="M353.334,137.231l-1.045-2.137h-0.753v2.137h-1.046v-5.358h2.1c1.092,0,1.739,0.745,1.739,1.641
			c0,0.752-0.46,1.219-0.979,1.407l1.196,2.311h-1.212V137.231z M352.521,132.806h-0.986v1.415h0.986c0.459,0,0.76-0.294,0.76-0.707
			C353.282,133.099,352.98,132.806,352.521,132.806z"/>
		<path fill="#218FB2" d="M360.631,137.231v-2.243h-1.814v2.243h-1.046v-5.358h1.046v2.19h1.814v-2.19h1.046v5.358H360.631z"/>
		
			<line fill="none" stroke="#218FB2" stroke-width="0.5" stroke-miterlimit="10" x1="354.918" y1="135.222" x2="357.001" y2="135.222"/>
	</g>
	<g>
		<g>
			<g>
				<path fill="#D33C3D" d="M279.06,121.714v-1.292l2.937-3.412c0.287-0.342,0.409-0.585,0.409-0.95c0-0.585-0.342-0.983-0.95-0.983
					c-0.475,0-0.961,0.243-0.961,1.005h-1.436c0-1.436,1.049-2.297,2.396-2.297c1.391,0,2.385,0.872,2.385,2.285
					c0,0.762-0.298,1.171-0.84,1.8l-2.197,2.551h3.037v1.292L279.06,121.714L279.06,121.714z"/>
				<g>
					<path fill="#D33C3D" d="M293.434,121.78c-1.391,0-2.451-0.873-2.451-2.43c0-0.718,0.309-1.381,0.662-2.098l1.656-3.402h1.568
						l-1.634,3.247c0.188-0.078,0.398-0.099,0.585-0.099c1.06,0,2.065,0.872,2.065,2.33
						C295.886,120.875,294.825,121.78,293.434,121.78z M293.434,118.191c-0.585,0-1.016,0.42-1.016,1.149
						c0,0.728,0.43,1.148,1.016,1.148c0.585,0,1.016-0.42,1.016-1.148C294.45,118.644,294.041,118.191,293.434,118.191z"/>
					<path fill="#D33C3D" d="M301.176,121.714v-6.317l-1.601,1.391v-1.546l1.601-1.391h1.436v7.863H301.176z"/>
				</g>
				<path fill="#D33C3D" d="M308.955,121.78c-1.281,0-2.485-0.674-2.507-2.319h1.436c0.022,0.707,0.508,1.027,1.071,1.027
					c0.618,0,1.06-0.387,1.06-1.093c0-0.652-0.397-1.083-1.104-1.083h-0.21v-1.248h0.21c0.696,0,0.994-0.43,0.994-0.983
					c0-0.662-0.442-1.005-0.961-1.005c-0.541,0-0.938,0.353-0.971,0.95h-1.436c0.033-1.403,1.082-2.242,2.407-2.242
					c1.392,0,2.397,0.928,2.397,2.253c0,0.85-0.387,1.336-0.905,1.612c0.563,0.298,1.016,0.84,1.016,1.789
					C311.451,121.007,310.302,121.78,308.955,121.78z"/>
			</g>
			<path fill="#D33C3D" d="M188.794,30.687v-1.382l3.142-3.651c0.307-0.366,0.437-0.626,0.437-1.016
				c0-0.626-0.366-1.051-1.016-1.051c-0.508,0-1.028,0.26-1.028,1.075h-1.536c0-1.536,1.122-2.457,2.564-2.457
				c1.489,0,2.552,0.933,2.552,2.445c0,0.816-0.319,1.252-0.898,1.926l-2.351,2.729h3.249v1.382
				C193.909,30.687,188.794,30.687,188.794,30.687z"/>
			<g>
				<path fill="#D33C3D" d="M206.948,26.946l-1.799,3.67h-1.68l1.763-3.502c-0.202,0.083-0.429,0.107-0.631,0.107
					c-1.143,0-2.24-0.941-2.24-2.514c0-1.668,1.144-2.644,2.645-2.644s2.644,0.941,2.644,2.621
					C207.65,25.457,207.329,26.172,206.948,26.946z M205.006,23.456c-0.631,0-1.096,0.453-1.096,1.239
					c0,0.75,0.441,1.239,1.096,1.239c0.631,0,1.096-0.453,1.096-1.239C206.101,23.908,205.637,23.456,205.006,23.456z"/>
				<path fill="#D33C3D" d="M213.584,30.687c-1.501,0-2.644-0.941-2.644-2.621c0-0.774,0.333-1.489,0.715-2.263l1.787-3.67h1.691
					l-1.763,3.503c0.203-0.084,0.429-0.107,0.631-0.107c1.144,0,2.228,0.941,2.228,2.513
					C216.229,29.71,215.086,30.687,213.584,30.687z M213.584,26.815c-0.631,0-1.096,0.453-1.096,1.24
					c0,0.786,0.464,1.239,1.096,1.239s1.096-0.453,1.096-1.239C214.681,27.303,214.24,26.815,213.584,26.815z"/>
			</g>
			<path fill="#D33C3D" d="M220.943,30.615v-6.814l-1.727,1.501v-1.668l1.727-1.501h1.549v8.482H220.943z"/>
		</g>
		<path fill="#D33C3D" d="M99.463,84.999v-1.293l2.94-3.416c0.288-0.343,0.409-0.586,0.409-0.951c0-0.586-0.343-0.984-0.951-0.984
			c-0.475,0-0.961,0.243-0.961,1.006h-1.437c0-1.437,1.05-2.299,2.399-2.299c1.393,0,2.388,0.873,2.388,2.288
			c0,0.763-0.298,1.172-0.84,1.802l-2.2,2.554h3.04v1.293H99.463z"/>
		<g>
			<path fill="#D33C3D" d="M113.796,84.999h-1.559l2.554-6.578h-2.078v1.238h-1.371v-2.532h5.007v1.293L113.796,84.999z"/>
			<path fill="#D33C3D" d="M121.789,85.065c-1.393,0-2.52-0.829-2.52-2.355c0-0.961,0.553-1.481,0.984-1.768
				c-0.398-0.277-0.884-0.796-0.884-1.636c0-1.393,1.105-2.244,2.421-2.244c1.316,0,2.41,0.851,2.41,2.244
				c0,0.84-0.486,1.359-0.884,1.636c0.431,0.287,0.995,0.807,0.995,1.768C124.31,84.236,123.182,85.065,121.789,85.065z
				 M121.789,81.594c-0.608,0-1.083,0.486-1.083,1.094s0.475,1.084,1.083,1.084s1.084-0.476,1.084-1.084
				S122.397,81.594,121.789,81.594z M121.789,78.355c-0.564,0-0.984,0.431-0.984,0.994c0,0.575,0.42,0.995,0.984,0.995
				s0.973-0.42,0.973-0.995C122.762,78.786,122.353,78.355,121.789,78.355z"/>
		</g>
		<path fill="#D33C3D" d="M128.553,84.999v-6.323l-1.602,1.393V78.52l1.602-1.393h1.437v7.871L128.553,84.999L128.553,84.999z"/>
	</g>
	<path fill="#D33C3D" d="M110.925,338.127h-1.979v3.871h-2.008v-10.286h3.987c2.123,0,3.394,1.459,3.394,3.207
		S113.049,338.127,110.925,338.127z M110.824,333.504h-1.878v2.817h1.878c0.91,0,1.487-0.564,1.487-1.401
		S111.734,333.504,110.824,333.504z"/>
	<path fill="#D33C3D" d="M124.838,340.958c-0.723,0.723-1.603,1.127-2.774,1.127s-2.066-0.405-2.788-1.127
		c-1.04-1.04-1.011-2.326-1.011-4.102c0-1.777-0.029-3.062,1.011-4.103c0.723-0.723,1.618-1.127,2.788-1.127
		s2.051,0.404,2.774,1.127c1.04,1.04,1.026,2.326,1.026,4.103C125.863,338.632,125.878,339.918,124.838,340.958z M123.35,333.966
		c-0.289-0.332-0.737-0.549-1.285-0.549s-1.011,0.217-1.3,0.549c-0.39,0.434-0.491,0.91-0.491,2.889
		c0,1.979,0.101,2.456,0.491,2.889c0.289,0.333,0.751,0.55,1.3,0.55s0.997-0.217,1.285-0.55c0.39-0.433,0.506-0.91,0.506-2.889
		C123.855,334.876,123.74,334.4,123.35,333.966z"/>
	<path fill="#D33C3D" d="M134.142,342.085c-2.109,0-3.784-1.43-3.784-3.612v-6.761h2.008v6.689c0,1.184,0.693,1.893,1.776,1.893
		s1.792-0.708,1.792-1.893v-6.689h1.993v6.761C137.927,340.655,136.252,342.085,134.142,342.085z"/>
	<path fill="#D33C3D" d="M148.229,341.998l-2.008-4.103h-1.444v4.103h-2.008v-10.286h4.03c2.095,0,3.337,1.43,3.337,3.149
		c0,1.444-0.881,2.341-1.878,2.702l2.297,4.435H148.229z M146.669,333.504h-1.892v2.716h1.892c0.881,0,1.459-0.564,1.459-1.358
		S147.551,333.504,146.669,333.504z"/>
	<path fill="#D33C3D" d="M163.154,341.998v-8.263l-2.094,1.82v-2.023l2.094-1.82h1.878v10.286H163.154z"/>
	<path fill="#D33C3D" d="M173.947,342.085c-1.675,0-3.134-1.098-3.134-3.062v-4.334c0-1.965,1.459-3.062,3.134-3.062
		c1.676,0,3.12,1.098,3.12,3.062v4.334C177.067,340.986,175.623,342.085,173.947,342.085z M175.189,334.718
		c0-0.867-0.506-1.401-1.242-1.401c-0.737,0-1.256,0.534-1.256,1.401v4.29c0,0.867,0.52,1.387,1.256,1.387
		c0.737,0,1.242-0.521,1.242-1.387V334.718z"/>
	<path fill="#D33C3D" d="M190.346,342.085c-1.675,0-3.134-1.098-3.134-3.062v-4.334c0-1.965,1.459-3.062,3.134-3.062
		c1.676,0,3.12,1.098,3.12,3.062v4.334C193.466,340.986,192.022,342.085,190.346,342.085z M191.588,334.718
		c0-0.867-0.506-1.401-1.242-1.401s-1.256,0.534-1.256,1.401v4.29c0,0.867,0.52,1.387,1.256,1.387s1.242-0.521,1.242-1.387V334.718z
		"/>
	<path fill="#D33C3D" d="M200.792,342.085c-1.675,0-3.134-1.098-3.134-3.062v-4.334c0-1.965,1.459-3.062,3.134-3.062
		c1.676,0,3.12,1.098,3.12,3.062v4.334C203.912,340.986,202.468,342.085,200.792,342.085z M202.034,334.718
		c0-0.867-0.506-1.401-1.242-1.401s-1.256,0.534-1.256,1.401v4.29c0,0.867,0.52,1.387,1.256,1.387s1.242-0.521,1.242-1.387V334.718z
		"/>
	<path fill="#D33C3D" d="M211.238,342.085c-1.675,0-3.134-1.098-3.134-3.062v-4.334c0-1.965,1.459-3.062,3.134-3.062
		c1.676,0,3.12,1.098,3.12,3.062v4.334C214.358,340.986,212.914,342.085,211.238,342.085z M212.48,334.718
		c0-0.867-0.506-1.401-1.242-1.401s-1.256,0.534-1.256,1.401v4.29c0,0.867,0.52,1.387,1.256,1.387s1.242-0.521,1.242-1.387V334.718z
		"/>
	<path fill="#D33C3D" d="M230.396,341.998v-4.305h-3.481v4.305h-2.008v-10.286h2.008v4.204h3.481v-4.204h2.008v10.286H230.396z"/>
	<path fill="#D33C3D" d="M243.254,341.998l-0.607-1.82h-3.655l-0.621,1.82h-2.095l3.742-10.286h1.574l3.756,10.286H243.254z
		 M240.856,334.746l-1.3,3.741h2.557L240.856,334.746z"/>
	<path fill="#D33C3D" d="M253.527,341.998h-4.305v-10.286h4.131c2.008,0,3.178,1.127,3.178,2.889c0,1.141-0.751,1.878-1.271,2.124
		c0.622,0.289,1.415,0.939,1.415,2.311C256.676,340.958,255.361,341.998,253.527,341.998z M253.194,333.504h-1.964v2.369h1.964
		c0.852,0,1.329-0.477,1.329-1.184C254.523,333.981,254.047,333.504,253.194,333.504z M253.324,337.679h-2.094v2.528h2.094
		c0.91,0,1.343-0.578,1.343-1.271C254.668,338.242,254.235,337.679,253.324,337.679z"/>
	<path fill="#218FB2" d="M116.855,365.263c-1.049,0-1.932-0.359-2.65-1.077c-0.428-0.428-0.69-0.924-0.8-1.476
		c-0.11-0.552-0.165-1.366-0.165-2.443c0-1.077,0.055-1.891,0.165-2.443c0.111-0.565,0.372-1.048,0.8-1.476
		c0.718-0.718,1.601-1.076,2.65-1.076c1.891,0,3.285,1.104,3.616,3.105h-1.946c-0.207-0.842-0.731-1.394-1.656-1.394
		c-0.524,0-0.939,0.165-1.228,0.511c-0.401,0.428-0.483,0.869-0.483,2.774c0,1.904,0.082,2.346,0.483,2.774
		c0.289,0.345,0.704,0.511,1.228,0.511c0.924,0,1.449-0.553,1.656-1.394h1.946C120.14,364.158,118.732,365.263,116.855,365.263z"/>
	<path fill="#218FB2" d="M129.857,365.097v-4.112h-3.326v4.112h-1.918v-9.826h1.918v4.016h3.326v-4.016h1.918v9.826H129.857z"/>
	<path fill="#218FB2" d="M136.552,365.097v-9.826h1.918v9.826H136.552z"/>
	<path fill="#218FB2" d="M145.164,356.983v2.415h3.878v1.711h-3.878v3.988h-1.918v-9.826h6.472v1.712H145.164z"/>
	<path fill="#218FB2" d="M155.792,356.983v2.415h3.878v1.711h-3.878v3.988h-1.918v-9.826h6.472v1.712H155.792z"/>
	<path fill="#218FB2" d="M169.718,365.097l-1.918-3.919h-1.38v3.919h-1.918v-9.826h3.85c2.001,0,3.188,1.366,3.188,3.009
		c0,1.38-0.842,2.236-1.794,2.581l2.194,4.237H169.718z M168.227,356.983h-1.808v2.594h1.808c0.842,0,1.394-0.538,1.394-1.298
		C169.621,357.521,169.069,356.983,168.227,356.983z"/>
	<path fill="#218FB2" d="M176.012,365.097v-9.826h6.472v1.712h-4.554v2.304h3.878v1.711h-3.878v2.388h4.554v1.711H176.012z"/>
	<path fill="#218FB2" d="M204.003,365.097h-4.112v-9.826h3.946c1.918,0,3.036,1.077,3.036,2.76c0,1.09-0.718,1.794-1.215,2.029
		c0.593,0.276,1.352,0.897,1.352,2.208C207.011,364.104,205.755,365.097,204.003,365.097z M203.685,356.983h-1.876v2.263h1.876
		c0.814,0,1.27-0.455,1.27-1.132S204.5,356.983,203.685,356.983z M203.809,360.972h-2.001v2.415h2.001
		c0.87,0,1.283-0.552,1.283-1.215S204.679,360.972,203.809,360.972z"/>
	<path fill="#218FB2" d="M216.673,365.097l-1.918-3.919h-1.38v3.919h-1.918v-9.826h3.85c2.001,0,3.188,1.366,3.188,3.009
		c0,1.38-0.842,2.236-1.794,2.581l2.194,4.237H216.673z M215.183,356.983h-1.808v2.594h1.808c0.842,0,1.394-0.538,1.394-1.298
		C216.577,357.521,216.025,356.983,215.183,356.983z"/>
	<path fill="#218FB2" d="M226.431,365.18c-2.015,0-3.615-1.366-3.615-3.451v-6.458h1.918v6.39c0,1.132,0.662,1.808,1.697,1.808
		s1.712-0.677,1.712-1.808v-6.39h1.904v6.458C230.047,363.814,228.446,365.18,226.431,365.18z"/>
	<path fill="#218FB2" d="M238.426,356.983v8.114h-1.918v-8.114h-2.567v-1.712h7.052v1.712H238.426z"/>
	<path fill="#218FB2" d="M246.89,365.15c-1.473,0-2.592-0.314-3.547-1.283l1.228-1.228c0.614,0.614,1.446,0.818,2.347,0.818
		c1.119,0,1.719-0.423,1.719-1.201c0-0.341-0.095-0.628-0.3-0.818c-0.191-0.177-0.409-0.273-0.86-0.341l-1.173-0.163
		c-0.832-0.123-1.446-0.382-1.883-0.805c-0.464-0.464-0.696-1.091-0.696-1.91c0-1.733,1.283-2.947,3.384-2.947
		c1.337,0,2.306,0.327,3.138,1.132l-1.201,1.187c-0.614-0.587-1.351-0.669-1.992-0.669c-1.01,0-1.501,0.559-1.501,1.228
		c0,0.245,0.082,0.505,0.286,0.696c0.191,0.177,0.505,0.327,0.9,0.382l1.146,0.164c0.887,0.123,1.446,0.368,1.856,0.75
		c0.519,0.491,0.75,1.201,0.75,2.06C250.492,364.085,248.923,365.15,246.89,365.15z"/>
	<path fill="#218FB2" d="M188.644,365.15c-1.473,0-2.592-0.314-3.547-1.283l1.228-1.228c0.614,0.614,1.446,0.818,2.347,0.818
		c1.119,0,1.719-0.423,1.719-1.201c0-0.341-0.095-0.628-0.3-0.818c-0.191-0.177-0.409-0.273-0.86-0.341l-1.173-0.163
		c-0.832-0.123-1.446-0.382-1.883-0.805c-0.464-0.464-0.696-1.091-0.696-1.91c0-1.733,1.283-2.947,3.384-2.947
		c1.337,0,2.306,0.327,3.138,1.132l-1.201,1.187c-0.614-0.587-1.351-0.669-1.992-0.669c-1.01,0-1.501,0.559-1.501,1.228
		c0,0.245,0.082,0.505,0.286,0.696c0.191,0.177,0.505,0.327,0.9,0.382l1.146,0.164c0.887,0.123,1.446,0.368,1.856,0.75
		c0.519,0.491,0.75,1.201,0.75,2.06C192.246,364.085,190.677,365.15,188.644,365.15z"/>
</g>
</svg>
