<?xml version="1.0" encoding="utf-8"?>
<!-- Generator: Adobe Illustrator 17.0.0, SVG Export Plug-In . SVG Version: 6.00 Build 0)  -->
<!DOCTYPE svg PUBLIC "-//W3C//DTD SVG 1.1//EN" "http://www.w3.org/Graphics/SVG/1.1/DTD/svg11.dtd">
<svg version="1.1" id="Calque_2_1_" xmlns="http://www.w3.org/2000/svg" xmlns:xlink="http://www.w3.org/1999/xlink" x="0px"
	 y="0px" width="385.333px" height="381px" viewBox="0 0 385.333 381" enable-background="new 0 0 385.333 381"
	 xml:space="preserve">
<g>
	<path fill="#218FB2" d="M794.881,150.052c-0.813,0-1.43-0.174-1.957-0.707l0.677-0.677c0.339,0.339,0.798,0.452,1.295,0.452
		c0.617,0,0.948-0.234,0.948-0.663c0-0.188-0.053-0.346-0.166-0.452c-0.105-0.098-0.226-0.15-0.474-0.188l-0.647-0.09
		c-0.46-0.068-0.798-0.211-1.039-0.444c-0.256-0.256-0.384-0.602-0.384-1.053c0-0.956,0.707-1.626,1.866-1.626
		c0.737,0,1.272,0.181,1.731,0.625l-0.662,0.655c-0.339-0.323-0.745-0.369-1.099-0.369c-0.556,0-0.828,0.309-0.828,0.677
		c0,0.136,0.045,0.279,0.158,0.384c0.105,0.098,0.278,0.18,0.496,0.21l0.633,0.09c0.489,0.068,0.798,0.204,1.023,0.414
		c0.286,0.271,0.414,0.662,0.414,1.136C796.867,149.465,796.002,150.052,794.881,150.052z"/>
	<path fill="#218FB2" d="M722.542,299.426l-241.343-75.469l-7.075-62.76c0,0-0.655-2.358,3.276-3.014l57.65-11.137l-0.917-15.33
		c0,0-0.262-2.751,3.8-3.145l54.636-7.73l75.6,4.455c0,0,3.276-0.262,3.538,4.455l-1.834,52.016c0,0,1.441,1.703,2.62,1.703
		l89.75,14.281c0,0,2.096-0.393,1.965,4.717l-5.372,51.754L722.542,299.426z"/>
	<path fill="#D7D6D1" d="M571.091,184.851l0.214-29.654c0,0-1.508,1.418-2.885,1.937c-1.837,0.705-3.96,0.994-3.96,0.994
		l0.036-5.007c0,0,2.999-0.526,5.049-2.026c1.758-1.293,3.482-3.892,3.482-3.892l3.368,0.384l-0.273,37.837L571.091,184.851z"/>
	<g>
		<path fill="#D7D6D1" d="M670.904,270.002c-3.578-0.239-7.056-1.462-9.987-4.036l2.452-4.047c2.645,2.208,5.061,3.113,7.831,3.298
			c3.77,0.252,6.628-2.233,6.869-6.131c0.235-3.799-1.468-6.242-6.084-6.55l-2.924-0.195l0.302-4.885l2.962,0.198
			c3.385,0.226,5.56-2.453,5.795-6.253c0.309-4.984-2.755-6.03-5.179-6.192c-1.846-0.123-4.755,1.317-6.151,3.899l-2.657-3.249
			c2.698-4.279,6.078-5.837,9.925-5.58c7.001,0.468,8.952,6.395,8.671,10.935c-0.324,5.231-2.955,8.424-4.779,8.55
			c2.097,0.438,5.086,3.957,4.737,9.582C682.255,266.351,677.982,270.475,670.904,270.002z"/>
	</g>
	<g>
		<path fill="#D7D6D1" d="M492.079,207.947l10.894-9.079c0.908-0.841,4.874-3.934,5.071-6.941c0.238-3.643-1.965-5.266-4.619-5.964
			c-3.422-0.9-5.349,0.86-5.518,3.442l-0.079,1.203l-3.876-1.019l0.083-1.273c0.289-4.421,4.07-7.384,9.552-5.943
			c4.959,1.304,9.12,4.486,8.732,10.427c-0.277,4.244-4.316,7.355-4.991,7.897l-6.796,5.624l11.698,3.077l-0.247,3.785
			L492.079,207.947z"/>
	</g>
	<path fill="#106377" d="M621.131,207.055c0,0,105.735,23.584,106.521,23.191l35.376-32.232l-90.537-14.544L621.131,207.055z"/>
	<path fill="#106377" d="M618.969,203.321l51.295-22.208l1.572-53.064c0,0-0.393-2.555-1.965-2.162c0,0-51.295,15.133-50.706,15.133
		C619.755,141.02,618.969,203.321,618.969,203.321z"/>
	<polygon fill="#106377" points="476.613,158.969 536.359,170.499 535.049,147.046 	"/>
	<line fill="none" stroke="#106377" stroke-miterlimit="10" x1="612.286" y1="115.813" x2="612.286" y2="20.213"/>
	
		<line fill="none" stroke="#106377" stroke-miterlimit="10" stroke-dasharray="3" x1="522.383" y1="141.94" x2="522.383" y2="73.656"/>
	<g>
		<line fill="none" x1="702.643" y1="182.705" x2="702.643" y2="110.66"/>
		<g>
			<line fill="none" stroke="#106377" stroke-miterlimit="10" x1="702.643" y1="182.705" x2="702.643" y2="181.205"/>
			
				<line fill="none" stroke="#106377" stroke-miterlimit="10" stroke-dasharray="3.0019,3.0019" x1="702.643" y1="178.203" x2="702.643" y2="113.661"/>
			<line fill="none" stroke="#106377" stroke-miterlimit="10" x1="702.643" y1="112.16" x2="702.643" y2="110.66"/>
		</g>
	</g>
	<g>
		<path fill="#106377" d="M467.626,66.819h-1.508v2.948h-1.529v-7.833h3.037c1.617,0,2.585,1.111,2.585,2.442
			S469.243,66.819,467.626,66.819z M467.548,63.298h-1.43v2.146h1.43c0.693,0,1.133-0.43,1.133-1.067
			C468.682,63.738,468.241,63.298,467.548,63.298z"/>
		<path fill="#106377" d="M477.162,69.767l-0.462-1.386h-2.783l-0.473,1.386h-1.595l2.849-7.833h1.199l2.86,7.833H477.162z
			 M475.336,64.244l-0.99,2.849h1.947L475.336,64.244z"/>
		<path fill="#106377" d="M484.093,66.554v3.213h-1.519v-3.213l-2.354-4.62h1.661l1.463,3.157l1.441-3.157h1.661L484.093,66.554z"/>
		<path fill="#106377" d="M491.308,69.833c-1.188,0-2.09-0.254-2.86-1.034l0.99-0.99c0.495,0.495,1.166,0.66,1.892,0.66
			c0.902,0,1.386-0.342,1.386-0.969c0-0.274-0.077-0.506-0.242-0.66c-0.154-0.143-0.33-0.22-0.693-0.274l-0.946-0.132
			c-0.671-0.1-1.166-0.309-1.518-0.649c-0.374-0.374-0.561-0.88-0.561-1.54c0-1.397,1.034-2.377,2.729-2.377
			c1.078,0,1.859,0.265,2.53,0.913l-0.968,0.957c-0.495-0.473-1.089-0.539-1.606-0.539c-0.814,0-1.21,0.451-1.21,0.99
			c0,0.198,0.066,0.407,0.231,0.562c0.154,0.143,0.407,0.264,0.726,0.308l0.924,0.132c0.715,0.1,1.166,0.298,1.496,0.605
			c0.418,0.396,0.605,0.968,0.605,1.661C494.212,68.975,492.947,69.833,491.308,69.833z"/>
		<path fill="#106377" d="M506.62,69.019c-0.517,0.517-1.254,0.748-2.068,0.748h-2.828v-7.833h2.828c0.814,0,1.551,0.23,2.068,0.748
			c0.88,0.88,0.792,1.958,0.792,3.136C507.413,66.994,507.501,68.139,506.62,69.019z M505.553,63.782
			c-0.264-0.318-0.616-0.483-1.144-0.483h-1.155v5.104h1.155c0.528,0,0.88-0.165,1.144-0.484c0.286-0.352,0.33-0.913,0.33-2.101
			C505.883,64.629,505.839,64.134,505.553,63.782z"/>
		<path fill="#106377" d="M510.734,69.767v-7.833h5.16v1.364h-3.63v1.837h3.091v1.364h-3.091v1.903h3.63v1.364h-5.16V69.767z"/>
		<path fill="#106377" d="M523.461,69.767v-7.833h1.529v6.469h3.554v1.364H523.461z"/>
		<path fill="#106377" d="M536.001,69.767l-0.462-1.386h-2.783l-0.473,1.386h-1.595l2.849-7.833h1.199l2.86,7.833H536.001z
			 M534.175,64.244l-0.99,2.849h1.947L534.175,64.244z"/>
		<path fill="#106377" d="M544.635,69.767v-7.833h1.529v6.469h3.554v1.364H544.635z"/>
		<path fill="#106377" d="M557.177,68.975c-0.55,0.55-1.221,0.858-2.112,0.858c-0.891,0-1.573-0.309-2.123-0.858
			c-0.792-0.792-0.771-1.771-0.771-3.125c0-1.353-0.022-2.332,0.771-3.124c0.55-0.55,1.232-0.858,2.123-0.858
			c0.891,0,1.562,0.309,2.112,0.858c0.792,0.792,0.781,1.771,0.781,3.124C557.958,67.203,557.969,68.183,557.177,68.975z
			 M556.043,63.65c-0.22-0.253-0.561-0.418-0.979-0.418c-0.418,0-0.77,0.165-0.99,0.418c-0.297,0.33-0.374,0.693-0.374,2.2
			c0,1.508,0.077,1.871,0.374,2.201c0.22,0.253,0.572,0.418,0.99,0.418c0.418,0,0.759-0.165,0.979-0.418
			c0.297-0.33,0.385-0.693,0.385-2.201C556.428,64.343,556.34,63.98,556.043,63.65z"/>
		<path fill="#106377" d="M561.279,69.767v-7.833h1.529v7.833H561.279z"/>
		<path fill="#106377" d="M570.552,69.767l-1.529-3.124h-1.1v3.124h-1.529v-7.833h3.069c1.595,0,2.542,1.089,2.542,2.398
			c0,1.1-0.671,1.782-1.43,2.057l1.749,3.378H570.552z M569.365,63.298h-1.441v2.068h1.441c0.671,0,1.111-0.43,1.111-1.034
			C570.475,63.727,570.036,63.298,569.365,63.298z"/>
		<path fill="#106377" d="M575.347,69.767v-7.833h5.16v1.364h-3.63v1.837h3.091v1.364h-3.091v1.903h3.63v1.364h-5.16V69.767z"/>
	</g>
	<g>
		<path fill="#106377" d="M582.767,15.028h-3.278V7.195h3.146c1.529,0,2.42,0.858,2.42,2.2c0,0.869-0.572,1.431-0.968,1.617
			c0.473,0.22,1.078,0.715,1.078,1.761C585.165,14.236,584.164,15.028,582.767,15.028z M582.514,8.559h-1.496v1.804h1.496
			c0.649,0,1.012-0.362,1.012-0.901S583.163,8.559,582.514,8.559z M582.613,11.739h-1.595v1.925h1.595
			c0.693,0,1.023-0.44,1.023-0.968C583.636,12.167,583.307,11.739,582.613,11.739z"/>
		<path fill="#106377" d="M592.646,15.028l-1.529-3.124h-1.1v3.124h-1.529V7.195h3.069c1.595,0,2.542,1.089,2.542,2.398
			c0,1.1-0.671,1.782-1.43,2.057l1.749,3.378C594.417,15.028,592.646,15.028,592.646,15.028z M591.458,8.559h-1.441v2.068h1.441
			c0.671,0,1.111-0.43,1.111-1.034C592.568,8.988,592.128,8.559,591.458,8.559z"/>
		<path fill="#106377" d="M597.44,15.028V7.195h5.16v1.364h-3.63v1.837h3.091v1.364h-3.091v1.903h3.63v1.364L597.44,15.028
			L597.44,15.028z"/>
		<path fill="#106377" d="M608.847,8.559v6.469h-1.529V8.559h-2.046V7.195h5.622v1.364H608.847z"/>
		<path fill="#106377" d="M617.691,15.028l-0.462-1.386h-2.783l-0.473,1.386h-1.595l2.849-7.833h1.199l2.86,7.833H617.691z
			 M615.865,9.505l-0.99,2.849h1.947L615.865,9.505z"/>
		<path fill="#106377" d="M626.734,14.202c-0.605,0.616-1.331,0.892-2.211,0.892c-0.836,0-1.541-0.286-2.112-0.858
			c-0.341-0.341-0.55-0.737-0.638-1.178c-0.088-0.439-0.132-1.089-0.132-1.947c0-0.857,0.044-1.507,0.132-1.947
			c0.088-0.45,0.297-0.836,0.638-1.177c0.572-0.572,1.276-0.858,2.112-0.858c1.782,0,2.739,1.145,2.948,2.509h-1.54
			c-0.188-0.759-0.649-1.145-1.408-1.145c-0.407,0-0.737,0.144-0.979,0.418c-0.286,0.363-0.374,0.649-0.374,2.2
			c0,1.541,0.066,1.849,0.374,2.212c0.231,0.274,0.561,0.407,0.979,0.407c0.451,0,0.814-0.144,1.089-0.44
			c0.231-0.264,0.352-0.616,0.352-1.045v-0.297h-1.441v-1.276h2.959v1.144C627.482,12.959,627.272,13.63,626.734,14.202z"/>
		<path fill="#106377" d="M635.302,15.028l-3.103-4.808v4.808h-1.529V7.195h1.364l3.103,4.797V7.195h1.529v7.833H635.302z"/>
		<path fill="#106377" d="M640.251,15.028V7.195h5.159v1.364h-3.63v1.837h3.091v1.364h-3.091v1.903h3.63v1.364L640.251,15.028
			L640.251,15.028z"/>
	</g>
	<g>
		<path fill="#106377" d="M686.05,93.254l-1.529-3.124h-1.101v3.124h-1.529v-7.833h3.069c1.596,0,2.542,1.089,2.542,2.398
			c0,1.1-0.671,1.782-1.431,2.057l1.749,3.378H686.05z M684.862,86.785h-1.441v2.068h1.441c0.671,0,1.111-0.43,1.111-1.034
			C685.974,87.214,685.533,86.785,684.862,86.785z"/>
		<path fill="#106377" d="M695.026,93.254v-3.278h-2.651v3.278h-1.529v-7.833h1.529v3.201h2.651v-3.201h1.529v7.833H695.026z"/>
		<path fill="#106377" d="M704.882,92.462c-0.55,0.55-1.222,0.858-2.112,0.858c-0.892,0-1.573-0.309-2.123-0.858
			c-0.793-0.792-0.771-1.771-0.771-3.125c0-1.353-0.022-2.332,0.771-3.124c0.55-0.55,1.231-0.858,2.123-0.858
			c0.891,0,1.562,0.309,2.112,0.858c0.792,0.792,0.781,1.771,0.781,3.124C705.664,90.69,705.674,91.67,704.882,92.462z
			 M703.683,84.662l-0.913-1.002l-0.913,1.002h-1.111l1.452-1.859h1.145l1.452,1.859H703.683z M703.75,87.136
			c-0.22-0.253-0.561-0.418-0.979-0.418c-0.418,0-0.771,0.165-0.99,0.418c-0.297,0.33-0.374,0.693-0.374,2.2
			c0,1.508,0.077,1.871,0.374,2.201c0.22,0.253,0.572,0.418,0.99,0.418c0.418,0,0.759-0.165,0.979-0.418
			c0.298-0.33,0.386-0.693,0.386-2.201C704.135,87.83,704.047,87.466,703.75,87.136z"/>
		<path fill="#106377" d="M713.616,93.254l-3.103-4.808v4.808h-1.529v-7.833h1.364l3.103,4.797v-4.797h1.529v7.833H713.616z"/>
		<path fill="#106377" d="M718.565,93.254v-7.833h5.16v1.364h-3.631v1.837h3.092v1.364h-3.092v1.903h3.631v1.364h-5.16V93.254z"/>
		<path fill="#106377" d="M659.172,106.454l-0.462-1.386h-2.783l-0.474,1.386h-1.595l2.849-7.833h1.199l2.86,7.833H659.172z
			 M657.346,100.931l-0.99,2.849h1.947L657.346,100.931z"/>
		<path fill="#106377" d="M663.495,106.454v-7.833h1.529v6.469h3.554v1.364H663.495z"/>
		<path fill="#106377" d="M674.617,103.506h-1.508v2.948h-1.529v-7.833h3.037c1.617,0,2.585,1.111,2.585,2.442
			S676.234,103.506,674.617,103.506z M674.54,99.985h-1.431v2.146h1.431c0.692,0,1.133-0.43,1.133-1.067
			C675.672,100.424,675.232,99.985,674.54,99.985z"/>
		<path fill="#106377" d="M680.248,106.454v-7.833h5.159v1.364h-3.63v1.837h3.091v1.364h-3.091v1.903h3.63v1.364h-5.159V106.454z"/>
		<path fill="#106377" d="M690.819,106.52c-1.188,0-2.091-0.254-2.86-1.034l0.99-0.99c0.495,0.495,1.166,0.66,1.892,0.66
			c0.902,0,1.387-0.342,1.387-0.969c0-0.274-0.077-0.506-0.242-0.66c-0.154-0.143-0.33-0.22-0.693-0.274l-0.946-0.132
			c-0.671-0.1-1.166-0.309-1.518-0.649c-0.374-0.374-0.562-0.88-0.562-1.54c0-1.397,1.034-2.377,2.729-2.377
			c1.078,0,1.859,0.265,2.53,0.913l-0.968,0.957c-0.495-0.473-1.089-0.539-1.606-0.539c-0.814,0-1.21,0.451-1.21,0.99
			c0,0.198,0.065,0.407,0.23,0.562c0.154,0.143,0.407,0.264,0.727,0.308l0.924,0.132c0.716,0.1,1.166,0.298,1.496,0.605
			c0.418,0.396,0.605,0.968,0.605,1.661C693.724,105.662,692.458,106.52,690.819,106.52z"/>
		<path fill="#106377" d="M696.659,103.209v-1.332h3.389v1.332H696.659z"/>
		<path fill="#106377" d="M707.825,106.454l-0.462-1.386h-2.783l-0.473,1.386h-1.596l2.85-7.833h1.199l2.86,7.833H707.825z
			 M706,100.931l-0.99,2.849h1.947L706,100.931z"/>
		<path fill="#106377" d="M712.147,106.454v-7.833h1.529v6.469h3.554v1.364H712.147z"/>
		<path fill="#106377" d="M722.39,106.52c-1.188,0-2.091-0.254-2.86-1.034l0.99-0.99c0.495,0.495,1.166,0.66,1.892,0.66
			c0.902,0,1.387-0.342,1.387-0.969c0-0.274-0.077-0.506-0.242-0.66c-0.154-0.143-0.33-0.22-0.693-0.274l-0.946-0.132
			c-0.671-0.1-1.166-0.309-1.518-0.649c-0.374-0.374-0.562-0.88-0.562-1.54c0-1.397,1.034-2.377,2.729-2.377
			c1.078,0,1.859,0.265,2.53,0.913l-0.968,0.957c-0.495-0.473-1.089-0.539-1.606-0.539c-0.814,0-1.21,0.451-1.21,0.99
			c0,0.198,0.065,0.407,0.23,0.562c0.154,0.143,0.407,0.264,0.727,0.308l0.924,0.132c0.716,0.1,1.166,0.298,1.496,0.605
			c0.418,0.396,0.605,0.968,0.605,1.661C725.293,105.662,724.028,106.52,722.39,106.52z"/>
		<path fill="#106377" d="M732.949,106.454l-0.462-1.386h-2.783l-0.473,1.386h-1.596l2.85-7.833h1.199l2.86,7.833H732.949z
			 M731.123,100.931l-0.99,2.849h1.947L731.123,100.931z"/>
		<path fill="#106377" d="M739.781,106.52c-0.837,0-1.541-0.286-2.112-0.858c-0.342-0.341-0.551-0.737-0.639-1.178
			c-0.088-0.439-0.132-1.089-0.132-1.947c0-0.857,0.044-1.507,0.132-1.947c0.088-0.45,0.297-0.836,0.639-1.177
			c0.571-0.572,1.275-0.858,2.112-0.858c1.507,0,2.618,0.881,2.882,2.476h-1.551c-0.165-0.671-0.583-1.111-1.32-1.111
			c-0.418,0-0.748,0.132-0.979,0.407c-0.319,0.341-0.385,0.693-0.385,2.211c0,1.519,0.065,1.871,0.385,2.212
			c0.231,0.274,0.562,0.407,0.979,0.407c0.737,0,1.155-0.44,1.32-1.111h1.551C742.399,105.639,741.277,106.52,739.781,106.52z"/>
		<path fill="#106377" d="M745.742,106.454v-7.833h5.159v1.364h-3.63v1.837h3.091v1.364h-3.091v1.903h3.63v1.364h-5.159V106.454z"/>
	</g>
	<g>
		<path fill="#218FB2" d="M715.062,151.736v1.168h-1.445v-1.168h-3.364v-1.422l2.821-5.642h1.641l-2.821,5.642h1.723v-1.538h1.445
			v1.538h0.751v1.422H715.062z"/>
		<path fill="#218FB2" d="M721.397,152.974c-1.457,0-2.636-0.867-2.636-2.463c0-1.006,0.578-1.549,1.029-1.849
			c-0.416-0.289-0.925-0.833-0.925-1.711c0-1.457,1.156-2.347,2.532-2.347s2.52,0.89,2.52,2.347c0,0.878-0.509,1.422-0.925,1.711
			c0.451,0.3,1.041,0.844,1.041,1.849C724.034,152.106,722.854,152.974,721.397,152.974z M721.397,149.343
			c-0.636,0-1.133,0.509-1.133,1.145s0.497,1.133,1.133,1.133s1.133-0.497,1.133-1.133S722.033,149.343,721.397,149.343z
			 M721.397,145.956c-0.59,0-1.029,0.45-1.029,1.04c0,0.601,0.439,1.041,1.029,1.041c0.59,0,1.017-0.439,1.017-1.041
			C722.416,146.406,721.987,145.956,721.397,145.956z"/>
		<path fill="#218FB2" d="M731.595,152.303c-0.37,0.37-0.959,0.671-1.815,0.671c-0.855,0-1.48-0.301-1.838-0.659
			c-0.509-0.509-0.624-1.11-0.67-1.711h1.503c0.081,0.647,0.382,1.017,1.006,1.017c0.289,0,0.532-0.081,0.717-0.266
			c0.266-0.266,0.324-0.705,0.324-1.225c0-0.948-0.278-1.48-1.006-1.48c-0.613,0-0.89,0.347-0.994,0.671h-1.376v-4.648h4.694v1.353
			h-3.33v1.769c0.22-0.208,0.682-0.417,1.237-0.417c0.682,0,1.202,0.22,1.537,0.555c0.647,0.648,0.74,1.422,0.74,2.197
			C732.324,151.054,732.198,151.702,731.595,152.303z"/>
		<path fill="#218FB2" d="M740.419,152.904v-1.353l3.075-3.572c0.301-0.358,0.428-0.613,0.428-0.994
			c0-0.613-0.358-1.029-0.994-1.029c-0.497,0-1.006,0.254-1.006,1.052h-1.503c0-1.503,1.098-2.405,2.509-2.405
			c1.457,0,2.497,0.913,2.497,2.393c0,0.798-0.312,1.225-0.878,1.885l-2.301,2.671h3.18v1.353L740.419,152.904L740.419,152.904z"/>
		<path fill="#218FB2" d="M751.219,152.974c-1.457,0-2.566-0.913-2.566-2.544c0-0.751,0.323-1.445,0.694-2.197l1.734-3.561h1.641
			l-1.711,3.399c0.197-0.081,0.416-0.104,0.613-0.104c1.11,0,2.162,0.913,2.162,2.439
			C753.786,152.026,752.675,152.974,751.219,152.974z M751.219,149.216c-0.613,0-1.063,0.44-1.063,1.203
			c0,0.762,0.45,1.202,1.063,1.202c0.613,0,1.064-0.44,1.064-1.202C752.282,149.69,751.854,149.216,751.219,149.216z"/>
		<path fill="#218FB2" d="M757.14,152.904v-1.353l3.075-3.572c0.301-0.358,0.428-0.613,0.428-0.994c0-0.613-0.358-1.029-0.994-1.029
			c-0.497,0-1.006,0.254-1.006,1.052h-1.503c0-1.503,1.098-2.405,2.509-2.405c1.457,0,2.497,0.913,2.497,2.393
			c0,0.798-0.312,1.225-0.878,1.885l-2.301,2.671h3.18v1.353L757.14,152.904L757.14,152.904z"/>
	</g>
	<g>
		<path fill="#218FB2" d="M622.881,42.946l-1.799,3.67h-1.68l1.763-3.502c-0.202,0.083-0.429,0.107-0.631,0.107
			c-1.143,0-2.24-0.941-2.24-2.514c0-1.668,1.144-2.644,2.645-2.644c1.501,0,2.644,0.941,2.644,2.621
			C623.583,41.457,623.262,42.172,622.881,42.946z M620.939,39.456c-0.631,0-1.096,0.453-1.096,1.239
			c0,0.75,0.441,1.239,1.096,1.239c0.631,0,1.096-0.453,1.096-1.239S621.57,39.456,620.939,39.456z"/>
		<path fill="#218FB2" d="M631.436,45.995c-0.381,0.382-0.988,0.691-1.87,0.691c-0.881,0-1.525-0.31-1.894-0.679
			c-0.524-0.524-0.643-1.144-0.691-1.763h1.549c0.083,0.667,0.393,1.048,1.036,1.048c0.298,0,0.548-0.083,0.739-0.274
			c0.274-0.274,0.334-0.726,0.334-1.263c0-0.977-0.286-1.525-1.036-1.525c-0.632,0-0.917,0.358-1.025,0.691h-1.418v-4.79h4.837
			v1.394h-3.431v1.823c0.227-0.214,0.703-0.429,1.275-0.429c0.702,0,1.239,0.227,1.584,0.572c0.667,0.668,0.762,1.465,0.762,2.263
			C632.186,44.709,632.055,45.376,631.436,45.995z"/>
		<path fill="#218FB2" d="M640.11,42.946l-1.799,3.67h-1.68l1.763-3.502c-0.202,0.083-0.429,0.107-0.631,0.107
			c-1.143,0-2.24-0.941-2.24-2.514c0-1.668,1.144-2.644,2.645-2.644c1.501,0,2.644,0.941,2.644,2.621
			C640.813,41.457,640.491,42.172,640.11,42.946z M638.168,39.456c-0.631,0-1.096,0.453-1.096,1.239c0,0.75,0.441,1.239,1.096,1.239
			c0.631,0,1.096-0.453,1.096-1.239S638.8,39.456,638.168,39.456z"/>
		<path fill="#218FB2" d="M651.644,46.687c-1.382,0-2.681-0.727-2.704-2.502h1.549c0.024,0.762,0.548,1.108,1.156,1.108
			c0.667,0,1.143-0.417,1.143-1.18c0-0.703-0.429-1.168-1.191-1.168h-0.227V41.6h0.227c0.751,0,1.072-0.464,1.072-1.06
			c0-0.715-0.476-1.084-1.037-1.084c-0.584,0-1.012,0.381-1.048,1.025h-1.549c0.036-1.513,1.167-2.418,2.597-2.418
			c1.502,0,2.586,1.001,2.586,2.43c0,0.917-0.417,1.442-0.977,1.739c0.608,0.322,1.096,0.906,1.096,1.93
			C654.337,45.853,653.099,46.687,651.644,46.687z"/>
		<path fill="#218FB2" d="M660.295,46.615h-1.68l2.752-7.089h-2.24v1.334h-1.477v-2.728h5.397v1.394L660.295,46.615z"/>
		<path fill="#218FB2" d="M668.886,46.687c-1.501,0-2.644-0.941-2.644-2.621c0-0.774,0.333-1.489,0.715-2.263l1.787-3.67h1.691
			l-1.763,3.503c0.203-0.084,0.429-0.107,0.631-0.107c1.144,0,2.228,0.941,2.228,2.513C671.531,45.71,670.387,46.687,668.886,46.687
			z M668.886,42.815c-0.631,0-1.096,0.453-1.096,1.24c0,0.786,0.464,1.239,1.096,1.239c0.632,0,1.096-0.453,1.096-1.239
			C669.982,43.303,669.542,42.815,668.886,42.815z"/>
	</g>
	<g>
		<path fill="#218FB2" d="M531.544,100.281v-6.323l-1.602,1.393v-1.548l1.602-1.393h1.437v7.871
			C532.982,100.281,531.544,100.281,531.544,100.281z"/>
		<path fill="#218FB2" d="M544.358,100.348c-1.282,0-2.399-0.84-2.399-2.343v-3.316c0-1.504,1.117-2.343,2.399-2.343
			c1.283,0,2.388,0.84,2.388,2.343v3.316C546.746,99.507,545.641,100.348,544.358,100.348z M545.308,94.71
			c0-0.664-0.387-1.072-0.951-1.072s-0.961,0.409-0.961,1.072v3.283c0,0.663,0.398,1.062,0.961,1.062
			c0.564,0,0.951-0.398,0.951-1.062V94.71z"/>
		<path fill="#218FB2" d="M552.352,100.348c-1.282,0-2.399-0.84-2.399-2.343v-3.316c0-1.504,1.117-2.343,2.399-2.343
			c1.283,0,2.388,0.84,2.388,2.343v3.316C554.74,99.507,553.634,100.348,552.352,100.348z M553.302,94.71
			c0-0.664-0.387-1.072-0.951-1.072c-0.564,0-0.961,0.409-0.961,1.072v3.283c0,0.663,0.398,1.062,0.961,1.062
			c0.564,0,0.951-0.398,0.951-1.062V94.71z"/>
		<path fill="#218FB2" d="M562.158,96.876l-1.67,3.405h-1.559l1.636-3.25c-0.188,0.077-0.398,0.099-0.586,0.099
			c-1.061,0-2.078-0.873-2.078-2.333c0-1.547,1.061-2.454,2.454-2.454s2.454,0.873,2.454,2.432
			C562.81,95.495,562.512,96.158,562.158,96.876z M560.357,93.638c-0.586,0-1.017,0.42-1.017,1.15c0,0.696,0.409,1.15,1.017,1.15
			c0.586,0,1.017-0.42,1.017-1.15S560.943,93.638,560.357,93.638z"/>
		<path fill="#218FB2" d="M572.872,100.348c-1.393,0-2.454-0.873-2.454-2.432c0-0.718,0.309-1.382,0.663-2.1l1.658-3.405h1.57
			l-1.636,3.25c0.188-0.078,0.398-0.099,0.586-0.099c1.061,0,2.067,0.873,2.067,2.332
			C575.326,99.441,574.264,100.348,572.872,100.348z M572.872,96.755c-0.586,0-1.017,0.421-1.017,1.15
			c0,0.729,0.431,1.15,1.017,1.15s1.017-0.421,1.017-1.15C573.889,97.208,573.48,96.755,572.872,96.755z"/>
		<path fill="#218FB2" d="M580.855,100.348c-1.283,0-2.487-0.675-2.509-2.321h1.437c0.022,0.707,0.509,1.028,1.072,1.028
			c0.619,0,1.061-0.387,1.061-1.094c0-0.652-0.398-1.084-1.105-1.084h-0.21v-1.249h0.21c0.697,0,0.995-0.431,0.995-0.984
			c0-0.663-0.442-1.006-0.962-1.006c-0.542,0-0.939,0.353-0.972,0.951h-1.437c0.033-1.404,1.083-2.244,2.409-2.244
			c1.393,0,2.399,0.929,2.399,2.255c0,0.851-0.387,1.338-0.906,1.614c0.564,0.298,1.017,0.84,1.017,1.791
			C583.354,99.574,582.204,100.348,580.855,100.348z"/>
		<path fill="#218FB2" d="M588.616,100.281v-6.323l-1.602,1.393v-1.548l1.602-1.393h1.437v7.871
			C590.053,100.281,588.616,100.281,588.616,100.281z"/>
	</g>
	<path fill="#218FB2" d="M784.619,149.962l-0.317-0.948h-1.904l-0.323,0.948h-1.092l1.949-5.358h0.82l1.957,5.358H784.619z
		 M783.37,146.184l-0.677,1.949h1.332L783.37,146.184z"/>
	<path fill="#218FB2" d="M787.725,149.962v-5.358h1.046v4.425h2.431v0.933H787.725z"/>
	<g>
		<g>
			<path fill="#218FB2" d="M711.927,137.404v-6.613l-1.676,1.457v-1.619l1.676-1.457h1.503v8.232L711.927,137.404L711.927,137.404z"
				/>
			<path fill="#218FB2" d="M720.542,137.474c-1.457,0-2.566-0.913-2.566-2.544c0-0.751,0.323-1.445,0.694-2.197l1.734-3.561h1.641
				l-1.711,3.399c0.197-0.081,0.417-0.104,0.613-0.104c1.11,0,2.162,0.913,2.162,2.439
				C723.109,136.526,721.998,137.474,720.542,137.474z M720.542,133.716c-0.613,0-1.063,0.44-1.063,1.203
				c0,0.762,0.45,1.202,1.063,1.202c0.613,0,1.064-0.44,1.064-1.202C721.605,134.19,721.177,133.716,720.542,133.716z"/>
			<path fill="#218FB2" d="M730.763,136.803c-0.37,0.37-0.959,0.671-1.815,0.671c-0.855,0-1.48-0.301-1.838-0.659
				c-0.509-0.509-0.624-1.11-0.67-1.711h1.503c0.081,0.647,0.382,1.017,1.006,1.017c0.289,0,0.532-0.081,0.717-0.266
				c0.266-0.266,0.324-0.705,0.324-1.225c0-0.948-0.278-1.48-1.006-1.48c-0.613,0-0.89,0.347-0.994,0.671h-1.376v-4.648h4.694v1.353
				h-3.33v1.769c0.22-0.208,0.682-0.417,1.237-0.417c0.682,0,1.202,0.22,1.537,0.555c0.647,0.648,0.74,1.422,0.74,2.197
				C731.491,135.555,731.365,136.202,730.763,136.803z"/>
			<path fill="#218FB2" d="M737.262,137.474c-1.457,0-2.566-0.913-2.566-2.544c0-0.751,0.323-1.445,0.694-2.197l1.734-3.561h1.641
				l-1.711,3.399c0.197-0.081,0.417-0.104,0.613-0.104c1.11,0,2.162,0.913,2.162,2.439
				C739.828,136.526,738.719,137.474,737.262,137.474z M737.262,133.716c-0.613,0-1.063,0.44-1.063,1.203
				c0,0.762,0.45,1.202,1.063,1.202c0.613,0,1.064-0.44,1.064-1.202C738.325,134.19,737.897,133.716,737.262,133.716z"/>
			<path fill="#218FB2" d="M747.948,137.404v-1.353l3.075-3.572c0.301-0.358,0.428-0.613,0.428-0.994
				c0-0.613-0.358-1.029-0.994-1.029c-0.497,0-1.006,0.254-1.006,1.052h-1.503c0-1.503,1.098-2.405,2.509-2.405
				c1.457,0,2.497,0.913,2.497,2.393c0,0.798-0.312,1.225-0.879,1.885l-2.301,2.671h3.18v1.353L747.948,137.404L747.948,137.404z"/>
			<path fill="#218FB2" d="M758.491,137.404v-6.613l-1.676,1.457v-1.619l1.676-1.457h1.503v8.232L758.491,137.404L758.491,137.404z"
				/>
			<path fill="#218FB2" d="M767.095,137.474c-1.341,0-2.601-0.705-2.624-2.428h1.503c0.023,0.74,0.532,1.075,1.121,1.075
				c0.647,0,1.11-0.405,1.11-1.145c0-0.682-0.416-1.133-1.156-1.133h-0.22v-1.306h0.22c0.729,0,1.041-0.45,1.041-1.029
				c0-0.694-0.462-1.052-1.006-1.052c-0.566,0-0.982,0.37-1.017,0.994h-1.503c0.034-1.469,1.133-2.347,2.52-2.347
				c1.457,0,2.509,0.971,2.509,2.358c0,0.89-0.405,1.399-0.948,1.688c0.59,0.312,1.063,0.879,1.063,1.873
				C769.708,136.664,768.505,137.474,767.095,137.474z"/>
		</g>
		<path fill="#218FB2" d="M783.812,137.231l-1.045-2.137h-0.753v2.137h-1.046v-5.358h2.1c1.092,0,1.739,0.745,1.739,1.641
			c0,0.752-0.46,1.219-0.979,1.407l1.196,2.311h-1.212V137.231L783.812,137.231z M783,132.806h-0.986v1.415H783
			c0.459,0,0.76-0.294,0.76-0.707C783.76,133.099,783.458,132.806,783,132.806z"/>
		<path fill="#218FB2" d="M791.109,137.231v-2.243h-1.814v2.243h-1.046v-5.358h1.046v2.19h1.814v-2.19h1.046v5.358H791.109z"/>
		
			<line fill="none" stroke="#218FB2" stroke-width="0.5" stroke-miterlimit="10" x1="785.396" y1="135.222" x2="787.479" y2="135.222"/>
	</g>
	<g>
		<g>
			<g>
				<path fill="#D33C3D" d="M709.538,121.714v-1.292l2.937-3.412c0.287-0.342,0.409-0.585,0.409-0.95
					c0-0.585-0.342-0.983-0.95-0.983c-0.475,0-0.961,0.243-0.961,1.005h-1.436c0-1.436,1.049-2.297,2.396-2.297
					c1.391,0,2.385,0.872,2.385,2.285c0,0.762-0.298,1.171-0.84,1.8l-2.197,2.551h3.037v1.292L709.538,121.714L709.538,121.714z"/>
				<g>
					<path fill="#D33C3D" d="M723.912,121.78c-1.391,0-2.451-0.873-2.451-2.43c0-0.718,0.309-1.381,0.662-2.098l1.656-3.402h1.568
						l-1.634,3.247c0.188-0.078,0.398-0.099,0.585-0.099c1.06,0,2.065,0.872,2.065,2.33
						C726.365,120.875,725.303,121.78,723.912,121.78z M723.912,118.191c-0.585,0-1.016,0.42-1.016,1.149
						c0,0.728,0.43,1.148,1.016,1.148c0.585,0,1.016-0.42,1.016-1.148C724.928,118.644,724.519,118.191,723.912,118.191z"/>
					<path fill="#D33C3D" d="M731.654,121.714v-6.317l-1.601,1.391v-1.546l1.601-1.391h1.436v7.863H731.654z"/>
				</g>
				<path fill="#D33C3D" d="M739.433,121.78c-1.281,0-2.485-0.674-2.507-2.319h1.436c0.022,0.707,0.508,1.027,1.071,1.027
					c0.618,0,1.06-0.387,1.06-1.093c0-0.652-0.397-1.083-1.104-1.083h-0.21v-1.248h0.21c0.696,0,0.994-0.43,0.994-0.983
					c0-0.662-0.442-1.005-0.961-1.005c-0.541,0-0.938,0.353-0.971,0.95h-1.436c0.033-1.403,1.082-2.242,2.407-2.242
					c1.392,0,2.397,0.928,2.397,2.253c0,0.85-0.387,1.336-0.905,1.612c0.563,0.298,1.016,0.84,1.016,1.789
					C741.929,121.007,740.781,121.78,739.433,121.78z"/>
			</g>
			<path fill="#D33C3D" d="M619.272,30.687v-1.382l3.142-3.651c0.307-0.366,0.437-0.626,0.437-1.016
				c0-0.626-0.366-1.051-1.016-1.051c-0.508,0-1.028,0.26-1.028,1.075h-1.536c0-1.536,1.122-2.457,2.564-2.457
				c1.489,0,2.552,0.933,2.552,2.445c0,0.816-0.319,1.252-0.898,1.926l-2.351,2.729h3.249v1.382
				C624.387,30.687,619.272,30.687,619.272,30.687z"/>
			<g>
				<path fill="#D33C3D" d="M637.427,26.946l-1.799,3.67h-1.68l1.763-3.502c-0.202,0.083-0.429,0.107-0.631,0.107
					c-1.143,0-2.24-0.941-2.24-2.514c0-1.668,1.144-2.644,2.645-2.644s2.644,0.941,2.644,2.621
					C638.128,25.457,637.807,26.172,637.427,26.946z M635.484,23.456c-0.631,0-1.096,0.453-1.096,1.239
					c0,0.75,0.441,1.239,1.096,1.239c0.631,0,1.096-0.453,1.096-1.239C636.579,23.908,636.115,23.456,635.484,23.456z"/>
				<path fill="#D33C3D" d="M644.062,30.687c-1.501,0-2.644-0.941-2.644-2.621c0-0.774,0.333-1.489,0.715-2.263l1.787-3.67h1.691
					l-1.763,3.503c0.203-0.084,0.429-0.107,0.631-0.107c1.144,0,2.228,0.941,2.228,2.513
					C646.708,29.71,645.564,30.687,644.062,30.687z M644.062,26.815c-0.631,0-1.096,0.453-1.096,1.24
					c0,0.786,0.464,1.239,1.096,1.239c0.632,0,1.096-0.453,1.096-1.239C645.159,27.303,644.719,26.815,644.062,26.815z"/>
			</g>
			<path fill="#D33C3D" d="M651.422,30.615v-6.814l-1.727,1.501v-1.668l1.727-1.501h1.549v8.482H651.422z"/>
		</g>
		<path fill="#D33C3D" d="M529.941,84.999v-1.293l2.94-3.416c0.288-0.343,0.409-0.586,0.409-0.951c0-0.586-0.343-0.984-0.951-0.984
			c-0.475,0-0.961,0.243-0.961,1.006h-1.437c0-1.437,1.05-2.299,2.399-2.299c1.393,0,2.388,0.873,2.388,2.288
			c0,0.763-0.298,1.172-0.84,1.802l-2.2,2.554h3.04v1.293H529.941z"/>
		<g>
			<path fill="#D33C3D" d="M544.274,84.999h-1.559l2.554-6.578h-2.078v1.238h-1.371v-2.532h5.007v1.293L544.274,84.999z"/>
			<path fill="#D33C3D" d="M552.267,85.065c-1.393,0-2.52-0.829-2.52-2.355c0-0.961,0.553-1.481,0.984-1.768
				c-0.398-0.277-0.884-0.796-0.884-1.636c0-1.393,1.105-2.244,2.421-2.244s2.41,0.851,2.41,2.244c0,0.84-0.486,1.359-0.884,1.636
				c0.431,0.287,0.995,0.807,0.995,1.768C554.788,84.236,553.66,85.065,552.267,85.065z M552.267,81.594
				c-0.608,0-1.083,0.486-1.083,1.094s0.475,1.084,1.083,1.084c0.608,0,1.084-0.476,1.084-1.084S552.875,81.594,552.267,81.594z
				 M552.267,78.355c-0.564,0-0.984,0.431-0.984,0.994c0,0.575,0.42,0.995,0.984,0.995c0.564,0,0.973-0.42,0.973-0.995
				C553.24,78.786,552.831,78.355,552.267,78.355z"/>
		</g>
		<path fill="#D33C3D" d="M559.031,84.999v-6.323l-1.602,1.393V78.52l1.602-1.393h1.437v7.871L559.031,84.999L559.031,84.999z"/>
	</g>
	<path fill="#D33C3D" d="M541.404,338.127h-1.979v3.871h-2.008v-10.286h3.987c2.123,0,3.394,1.459,3.394,3.207
		S543.527,338.127,541.404,338.127z M541.302,333.504h-1.878v2.817h1.878c0.91,0,1.487-0.564,1.487-1.401
		S542.212,333.504,541.302,333.504z"/>
	<path fill="#D33C3D" d="M555.316,340.958c-0.723,0.723-1.603,1.127-2.774,1.127s-2.066-0.405-2.788-1.127
		c-1.04-1.04-1.011-2.326-1.011-4.102c0-1.777-0.029-3.062,1.011-4.103c0.723-0.723,1.618-1.127,2.788-1.127
		s2.051,0.404,2.774,1.127c1.04,1.04,1.026,2.326,1.026,4.103C556.341,338.632,556.357,339.918,555.316,340.958z M553.828,333.966
		c-0.289-0.332-0.737-0.549-1.285-0.549c-0.548,0-1.011,0.217-1.3,0.549c-0.39,0.434-0.491,0.91-0.491,2.889
		s0.101,2.456,0.491,2.889c0.289,0.333,0.751,0.55,1.3,0.55c0.549,0,0.997-0.217,1.285-0.55c0.39-0.433,0.506-0.91,0.506-2.889
		C554.333,334.876,554.219,334.4,553.828,333.966z"/>
	<path fill="#D33C3D" d="M564.62,342.085c-2.109,0-3.784-1.43-3.784-3.612v-6.761h2.008v6.689c0,1.184,0.693,1.893,1.776,1.893
		s1.792-0.708,1.792-1.893v-6.689h1.993v6.761C568.406,340.655,566.73,342.085,564.62,342.085z"/>
	<path fill="#D33C3D" d="M578.708,341.998l-2.008-4.103h-1.444v4.103h-2.008v-10.286h4.03c2.095,0,3.337,1.43,3.337,3.149
		c0,1.444-0.881,2.341-1.878,2.702l2.297,4.435L578.708,341.998L578.708,341.998z M577.147,333.504h-1.892v2.716h1.892
		c0.881,0,1.459-0.564,1.459-1.358S578.029,333.504,577.147,333.504z"/>
	<path fill="#D33C3D" d="M593.633,341.998v-8.263l-2.094,1.82v-2.023l2.094-1.82h1.878v10.286H593.633z"/>
	<path fill="#D33C3D" d="M604.425,342.085c-1.675,0-3.134-1.098-3.134-3.062v-4.334c0-1.965,1.459-3.062,3.134-3.062
		c1.676,0,3.12,1.098,3.12,3.062v4.334C607.545,340.986,606.102,342.085,604.425,342.085z M605.667,334.718
		c0-0.867-0.506-1.401-1.242-1.401c-0.737,0-1.256,0.534-1.256,1.401v4.29c0,0.867,0.52,1.387,1.256,1.387
		c0.737,0,1.242-0.521,1.242-1.387V334.718z"/>
	<path fill="#D33C3D" d="M620.824,342.085c-1.675,0-3.134-1.098-3.134-3.062v-4.334c0-1.965,1.459-3.062,3.134-3.062
		c1.676,0,3.12,1.098,3.12,3.062v4.334C623.944,340.986,622.5,342.085,620.824,342.085z M622.066,334.718
		c0-0.867-0.506-1.401-1.242-1.401c-0.736,0-1.256,0.534-1.256,1.401v4.29c0,0.867,0.52,1.387,1.256,1.387
		c0.736,0,1.242-0.521,1.242-1.387V334.718z"/>
	<path fill="#D33C3D" d="M631.271,342.085c-1.675,0-3.134-1.098-3.134-3.062v-4.334c0-1.965,1.459-3.062,3.134-3.062
		c1.676,0,3.12,1.098,3.12,3.062v4.334C634.391,340.986,632.946,342.085,631.271,342.085z M632.512,334.718
		c0-0.867-0.506-1.401-1.242-1.401c-0.736,0-1.256,0.534-1.256,1.401v4.29c0,0.867,0.52,1.387,1.256,1.387
		c0.736,0,1.242-0.521,1.242-1.387V334.718z"/>
	<path fill="#D33C3D" d="M641.716,342.085c-1.675,0-3.134-1.098-3.134-3.062v-4.334c0-1.965,1.459-3.062,3.134-3.062
		c1.676,0,3.12,1.098,3.12,3.062v4.334C644.836,340.986,643.392,342.085,641.716,342.085z M642.958,334.718
		c0-0.867-0.506-1.401-1.242-1.401s-1.256,0.534-1.256,1.401v4.29c0,0.867,0.52,1.387,1.256,1.387c0.736,0,1.242-0.521,1.242-1.387
		V334.718z"/>
	<path fill="#D33C3D" d="M660.875,341.998v-4.305h-3.481v4.305h-2.008v-10.286h2.008v4.204h3.481v-4.204h2.008v10.286H660.875z"/>
	<path fill="#D33C3D" d="M673.732,341.998l-0.607-1.82h-3.655l-0.621,1.82h-2.095l3.742-10.286h1.574l3.756,10.286H673.732z
		 M671.334,334.746l-1.3,3.741h2.557L671.334,334.746z"/>
	<path fill="#D33C3D" d="M684.005,341.998h-4.305v-10.286h4.131c2.008,0,3.178,1.127,3.178,2.889c0,1.141-0.751,1.878-1.271,2.124
		c0.622,0.289,1.415,0.939,1.415,2.311C687.154,340.958,685.839,341.998,684.005,341.998z M683.672,333.504h-1.964v2.369h1.964
		c0.852,0,1.329-0.477,1.329-1.184C685.001,333.981,684.526,333.504,683.672,333.504z M683.802,337.679h-2.094v2.528h2.094
		c0.91,0,1.343-0.578,1.343-1.271C685.146,338.242,684.714,337.679,683.802,337.679z"/>
	<path fill="#218FB2" d="M547.333,365.263c-1.049,0-1.932-0.359-2.65-1.077c-0.428-0.428-0.69-0.924-0.8-1.476
		s-0.165-1.366-0.165-2.443s0.055-1.891,0.165-2.443c0.111-0.565,0.372-1.048,0.8-1.476c0.718-0.718,1.601-1.076,2.65-1.076
		c1.891,0,3.285,1.104,3.616,3.105h-1.946c-0.207-0.842-0.731-1.394-1.656-1.394c-0.524,0-0.939,0.165-1.228,0.511
		c-0.401,0.428-0.483,0.869-0.483,2.774c0,1.904,0.082,2.346,0.483,2.774c0.289,0.345,0.704,0.511,1.228,0.511
		c0.924,0,1.449-0.553,1.656-1.394h1.946C550.618,364.158,549.211,365.263,547.333,365.263z"/>
	<path fill="#218FB2" d="M560.335,365.097v-4.112h-3.326v4.112h-1.918v-9.826h1.918v4.016h3.326v-4.016h1.918v9.826H560.335z"/>
	<path fill="#218FB2" d="M567.031,365.097v-9.826h1.918v9.826H567.031z"/>
	<path fill="#218FB2" d="M575.642,356.983v2.415h3.878v1.711h-3.878v3.988h-1.918v-9.826h6.472v1.712L575.642,356.983
		L575.642,356.983z"/>
	<path fill="#218FB2" d="M586.271,356.983v2.415h3.878v1.711h-3.878v3.988h-1.918v-9.826h6.472v1.712L586.271,356.983
		L586.271,356.983z"/>
	<path fill="#218FB2" d="M600.196,365.097l-1.918-3.919h-1.38v3.919h-1.918v-9.826h3.85c2.001,0,3.188,1.366,3.188,3.009
		c0,1.38-0.842,2.236-1.794,2.581l2.194,4.237h-2.222V365.097z M598.706,356.983h-1.808v2.594h1.808
		c0.842,0,1.394-0.538,1.394-1.298C600.099,357.521,599.547,356.983,598.706,356.983z"/>
	<path fill="#218FB2" d="M606.49,365.097v-9.826h6.472v1.712h-4.554v2.304h3.878v1.711h-3.878v2.388h4.554v1.711H606.49z"/>
	<path fill="#218FB2" d="M634.482,365.097h-4.112v-9.826h3.946c1.918,0,3.036,1.077,3.036,2.76c0,1.09-0.718,1.794-1.215,2.029
		c0.593,0.276,1.352,0.897,1.352,2.208C637.49,364.104,636.234,365.097,634.482,365.097z M634.163,356.983h-1.876v2.263h1.876
		c0.814,0,1.27-0.455,1.27-1.132S634.979,356.983,634.163,356.983z M634.287,360.972h-2.001v2.415h2.001
		c0.87,0,1.283-0.552,1.283-1.215S635.157,360.972,634.287,360.972z"/>
	<path fill="#218FB2" d="M647.151,365.097l-1.918-3.919h-1.38v3.919h-1.918v-9.826h3.85c2.001,0,3.188,1.366,3.188,3.009
		c0,1.38-0.842,2.236-1.794,2.581l2.194,4.237h-2.222V365.097z M645.661,356.983h-1.808v2.594h1.808
		c0.842,0,1.394-0.538,1.394-1.298C647.055,357.521,646.503,356.983,645.661,356.983z"/>
	<path fill="#218FB2" d="M656.909,365.18c-2.015,0-3.615-1.366-3.615-3.451v-6.458h1.918v6.39c0,1.132,0.662,1.808,1.697,1.808
		s1.712-0.677,1.712-1.808v-6.39h1.904v6.458C660.526,363.814,658.924,365.18,656.909,365.18z"/>
	<path fill="#218FB2" d="M668.904,356.983v8.114h-1.918v-8.114h-2.567v-1.712h7.052v1.712H668.904z"/>
	<path fill="#218FB2" d="M677.368,365.15c-1.473,0-2.592-0.314-3.547-1.283l1.228-1.228c0.614,0.614,1.446,0.818,2.347,0.818
		c1.119,0,1.719-0.423,1.719-1.201c0-0.341-0.095-0.628-0.3-0.818c-0.191-0.177-0.409-0.273-0.86-0.341l-1.173-0.163
		c-0.832-0.123-1.446-0.382-1.883-0.805c-0.464-0.464-0.696-1.091-0.696-1.91c0-1.733,1.283-2.947,3.384-2.947
		c1.337,0,2.306,0.327,3.138,1.132l-1.201,1.187c-0.614-0.587-1.351-0.669-1.992-0.669c-1.01,0-1.501,0.559-1.501,1.228
		c0,0.245,0.082,0.505,0.286,0.696c0.191,0.177,0.505,0.327,0.9,0.382l1.146,0.164c0.887,0.123,1.446,0.368,1.856,0.75
		c0.519,0.491,0.75,1.201,0.75,2.06C680.97,364.085,679.401,365.15,677.368,365.15z"/>
	<path fill="#218FB2" d="M619.122,365.15c-1.473,0-2.592-0.314-3.547-1.283l1.228-1.228c0.614,0.614,1.446,0.818,2.347,0.818
		c1.119,0,1.719-0.423,1.719-1.201c0-0.341-0.095-0.628-0.3-0.818c-0.191-0.177-0.409-0.273-0.86-0.341l-1.173-0.163
		c-0.832-0.123-1.446-0.382-1.883-0.805c-0.464-0.464-0.696-1.091-0.696-1.91c0-1.733,1.283-2.947,3.384-2.947
		c1.337,0,2.306,0.327,3.138,1.132l-1.201,1.187c-0.614-0.587-1.351-0.669-1.992-0.669c-1.01,0-1.501,0.559-1.501,1.228
		c0,0.245,0.082,0.505,0.286,0.696c0.191,0.177,0.505,0.327,0.9,0.382l1.146,0.164c0.887,0.123,1.446,0.368,1.856,0.75
		c0.519,0.491,0.75,1.201,0.75,2.06C622.724,364.085,621.156,365.15,619.122,365.15z"/>
</g>
<g>
	<path fill="#218FB2" d="M283.853,292.583L42.51,217.114l-7.075-62.76c0,0-0.655-2.358,3.276-3.014l57.65-11.137l-0.917-15.33
		c0,0-0.262-2.751,3.8-3.145l54.636-7.73l75.6,4.455c0,0,3.276-0.262,3.538,4.455l-1.834,52.016c0,0,1.441,1.703,2.62,1.703
		l89.75,14.281c0,0,2.096-0.393,1.965,4.717l-5.372,51.754L283.853,292.583z"/>
	<path fill="#D7D6D1" d="M132.403,178.009l0.214-29.654c0,0-1.508,1.418-2.885,1.937c-1.837,0.705-3.96,0.994-3.96,0.994
		l0.036-5.007c0,0,2.999-0.526,5.049-2.026c1.758-1.293,3.482-3.892,3.482-3.892l3.368,0.384l-0.273,37.837L132.403,178.009z"/>
	<g>
		<path fill="#D7D6D1" d="M232.215,263.16c-3.578-0.239-7.056-1.462-9.987-4.036l2.452-4.047c2.645,2.208,5.061,3.113,7.831,3.298
			c3.77,0.252,6.628-2.233,6.869-6.131c0.235-3.799-1.468-6.242-6.084-6.55l-2.924-0.195l0.302-4.885l2.962,0.198
			c3.385,0.226,5.56-2.453,5.795-6.253c0.309-4.984-2.755-6.03-5.179-6.192c-1.846-0.123-4.755,1.317-6.151,3.899l-2.657-3.249
			c2.698-4.279,6.078-5.837,9.925-5.58c7.001,0.468,8.952,6.395,8.671,10.935c-0.324,5.231-2.955,8.424-4.779,8.55
			c2.097,0.438,5.086,3.957,4.737,9.582C243.566,259.509,239.294,263.633,232.215,263.16z"/>
	</g>
	<g>
		<path fill="#D7D6D1" d="M53.39,201.104l10.894-9.079c0.908-0.841,4.874-3.934,5.071-6.941c0.238-3.643-1.965-5.266-4.619-5.964
			c-3.422-0.9-5.349,0.86-5.518,3.442l-0.079,1.203l-3.876-1.019l0.083-1.273c0.289-4.421,4.07-7.384,9.552-5.943
			c4.959,1.304,9.12,4.486,8.732,10.427c-0.277,4.244-4.316,7.355-4.991,7.897l-6.796,5.624l11.698,3.077l-0.247,3.785
			L53.39,201.104z"/>
	</g>
	<path fill="#106377" d="M182.442,200.213c0,0,105.735,23.584,106.521,23.191l35.376-32.232l-90.537-14.544L182.442,200.213z"/>
	<path fill="#106377" d="M180.28,196.478l51.295-22.208l1.572-53.064c0,0-0.393-2.555-1.965-2.162c0,0-51.295,15.133-50.706,15.133
		S180.28,196.478,180.28,196.478z"/>
	<polygon fill="#106377" points="37.924,152.127 97.67,163.657 96.36,140.204 	"/>
	<line fill="#FFFFFF" stroke="#106377" stroke-miterlimit="10" x1="173.597" y1="108.971" x2="173.597" y2="13.371"/>
	
		<line fill="#FFFFFF" stroke="#106377" stroke-miterlimit="10" stroke-dasharray="3" x1="83.693" y1="135.098" x2="83.693" y2="66.813"/>
	<g>
		<line fill="#FFFFFF" x1="263.954" y1="175.862" x2="263.954" y2="103.818"/>
		<g>
			<line fill="none" stroke="#106377" stroke-miterlimit="10" x1="263.954" y1="175.862" x2="263.954" y2="174.362"/>
			
				<line fill="none" stroke="#106377" stroke-miterlimit="10" stroke-dasharray="3.0019,3.0019" x1="263.954" y1="171.36" x2="263.954" y2="106.819"/>
			<line fill="none" stroke="#106377" stroke-miterlimit="10" x1="263.954" y1="105.318" x2="263.954" y2="103.818"/>
		</g>
	</g>
	<rect x="12.695" y="55.094" fill="none" width="141.997" height="9.877"/>
	<text transform="matrix(1 0 0 1 24.3766 62.9247)" fill="#106377" font-family="'DINPro-Bold'" font-size="11" letter-spacing="1">PAys de la loire</text>
	<rect x="116.356" y="0.353" fill="none" width="114.48" height="11.72"/>
	<text transform="matrix(1 0 0 1 139.5019 8.1858)" fill="#106377" font-family="'DINPro-Bold'" font-size="11" letter-spacing="1">BRETAGNE</text>
	<rect x="213.65" y="78.533" fill="none" width="100.608" height="23.521"/>
	<text transform="matrix(1 0 0 1 242.2897 86.3657)"><tspan x="0" y="0" fill="#106377" font-family="'DINPro-Bold'" font-size="11" letter-spacing="1">RHÔNE </tspan><tspan x="-27.23" y="13.2" fill="#106377" font-family="'DINPro-Bold'" font-size="11" letter-spacing="1">ALPES-ALSACE</tspan></text>
	<path fill="#D33C3D" d="M117.159,338.522h-1.979v3.871h-2.008v-10.286h3.987c2.123,0,3.394,1.459,3.394,3.207
		C120.554,337.062,119.283,338.522,117.159,338.522z M117.058,333.899h-1.878v2.817h1.878c0.91,0,1.487-0.564,1.487-1.401
		C118.546,334.477,117.968,333.899,117.058,333.899z"/>
	<path fill="#D33C3D" d="M131.072,341.352c-0.723,0.723-1.603,1.127-2.774,1.127s-2.066-0.405-2.788-1.127
		c-1.04-1.04-1.011-2.326-1.011-4.102c0-1.777-0.029-3.062,1.011-4.103c0.723-0.723,1.618-1.126,2.788-1.126
		s2.051,0.404,2.774,1.126c1.04,1.04,1.026,2.326,1.026,4.103C132.097,339.027,132.112,340.313,131.072,341.352z M129.584,334.361
		c-0.289-0.332-0.737-0.549-1.285-0.549c-0.549,0-1.011,0.217-1.3,0.549c-0.39,0.434-0.491,0.91-0.491,2.889
		s0.101,2.456,0.491,2.889c0.289,0.333,0.751,0.549,1.3,0.549c0.549,0,0.997-0.217,1.285-0.549c0.39-0.433,0.506-0.91,0.506-2.889
		S129.974,334.794,129.584,334.361z"/>
	<path fill="#D33C3D" d="M140.376,342.48c-2.109,0-3.784-1.43-3.784-3.612v-6.76h2.008v6.688c0,1.184,0.693,1.893,1.776,1.893
		s1.792-0.708,1.792-1.893v-6.688h1.993v6.76C144.161,341.049,142.486,342.48,140.376,342.48z"/>
	<path fill="#D33C3D" d="M154.463,342.393l-2.008-4.103h-1.444v4.103h-2.008v-10.286h4.03c2.095,0,3.337,1.43,3.337,3.149
		c0,1.444-0.881,2.341-1.878,2.702l2.297,4.435H154.463z M152.903,333.899h-1.892v2.716h1.892c0.881,0,1.459-0.564,1.459-1.358
		C154.362,334.462,153.785,333.899,152.903,333.899z"/>
	<path fill="#D33C3D" d="M169.388,342.393v-8.263l-2.094,1.82v-2.023l2.094-1.82h1.878v10.286H169.388z"/>
	<path fill="#D33C3D" d="M180.181,342.48c-1.675,0-3.134-1.098-3.134-3.062v-4.334c0-1.965,1.459-3.062,3.134-3.062
		c1.676,0,3.12,1.098,3.12,3.062v4.334C183.301,341.381,181.857,342.48,180.181,342.48z M181.423,335.112
		c0-0.867-0.506-1.401-1.242-1.401s-1.256,0.534-1.256,1.401v4.29c0,0.867,0.52,1.387,1.256,1.387s1.242-0.521,1.242-1.387V335.112z
		"/>
	<path fill="#D33C3D" d="M196.58,342.48c-1.675,0-3.134-1.098-3.134-3.062v-4.334c0-1.965,1.459-3.062,3.134-3.062
		c1.676,0,3.12,1.098,3.12,3.062v4.334C199.7,341.381,198.256,342.48,196.58,342.48z M197.822,335.112
		c0-0.867-0.506-1.401-1.242-1.401s-1.256,0.534-1.256,1.401v4.29c0,0.867,0.52,1.387,1.256,1.387s1.242-0.521,1.242-1.387V335.112z
		"/>
	<path fill="#D33C3D" d="M207.026,342.48c-1.675,0-3.134-1.098-3.134-3.062v-4.334c0-1.965,1.459-3.062,3.134-3.062
		c1.676,0,3.12,1.098,3.12,3.062v4.334C210.146,341.381,208.702,342.48,207.026,342.48z M208.268,335.112
		c0-0.867-0.506-1.401-1.242-1.401c-0.737,0-1.256,0.534-1.256,1.401v4.29c0,0.867,0.52,1.387,1.256,1.387
		c0.737,0,1.242-0.521,1.242-1.387V335.112z"/>
	<path fill="#D33C3D" d="M217.472,342.48c-1.675,0-3.134-1.098-3.134-3.062v-4.334c0-1.965,1.459-3.062,3.134-3.062
		c1.676,0,3.12,1.098,3.12,3.062v4.334C220.592,341.381,219.148,342.48,217.472,342.48z M218.714,335.112
		c0-0.867-0.506-1.401-1.242-1.401s-1.256,0.534-1.256,1.401v4.29c0,0.867,0.52,1.387,1.256,1.387s1.242-0.521,1.242-1.387V335.112z
		"/>
	<path fill="#D33C3D" d="M236.63,342.393v-4.305h-3.481v4.305h-2.008v-10.286h2.008v4.204h3.481v-4.204h2.008v10.286H236.63z"/>
	<path fill="#D33C3D" d="M249.488,342.393l-0.607-1.82h-3.655l-0.621,1.82h-2.095l3.742-10.286h1.574l3.756,10.286H249.488z
		 M247.09,335.141l-1.3,3.741h2.557L247.09,335.141z"/>
	<path fill="#D33C3D" d="M259.761,342.393h-4.305v-10.286h4.131c2.008,0,3.178,1.127,3.178,2.889c0,1.141-0.752,1.878-1.271,2.124
		c0.622,0.289,1.415,0.939,1.415,2.311C262.909,341.352,261.595,342.393,259.761,342.393z M259.428,333.899h-1.964v2.369h1.964
		c0.852,0,1.329-0.477,1.329-1.184C260.757,334.376,260.281,333.899,259.428,333.899z M259.558,338.074h-2.094v2.528h2.094
		c0.91,0,1.343-0.578,1.343-1.271S260.469,338.074,259.558,338.074z"/>
	<path fill="#218FB2" d="M123.089,365.658c-1.049,0-1.932-0.359-2.65-1.077c-0.428-0.428-0.69-0.924-0.8-1.476
		c-0.11-0.552-0.165-1.366-0.165-2.443c0-1.077,0.055-1.891,0.165-2.443c0.111-0.565,0.372-1.049,0.8-1.476
		c0.718-0.718,1.601-1.076,2.65-1.076c1.891,0,3.285,1.104,3.616,3.105h-1.946c-0.207-0.842-0.731-1.394-1.656-1.394
		c-0.524,0-0.939,0.165-1.228,0.511c-0.401,0.428-0.483,0.869-0.483,2.774c0,1.904,0.082,2.346,0.483,2.774
		c0.289,0.345,0.704,0.511,1.228,0.511c0.924,0,1.449-0.553,1.656-1.394h1.946C126.374,364.553,124.966,365.658,123.089,365.658z"/>
	<path fill="#218FB2" d="M136.091,365.492v-4.112h-3.326v4.112h-1.918v-9.826h1.918v4.016h3.326v-4.016h1.918v9.826H136.091z"/>
	<path fill="#218FB2" d="M142.786,365.492v-9.826h1.918v9.826H142.786z"/>
	<path fill="#218FB2" d="M151.398,357.378v2.415h3.878v1.711h-3.878v3.988h-1.918v-9.826h6.472v1.712H151.398z"/>
	<path fill="#218FB2" d="M162.026,357.378v2.415h3.878v1.711h-3.878v3.988h-1.918v-9.826h6.472v1.712H162.026z"/>
	<path fill="#218FB2" d="M175.952,365.492l-1.918-3.919h-1.38v3.919h-1.918v-9.826h3.85c2.001,0,3.188,1.366,3.188,3.009
		c0,1.38-0.842,2.236-1.794,2.581l2.194,4.237H175.952z M174.461,357.378h-1.808v2.594h1.808c0.842,0,1.394-0.538,1.394-1.298
		C175.855,357.916,175.303,357.378,174.461,357.378z"/>
	<path fill="#218FB2" d="M182.246,365.492v-9.826h6.472v1.712h-4.554v2.304h3.878v1.711h-3.878v2.388h4.554v1.711H182.246z"/>
	<path fill="#218FB2" d="M210.237,365.492h-4.112v-9.826h3.946c1.918,0,3.036,1.077,3.036,2.76c0,1.09-0.718,1.794-1.215,2.029
		c0.593,0.276,1.352,0.897,1.352,2.208C213.245,364.498,211.989,365.492,210.237,365.492z M209.919,357.378h-1.876v2.263h1.876
		c0.814,0,1.27-0.455,1.27-1.132C211.189,357.833,210.734,357.378,209.919,357.378z M210.043,361.366h-2.001v2.415h2.001
		c0.87,0,1.283-0.552,1.283-1.215S210.913,361.366,210.043,361.366z"/>
	<path fill="#218FB2" d="M222.907,365.492l-1.918-3.919h-1.38v3.919h-1.918v-9.826h3.85c2.001,0,3.188,1.366,3.188,3.009
		c0,1.38-0.842,2.236-1.794,2.581l2.194,4.237H222.907z M221.417,357.378h-1.808v2.594h1.808c0.842,0,1.394-0.538,1.394-1.298
		C222.811,357.916,222.259,357.378,221.417,357.378z"/>
	<path fill="#218FB2" d="M232.665,365.575c-2.015,0-3.615-1.366-3.615-3.451v-6.458h1.918v6.39c0,1.132,0.662,1.808,1.697,1.808
		c1.035,0,1.712-0.677,1.712-1.808v-6.39h1.904v6.458C236.281,364.209,234.68,365.575,232.665,365.575z"/>
	<path fill="#218FB2" d="M244.66,357.378v8.114h-1.918v-8.114h-2.567v-1.712h7.052v1.712H244.66z"/>
	<path fill="#D33C3D" d="M271.562,115.244v-1.353l3.075-3.572c0.301-0.358,0.428-0.613,0.428-0.994c0-0.613-0.358-1.029-0.994-1.029
		c-0.497,0-1.006,0.254-1.006,1.052h-1.503c0-1.503,1.098-2.405,2.509-2.405c1.457,0,2.497,0.913,2.497,2.393
		c0,0.798-0.312,1.225-0.879,1.885l-2.301,2.671h3.18v1.353H271.562z"/>
	<path fill="#D33C3D" d="M282.361,115.313c-1.457,0-2.566-0.913-2.566-2.544c0-0.751,0.323-1.445,0.694-2.197l1.734-3.561h1.641
		l-1.711,3.399c0.197-0.081,0.417-0.104,0.613-0.104c1.11,0,2.162,0.913,2.162,2.439
		C284.928,114.365,283.818,115.313,282.361,115.313z M282.361,111.555c-0.613,0-1.063,0.44-1.063,1.203
		c0,0.762,0.451,1.202,1.063,1.202c0.613,0,1.064-0.44,1.064-1.202C283.425,112.03,282.997,111.555,282.361,111.555z"/>
	<path fill="#D33C3D" d="M290.467,115.244v-6.613l-1.676,1.457v-1.619l1.676-1.457h1.503v8.232H290.467z"/>
	<path fill="#D33C3D" d="M302.939,115.313c-1.341,0-2.601-0.705-2.624-2.428h1.503c0.023,0.74,0.532,1.075,1.121,1.075
		c0.647,0,1.11-0.405,1.11-1.145c0-0.682-0.416-1.133-1.156-1.133h-0.22v-1.306h0.22c0.729,0,1.041-0.45,1.041-1.029
		c0-0.694-0.462-1.052-1.006-1.052c-0.566,0-0.982,0.37-1.017,0.994h-1.503c0.034-1.469,1.133-2.347,2.52-2.347
		c1.457,0,2.509,0.971,2.509,2.358c0,0.89-0.405,1.399-0.948,1.688c0.59,0.312,1.063,0.879,1.063,1.873
		C305.552,114.504,304.35,115.313,302.939,115.313z"/>
	<path fill="#218FB2" d="M272.263,130.994v-6.613l-1.676,1.457v-1.619l1.676-1.457h1.503v8.232H272.263z"/>
	<path fill="#218FB2" d="M280.877,131.063c-1.457,0-2.566-0.913-2.566-2.544c0-0.751,0.323-1.445,0.694-2.197l1.734-3.561h1.641
		l-1.711,3.399c0.197-0.081,0.417-0.104,0.613-0.104c1.11,0,2.162,0.913,2.162,2.439
		C283.444,130.115,282.334,131.063,280.877,131.063z M280.877,127.305c-0.613,0-1.063,0.44-1.063,1.203
		c0,0.762,0.45,1.202,1.063,1.202s1.064-0.44,1.064-1.202C281.941,127.78,281.513,127.305,280.877,127.305z"/>
	<path fill="#218FB2" d="M291.099,130.392c-0.37,0.37-0.959,0.671-1.815,0.671c-0.855,0-1.48-0.301-1.838-0.659
		c-0.509-0.509-0.624-1.11-0.67-1.711h1.503c0.081,0.647,0.382,1.017,1.006,1.017c0.289,0,0.532-0.081,0.717-0.266
		c0.266-0.266,0.324-0.705,0.324-1.225c0-0.948-0.278-1.48-1.006-1.48c-0.613,0-0.89,0.347-0.994,0.671h-1.376v-4.648h4.694v1.353
		h-3.33v1.769c0.22-0.208,0.682-0.417,1.237-0.417c0.682,0,1.202,0.22,1.537,0.555c0.647,0.648,0.74,1.422,0.74,2.197
		C291.827,129.144,291.7,129.791,291.099,130.392z"/>
	<path fill="#218FB2" d="M297.597,131.063c-1.457,0-2.566-0.913-2.566-2.544c0-0.751,0.323-1.445,0.694-2.197l1.734-3.561h1.641
		l-1.711,3.399c0.197-0.081,0.417-0.104,0.613-0.104c1.11,0,2.162,0.913,2.162,2.439
		C300.164,130.115,299.054,131.063,297.597,131.063z M297.597,127.305c-0.613,0-1.063,0.44-1.063,1.203
		c0,0.762,0.451,1.202,1.063,1.202s1.064-0.44,1.064-1.202C298.661,127.78,298.233,127.305,297.597,127.305z"/>
	<path fill="#218FB2" d="M308.282,130.994v-1.353l3.075-3.572c0.301-0.358,0.428-0.613,0.428-0.994c0-0.613-0.358-1.029-0.994-1.029
		c-0.497,0-1.006,0.254-1.006,1.052h-1.503c0-1.503,1.098-2.405,2.509-2.405c1.457,0,2.497,0.913,2.497,2.393
		c0,0.798-0.312,1.225-0.879,1.885l-2.301,2.671h3.18v1.353H308.282z"/>
	<path fill="#218FB2" d="M318.827,130.994v-6.613l-1.676,1.457v-1.619l1.676-1.457h1.503v8.232H318.827z"/>
	<path fill="#218FB2" d="M327.431,131.063c-1.341,0-2.601-0.705-2.624-2.428h1.503c0.023,0.74,0.532,1.075,1.121,1.075
		c0.647,0,1.11-0.405,1.11-1.145c0-0.682-0.416-1.133-1.156-1.133h-0.22v-1.306h0.22c0.729,0,1.041-0.45,1.041-1.029
		c0-0.694-0.462-1.052-1.006-1.052c-0.566,0-0.982,0.37-1.017,0.994h-1.503c0.034-1.469,1.133-2.347,2.52-2.347
		c1.457,0,2.509,0.971,2.509,2.358c0,0.89-0.405,1.399-0.948,1.688c0.59,0.312,1.063,0.879,1.063,1.873
		C330.043,130.254,328.841,131.063,327.431,131.063z"/>
	<path fill="#218FB2" d="M273.894,144.196v1.168h-1.445v-1.168h-3.364v-1.422l2.821-5.642h1.641l-2.821,5.642h1.723v-1.538h1.445
		v1.538h0.751v1.422H273.894z"/>
	<path fill="#218FB2" d="M280.23,145.434c-1.457,0-2.636-0.867-2.636-2.463c0-1.006,0.578-1.549,1.029-1.849
		c-0.416-0.289-0.925-0.833-0.925-1.711c0-1.457,1.156-2.347,2.532-2.347s2.52,0.89,2.52,2.347c0,0.878-0.509,1.422-0.925,1.711
		c0.451,0.3,1.041,0.844,1.041,1.849C282.867,144.567,281.687,145.434,280.23,145.434z M280.23,141.803
		c-0.636,0-1.133,0.509-1.133,1.145c0,0.636,0.497,1.133,1.133,1.133c0.636,0,1.133-0.497,1.133-1.133
		C281.364,142.312,280.866,141.803,280.23,141.803z M280.23,138.416c-0.59,0-1.029,0.45-1.029,1.04c0,0.601,0.439,1.041,1.029,1.041
		c0.59,0,1.017-0.439,1.017-1.041C281.248,138.867,280.82,138.416,280.23,138.416z"/>
	<path fill="#218FB2" d="M290.428,144.763c-0.37,0.37-0.959,0.671-1.815,0.671c-0.855,0-1.48-0.301-1.838-0.659
		c-0.509-0.509-0.624-1.11-0.67-1.711h1.503c0.081,0.647,0.382,1.017,1.006,1.017c0.289,0,0.532-0.081,0.717-0.266
		c0.266-0.266,0.324-0.705,0.324-1.225c0-0.948-0.278-1.48-1.006-1.48c-0.613,0-0.89,0.347-0.994,0.671h-1.376v-4.648h4.694v1.353
		h-3.33v1.769c0.22-0.208,0.682-0.417,1.237-0.417c0.682,0,1.202,0.22,1.537,0.555c0.647,0.648,0.74,1.422,0.74,2.197
		C291.157,143.514,291.03,144.162,290.428,144.763z"/>
	<path fill="#218FB2" d="M299.252,145.364v-1.353l3.075-3.572c0.301-0.358,0.428-0.613,0.428-0.994c0-0.613-0.358-1.029-0.994-1.029
		c-0.497,0-1.006,0.254-1.006,1.052h-1.503c0-1.503,1.098-2.405,2.509-2.405c1.457,0,2.497,0.913,2.497,2.393
		c0,0.798-0.312,1.225-0.878,1.885l-2.301,2.671h3.18v1.353H299.252z"/>
	<path fill="#218FB2" d="M310.051,145.434c-1.457,0-2.566-0.913-2.566-2.544c0-0.751,0.323-1.445,0.694-2.197l1.734-3.561h1.641
		l-1.711,3.399c0.197-0.081,0.416-0.104,0.613-0.104c1.11,0,2.162,0.913,2.162,2.439
		C312.618,144.486,311.508,145.434,310.051,145.434z M310.051,141.676c-0.613,0-1.063,0.44-1.063,1.203
		c0,0.762,0.45,1.202,1.063,1.202s1.064-0.44,1.064-1.202C311.115,142.15,310.687,141.676,310.051,141.676z"/>
	<path fill="#218FB2" d="M315.972,145.364v-1.353l3.075-3.572c0.301-0.358,0.428-0.613,0.428-0.994c0-0.613-0.358-1.029-0.994-1.029
		c-0.497,0-1.006,0.254-1.006,1.052h-1.503c0-1.503,1.098-2.405,2.509-2.405c1.457,0,2.497,0.913,2.497,2.393
		c0,0.798-0.312,1.225-0.878,1.885l-2.301,2.671h3.18v1.353H315.972z"/>
	<path fill="#D33C3D" d="M180.209,23.845v-1.382l3.142-3.651c0.307-0.366,0.437-0.626,0.437-1.016c0-0.626-0.366-1.051-1.016-1.051
		c-0.508,0-1.028,0.26-1.028,1.075h-1.536c0-1.536,1.122-2.457,2.564-2.457c1.489,0,2.552,0.933,2.552,2.445
		c0,0.816-0.319,1.252-0.898,1.926l-2.351,2.729h3.249v1.382H180.209z"/>
	<path fill="#D33C3D" d="M193.504,20.104l-1.799,3.67h-1.68l1.763-3.502c-0.202,0.083-0.429,0.107-0.631,0.107
		c-1.143,0-2.24-0.941-2.24-2.514c0-1.668,1.144-2.644,2.645-2.644s2.644,0.941,2.644,2.621
		C194.206,18.615,193.885,19.329,193.504,20.104z M191.562,16.613c-0.631,0-1.096,0.453-1.096,1.239c0,0.75,0.441,1.239,1.096,1.239
		c0.631,0,1.096-0.453,1.096-1.239S192.193,16.613,191.562,16.613z"/>
	<path fill="#D33C3D" d="M200.141,23.845c-1.501,0-2.644-0.941-2.644-2.621c0-0.774,0.333-1.489,0.715-2.263l1.787-3.67h1.691
		l-1.763,3.503c0.203-0.084,0.429-0.107,0.631-0.107c1.144,0,2.228,0.941,2.228,2.513C202.786,22.868,201.642,23.845,200.141,23.845
		z M200.141,19.972c-0.631,0-1.096,0.453-1.096,1.24c0,0.786,0.464,1.239,1.096,1.239s1.096-0.453,1.096-1.239
		C201.237,20.461,200.796,19.972,200.141,19.972z"/>
	<path fill="#D33C3D" d="M213.039,23.773v-6.814l-1.727,1.501v-1.668l1.727-1.501h1.549v8.482H213.039z"/>
	<path fill="#218FB2" d="M184.192,35.714l-1.799,3.67h-1.68l1.763-3.502c-0.202,0.083-0.429,0.107-0.631,0.107
		c-1.143,0-2.24-0.941-2.24-2.514c0-1.668,1.144-2.644,2.645-2.644c1.501,0,2.644,0.941,2.644,2.621
		C184.895,34.225,184.573,34.939,184.192,35.714z M182.25,32.223c-0.631,0-1.096,0.453-1.096,1.239c0,0.75,0.441,1.239,1.096,1.239
		c0.631,0,1.096-0.453,1.096-1.239S182.882,32.223,182.25,32.223z"/>
	<path fill="#218FB2" d="M192.747,38.763c-0.381,0.382-0.988,0.691-1.87,0.691c-0.881,0-1.525-0.31-1.894-0.679
		c-0.524-0.524-0.643-1.144-0.691-1.763h1.549c0.083,0.667,0.393,1.048,1.036,1.048c0.298,0,0.548-0.083,0.739-0.274
		c0.274-0.274,0.334-0.726,0.334-1.263c0-0.977-0.286-1.525-1.036-1.525c-0.632,0-0.917,0.358-1.025,0.691h-1.418v-4.79h4.837v1.394
		h-3.431v1.823c0.227-0.214,0.703-0.429,1.275-0.429c0.702,0,1.239,0.227,1.584,0.572c0.667,0.668,0.762,1.465,0.762,2.263
		C193.498,37.477,193.367,38.144,192.747,38.763z"/>
	<path fill="#218FB2" d="M201.422,35.714l-1.799,3.67h-1.68l1.763-3.502c-0.202,0.083-0.429,0.107-0.631,0.107
		c-1.143,0-2.24-0.941-2.24-2.514c0-1.668,1.144-2.644,2.645-2.644s2.644,0.941,2.644,2.621
		C202.124,34.225,201.803,34.939,201.422,35.714z M199.48,32.223c-0.631,0-1.096,0.453-1.096,1.239c0,0.75,0.441,1.239,1.096,1.239
		c0.631,0,1.096-0.453,1.096-1.239S200.111,32.223,199.48,32.223z"/>
	<path fill="#218FB2" d="M212.956,39.455c-1.382,0-2.681-0.727-2.704-2.502h1.549c0.024,0.762,0.548,1.108,1.156,1.108
		c0.667,0,1.143-0.417,1.143-1.18c0-0.703-0.429-1.168-1.191-1.168h-0.227v-1.346h0.227c0.751,0,1.072-0.464,1.072-1.06
		c0-0.715-0.476-1.084-1.037-1.084c-0.584,0-1.012,0.381-1.048,1.025h-1.549c0.036-1.513,1.167-2.418,2.597-2.418
		c1.502,0,2.586,1.001,2.586,2.43c0,0.917-0.417,1.442-0.977,1.739c0.608,0.322,1.096,0.906,1.096,1.93
		C215.648,38.621,214.409,39.455,212.956,39.455z"/>
	<path fill="#218FB2" d="M221.606,39.383h-1.68l2.752-7.089h-2.24v1.334h-1.477v-2.728h5.397v1.394L221.606,39.383z"/>
	<path fill="#218FB2" d="M230.197,39.455c-1.501,0-2.644-0.941-2.644-2.621c0-0.774,0.333-1.489,0.715-2.263l1.787-3.67h1.691
		l-1.763,3.503c0.203-0.084,0.429-0.107,0.631-0.107c1.144,0,2.228,0.941,2.228,2.513C232.842,38.478,231.698,39.455,230.197,39.455
		z M230.197,35.582c-0.631,0-1.096,0.453-1.096,1.24c0,0.786,0.464,1.239,1.096,1.239s1.096-0.453,1.096-1.239
		C231.293,36.071,230.852,35.582,230.197,35.582z"/>
	<path fill="#D33C3D" d="M90.878,76.874V75.58l2.94-3.416c0.288-0.343,0.409-0.586,0.409-0.951c0-0.586-0.343-0.984-0.951-0.984
		c-0.475,0-0.961,0.243-0.961,1.006h-1.437c0-1.437,1.05-2.299,2.399-2.299c1.393,0,2.388,0.873,2.388,2.288
		c0,0.763-0.298,1.172-0.84,1.802l-2.2,2.554h3.04v1.293H90.878z"/>
	<path fill="#D33C3D" d="M101.225,76.874h-1.559l2.554-6.578h-2.078v1.238h-1.371v-2.532h5.007v1.293L101.225,76.874z"/>
	<path fill="#D33C3D" d="M109.219,76.94c-1.393,0-2.52-0.829-2.52-2.355c0-0.961,0.553-1.481,0.984-1.768
		c-0.398-0.277-0.884-0.796-0.884-1.636c0-1.393,1.105-2.244,2.421-2.244c1.316,0,2.41,0.851,2.41,2.244
		c0,0.84-0.486,1.359-0.884,1.636c0.431,0.287,0.995,0.807,0.995,1.768C111.74,76.111,110.612,76.94,109.219,76.94z M109.219,73.469
		c-0.608,0-1.083,0.486-1.083,1.094c0,0.608,0.475,1.084,1.083,1.084c0.608,0,1.084-0.476,1.084-1.084
		C110.303,73.955,109.827,73.469,109.219,73.469z M109.219,70.23c-0.564,0-0.984,0.431-0.984,0.994c0,0.575,0.42,0.995,0.984,0.995
		c0.564,0,0.973-0.42,0.973-0.995C110.192,70.661,109.783,70.23,109.219,70.23z"/>
	<path fill="#D33C3D" d="M121.862,76.874v-6.323l-1.602,1.393v-1.548l1.602-1.393h1.437v7.871H121.862z"/>
	<path fill="#218FB2" d="M92.966,92.624v-6.323l-1.602,1.393v-1.548l1.602-1.393h1.437v7.871H92.966z"/>
	<path fill="#218FB2" d="M105.781,92.69c-1.282,0-2.399-0.84-2.399-2.343V87.03c0-1.504,1.117-2.343,2.399-2.343
		c1.283,0,2.388,0.84,2.388,2.343v3.316C108.168,91.85,107.063,92.69,105.781,92.69z M106.731,87.052
		c0-0.664-0.387-1.072-0.951-1.072c-0.564,0-0.961,0.409-0.961,1.072v3.283c0,0.663,0.398,1.062,0.961,1.062
		c0.564,0,0.951-0.398,0.951-1.062V87.052z"/>
	<path fill="#218FB2" d="M113.774,92.69c-1.282,0-2.399-0.84-2.399-2.343V87.03c0-1.504,1.117-2.343,2.399-2.343
		c1.283,0,2.388,0.84,2.388,2.343v3.316C116.162,91.85,115.057,92.69,113.774,92.69z M114.725,87.052
		c0-0.664-0.387-1.072-0.951-1.072c-0.564,0-0.961,0.409-0.961,1.072v3.283c0,0.663,0.398,1.062,0.961,1.062
		c0.564,0,0.951-0.398,0.951-1.062V87.052z"/>
	<path fill="#218FB2" d="M123.581,89.219l-1.67,3.405h-1.559l1.636-3.25c-0.188,0.077-0.398,0.099-0.586,0.099
		c-1.061,0-2.078-0.873-2.078-2.333c0-1.547,1.062-2.454,2.454-2.454c1.393,0,2.454,0.873,2.454,2.432
		C124.233,87.837,123.935,88.5,123.581,89.219z M121.779,85.98c-0.586,0-1.017,0.42-1.017,1.15c0,0.696,0.409,1.15,1.017,1.15
		c0.586,0,1.017-0.42,1.017-1.15S122.365,85.98,121.779,85.98z"/>
	<path fill="#218FB2" d="M134.295,92.69c-1.393,0-2.454-0.873-2.454-2.432c0-0.718,0.309-1.382,0.663-2.1l1.658-3.405h1.57
		l-1.636,3.25c0.188-0.078,0.398-0.099,0.586-0.099c1.062,0,2.067,0.873,2.067,2.332C136.749,91.784,135.687,92.69,134.295,92.69z
		 M134.295,89.097c-0.586,0-1.017,0.421-1.017,1.15c0,0.729,0.431,1.15,1.017,1.15s1.017-0.421,1.017-1.15
		C135.312,89.55,134.903,89.097,134.295,89.097z"/>
	<path fill="#218FB2" d="M142.278,92.69c-1.283,0-2.487-0.675-2.509-2.321h1.437c0.022,0.707,0.509,1.028,1.072,1.028
		c0.619,0,1.061-0.387,1.061-1.094c0-0.652-0.398-1.084-1.105-1.084h-0.21V87.97h0.21c0.697,0,0.995-0.431,0.995-0.984
		c0-0.663-0.442-1.006-0.962-1.006c-0.542,0-0.939,0.353-0.972,0.951h-1.437c0.033-1.404,1.083-2.244,2.409-2.244
		c1.393,0,2.399,0.929,2.399,2.255c0,0.851-0.387,1.338-0.906,1.614c0.564,0.298,1.017,0.84,1.017,1.791
		C144.776,91.916,143.626,92.69,142.278,92.69z"/>
	<path fill="#218FB2" d="M150.039,92.624v-6.323l-1.602,1.393v-1.548l1.602-1.393h1.437v7.871H150.039z"/>
	<path fill="#218FB2" d="M253.124,365.544c-1.473,0-2.592-0.314-3.547-1.283l1.228-1.228c0.614,0.614,1.446,0.818,2.347,0.818
		c1.119,0,1.719-0.423,1.719-1.201c0-0.341-0.095-0.628-0.3-0.818c-0.191-0.177-0.409-0.273-0.86-0.341l-1.173-0.163
		c-0.832-0.123-1.446-0.382-1.883-0.805c-0.464-0.464-0.696-1.091-0.696-1.91c0-1.733,1.283-2.947,3.384-2.947
		c1.337,0,2.306,0.327,3.138,1.133l-1.201,1.187c-0.614-0.587-1.351-0.669-1.992-0.669c-1.009,0-1.501,0.559-1.501,1.228
		c0,0.245,0.082,0.505,0.286,0.696c0.191,0.177,0.505,0.327,0.9,0.382l1.146,0.164c0.887,0.123,1.446,0.368,1.856,0.75
		c0.519,0.491,0.75,1.201,0.75,2.061C256.726,364.48,255.157,365.544,253.124,365.544z"/>
	<path fill="#218FB2" d="M194.878,365.544c-1.473,0-2.592-0.314-3.547-1.283l1.228-1.228c0.614,0.614,1.446,0.818,2.347,0.818
		c1.119,0,1.719-0.423,1.719-1.201c0-0.341-0.095-0.628-0.3-0.818c-0.191-0.177-0.409-0.273-0.86-0.341l-1.173-0.163
		c-0.832-0.123-1.446-0.382-1.883-0.805c-0.464-0.464-0.696-1.091-0.696-1.91c0-1.733,1.283-2.947,3.384-2.947
		c1.337,0,2.306,0.327,3.138,1.133l-1.201,1.187c-0.614-0.587-1.351-0.669-1.992-0.669c-1.009,0-1.501,0.559-1.501,1.228
		c0,0.245,0.082,0.505,0.286,0.696c0.191,0.177,0.505,0.327,0.9,0.382l1.146,0.164c0.887,0.123,1.446,0.368,1.856,0.75
		c0.519,0.491,0.75,1.201,0.75,2.061C198.48,364.48,196.911,365.544,194.878,365.544z"/>
	<rect x="297.598" y="125.75" fill="none" width="120.75" height="5.244"/>
	<text transform="matrix(1 0 0 1 337.5526 129.3094)" fill="#218FB2" font-family="'DINPro-Bold'" font-size="5">rhône alpes</text>
	<rect x="288.631" y="141.214" fill="none" width="120.75" height="5.244"/>
	<text transform="matrix(1 0 0 1 337.839 144.7735)" fill="#218FB2" font-family="'DINPro-Bold'" font-size="5">alsace</text>
</g>
</svg>
