<?xml version="1.0" encoding="utf-8"?>
<!-- Generator: Adobe Illustrator 17.0.0, SVG Export Plug-In . SVG Version: 6.00 Build 0)  -->
<!DOCTYPE svg PUBLIC "-//W3C//DTD SVG 1.1//EN" "http://www.w3.org/Graphics/SVG/1.1/DTD/svg11.dtd">
<svg version="1.1" id="Calque_1" xmlns="http://www.w3.org/2000/svg" xmlns:xlink="http://www.w3.org/1999/xlink" x="0px" y="0px"
	 width="385.333px" height="381px" viewBox="0 0 385.333 381" enable-background="new 0 0 385.333 381" xml:space="preserve">
<g id="Calque_2" display="none">
	<rect y="-0.667" display="inline" fill="none" width="383.167" height="381"/>
</g>
<g>
	<path fill="#218FB2" d="M296.711,299.445L55.368,223.976l-7.075-62.76c0,0-0.655-2.358,3.276-3.014l57.65-11.137l-0.917-15.33
		c0,0-0.262-2.751,3.8-3.145l54.636-7.73l75.6,4.455c0,0,3.276-0.262,3.538,4.455l-1.834,52.016c0,0,1.441,1.703,2.62,1.703
		l89.75,14.281c0,0,2.096-0.393,1.965,4.717l-5.372,51.754L296.711,299.445z"/>
	<path fill="#D7D6D1" d="M145.261,184.871l0.214-29.654c0,0-1.508,1.418-2.885,1.937c-1.837,0.705-3.96,0.994-3.96,0.994
		l0.036-5.007c0,0,2.999-0.526,5.049-2.026c1.758-1.293,3.482-3.892,3.482-3.892l3.368,0.384l-0.273,37.837L145.261,184.871z"/>
	<g>
		<path fill="#D7D6D1" d="M245.073,270.022c-3.578-0.239-7.056-1.462-9.987-4.036l2.452-4.047c2.645,2.208,5.061,3.113,7.831,3.298
			c3.77,0.252,6.628-2.233,6.869-6.131c0.235-3.799-1.468-6.242-6.084-6.55l-2.924-0.195l0.302-4.885l2.962,0.198
			c3.385,0.226,5.56-2.453,5.795-6.253c0.309-4.984-2.755-6.03-5.179-6.192c-1.846-0.123-4.755,1.317-6.151,3.899l-2.657-3.249
			c2.698-4.279,6.078-5.837,9.925-5.58c7.001,0.468,8.952,6.395,8.671,10.935c-0.324,5.23-2.955,8.424-4.779,8.55
			c2.097,0.438,5.086,3.957,4.737,9.582C256.424,266.37,252.151,270.494,245.073,270.022z"/>
	</g>
	<g>
		<path fill="#D7D6D1" d="M66.248,207.966l10.894-9.079c0.908-0.841,4.874-3.934,5.071-6.941c0.238-3.643-1.965-5.266-4.619-5.964
			c-3.422-0.9-5.349,0.86-5.518,3.442l-0.079,1.203l-3.876-1.019l0.083-1.273c0.289-4.421,4.07-7.384,9.552-5.943
			c4.959,1.304,9.12,4.486,8.732,10.427c-0.277,4.244-4.316,7.355-4.991,7.897l-6.796,5.624l11.698,3.077l-0.247,3.785
			L66.248,207.966z"/>
	</g>
	<path fill="#106377" d="M195.3,207.074c0,0,105.735,23.584,106.521,23.191l35.376-32.232L246.66,183.49L195.3,207.074z"/>
	<path fill="#106377" d="M193.138,203.34l51.295-22.208l1.572-53.064c0,0-0.393-2.555-1.965-2.162c0,0-51.295,15.133-50.706,15.133
		C193.924,141.039,193.138,203.34,193.138,203.34z"/>
	<polygon fill="#106377" points="50.782,158.989 110.528,170.519 109.218,147.066 	"/>
	<line fill="none" stroke="#106377" stroke-miterlimit="10" x1="186.454" y1="115.832" x2="186.454" y2="20.233"/>
	
		<line fill="none" stroke="#106377" stroke-miterlimit="10" stroke-dasharray="3" x1="96.551" y1="141.959" x2="96.551" y2="73.675"/>
	<g>
		<line fill="none" x1="276.812" y1="182.724" x2="276.812" y2="110.679"/>
		<g>
			<line fill="none" stroke="#106377" stroke-miterlimit="10" x1="276.812" y1="182.724" x2="276.812" y2="181.224"/>
			
				<line fill="none" stroke="#106377" stroke-miterlimit="10" stroke-dasharray="3.0019,3.0019" x1="276.812" y1="178.222" x2="276.812" y2="113.68"/>
			<line fill="none" stroke="#106377" stroke-miterlimit="10" x1="276.812" y1="112.179" x2="276.812" y2="110.679"/>
		</g>
	</g>
	<g>
		<path fill="#106377" d="M41.794,66.775h-1.507v2.948h-1.529V61.89h3.036c1.617,0,2.586,1.111,2.586,2.442
			S43.411,66.775,41.794,66.775z M41.717,63.254h-1.43V65.4h1.43c0.693,0,1.134-0.43,1.134-1.067
			C42.851,63.694,42.41,63.254,41.717,63.254z"/>
		<path fill="#106377" d="M51.331,69.723l-0.462-1.386h-2.783l-0.474,1.386h-1.595l2.849-7.833h1.199l2.86,7.833H51.331z
			 M49.505,64.201l-0.99,2.849h1.947L49.505,64.201z"/>
		<path fill="#106377" d="M58.262,66.51v3.213h-1.519V66.51l-2.354-4.62h1.661l1.463,3.157l1.441-3.157h1.661L58.262,66.51z"/>
		<path fill="#106377" d="M65.477,69.79c-1.188,0-2.09-0.254-2.86-1.034l0.99-0.99c0.495,0.495,1.166,0.66,1.893,0.66
			c0.902,0,1.386-0.342,1.386-0.969c0-0.274-0.076-0.506-0.241-0.66c-0.154-0.143-0.33-0.22-0.693-0.274l-0.946-0.132
			c-0.671-0.1-1.166-0.309-1.519-0.649c-0.374-0.374-0.561-0.88-0.561-1.54c0-1.397,1.034-2.377,2.729-2.377
			c1.078,0,1.859,0.265,2.53,0.913l-0.969,0.957c-0.495-0.473-1.089-0.539-1.605-0.539c-0.814,0-1.211,0.451-1.211,0.99
			c0,0.198,0.066,0.407,0.231,0.562c0.154,0.143,0.407,0.264,0.726,0.308l0.925,0.132c0.715,0.1,1.166,0.298,1.496,0.605
			c0.418,0.396,0.604,0.968,0.604,1.661C68.381,68.931,67.116,69.79,65.477,69.79z"/>
		<path fill="#106377" d="M80.789,68.975c-0.517,0.517-1.254,0.748-2.068,0.748h-2.827V61.89h2.827c0.814,0,1.552,0.23,2.068,0.748
			c0.88,0.88,0.792,1.958,0.792,3.136C81.581,66.951,81.669,68.095,80.789,68.975z M79.722,63.738
			c-0.264-0.318-0.616-0.483-1.144-0.483h-1.155v5.104h1.155c0.527,0,0.88-0.165,1.144-0.484c0.286-0.352,0.33-0.913,0.33-2.101
			C80.052,64.585,80.008,64.09,79.722,63.738z"/>
		<path fill="#106377" d="M84.903,69.723V61.89h5.16v1.364h-3.631v1.837h3.092v1.364h-3.092v1.903h3.631v1.364h-5.16V69.723z"/>
		<path fill="#106377" d="M97.629,69.723V61.89h1.529v6.469h3.554v1.364H97.629z"/>
		<path fill="#106377" d="M110.17,69.723l-0.462-1.386h-2.783l-0.474,1.386h-1.595l2.849-7.833h1.199l2.86,7.833H110.17z
			 M108.344,64.201l-0.99,2.849h1.947L108.344,64.201z"/>
		<path fill="#106377" d="M118.804,69.723V61.89h1.529v6.469h3.554v1.364H118.804z"/>
		<path fill="#106377" d="M131.345,68.931c-0.55,0.55-1.221,0.858-2.112,0.858s-1.573-0.309-2.123-0.858
			c-0.792-0.792-0.771-1.771-0.771-3.125c0-1.353-0.021-2.332,0.771-3.124c0.55-0.55,1.232-0.858,2.123-0.858
			c0.892,0,1.562,0.309,2.112,0.858c0.792,0.792,0.781,1.771,0.781,3.124C132.126,67.16,132.137,68.139,131.345,68.931z
			 M130.212,63.606c-0.22-0.253-0.562-0.418-0.979-0.418s-0.77,0.165-0.99,0.418c-0.297,0.33-0.374,0.693-0.374,2.2
			c0,1.508,0.077,1.871,0.374,2.201c0.221,0.253,0.572,0.418,0.99,0.418s0.76-0.165,0.979-0.418c0.297-0.33,0.385-0.693,0.385-2.201
			C130.597,64.299,130.509,63.936,130.212,63.606z"/>
		<path fill="#106377" d="M135.448,69.723V61.89h1.529v7.833H135.448z"/>
		<path fill="#106377" d="M144.721,69.723l-1.529-3.124h-1.1v3.124h-1.529V61.89h3.069c1.595,0,2.541,1.089,2.541,2.398
			c0,1.1-0.671,1.782-1.43,2.057l1.749,3.378H144.721z M143.533,63.254h-1.441v2.068h1.441c0.671,0,1.11-0.43,1.11-1.034
			C144.644,63.683,144.204,63.254,143.533,63.254z"/>
		<path fill="#106377" d="M149.516,69.723V61.89h5.16v1.364h-3.631v1.837h3.092v1.364h-3.092v1.903h3.631v1.364h-5.16V69.723z"/>
	</g>
	<g>
		<path fill="#106377" d="M156.936,15.046h-3.278V7.214h3.146c1.529,0,2.421,0.857,2.421,2.199c0,0.869-0.572,1.432-0.969,1.617
			c0.474,0.221,1.078,0.715,1.078,1.762C159.334,14.255,158.333,15.046,156.936,15.046z M156.683,8.577h-1.496v1.805h1.496
			c0.649,0,1.013-0.363,1.013-0.902S157.332,8.577,156.683,8.577z M156.782,11.757h-1.596v1.926h1.596
			c0.692,0,1.022-0.441,1.022-0.969S157.475,11.757,156.782,11.757z"/>
		<path fill="#106377" d="M166.814,15.046l-1.529-3.123h-1.1v3.123h-1.529V7.214h3.069c1.595,0,2.541,1.088,2.541,2.398
			c0,1.1-0.671,1.781-1.43,2.057l1.749,3.377C168.585,15.046,166.814,15.046,166.814,15.046z M165.626,8.577h-1.441v2.068h1.441
			c0.671,0,1.11-0.43,1.11-1.033C166.737,9.007,166.297,8.577,165.626,8.577z"/>
		<path fill="#106377" d="M171.61,15.046V7.214h5.159v1.363h-3.63v1.838h3.091v1.363h-3.091v1.904h3.63v1.363L171.61,15.046
			L171.61,15.046z"/>
		<path fill="#106377" d="M183.017,8.577v6.469h-1.529V8.577h-2.047V7.214h5.622v1.363C185.063,8.577,183.017,8.577,183.017,8.577z"
			/>
		<path fill="#106377" d="M191.861,15.046l-0.462-1.385h-2.783l-0.474,1.385h-1.595l2.849-7.832h1.199l2.86,7.832H191.861z
			 M190.034,9.525l-0.99,2.848h1.947L190.034,9.525z"/>
		<path fill="#106377" d="M200.903,14.222c-0.605,0.615-1.331,0.891-2.211,0.891c-0.837,0-1.541-0.285-2.112-0.857
			c-0.342-0.342-0.551-0.738-0.639-1.178s-0.132-1.09-0.132-1.947s0.044-1.508,0.132-1.947c0.088-0.451,0.297-0.836,0.639-1.178
			c0.571-0.572,1.275-0.857,2.112-0.857c1.782,0,2.739,1.145,2.948,2.508h-1.54c-0.188-0.758-0.649-1.145-1.408-1.145
			c-0.407,0-0.737,0.145-0.979,0.418c-0.286,0.363-0.374,0.65-0.374,2.201c0,1.541,0.065,1.848,0.374,2.211
			c0.23,0.275,0.561,0.408,0.979,0.408c0.45,0,0.813-0.145,1.089-0.441c0.23-0.264,0.352-0.615,0.352-1.045v-0.297h-1.44v-1.275
			h2.959v1.143C201.651,12.978,201.442,13.65,200.903,14.222z"/>
		<path fill="#106377" d="M209.472,15.046l-3.103-4.807v4.807h-1.529V7.214h1.364l3.103,4.797V7.214h1.529v7.832H209.472z"/>
		<path fill="#106377" d="M214.42,15.046V7.214h5.16v1.363h-3.631v1.838h3.092v1.363h-3.092v1.904h3.631v1.363L214.42,15.046
			L214.42,15.046z"/>
	</g>
	<g>
		<path fill="#106377" d="M236.96,106.473l-1.529-3.124h-1.101v3.124h-1.529V98.64h3.069c1.596,0,2.542,1.089,2.542,2.398
			c0,1.1-0.671,1.782-1.431,2.057l1.749,3.378H236.96z M235.772,100.004h-1.441v2.068h1.441c0.671,0,1.111-0.43,1.111-1.034
			C236.883,100.433,236.443,100.004,235.772,100.004z"/>
		<path fill="#106377" d="M245.936,106.473v-3.278h-2.651v3.278h-1.529V98.64h1.529v3.201h2.651V98.64h1.529v7.833H245.936z"/>
		<path fill="#106377" d="M255.792,105.681c-0.551,0.55-1.222,0.858-2.112,0.858c-0.892,0-1.573-0.309-2.123-0.858
			c-0.793-0.792-0.771-1.771-0.771-3.125c0-1.353-0.022-2.332,0.771-3.124c0.55-0.55,1.231-0.858,2.123-0.858
			c0.891,0,1.562,0.309,2.112,0.858c0.792,0.792,0.781,1.771,0.781,3.124C256.573,103.91,256.584,104.889,255.792,105.681z
			 M254.593,97.881l-0.913-1.002l-0.913,1.002h-1.111l1.452-1.859h1.145l1.452,1.859H254.593z M254.658,100.356
			c-0.22-0.253-0.561-0.418-0.979-0.418s-0.771,0.165-0.99,0.418c-0.297,0.33-0.374,0.693-0.374,2.2
			c0,1.508,0.077,1.871,0.374,2.201c0.22,0.253,0.572,0.418,0.99,0.418s0.759-0.165,0.979-0.418c0.298-0.33,0.386-0.693,0.386-2.201
			C255.044,101.049,254.956,100.686,254.658,100.356z"/>
		<path fill="#106377" d="M264.526,106.473l-3.103-4.808v4.808h-1.529V98.64h1.364l3.103,4.797V98.64h1.529v7.833H264.526z"/>
		<path fill="#106377" d="M269.475,106.473V98.64h5.16v1.364h-3.631v1.837h3.092v1.364h-3.092v1.903h3.631v1.364h-5.16V106.473z"/>
		<path fill="#106377" d="M286.657,106.473l-0.462-1.386h-2.783l-0.474,1.386h-1.595l2.849-7.833h1.199l2.86,7.833H286.657z
			 M284.831,100.951l-0.99,2.849h1.947L284.831,100.951z"/>
		<path fill="#106377" d="M290.98,106.473V98.64h1.529v6.469h3.554v1.364H290.98z"/>
		<path fill="#106377" d="M302.102,103.525h-1.508v2.948h-1.529V98.64h3.037c1.617,0,2.585,1.111,2.585,2.442
			S303.719,103.525,302.102,103.525z M302.025,100.004h-1.431v2.146h1.431c0.692,0,1.133-0.43,1.133-1.067
			C303.157,100.444,302.717,100.004,302.025,100.004z"/>
		<path fill="#106377" d="M307.733,106.473V98.64h5.159v1.364h-3.63v1.837h3.091v1.364h-3.091v1.903h3.63v1.364h-5.159V106.473z"/>
		<path fill="#106377" d="M318.304,106.54c-1.188,0-2.091-0.254-2.86-1.034l0.99-0.99c0.495,0.495,1.166,0.66,1.892,0.66
			c0.902,0,1.387-0.342,1.387-0.969c0-0.274-0.077-0.506-0.242-0.66c-0.154-0.143-0.33-0.22-0.693-0.274l-0.946-0.132
			c-0.671-0.1-1.166-0.309-1.518-0.649c-0.374-0.374-0.562-0.88-0.562-1.54c0-1.397,1.034-2.377,2.729-2.377
			c1.078,0,1.859,0.265,2.53,0.913l-0.968,0.957c-0.495-0.473-1.089-0.539-1.606-0.539c-0.814,0-1.21,0.451-1.21,0.99
			c0,0.198,0.065,0.407,0.23,0.562c0.154,0.143,0.407,0.264,0.727,0.308l0.924,0.133c0.716,0.099,1.166,0.297,1.496,0.604
			c0.418,0.396,0.605,0.968,0.605,1.661C321.208,105.681,319.943,106.54,318.304,106.54z"/>
	</g>
	<g>
		<path fill="#D33C3D" d="M196.804,30.844c-1.403,0-2.722-0.739-2.747-2.542h1.574c0.024,0.775,0.556,1.126,1.173,1.126
			c0.678,0,1.162-0.424,1.162-1.199c0-0.713-0.436-1.186-1.211-1.186h-0.23v-1.368h0.23c0.763,0,1.089-0.472,1.089-1.076
			c0-0.726-0.483-1.102-1.053-1.102c-0.593,0-1.028,0.388-1.065,1.041h-1.574c0.037-1.537,1.186-2.457,2.638-2.457
			c1.525,0,2.627,1.017,2.627,2.469c0,0.932-0.423,1.465-0.993,1.767c0.618,0.327,1.113,0.92,1.113,1.96
			C199.539,29.996,198.281,30.844,196.804,30.844z"/>
		<path fill="#D33C3D" d="M210.089,30.844c-1.404,0-2.625-0.921-2.625-2.566v-3.63c0-1.647,1.221-2.566,2.625-2.566
			s2.615,0.92,2.615,2.566v3.63C212.704,29.923,211.493,30.844,210.089,30.844z M211.13,24.671c0-0.726-0.423-1.174-1.041-1.174
			c-0.617,0-1.053,0.448-1.053,1.174v3.594c0,0.726,0.436,1.162,1.053,1.162c0.618,0,1.041-0.436,1.041-1.162V24.671z"/>
		<path fill="#D33C3D" d="M220.581,27.043l-1.827,3.728h-1.707l1.792-3.558c-0.206,0.085-0.436,0.108-0.642,0.108
			c-1.161,0-2.274-0.956-2.274-2.553c0-1.694,1.161-2.687,2.687-2.687c1.524,0,2.686,0.956,2.686,2.663
			C221.294,25.53,220.968,26.257,220.581,27.043z M218.609,23.497c-0.642,0-1.114,0.46-1.114,1.259c0,0.763,0.448,1.259,1.114,1.259
			c0.641,0,1.113-0.46,1.113-1.259C219.722,23.957,219.25,23.497,218.609,23.497z"/>
		<path fill="#D33C3D" d="M227.065,30.844c-1.403,0-2.722-0.739-2.747-2.542h1.574c0.024,0.775,0.556,1.126,1.173,1.126
			c0.678,0,1.162-0.424,1.162-1.199c0-0.713-0.436-1.186-1.211-1.186h-0.23v-1.368h0.23c0.763,0,1.089-0.472,1.089-1.076
			c0-0.726-0.483-1.102-1.053-1.102c-0.593,0-1.028,0.388-1.065,1.041h-1.574c0.037-1.537,1.186-2.457,2.638-2.457
			c1.525,0,2.627,1.017,2.627,2.469c0,0.932-0.423,1.465-0.993,1.767c0.618,0.327,1.113,0.92,1.113,1.96
			C229.8,29.996,228.542,30.844,227.065,30.844z"/>
	</g>
	<g>
		<path fill="#D33C3D" d="M104.566,85.015v-1.287l2.926-3.399c0.286-0.341,0.407-0.583,0.407-0.946c0-0.583-0.341-0.979-0.946-0.979
			c-0.473,0-0.957,0.242-0.957,1.002h-1.43c0-1.431,1.045-2.289,2.387-2.289c1.387,0,2.377,0.869,2.377,2.277
			c0,0.76-0.297,1.166-0.837,1.794l-2.188,2.541h3.025v1.287L104.566,85.015L104.566,85.015z"/>
		<path fill="#D33C3D" d="M118.952,85.081c-1.386,0-2.508-0.825-2.508-2.344c0-0.957,0.55-1.475,0.979-1.76
			c-0.396-0.275-0.88-0.793-0.88-1.629c0-1.386,1.101-2.233,2.409-2.233c1.31,0,2.398,0.848,2.398,2.233
			c0,0.836-0.484,1.354-0.88,1.629c0.429,0.285,0.99,0.803,0.99,1.76C121.461,84.256,120.339,85.081,118.952,85.081z
			 M118.952,81.626c-0.604,0-1.078,0.484-1.078,1.089c0,0.605,0.474,1.079,1.078,1.079c0.605,0,1.078-0.474,1.078-1.079
			C120.031,82.111,119.558,81.626,118.952,81.626z M118.952,78.403c-0.561,0-0.979,0.43-0.979,0.99c0,0.572,0.418,0.99,0.979,0.99
			c0.562,0,0.969-0.418,0.969-0.99C119.921,78.832,119.514,78.403,118.952,78.403z"/>
		<path fill="#D33C3D" d="M128.612,83.904v1.111h-1.375v-1.111h-3.202V82.55l2.685-5.368h1.562l-2.685,5.368h1.64v-1.463h1.375
			v1.463h0.715v1.354H128.612z"/>
		<path fill="#D33C3D" d="M136.167,84.443c-0.352,0.353-0.913,0.639-1.727,0.639c-0.814,0-1.408-0.286-1.749-0.628
			c-0.484-0.483-0.595-1.056-0.639-1.628h1.431c0.077,0.616,0.362,0.969,0.957,0.969c0.274,0,0.506-0.077,0.682-0.254
			c0.253-0.253,0.309-0.671,0.309-1.166c0-0.902-0.265-1.408-0.957-1.408c-0.583,0-0.848,0.33-0.946,0.639h-1.31v-4.423h4.467v1.287
			h-3.169v1.684c0.21-0.198,0.649-0.396,1.178-0.396c0.649,0,1.145,0.209,1.463,0.528c0.616,0.616,0.704,1.353,0.704,2.09
			C136.861,83.255,136.74,83.87,136.167,84.443z"/>
	</g>
	<g>
		<path fill="#D33C3D" d="M284.162,121.73v-1.287l2.926-3.399c0.286-0.341,0.407-0.583,0.407-0.946c0-0.583-0.341-0.979-0.946-0.979
			c-0.473,0-0.957,0.242-0.957,1.002h-1.43c0-1.431,1.045-2.289,2.387-2.289c1.387,0,2.377,0.869,2.377,2.277
			c0,0.76-0.297,1.166-0.837,1.794l-2.188,2.541h3.025v1.287L284.162,121.73L284.162,121.73z"/>
		<path fill="#D33C3D" d="M298.528,121.797c-1.387,0-2.442-0.869-2.442-2.421c0-0.715,0.308-1.375,0.66-2.09l1.65-3.389h1.562
			l-1.628,3.234c0.187-0.077,0.396-0.099,0.583-0.099c1.057,0,2.058,0.869,2.058,2.321
			C300.97,120.895,299.913,121.797,298.528,121.797z M298.528,118.221c-0.583,0-1.013,0.418-1.013,1.145
			c0,0.726,0.43,1.145,1.013,1.145s1.012-0.419,1.012-1.145C299.539,118.672,299.132,118.221,298.528,118.221z"/>
		<path fill="#D33C3D" d="M308.031,121.158c-0.352,0.353-0.913,0.639-1.727,0.639s-1.408-0.286-1.749-0.628
			c-0.484-0.483-0.595-1.056-0.639-1.628h1.431c0.077,0.616,0.362,0.969,0.957,0.969c0.274,0,0.506-0.077,0.682-0.254
			c0.253-0.253,0.309-0.671,0.309-1.166c0-0.902-0.265-1.408-0.957-1.408c-0.583,0-0.848,0.33-0.946,0.639h-1.31v-4.423h4.467v1.287
			h-3.169v1.684c0.21-0.198,0.649-0.396,1.178-0.396c0.649,0,1.145,0.209,1.463,0.528c0.616,0.616,0.704,1.353,0.704,2.09
			C308.725,119.971,308.604,120.586,308.031,121.158z"/>
		<path fill="#D33C3D" d="M313.993,121.797c-1.387,0-2.442-0.869-2.442-2.421c0-0.715,0.308-1.375,0.66-2.09l1.65-3.389h1.562
			l-1.628,3.234c0.187-0.077,0.396-0.099,0.583-0.099c1.057,0,2.058,0.869,2.058,2.321
			C316.436,120.895,315.379,121.797,313.993,121.797z M313.993,118.221c-0.583,0-1.013,0.418-1.013,1.145
			c0,0.726,0.43,1.145,1.013,1.145s1.012-0.419,1.012-1.145C315.005,118.672,314.598,118.221,313.993,118.221z"/>
	</g>
	<g>
		<path fill="#218FB2" d="M286.485,137.022v-6.293l-1.596,1.387v-1.541l1.596-1.386h1.43v7.833H286.485z"/>
		<path fill="#218FB2" d="M298.771,137.089c-1.387,0-2.442-0.869-2.442-2.421c0-0.715,0.308-1.375,0.66-2.09l1.65-3.389h1.562
			l-1.628,3.234c0.187-0.077,0.396-0.099,0.583-0.099c1.057,0,2.058,0.869,2.058,2.321
			C301.213,136.186,300.156,137.089,298.771,137.089z M298.771,133.512c-0.583,0-1.013,0.418-1.013,1.145
			c0,0.726,0.43,1.145,1.013,1.145s1.012-0.419,1.012-1.145C299.782,133.964,299.375,133.512,298.771,133.512z"/>
		<path fill="#218FB2" d="M306.526,137.089c-1.386,0-2.508-0.825-2.508-2.344c0-0.957,0.55-1.475,0.979-1.76
			c-0.396-0.275-0.88-0.793-0.88-1.629c0-1.386,1.101-2.233,2.409-2.233c1.31,0,2.398,0.848,2.398,2.233
			c0,0.836-0.484,1.354-0.88,1.629c0.429,0.285,0.99,0.803,0.99,1.76C309.034,136.263,307.912,137.089,306.526,137.089z
			 M306.526,133.633c-0.604,0-1.078,0.484-1.078,1.089c0,0.605,0.474,1.079,1.078,1.079c0.605,0,1.078-0.474,1.078-1.079
			C307.604,134.118,307.131,133.633,306.526,133.633z M306.526,130.41c-0.561,0-0.979,0.43-0.979,0.99
			c0,0.572,0.418,0.99,0.979,0.99c0.562,0,0.969-0.418,0.969-0.99C307.494,130.84,307.087,130.41,306.526,130.41z"/>
		<path fill="#218FB2" d="M314.225,137.089c-1.275,0-2.475-0.672-2.497-2.311h1.431c0.021,0.704,0.506,1.023,1.066,1.023
			c0.616,0,1.057-0.386,1.057-1.09c0-0.648-0.396-1.078-1.101-1.078h-0.209v-1.243h0.209c0.693,0,0.99-0.429,0.99-0.979
			c0-0.66-0.439-1.002-0.957-1.002c-0.539,0-0.935,0.353-0.968,0.946h-1.431c0.033-1.397,1.078-2.233,2.398-2.233
			c1.387,0,2.388,0.925,2.388,2.244c0,0.848-0.385,1.332-0.902,1.606c0.562,0.297,1.012,0.836,1.012,1.782
			C316.711,136.318,315.568,137.089,314.225,137.089z"/>
		<path fill="#218FB2" d="M328.051,136.45c-0.352,0.353-0.913,0.639-1.727,0.639s-1.408-0.286-1.749-0.628
			c-0.484-0.483-0.595-1.056-0.639-1.628h1.431c0.077,0.616,0.362,0.969,0.957,0.969c0.274,0,0.506-0.077,0.682-0.254
			c0.253-0.253,0.309-0.671,0.309-1.166c0-0.902-0.265-1.408-0.957-1.408c-0.584,0-0.848,0.33-0.946,0.639h-1.31v-4.423h4.467v1.287
			H325.4v1.684c0.21-0.198,0.649-0.396,1.178-0.396c0.649,0,1.145,0.209,1.463,0.528c0.616,0.616,0.704,1.353,0.704,2.09
			C328.744,135.262,328.623,135.878,328.051,136.45z"/>
		<path fill="#218FB2" d="M331.693,137.022v-1.287l2.926-3.399c0.286-0.341,0.407-0.583,0.407-0.946
			c0-0.583-0.341-0.979-0.946-0.979c-0.473,0-0.957,0.242-0.957,1.002h-1.43c0-1.431,1.045-2.289,2.387-2.289
			c1.387,0,2.377,0.869,2.377,2.277c0,0.76-0.297,1.166-0.837,1.794l-2.188,2.541h3.025v1.287L331.693,137.022L331.693,137.022z"/>
		<path fill="#218FB2" d="M343.694,135.911v1.111h-1.375v-1.111h-3.202v-1.354l2.685-5.368h1.562l-2.685,5.368h1.64v-1.463h1.375
			v1.463h0.715v1.354H343.694z"/>
	</g>
	<g>
		<path fill="#218FB2" d="M105.271,100.272v-6.293l-1.596,1.387v-1.541l1.596-1.386h1.43v7.833H105.271z"/>
		<path fill="#218FB2" d="M117.578,100.339c-1.276,0-2.387-0.837-2.387-2.333v-3.3c0-1.497,1.11-2.333,2.387-2.333
			s2.377,0.836,2.377,2.333v3.3C119.955,99.502,118.855,100.339,117.578,100.339z M118.525,94.727c0-0.66-0.385-1.067-0.946-1.067
			s-0.957,0.407-0.957,1.067v3.268c0,0.66,0.396,1.057,0.957,1.057c0.562,0,0.946-0.396,0.946-1.057V94.727z"/>
		<path fill="#218FB2" d="M125.279,100.339c-1.275,0-2.475-0.672-2.497-2.311h1.431c0.021,0.704,0.506,1.023,1.066,1.023
			c0.616,0,1.057-0.386,1.057-1.09c0-0.648-0.396-1.078-1.101-1.078h-0.209V95.64h0.209c0.693,0,0.99-0.429,0.99-0.979
			c0-0.66-0.439-1.002-0.957-1.002c-0.539,0-0.935,0.353-0.968,0.946h-1.431c0.033-1.397,1.078-2.233,2.398-2.233
			c1.387,0,2.388,0.925,2.388,2.244c0,0.848-0.385,1.332-0.902,1.606c0.562,0.297,1.012,0.836,1.012,1.782
			C127.765,99.568,126.621,100.339,125.279,100.339z"/>
		<path fill="#218FB2" d="M130.701,100.272v-1.287l2.926-3.399c0.286-0.341,0.407-0.583,0.407-0.946
			c0-0.583-0.341-0.979-0.946-0.979c-0.473,0-0.957,0.242-0.957,1.002h-1.43c0-1.431,1.045-2.289,2.387-2.289
			c1.387,0,2.377,0.869,2.377,2.277c0,0.76-0.297,1.166-0.837,1.794l-2.188,2.541h3.025v1.287L130.701,100.272L130.701,100.272z"/>
		<path fill="#218FB2" d="M145.088,100.339c-1.386,0-2.508-0.825-2.508-2.344c0-0.957,0.55-1.475,0.979-1.76
			c-0.396-0.275-0.88-0.793-0.88-1.629c0-1.386,1.101-2.233,2.409-2.233c1.31,0,2.398,0.848,2.398,2.233
			c0,0.836-0.484,1.354-0.88,1.629c0.429,0.285,0.99,0.803,0.99,1.76C147.597,99.513,146.475,100.339,145.088,100.339z
			 M145.088,96.883c-0.604,0-1.078,0.484-1.078,1.089c0,0.605,0.474,1.079,1.078,1.079c0.605,0,1.078-0.474,1.078-1.079
			C146.166,97.368,145.694,96.883,145.088,96.883z M145.088,93.66c-0.561,0-0.979,0.43-0.979,0.99c0,0.572,0.418,0.99,0.979,0.99
			c0.562,0,0.969-0.418,0.969-0.99C146.057,94.09,145.65,93.66,145.088,93.66z"/>
		<path fill="#218FB2" d="M152.822,100.272h-1.551l2.541-6.546h-2.068v1.232h-1.364v-2.52h4.984v1.287L152.822,100.272z"/>
		<path fill="#218FB2" d="M160.29,100.272v-6.293l-1.596,1.387v-1.541l1.596-1.386h1.43v7.833H160.29z"/>
	</g>
	<g>
		<path fill="#218FB2" d="M195.76,46.539v-6.717l-1.703,1.48v-1.645l1.703-1.479h1.526v8.361H195.76z"/>
		<path fill="#218FB2" d="M208.898,46.61c-1.362,0-2.548-0.893-2.548-2.49v-3.522c0-1.598,1.185-2.49,2.548-2.49
			c1.362,0,2.537,0.892,2.537,2.49v3.522C211.435,45.716,210.26,46.61,208.898,46.61z M209.908,40.62
			c0-0.705-0.411-1.139-1.01-1.139c-0.598,0-1.022,0.435-1.022,1.139v3.488c0,0.705,0.423,1.128,1.022,1.128s1.01-0.423,1.01-1.128
			V40.62z"/>
		<path fill="#218FB2" d="M217.152,46.61c-1.362,0-2.548-0.893-2.548-2.49v-3.522c0-1.598,1.185-2.49,2.548-2.49
			c1.362,0,2.537,0.892,2.537,2.49v3.522C219.689,45.716,218.515,46.61,217.152,46.61z M218.162,40.62
			c0-0.705-0.411-1.139-1.01-1.139c-0.598,0-1.022,0.435-1.022,1.139v3.488c0,0.705,0.423,1.128,1.022,1.128s1.01-0.423,1.01-1.128
			V40.62z"/>
		<path fill="#218FB2" d="M222.905,46.539v-1.374l3.123-3.629c0.305-0.364,0.435-0.622,0.435-1.01c0-0.622-0.364-1.046-1.01-1.046
			c-0.505,0-1.022,0.259-1.022,1.07h-1.526c0-1.527,1.115-2.443,2.548-2.443c1.48,0,2.537,0.928,2.537,2.431
			c0,0.811-0.317,1.245-0.893,1.915l-2.336,2.712h3.229v1.374H222.905z"/>
		<path fill="#218FB2" d="M238.262,46.61c-1.362,0-2.548-0.893-2.548-2.49v-3.522c0-1.598,1.185-2.49,2.548-2.49
			c1.362,0,2.537,0.892,2.537,2.49v3.522C240.799,45.716,239.624,46.61,238.262,46.61z M239.272,40.62
			c0-0.705-0.411-1.139-1.01-1.139c-0.598,0-1.022,0.435-1.022,1.139v3.488c0,0.705,0.423,1.128,1.022,1.128s1.01-0.423,1.01-1.128
			V40.62z"/>
		<path fill="#218FB2" d="M248.384,45.928c-0.375,0.376-0.975,0.682-1.843,0.682c-0.869,0-1.503-0.305-1.867-0.67
			c-0.517-0.516-0.635-1.127-0.682-1.738h1.527c0.082,0.658,0.387,1.034,1.022,1.034c0.293,0,0.54-0.082,0.728-0.271
			c0.27-0.27,0.329-0.716,0.329-1.245c0-0.963-0.282-1.503-1.022-1.503c-0.622,0-0.905,0.352-1.01,0.682h-1.398v-4.721h4.768v1.374
			h-3.383v1.797c0.224-0.212,0.693-0.423,1.257-0.423c0.693,0,1.222,0.223,1.562,0.564c0.658,0.658,0.752,1.444,0.752,2.231
			C249.124,44.66,248.994,45.317,248.384,45.928z"/>
		<path fill="#218FB2" d="M254.735,46.61c-1.361,0-2.641-0.717-2.665-2.466h1.527c0.023,0.752,0.54,1.092,1.138,1.092
			c0.658,0,1.128-0.412,1.128-1.163c0-0.692-0.423-1.151-1.175-1.151h-0.223v-1.327h0.223c0.74,0,1.057-0.458,1.057-1.044
			c0-0.705-0.469-1.07-1.022-1.07c-0.575,0-0.998,0.376-1.033,1.01h-1.527c0.035-1.492,1.151-2.384,2.56-2.384
			c1.48,0,2.549,0.987,2.549,2.395c0,0.905-0.411,1.422-0.963,1.715c0.599,0.317,1.08,0.892,1.08,1.902
			C257.389,45.787,256.168,46.61,254.735,46.61z"/>
	</g>
	<path fill="#D33C3D" d="M115.572,338.127h-1.979v3.871h-2.008v-10.286h3.987c2.123,0,3.394,1.459,3.394,3.207
		S117.696,338.127,115.572,338.127z M115.471,333.504h-1.878v2.817h1.878c0.91,0,1.487-0.564,1.487-1.401
		S116.381,333.504,115.471,333.504z"/>
	<path fill="#D33C3D" d="M129.485,340.958c-0.723,0.723-1.603,1.127-2.774,1.127s-2.066-0.405-2.788-1.127
		c-1.04-1.04-1.011-2.326-1.011-4.102c0-1.777-0.029-3.062,1.011-4.103c0.723-0.723,1.618-1.127,2.788-1.127
		s2.051,0.404,2.774,1.127c1.04,1.04,1.026,2.326,1.026,4.103C130.51,338.632,130.525,339.918,129.485,340.958z M127.997,333.966
		c-0.289-0.332-0.737-0.549-1.285-0.549s-1.011,0.217-1.3,0.549c-0.39,0.434-0.491,0.91-0.491,2.889
		c0,1.979,0.101,2.456,0.491,2.889c0.289,0.333,0.751,0.55,1.3,0.55s0.997-0.217,1.285-0.55c0.39-0.433,0.506-0.91,0.506-2.889
		C128.502,334.876,128.387,334.4,127.997,333.966z"/>
	<path fill="#D33C3D" d="M138.789,342.085c-2.109,0-3.784-1.43-3.784-3.612v-6.761h2.008v6.689c0,1.184,0.693,1.893,1.776,1.893
		s1.792-0.708,1.792-1.893v-6.689h1.993v6.761C142.574,340.655,140.899,342.085,138.789,342.085z"/>
	<path fill="#D33C3D" d="M152.876,341.998l-2.008-4.103h-1.444v4.103h-2.008v-10.286h4.03c2.095,0,3.337,1.43,3.337,3.149
		c0,1.444-0.881,2.341-1.878,2.702l2.297,4.435H152.876z M151.316,333.504h-1.892v2.716h1.892c0.881,0,1.459-0.564,1.459-1.358
		S152.198,333.504,151.316,333.504z"/>
	<path fill="#D33C3D" d="M167.801,341.998v-8.263l-2.094,1.82v-2.023l2.094-1.82h1.878v10.286H167.801z"/>
	<path fill="#D33C3D" d="M178.594,342.085c-1.675,0-3.134-1.098-3.134-3.062v-4.334c0-1.965,1.459-3.062,3.134-3.062
		c1.676,0,3.12,1.098,3.12,3.062v4.334C181.714,340.986,180.27,342.085,178.594,342.085z M179.836,334.718
		c0-0.867-0.506-1.401-1.242-1.401c-0.737,0-1.256,0.534-1.256,1.401v4.29c0,0.867,0.52,1.387,1.256,1.387
		c0.737,0,1.242-0.521,1.242-1.387V334.718z"/>
	<path fill="#D33C3D" d="M194.993,342.085c-1.675,0-3.134-1.098-3.134-3.062v-4.334c0-1.965,1.459-3.062,3.134-3.062
		c1.676,0,3.12,1.098,3.12,3.062v4.334C198.113,340.986,196.669,342.085,194.993,342.085z M196.235,334.718
		c0-0.867-0.506-1.401-1.242-1.401s-1.256,0.534-1.256,1.401v4.29c0,0.867,0.52,1.387,1.256,1.387s1.242-0.521,1.242-1.387V334.718z
		"/>
	<path fill="#D33C3D" d="M205.439,342.085c-1.675,0-3.134-1.098-3.134-3.062v-4.334c0-1.965,1.459-3.062,3.134-3.062
		c1.676,0,3.12,1.098,3.12,3.062v4.334C208.559,340.986,207.115,342.085,205.439,342.085z M206.681,334.718
		c0-0.867-0.506-1.401-1.242-1.401s-1.256,0.534-1.256,1.401v4.29c0,0.867,0.52,1.387,1.256,1.387s1.242-0.521,1.242-1.387V334.718z
		"/>
	<path fill="#D33C3D" d="M215.885,342.085c-1.675,0-3.134-1.098-3.134-3.062v-4.334c0-1.965,1.459-3.062,3.134-3.062
		c1.676,0,3.12,1.098,3.12,3.062v4.334C219.005,340.986,217.561,342.085,215.885,342.085z M217.127,334.718
		c0-0.867-0.506-1.401-1.242-1.401s-1.256,0.534-1.256,1.401v4.29c0,0.867,0.52,1.387,1.256,1.387s1.242-0.521,1.242-1.387V334.718z
		"/>
	<path fill="#D33C3D" d="M235.043,341.998v-4.305h-3.481v4.305h-2.008v-10.286h2.008v4.204h3.481v-4.204h2.008v10.286H235.043z"/>
	<path fill="#D33C3D" d="M247.901,341.998l-0.607-1.82h-3.655l-0.621,1.82h-2.095l3.742-10.286h1.574l3.756,10.286H247.901z
		 M245.503,334.746l-1.3,3.741h2.557L245.503,334.746z"/>
	<path fill="#D33C3D" d="M258.174,341.998h-4.305v-10.286H258c2.008,0,3.178,1.127,3.178,2.889c0,1.141-0.751,1.878-1.271,2.124
		c0.622,0.289,1.415,0.939,1.415,2.311C261.322,340.958,260.008,341.998,258.174,341.998z M257.841,333.504h-1.964v2.369h1.964
		c0.852,0,1.329-0.477,1.329-1.184C259.17,333.981,258.694,333.504,257.841,333.504z M257.971,337.679h-2.094v2.528h2.094
		c0.91,0,1.343-0.578,1.343-1.271C259.315,338.242,258.882,337.679,257.971,337.679z"/>
	<path fill="#218FB2" d="M121.502,365.263c-1.049,0-1.932-0.359-2.65-1.077c-0.428-0.428-0.69-0.924-0.8-1.476
		c-0.11-0.552-0.165-1.366-0.165-2.443c0-1.077,0.055-1.891,0.165-2.443c0.111-0.565,0.372-1.048,0.8-1.476
		c0.718-0.718,1.601-1.076,2.65-1.076c1.891,0,3.285,1.104,3.616,3.105h-1.946c-0.207-0.842-0.731-1.394-1.656-1.394
		c-0.524,0-0.939,0.165-1.228,0.511c-0.401,0.428-0.483,0.869-0.483,2.774c0,1.904,0.082,2.346,0.483,2.774
		c0.289,0.345,0.704,0.511,1.228,0.511c0.924,0,1.449-0.553,1.656-1.394h1.946C124.787,364.158,123.379,365.263,121.502,365.263z"/>
	<path fill="#218FB2" d="M134.504,365.097v-4.112h-3.326v4.112h-1.918v-9.826h1.918v4.016h3.326v-4.016h1.918v9.826H134.504z"/>
	<path fill="#218FB2" d="M141.199,365.097v-9.826h1.918v9.826H141.199z"/>
	<path fill="#218FB2" d="M149.811,356.983v2.415h3.878v1.711h-3.878v3.988h-1.918v-9.826h6.472v1.712H149.811z"/>
	<path fill="#218FB2" d="M160.439,356.983v2.415h3.878v1.711h-3.878v3.988h-1.918v-9.826h6.472v1.712H160.439z"/>
	<path fill="#218FB2" d="M174.365,365.097l-1.918-3.919h-1.38v3.919h-1.918v-9.826h3.85c2.001,0,3.188,1.366,3.188,3.009
		c0,1.38-0.842,2.236-1.794,2.581l2.194,4.237H174.365z M172.874,356.983h-1.808v2.594h1.808c0.842,0,1.394-0.538,1.394-1.298
		C174.268,357.521,173.716,356.983,172.874,356.983z"/>
	<path fill="#218FB2" d="M180.659,365.097v-9.826h6.472v1.712h-4.554v2.304h3.878v1.711h-3.878v2.388h4.554v1.711H180.659z"/>
	<path fill="#218FB2" d="M208.65,365.097h-4.112v-9.826h3.946c1.918,0,3.036,1.077,3.036,2.76c0,1.09-0.718,1.794-1.215,2.029
		c0.593,0.276,1.352,0.897,1.352,2.208C211.658,364.104,210.402,365.097,208.65,365.097z M208.332,356.983h-1.876v2.263h1.876
		c0.814,0,1.27-0.455,1.27-1.132S209.147,356.983,208.332,356.983z M208.456,360.972h-2.001v2.415h2.001
		c0.87,0,1.283-0.552,1.283-1.215S209.326,360.972,208.456,360.972z"/>
	<path fill="#218FB2" d="M221.32,365.097l-1.918-3.919h-1.38v3.919h-1.918v-9.826h3.85c2.001,0,3.188,1.366,3.188,3.009
		c0,1.38-0.842,2.236-1.794,2.581l2.194,4.237H221.32z M219.83,356.983h-1.808v2.594h1.808c0.842,0,1.394-0.538,1.394-1.298
		C221.224,357.521,220.672,356.983,219.83,356.983z"/>
	<path fill="#218FB2" d="M231.078,365.18c-2.015,0-3.615-1.366-3.615-3.451v-6.458h1.918v6.39c0,1.132,0.662,1.808,1.697,1.808
		s1.712-0.677,1.712-1.808v-6.39h1.904v6.458C234.694,363.814,233.093,365.18,231.078,365.18z"/>
	<path fill="#218FB2" d="M243.073,356.983v8.114h-1.918v-8.114h-2.567v-1.712h7.052v1.712H243.073z"/>
	<path fill="#218FB2" d="M251.537,365.15c-1.473,0-2.592-0.314-3.547-1.283l1.228-1.228c0.614,0.614,1.446,0.818,2.347,0.818
		c1.119,0,1.719-0.423,1.719-1.201c0-0.341-0.095-0.628-0.3-0.818c-0.191-0.177-0.409-0.273-0.86-0.341l-1.173-0.163
		c-0.832-0.123-1.446-0.382-1.883-0.805c-0.464-0.464-0.696-1.091-0.696-1.91c0-1.733,1.283-2.947,3.384-2.947
		c1.337,0,2.306,0.327,3.138,1.132l-1.201,1.187c-0.614-0.587-1.351-0.669-1.992-0.669c-1.01,0-1.501,0.559-1.501,1.228
		c0,0.245,0.082,0.505,0.286,0.696c0.191,0.177,0.505,0.327,0.9,0.382l1.146,0.164c0.887,0.123,1.446,0.368,1.856,0.75
		c0.519,0.491,0.75,1.201,0.75,2.06C255.139,364.085,253.57,365.15,251.537,365.15z"/>
	<path fill="#218FB2" d="M193.291,365.15c-1.473,0-2.592-0.314-3.547-1.283l1.228-1.228c0.614,0.614,1.446,0.818,2.347,0.818
		c1.119,0,1.719-0.423,1.719-1.201c0-0.341-0.095-0.628-0.3-0.818c-0.191-0.177-0.409-0.273-0.86-0.341l-1.173-0.163
		c-0.832-0.123-1.446-0.382-1.883-0.805c-0.464-0.464-0.696-1.091-0.696-1.91c0-1.733,1.283-2.947,3.384-2.947
		c1.337,0,2.306,0.327,3.138,1.132l-1.201,1.187c-0.614-0.587-1.351-0.669-1.992-0.669c-1.01,0-1.501,0.559-1.501,1.228
		c0,0.245,0.082,0.505,0.286,0.696c0.191,0.177,0.505,0.327,0.9,0.382l1.146,0.164c0.887,0.123,1.446,0.368,1.856,0.75
		c0.519,0.491,0.75,1.201,0.75,2.06C196.893,364.085,195.324,365.15,193.291,365.15z"/>
</g>
</svg>
