<?xml version="1.0" encoding="UTF-8" standalone="no"?>
<!-- Created with Inkscape (http://www.inkscape.org/) -->

<svg
   xmlns:dc="http://purl.org/dc/elements/1.1/"
   xmlns:cc="http://creativecommons.org/ns#"
   xmlns:rdf="http://www.w3.org/1999/02/22-rdf-syntax-ns#"
   xmlns:svg="http://www.w3.org/2000/svg"
   xmlns="http://www.w3.org/2000/svg"
   version="1.1"
   width="332.28"
   height="365.37"
   viewBox="0 0 332.27999 365.37"
   id="svg2"
   xml:space="preserve"><metadata
   id="metadata240"><rdf:RDF><cc:Work
       rdf:about=""><dc:format>image/svg+xml</dc:format><dc:type
         rdf:resource="http://purl.org/dc/dcmitype/StillImage" /><dc:title></dc:title></cc:Work></rdf:RDF></metadata><defs
   id="defs238" />
<g
   transform="translate(-38.758004,-7.149)"
   id="Calque_1">
	<g
   id="g5">
		<path
   d="M 128.091,345.56 H 126.2 v 3.698 h -1.918 v -9.826 h 3.809 c 2.028,0 3.243,1.394 3.243,3.064 0,1.67 -1.215,3.064 -3.243,3.064 z m -0.096,-4.416 h -1.794 v 2.691 h 1.794 c 0.869,0 1.421,-0.538 1.421,-1.339 0,-0.8 -0.552,-1.352 -1.421,-1.352 z"
   id="path7"
   style="fill:#d33c3d" />
		<path
   d="m 141.382,348.264 c -0.69,0.69 -1.532,1.077 -2.65,1.077 -1.118,0 -1.974,-0.387 -2.664,-1.077 -0.993,-0.993 -0.966,-2.222 -0.966,-3.919 0,-1.698 -0.028,-2.926 0.966,-3.919 0.69,-0.69 1.546,-1.076 2.664,-1.076 1.118,0 1.959,0.386 2.65,1.076 0.994,0.994 0.98,2.222 0.98,3.919 0,1.697 0.014,2.926 -0.98,3.919 z m -1.422,-6.679 c -0.276,-0.317 -0.704,-0.524 -1.228,-0.524 -0.524,0 -0.966,0.207 -1.242,0.524 -0.372,0.414 -0.469,0.87 -0.469,2.76 0,1.891 0.096,2.346 0.469,2.76 0.276,0.318 0.718,0.525 1.242,0.525 0.524,0 0.952,-0.207 1.228,-0.525 0.372,-0.414 0.483,-0.869 0.483,-2.76 10e-4,-1.89 -0.11,-2.346 -0.483,-2.76 z"
   id="path9"
   style="fill:#d33c3d" />
		<path
   d="m 150.271,349.341 c -2.015,0 -3.615,-1.366 -3.615,-3.451 v -6.458 h 1.918 v 6.39 c 0,1.132 0.662,1.808 1.697,1.808 1.035,0 1.712,-0.677 1.712,-1.808 v -6.39 h 1.904 v 6.458 c 0,2.085 -1.601,3.451 -3.616,3.451 z"
   id="path11"
   style="fill:#d33c3d" />
		<path
   d="m 163.729,349.258 -1.918,-3.919 h -1.38 v 3.919 h -1.918 v -9.826 h 3.85 c 2.001,0 3.188,1.366 3.188,3.009 0,1.38 -0.842,2.236 -1.794,2.581 l 2.194,4.237 h -2.222 z m -1.491,-8.114 h -1.808 v 2.594 h 1.808 c 0.842,0 1.394,-0.538 1.394,-1.298 0,-0.76 -0.552,-1.296 -1.394,-1.296 z"
   id="path13"
   style="fill:#d33c3d" />
		<path
   d="m 177.986,349.258 v -7.894 l -2.001,1.739 v -1.932 l 2.001,-1.739 h 1.794 v 9.826 h -1.794 z"
   id="path15"
   style="fill:#d33c3d" />
		<path
   d="m 188.297,349.341 c -1.6,0 -2.994,-1.049 -2.994,-2.926 v -4.14 c 0,-1.877 1.394,-2.926 2.994,-2.926 1.601,0 2.981,1.049 2.981,2.926 v 4.14 c 0,1.877 -1.38,2.926 -2.981,2.926 z m 1.187,-7.038 c 0,-0.829 -0.483,-1.339 -1.187,-1.339 -0.704,0 -1.2,0.51 -1.2,1.339 v 4.098 c 0,0.828 0.497,1.325 1.2,1.325 0.703,0 1.187,-0.497 1.187,-1.325 v -4.098 z"
   id="path17"
   style="fill:#d33c3d" />
		<path
   d="m 203.964,349.341 c -1.6,0 -2.994,-1.049 -2.994,-2.926 v -4.14 c 0,-1.877 1.394,-2.926 2.994,-2.926 1.601,0 2.981,1.049 2.981,2.926 v 4.14 c -0.001,1.877 -1.38,2.926 -2.981,2.926 z m 1.186,-7.038 c 0,-0.829 -0.483,-1.339 -1.187,-1.339 -0.704,0 -1.2,0.51 -1.2,1.339 v 4.098 c 0,0.828 0.497,1.325 1.2,1.325 0.703,0 1.187,-0.497 1.187,-1.325 v -4.098 z"
   id="path19"
   style="fill:#d33c3d" />
		<path
   d="m 213.943,349.341 c -1.6,0 -2.994,-1.049 -2.994,-2.926 v -4.14 c 0,-1.877 1.394,-2.926 2.994,-2.926 1.601,0 2.981,1.049 2.981,2.926 v 4.14 c 0,1.877 -1.38,2.926 -2.981,2.926 z m 1.187,-7.038 c 0,-0.829 -0.483,-1.339 -1.187,-1.339 -0.704,0 -1.2,0.51 -1.2,1.339 v 4.098 c 0,0.828 0.497,1.325 1.2,1.325 0.704,0 1.187,-0.497 1.187,-1.325 v -4.098 z"
   id="path21"
   style="fill:#d33c3d" />
		<path
   d="m 223.922,349.341 c -1.6,0 -2.994,-1.049 -2.994,-2.926 v -4.14 c 0,-1.877 1.394,-2.926 2.994,-2.926 1.601,0 2.981,1.049 2.981,2.926 v 4.14 c 0,1.877 -1.38,2.926 -2.981,2.926 z m 1.187,-7.038 c 0,-0.829 -0.483,-1.339 -1.187,-1.339 -0.704,0 -1.2,0.51 -1.2,1.339 v 4.098 c 0,0.828 0.497,1.325 1.2,1.325 0.703,0 1.187,-0.497 1.187,-1.325 v -4.098 z"
   id="path23"
   style="fill:#d33c3d" />
		<path
   d="m 242.224,349.258 v -4.112 h -3.326 v 4.112 h -1.918 v -9.826 h 1.918 v 4.016 h 3.326 v -4.016 h 1.918 v 9.826 h -1.918 z"
   id="path25"
   style="fill:#d33c3d" />
		<path
   d="m 254.508,349.258 -0.58,-1.739 h -3.492 l -0.593,1.739 h -2.001 l 3.575,-9.826 h 1.504 l 3.588,9.826 h -2.001 z m -2.291,-6.927 -1.242,3.574 h 2.443 l -1.201,-3.574 z"
   id="path27"
   style="fill:#d33c3d" />
		<path
   d="m 264.322,349.258 h -4.112 v -9.826 h 3.946 c 1.918,0 3.036,1.077 3.036,2.76 0,1.09 -0.718,1.794 -1.215,2.029 0.594,0.276 1.352,0.897 1.352,2.208 10e-4,1.835 -1.255,2.829 -3.007,2.829 z m -0.318,-8.114 h -1.876 v 2.263 h 1.876 c 0.814,0 1.27,-0.455 1.27,-1.132 0,-0.676 -0.456,-1.131 -1.27,-1.131 z m 0.124,3.988 h -2.001 v 2.415 h 2.001 c 0.87,0 1.283,-0.552 1.283,-1.215 0,-0.662 -0.413,-1.2 -1.283,-1.2 z"
   id="path29"
   style="fill:#d33c3d" />
		<path
   d="m 139.133,372.519 c -1.049,0 -1.932,-0.359 -2.65,-1.077 -0.428,-0.428 -0.69,-0.924 -0.8,-1.476 -0.11,-0.552 -0.165,-1.366 -0.165,-2.443 0,-1.077 0.055,-1.891 0.165,-2.443 0.111,-0.565 0.372,-1.049 0.8,-1.476 0.718,-0.718 1.601,-1.076 2.65,-1.076 1.891,0 3.285,1.104 3.616,3.105 h -1.946 c -0.207,-0.842 -0.731,-1.394 -1.656,-1.394 -0.524,0 -0.939,0.165 -1.228,0.511 -0.401,0.428 -0.483,0.869 -0.483,2.774 0,1.904 0.082,2.346 0.483,2.774 0.289,0.345 0.704,0.511 1.228,0.511 0.924,0 1.449,-0.553 1.656,-1.394 h 1.946 c -0.332,1.999 -1.739,3.104 -3.616,3.104 z"
   id="path31"
   style="fill:#218fb2" />
		<path
   d="m 152.135,372.436 v -4.112 h -3.326 v 4.112 h -1.918 v -9.826 h 1.918 v 4.016 h 3.326 v -4.016 h 1.918 v 9.826 h -1.918 z"
   id="path33"
   style="fill:#218fb2" />
		<path
   d="m 158.829,372.436 v -9.826 h 1.918 v 9.826 h -1.918 z"
   id="path35"
   style="fill:#218fb2" />
		<path
   d="m 167.442,364.322 v 2.415 h 3.878 v 1.711 h -3.878 v 3.988 h -1.918 v -9.826 h 6.472 v 1.712 h -4.554 z"
   id="path37"
   style="fill:#218fb2" />
		<path
   d="m 178.069,364.322 v 2.415 h 3.878 v 1.711 h -3.878 v 3.988 h -1.918 v -9.826 h 6.472 v 1.712 h -4.554 z"
   id="path39"
   style="fill:#218fb2" />
		<path
   d="m 191.995,372.436 -1.918,-3.919 h -1.38 v 3.919 h -1.918 v -9.826 h 3.85 c 2.001,0 3.188,1.366 3.188,3.009 0,1.38 -0.842,2.236 -1.794,2.581 l 2.194,4.237 h -2.222 z m -1.49,-8.114 h -1.808 v 2.594 h 1.808 c 0.842,0 1.394,-0.538 1.394,-1.298 0,-0.758 -0.552,-1.296 -1.394,-1.296 z"
   id="path41"
   style="fill:#218fb2" />
		<path
   d="m 198.29,372.436 v -9.826 h 6.472 v 1.712 h -4.554 v 2.304 h 3.878 v 1.711 h -3.878 v 2.388 h 4.554 v 1.711 h -6.472 z"
   id="path43"
   style="fill:#218fb2" />
		<path
   d="m 218.924,372.436 h -4.112 v -9.826 h 3.946 c 1.918,0 3.036,1.077 3.036,2.76 0,1.09 -0.718,1.794 -1.215,2.029 0.593,0.276 1.352,0.897 1.352,2.208 10e-4,1.835 -1.254,2.829 -3.007,2.829 z m -0.318,-8.114 h -1.876 v 2.263 h 1.876 c 0.814,0 1.27,-0.455 1.27,-1.132 0,-0.676 -0.455,-1.131 -1.27,-1.131 z m 0.125,3.988 h -2.001 v 2.415 h 2.001 c 0.87,0 1.283,-0.552 1.283,-1.215 0,-0.663 -0.414,-1.2 -1.283,-1.2 z"
   id="path45"
   style="fill:#218fb2" />
		<path
   d="m 231.594,372.436 -1.918,-3.919 h -1.38 v 3.919 h -1.918 v -9.826 h 3.85 c 2.001,0 3.188,1.366 3.188,3.009 0,1.38 -0.842,2.236 -1.794,2.581 l 2.194,4.237 h -2.222 z m -1.49,-8.114 h -1.808 v 2.594 h 1.808 c 0.842,0 1.394,-0.538 1.394,-1.298 0,-0.758 -0.552,-1.296 -1.394,-1.296 z"
   id="path47"
   style="fill:#218fb2" />
		<path
   d="m 241.352,372.519 c -2.015,0 -3.615,-1.366 -3.615,-3.451 v -6.458 h 1.918 V 369 c 0,1.132 0.662,1.808 1.697,1.808 1.035,0 1.712,-0.677 1.712,-1.808 v -6.39 h 1.904 v 6.458 c 0,2.085 -1.6,3.451 -3.616,3.451 z"
   id="path49"
   style="fill:#218fb2" />
		<path
   d="m 253.347,364.322 v 8.114 h -1.918 v -8.114 h -2.567 v -1.712 h 7.052 v 1.712 h -2.567 z"
   id="path51"
   style="fill:#218fb2" />
		<path
   d="M 296.711,299.445 55.368,223.976 48.293,161.216 c 0,0 -0.655,-2.358 3.276,-3.014 l 57.65,-11.137 -0.917,-15.33 c 0,0 -0.262,-2.751 3.8,-3.145 l 54.636,-7.73 75.6,4.455 c 0,0 3.276,-0.262 3.538,4.455 l -1.834,52.016 c 0,0 1.441,1.703 2.62,1.703 l 89.75,14.281 c 0,0 2.096,-0.393 1.965,4.717 l -5.372,51.754 -36.294,45.204 z"
   id="path53"
   style="fill:#218fb2" />
		<path
   d="m 145.261,184.871 0.214,-29.654 c 0,0 -1.508,1.418 -2.885,1.937 -1.837,0.705 -3.96,0.994 -3.96,0.994 l 0.036,-5.007 c 0,0 2.999,-0.526 5.049,-2.026 1.758,-1.293 3.482,-3.892 3.482,-3.892 l 3.368,0.384 -0.273,37.837 -5.031,-0.573 z"
   id="path55"
   style="fill:#d7d6d1" />
		<g
   id="g57">
			<path
   d="m 245.073,270.022 c -3.578,-0.239 -7.056,-1.462 -9.987,-4.036 l 2.452,-4.047 c 2.645,2.208 5.061,3.113 7.831,3.298 3.77,0.252 6.628,-2.233 6.869,-6.131 0.235,-3.799 -1.468,-6.242 -6.084,-6.55 l -2.924,-0.195 0.302,-4.885 2.962,0.198 c 3.385,0.226 5.56,-2.453 5.795,-6.253 0.309,-4.984 -2.755,-6.03 -5.179,-6.192 -1.846,-0.123 -4.755,1.317 -6.151,3.899 l -2.657,-3.249 c 2.698,-4.279 6.078,-5.837 9.925,-5.58 7.001,0.468 8.952,6.395 8.671,10.935 -0.324,5.23 -2.955,8.424 -4.779,8.55 2.097,0.438 5.086,3.957 4.737,9.582 -0.432,7.004 -4.705,11.128 -11.783,10.656 z"
   id="path59"
   style="fill:#d7d6d1" />
		</g>
		<g
   id="g61">
			<path
   d="m 66.248,207.966 10.894,-9.079 c 0.908,-0.841 4.874,-3.934 5.071,-6.941 0.238,-3.643 -1.965,-5.266 -4.619,-5.964 -3.422,-0.9 -5.349,0.86 -5.518,3.442 l -0.079,1.203 -3.876,-1.019 0.083,-1.273 c 0.289,-4.421 4.07,-7.384 9.552,-5.943 4.959,1.304 9.12,4.486 8.732,10.427 -0.277,4.244 -4.316,7.355 -4.991,7.897 l -6.796,5.624 11.698,3.077 -0.247,3.785 -19.904,-5.236 z"
   id="path63"
   style="fill:#d7d6d1" />
		</g>
		<path
   d="m 195.3,207.074 c 0,0 105.735,23.584 106.521,23.191 L 337.197,198.033 246.66,183.49 195.3,207.074 z"
   id="path65"
   style="fill:#106377" />
		<path
   d="m 193.138,203.34 51.295,-22.208 1.572,-53.064 c 0,0 -0.393,-2.555 -1.965,-2.162 0,0 -51.295,15.133 -50.706,15.133 0.59,0 -0.196,62.301 -0.196,62.301 z"
   id="path67"
   style="fill:#106377" />
		<polygon
   points="109.218,147.066 50.782,158.989 110.528,170.519 "
   id="polygon69"
   style="fill:#106377" />
		<line
   stroke-miterlimit="10"
   x1="186.45399"
   y1="115.832"
   x2="186.45399"
   y2="20.233"
   id="line71"
   style="fill:#ffffff;stroke:#106377;stroke-miterlimit:10" />
		
			<line
   stroke-miterlimit="10"
   x1="96.551003"
   y1="141.959"
   x2="96.551003"
   y2="73.675003"
   id="line73"
   style="fill:#ffffff;stroke:#106377;stroke-miterlimit:10;stroke-dasharray:3" />
		<g
   id="g75">
			<line
   x1="276.81201"
   y1="182.724"
   x2="276.81201"
   y2="110.679"
   id="line77"
   style="fill:#ffffff" />
			<g
   id="g79">
				<line
   stroke-miterlimit="10"
   x1="276.81201"
   y1="182.724"
   x2="276.81201"
   y2="181.224"
   id="line81"
   style="fill:none;stroke:#106377;stroke-miterlimit:10" />
				
					<line
   stroke-miterlimit="10"
   x1="276.81201"
   y1="178.222"
   x2="276.81201"
   y2="113.68"
   id="line83"
   style="fill:none;stroke:#106377;stroke-miterlimit:10;stroke-dasharray:3.0019, 3.0019" />
				<line
   stroke-miterlimit="10"
   x1="276.81201"
   y1="112.179"
   x2="276.81201"
   y2="110.679"
   id="line85"
   style="fill:none;stroke:#106377;stroke-miterlimit:10" />
			</g>
		</g>
		<g
   id="g87">
			<path
   d="m 41.794,66.775 h -1.507 v 2.948 H 38.758 V 61.89 h 3.036 c 1.617,0 2.586,1.111 2.586,2.442 0,1.331 -0.969,2.443 -2.586,2.443 z m -0.077,-3.521 h -1.43 V 65.4 h 1.43 c 0.693,0 1.134,-0.43 1.134,-1.067 0,-0.639 -0.441,-1.079 -1.134,-1.079 z"
   id="path89"
   style="fill:#106377" />
			<path
   d="m 51.331,69.723 -0.462,-1.386 h -2.783 l -0.474,1.386 h -1.595 l 2.849,-7.833 h 1.199 l 2.86,7.833 h -1.594 z m -1.826,-5.522 -0.99,2.849 h 1.947 l -0.957,-2.849 z"
   id="path91"
   style="fill:#106377" />
			<path
   d="m 58.262,66.51 v 3.213 H 56.743 V 66.51 l -2.354,-4.62 h 1.661 l 1.463,3.157 1.441,-3.157 h 1.661 l -2.353,4.62 z"
   id="path93"
   style="fill:#106377" />
			<path
   d="m 65.477,69.79 c -1.188,0 -2.09,-0.254 -2.86,-1.034 l 0.99,-0.99 c 0.495,0.495 1.166,0.66 1.893,0.66 0.902,0 1.386,-0.342 1.386,-0.969 0,-0.274 -0.076,-0.506 -0.241,-0.66 -0.154,-0.143 -0.33,-0.22 -0.693,-0.274 l -0.946,-0.132 c -0.671,-0.1 -1.166,-0.309 -1.519,-0.649 -0.374,-0.374 -0.561,-0.88 -0.561,-1.54 0,-1.397 1.034,-2.377 2.729,-2.377 1.078,0 1.859,0.265 2.53,0.913 l -0.969,0.957 c -0.495,-0.473 -1.089,-0.539 -1.605,-0.539 -0.814,0 -1.211,0.451 -1.211,0.99 0,0.198 0.066,0.407 0.231,0.562 0.154,0.143 0.407,0.264 0.726,0.308 l 0.925,0.132 c 0.715,0.1 1.166,0.298 1.496,0.605 0.418,0.396 0.604,0.968 0.604,1.661 -0.001,1.517 -1.266,2.376 -2.905,2.376 z"
   id="path95"
   style="fill:#106377" />
			<path
   d="m 80.789,68.975 c -0.517,0.517 -1.254,0.748 -2.068,0.748 H 75.894 V 61.89 h 2.827 c 0.814,0 1.552,0.23 2.068,0.748 0.88,0.88 0.792,1.958 0.792,3.136 0,1.177 0.088,2.321 -0.792,3.201 z M 79.722,63.738 C 79.458,63.42 79.106,63.255 78.578,63.255 h -1.155 v 5.104 h 1.155 c 0.527,0 0.88,-0.165 1.144,-0.484 0.286,-0.352 0.33,-0.913 0.33,-2.101 0,-1.189 -0.044,-1.684 -0.33,-2.036 z"
   id="path97"
   style="fill:#106377" />
			<path
   d="M 84.903,69.723 V 61.89 h 5.16 v 1.364 h -3.631 v 1.837 h 3.092 v 1.364 h -3.092 v 1.903 h 3.631 v 1.364 h -5.16 z"
   id="path99"
   style="fill:#106377" />
			<path
   d="M 97.629,69.723 V 61.89 h 1.529 v 6.469 h 3.554 v 1.364 h -5.083 z"
   id="path101"
   style="fill:#106377" />
			<path
   d="m 110.17,69.723 -0.462,-1.386 h -2.783 l -0.474,1.386 h -1.595 l 2.849,-7.833 h 1.199 l 2.86,7.833 h -1.594 z m -1.826,-5.522 -0.99,2.849 h 1.947 l -0.957,-2.849 z"
   id="path103"
   style="fill:#106377" />
			<path
   d="M 118.804,69.723 V 61.89 h 1.529 v 6.469 h 3.554 v 1.364 h -5.083 z"
   id="path105"
   style="fill:#106377" />
			<path
   d="m 131.345,68.931 c -0.55,0.55 -1.221,0.858 -2.112,0.858 -0.891,0 -1.573,-0.309 -2.123,-0.858 -0.792,-0.792 -0.771,-1.771 -0.771,-3.125 0,-1.353 -0.021,-2.332 0.771,-3.124 0.55,-0.55 1.232,-0.858 2.123,-0.858 0.892,0 1.562,0.309 2.112,0.858 0.792,0.792 0.781,1.771 0.781,3.124 0,1.354 0.011,2.333 -0.781,3.125 z m -1.133,-5.325 c -0.22,-0.253 -0.562,-0.418 -0.979,-0.418 -0.417,0 -0.77,0.165 -0.99,0.418 -0.297,0.33 -0.374,0.693 -0.374,2.2 0,1.508 0.077,1.871 0.374,2.201 0.221,0.253 0.572,0.418 0.99,0.418 0.418,0 0.76,-0.165 0.979,-0.418 0.297,-0.33 0.385,-0.693 0.385,-2.201 0,-1.507 -0.088,-1.87 -0.385,-2.2 z"
   id="path107"
   style="fill:#106377" />
			<path
   d="M 135.448,69.723 V 61.89 h 1.529 v 7.833 h -1.529 z"
   id="path109"
   style="fill:#106377" />
			<path
   d="m 144.721,69.723 -1.529,-3.124 h -1.1 v 3.124 h -1.529 V 61.89 h 3.069 c 1.595,0 2.541,1.089 2.541,2.398 0,1.1 -0.671,1.782 -1.43,2.057 l 1.749,3.378 h -1.771 z m -1.188,-6.469 h -1.441 v 2.068 h 1.441 c 0.671,0 1.11,-0.43 1.11,-1.034 0.001,-0.605 -0.439,-1.034 -1.11,-1.034 z"
   id="path111"
   style="fill:#106377" />
			<path
   d="M 149.516,69.723 V 61.89 h 5.16 v 1.364 h -3.631 v 1.837 h 3.092 v 1.364 h -3.092 v 1.903 h 3.631 v 1.364 h -5.16 z"
   id="path113"
   style="fill:#106377" />
		</g>
		<g
   id="g115">
			<path
   d="m 156.936,15.046 h -3.278 V 7.214 h 3.146 c 1.529,0 2.421,0.857 2.421,2.199 0,0.869 -0.572,1.432 -0.969,1.617 0.474,0.221 1.078,0.715 1.078,1.762 0,1.463 -1.001,2.254 -2.398,2.254 z m -0.253,-6.469 h -1.496 v 1.805 h 1.496 c 0.649,0 1.013,-0.363 1.013,-0.902 0,-0.539 -0.364,-0.903 -1.013,-0.903 z m 0.099,3.18 h -1.596 v 1.926 h 1.596 c 0.692,0 1.022,-0.441 1.022,-0.969 0,-0.528 -0.329,-0.957 -1.022,-0.957 z"
   id="path117"
   style="fill:#106377" />
			<path
   d="m 166.814,15.046 -1.529,-3.123 h -1.1 v 3.123 h -1.529 V 7.214 h 3.069 c 1.595,0 2.541,1.088 2.541,2.398 0,1.1 -0.671,1.781 -1.43,2.057 l 1.749,3.377 h -1.771 z m -1.188,-6.469 h -1.441 v 2.068 h 1.441 c 0.671,0 1.11,-0.43 1.11,-1.033 0.001,-0.605 -0.439,-1.035 -1.11,-1.035 z"
   id="path119"
   style="fill:#106377" />
			<path
   d="M 171.61,15.046 V 7.214 h 5.159 v 1.363 h -3.63 v 1.838 h 3.091 v 1.363 h -3.091 v 1.904 h 3.63 v 1.363 h -5.159 z"
   id="path121"
   style="fill:#106377" />
			<path
   d="m 183.017,8.577 v 6.469 h -1.529 V 8.577 h -2.047 V 7.214 h 5.622 v 1.363 h -2.046 z"
   id="path123"
   style="fill:#106377" />
			<path
   d="m 191.861,15.046 -0.462,-1.385 h -2.783 l -0.474,1.385 h -1.595 l 2.849,-7.832 h 1.199 l 2.86,7.832 h -1.594 z m -1.827,-5.521 -0.99,2.848 h 1.947 l -0.957,-2.848 z"
   id="path125"
   style="fill:#106377" />
			<path
   d="m 200.903,14.222 c -0.605,0.615 -1.331,0.891 -2.211,0.891 -0.837,0 -1.541,-0.285 -2.112,-0.857 -0.342,-0.342 -0.551,-0.738 -0.639,-1.178 -0.088,-0.44 -0.132,-1.09 -0.132,-1.947 0,-0.857 0.044,-1.508 0.132,-1.947 0.088,-0.451 0.297,-0.836 0.639,-1.178 0.571,-0.572 1.275,-0.857 2.112,-0.857 1.782,0 2.739,1.145 2.948,2.508 h -1.54 c -0.188,-0.758 -0.649,-1.145 -1.408,-1.145 -0.407,0 -0.737,0.145 -0.979,0.418 -0.286,0.363 -0.374,0.65 -0.374,2.201 0,1.541 0.065,1.848 0.374,2.211 0.23,0.275 0.561,0.408 0.979,0.408 0.45,0 0.813,-0.145 1.089,-0.441 0.23,-0.264 0.352,-0.615 0.352,-1.045 v -0.297 h -1.44 v -1.275 h 2.959 v 1.143 c -10e-4,1.143 -0.21,1.815 -0.749,2.387 z"
   id="path127"
   style="fill:#106377" />
			<path
   d="m 209.472,15.046 -3.103,-4.807 v 4.807 H 204.84 V 7.214 h 1.364 l 3.103,4.797 V 7.214 h 1.529 v 7.832 h -1.364 z"
   id="path129"
   style="fill:#106377" />
			<path
   d="M 214.42,15.046 V 7.214 h 5.16 v 1.363 h -3.631 v 1.838 h 3.092 v 1.363 h -3.092 v 1.904 h 3.631 v 1.363 h -5.16 z"
   id="path131"
   style="fill:#106377" />
		</g>
		<g
   id="g133">
			<path
   d="m 236.96,106.473 -1.529,-3.124 h -1.101 v 3.124 h -1.529 V 98.64 h 3.069 c 1.596,0 2.542,1.089 2.542,2.398 0,1.1 -0.671,1.782 -1.431,2.057 l 1.749,3.378 h -1.77 z m -1.188,-6.469 h -1.441 v 2.068 h 1.441 c 0.671,0 1.111,-0.43 1.111,-1.034 0,-0.605 -0.44,-1.034 -1.111,-1.034 z"
   id="path135"
   style="fill:#106377" />
			<path
   d="m 245.936,106.473 v -3.278 h -2.651 v 3.278 h -1.529 V 98.64 h 1.529 v 3.201 h 2.651 V 98.64 h 1.529 v 7.833 h -1.529 z"
   id="path137"
   style="fill:#106377" />
			<path
   d="m 255.792,105.681 c -0.551,0.55 -1.222,0.858 -2.112,0.858 -0.892,0 -1.573,-0.309 -2.123,-0.858 -0.793,-0.792 -0.771,-1.771 -0.771,-3.125 0,-1.353 -0.022,-2.332 0.771,-3.124 0.55,-0.55 1.231,-0.858 2.123,-0.858 0.891,0 1.562,0.309 2.112,0.858 0.792,0.792 0.781,1.771 0.781,3.124 0,1.354 0.011,2.333 -0.781,3.125 z m -1.199,-7.8 -0.913,-1.002 -0.913,1.002 h -1.111 l 1.452,-1.859 h 1.145 l 1.452,1.859 h -1.112 z m 0.065,2.475 c -0.22,-0.253 -0.561,-0.418 -0.979,-0.418 -0.418,0 -0.771,0.165 -0.99,0.418 -0.297,0.33 -0.374,0.693 -0.374,2.2 0,1.508 0.077,1.871 0.374,2.201 0.22,0.253 0.572,0.418 0.99,0.418 0.418,0 0.759,-0.165 0.979,-0.418 0.298,-0.33 0.386,-0.693 0.386,-2.201 0,-1.507 -0.088,-1.87 -0.386,-2.2 z"
   id="path139"
   style="fill:#106377" />
			<path
   d="m 264.526,106.473 -3.103,-4.808 v 4.808 h -1.529 V 98.64 h 1.364 l 3.103,4.797 V 98.64 h 1.529 v 7.833 h -1.364 z"
   id="path141"
   style="fill:#106377" />
			<path
   d="M 269.475,106.473 V 98.64 h 5.16 v 1.364 h -3.631 v 1.837 h 3.092 v 1.364 h -3.092 v 1.903 h 3.631 v 1.364 h -5.16 z"
   id="path143"
   style="fill:#106377" />
			<path
   d="m 286.657,106.473 -0.462,-1.386 h -2.783 l -0.474,1.386 h -1.595 l 2.849,-7.833 h 1.199 l 2.86,7.833 h -1.594 z m -1.826,-5.522 -0.99,2.849 h 1.947 l -0.957,-2.849 z"
   id="path145"
   style="fill:#106377" />
			<path
   d="M 290.98,106.473 V 98.64 h 1.529 v 6.469 h 3.554 v 1.364 h -5.083 z"
   id="path147"
   style="fill:#106377" />
			<path
   d="m 302.102,103.525 h -1.508 v 2.948 h -1.529 V 98.64 h 3.037 c 1.617,0 2.585,1.111 2.585,2.442 0,1.331 -0.968,2.443 -2.585,2.443 z m -0.077,-3.521 h -1.431 v 2.146 h 1.431 c 0.692,0 1.133,-0.43 1.133,-1.067 -0.001,-0.639 -0.441,-1.079 -1.133,-1.079 z"
   id="path149"
   style="fill:#106377" />
			<path
   d="M 307.733,106.473 V 98.64 h 5.159 v 1.364 h -3.63 v 1.837 h 3.091 v 1.364 h -3.091 v 1.903 h 3.63 v 1.364 h -5.159 z"
   id="path151"
   style="fill:#106377" />
			<path
   d="m 318.304,106.54 c -1.188,0 -2.091,-0.254 -2.86,-1.034 l 0.99,-0.99 c 0.495,0.495 1.166,0.66 1.892,0.66 0.902,0 1.387,-0.342 1.387,-0.969 0,-0.274 -0.077,-0.506 -0.242,-0.66 -0.154,-0.143 -0.33,-0.22 -0.693,-0.274 l -0.946,-0.132 c -0.671,-0.1 -1.166,-0.309 -1.518,-0.649 -0.374,-0.374 -0.562,-0.88 -0.562,-1.54 0,-1.397 1.034,-2.377 2.729,-2.377 1.078,0 1.859,0.265 2.53,0.913 l -0.968,0.957 c -0.495,-0.473 -1.089,-0.539 -1.606,-0.539 -0.814,0 -1.21,0.451 -1.21,0.99 0,0.198 0.065,0.407 0.23,0.562 0.154,0.143 0.407,0.264 0.727,0.308 l 0.924,0.133 c 0.716,0.099 1.166,0.297 1.496,0.604 0.418,0.396 0.605,0.968 0.605,1.661 -10e-4,1.517 -1.266,2.376 -2.905,2.376 z"
   id="path153"
   style="fill:#106377" />
		</g>
		<g
   id="g155">
			<path
   d="m 196.804,30.844 c -1.403,0 -2.722,-0.739 -2.747,-2.542 h 1.574 c 0.024,0.775 0.556,1.126 1.173,1.126 0.678,0 1.162,-0.424 1.162,-1.199 0,-0.713 -0.436,-1.186 -1.211,-1.186 h -0.23 v -1.368 h 0.23 c 0.763,0 1.089,-0.472 1.089,-1.076 0,-0.726 -0.483,-1.102 -1.053,-1.102 -0.593,0 -1.028,0.388 -1.065,1.041 h -1.574 c 0.037,-1.537 1.186,-2.457 2.638,-2.457 1.525,0 2.627,1.017 2.627,2.469 0,0.932 -0.423,1.465 -0.993,1.767 0.618,0.327 1.113,0.92 1.113,1.96 0.002,1.719 -1.256,2.567 -2.733,2.567 z"
   id="path157"
   style="fill:#d33c3d" />
			<path
   d="m 210.089,30.844 c -1.404,0 -2.625,-0.921 -2.625,-2.566 v -3.63 c 0,-1.647 1.221,-2.566 2.625,-2.566 1.404,0 2.615,0.92 2.615,2.566 v 3.63 c 0,1.645 -1.211,2.566 -2.615,2.566 z m 1.041,-6.173 c 0,-0.726 -0.423,-1.174 -1.041,-1.174 -0.617,0 -1.053,0.448 -1.053,1.174 v 3.594 c 0,0.726 0.436,1.162 1.053,1.162 0.618,0 1.041,-0.436 1.041,-1.162 v -3.594 z"
   id="path159"
   style="fill:#d33c3d" />
			<path
   d="m 220.581,27.043 -1.827,3.728 h -1.707 l 1.792,-3.558 c -0.206,0.085 -0.436,0.108 -0.642,0.108 -1.161,0 -2.274,-0.956 -2.274,-2.553 0,-1.694 1.161,-2.687 2.687,-2.687 1.524,0 2.686,0.956 2.686,2.663 -0.002,0.786 -0.328,1.513 -0.715,2.299 z m -1.972,-3.546 c -0.642,0 -1.114,0.46 -1.114,1.259 0,0.763 0.448,1.259 1.114,1.259 0.641,0 1.113,-0.46 1.113,-1.259 0,-0.799 -0.472,-1.259 -1.113,-1.259 z"
   id="path161"
   style="fill:#d33c3d" />
			<path
   d="m 227.065,30.844 c -1.403,0 -2.722,-0.739 -2.747,-2.542 h 1.574 c 0.024,0.775 0.556,1.126 1.173,1.126 0.678,0 1.162,-0.424 1.162,-1.199 0,-0.713 -0.436,-1.186 -1.211,-1.186 h -0.23 v -1.368 h 0.23 c 0.763,0 1.089,-0.472 1.089,-1.076 0,-0.726 -0.483,-1.102 -1.053,-1.102 -0.593,0 -1.028,0.388 -1.065,1.041 h -1.574 c 0.037,-1.537 1.186,-2.457 2.638,-2.457 1.525,0 2.627,1.017 2.627,2.469 0,0.932 -0.423,1.465 -0.993,1.767 0.618,0.327 1.113,0.92 1.113,1.96 0.002,1.719 -1.256,2.567 -2.733,2.567 z"
   id="path163"
   style="fill:#d33c3d" />
		</g>
		<g
   id="g165">
			<path
   d="m 104.566,85.015 v -1.287 l 2.926,-3.399 c 0.286,-0.341 0.407,-0.583 0.407,-0.946 0,-0.583 -0.341,-0.979 -0.946,-0.979 -0.473,0 -0.957,0.242 -0.957,1.002 h -1.43 c 0,-1.431 1.045,-2.289 2.387,-2.289 1.387,0 2.377,0.869 2.377,2.277 0,0.76 -0.297,1.166 -0.837,1.794 l -2.188,2.541 h 3.025 v 1.287 h -4.764 z"
   id="path167"
   style="fill:#d33c3d" />
			<path
   d="m 118.952,85.081 c -1.386,0 -2.508,-0.825 -2.508,-2.344 0,-0.957 0.55,-1.475 0.979,-1.76 -0.396,-0.275 -0.88,-0.793 -0.88,-1.629 0,-1.386 1.101,-2.233 2.409,-2.233 1.31,0 2.398,0.848 2.398,2.233 0,0.836 -0.484,1.354 -0.88,1.629 0.429,0.285 0.99,0.803 0.99,1.76 0.001,1.519 -1.121,2.344 -2.508,2.344 z m 0,-3.455 c -0.604,0 -1.078,0.484 -1.078,1.089 0,0.605 0.474,1.079 1.078,1.079 0.605,0 1.078,-0.474 1.078,-1.079 0.001,-0.604 -0.472,-1.089 -1.078,-1.089 z m 0,-3.223 c -0.561,0 -0.979,0.43 -0.979,0.99 0,0.572 0.418,0.99 0.979,0.99 0.562,0 0.969,-0.418 0.969,-0.99 0,-0.561 -0.407,-0.99 -0.969,-0.99 z"
   id="path169"
   style="fill:#d33c3d" />
			<path
   d="m 128.612,83.904 v 1.111 h -1.375 v -1.111 h -3.202 V 82.55 l 2.685,-5.368 h 1.562 l -2.685,5.368 h 1.64 v -1.463 h 1.375 v 1.463 h 0.715 v 1.354 h -0.715 z"
   id="path171"
   style="fill:#d33c3d" />
			<path
   d="m 136.167,84.443 c -0.352,0.353 -0.913,0.639 -1.727,0.639 -0.814,0 -1.408,-0.286 -1.749,-0.628 -0.484,-0.483 -0.595,-1.056 -0.639,-1.628 h 1.431 c 0.077,0.616 0.362,0.969 0.957,0.969 0.274,0 0.506,-0.077 0.682,-0.254 0.253,-0.253 0.309,-0.671 0.309,-1.166 0,-0.902 -0.265,-1.408 -0.957,-1.408 -0.583,0 -0.848,0.33 -0.946,0.639 h -1.31 v -4.423 h 4.467 v 1.287 h -3.169 v 1.684 c 0.21,-0.198 0.649,-0.396 1.178,-0.396 0.649,0 1.145,0.209 1.463,0.528 0.616,0.616 0.704,1.353 0.704,2.09 0,0.879 -0.121,1.494 -0.694,2.067 z"
   id="path173"
   style="fill:#d33c3d" />
		</g>
		<g
   id="g175">
			<path
   d="m 284.162,121.73 v -1.287 l 2.926,-3.399 c 0.286,-0.341 0.407,-0.583 0.407,-0.946 0,-0.583 -0.341,-0.979 -0.946,-0.979 -0.473,0 -0.957,0.242 -0.957,1.002 h -1.43 c 0,-1.431 1.045,-2.289 2.387,-2.289 1.387,0 2.377,0.869 2.377,2.277 0,0.76 -0.297,1.166 -0.837,1.794 l -2.188,2.541 h 3.025 v 1.287 h -4.764 z"
   id="path177"
   style="fill:#d33c3d" />
			<path
   d="m 298.528,121.797 c -1.387,0 -2.442,-0.869 -2.442,-2.421 0,-0.715 0.308,-1.375 0.66,-2.09 l 1.65,-3.389 h 1.562 l -1.628,3.234 c 0.187,-0.077 0.396,-0.099 0.583,-0.099 1.057,0 2.058,0.869 2.058,2.321 -10e-4,1.542 -1.058,2.444 -2.443,2.444 z m 0,-3.576 c -0.583,0 -1.013,0.418 -1.013,1.145 0,0.726 0.43,1.145 1.013,1.145 0.583,0 1.012,-0.419 1.012,-1.145 -0.001,-0.694 -0.408,-1.145 -1.012,-1.145 z"
   id="path179"
   style="fill:#d33c3d" />
			<path
   d="m 308.031,121.158 c -0.352,0.353 -0.913,0.639 -1.727,0.639 -0.814,0 -1.408,-0.286 -1.749,-0.628 -0.484,-0.483 -0.595,-1.056 -0.639,-1.628 h 1.431 c 0.077,0.616 0.362,0.969 0.957,0.969 0.274,0 0.506,-0.077 0.682,-0.254 0.253,-0.253 0.309,-0.671 0.309,-1.166 0,-0.902 -0.265,-1.408 -0.957,-1.408 -0.583,0 -0.848,0.33 -0.946,0.639 h -1.31 v -4.423 h 4.467 v 1.287 h -3.169 v 1.684 c 0.21,-0.198 0.649,-0.396 1.178,-0.396 0.649,0 1.145,0.209 1.463,0.528 0.616,0.616 0.704,1.353 0.704,2.09 0,0.88 -0.121,1.495 -0.694,2.067 z"
   id="path181"
   style="fill:#d33c3d" />
			<path
   d="m 313.993,121.797 c -1.387,0 -2.442,-0.869 -2.442,-2.421 0,-0.715 0.308,-1.375 0.66,-2.09 l 1.65,-3.389 h 1.562 l -1.628,3.234 c 0.187,-0.077 0.396,-0.099 0.583,-0.099 1.057,0 2.058,0.869 2.058,2.321 0,1.542 -1.057,2.444 -2.443,2.444 z m 0,-3.576 c -0.583,0 -1.013,0.418 -1.013,1.145 0,0.726 0.43,1.145 1.013,1.145 0.583,0 1.012,-0.419 1.012,-1.145 0,-0.694 -0.407,-1.145 -1.012,-1.145 z"
   id="path183"
   style="fill:#d33c3d" />
		</g>
		<g
   id="g185">
			<path
   d="m 286.485,137.022 v -6.293 l -1.596,1.387 v -1.541 l 1.596,-1.386 h 1.43 v 7.833 h -1.43 z"
   id="path187"
   style="fill:#218fb2" />
			<path
   d="m 298.771,137.089 c -1.387,0 -2.442,-0.869 -2.442,-2.421 0,-0.715 0.308,-1.375 0.66,-2.09 l 1.65,-3.389 h 1.562 l -1.628,3.234 c 0.187,-0.077 0.396,-0.099 0.583,-0.099 1.057,0 2.058,0.869 2.058,2.321 -10e-4,1.541 -1.058,2.444 -2.443,2.444 z m 0,-3.577 c -0.583,0 -1.013,0.418 -1.013,1.145 0,0.726 0.43,1.145 1.013,1.145 0.583,0 1.012,-0.419 1.012,-1.145 -0.001,-0.693 -0.408,-1.145 -1.012,-1.145 z"
   id="path189"
   style="fill:#218fb2" />
			<path
   d="m 306.526,137.089 c -1.386,0 -2.508,-0.825 -2.508,-2.344 0,-0.957 0.55,-1.475 0.979,-1.76 -0.396,-0.275 -0.88,-0.793 -0.88,-1.629 0,-1.386 1.101,-2.233 2.409,-2.233 1.31,0 2.398,0.848 2.398,2.233 0,0.836 -0.484,1.354 -0.88,1.629 0.429,0.285 0.99,0.803 0.99,1.76 0,1.518 -1.122,2.344 -2.508,2.344 z m 0,-3.456 c -0.604,0 -1.078,0.484 -1.078,1.089 0,0.605 0.474,1.079 1.078,1.079 0.605,0 1.078,-0.474 1.078,-1.079 0,-0.604 -0.473,-1.089 -1.078,-1.089 z m 0,-3.223 c -0.561,0 -0.979,0.43 -0.979,0.99 0,0.572 0.418,0.99 0.979,0.99 0.562,0 0.969,-0.418 0.969,-0.99 -10e-4,-0.56 -0.408,-0.99 -0.969,-0.99 z"
   id="path191"
   style="fill:#218fb2" />
			<path
   d="m 314.225,137.089 c -1.275,0 -2.475,-0.672 -2.497,-2.311 h 1.431 c 0.021,0.704 0.506,1.023 1.066,1.023 0.616,0 1.057,-0.386 1.057,-1.09 0,-0.648 -0.396,-1.078 -1.101,-1.078 h -0.209 v -1.243 h 0.209 c 0.693,0 0.99,-0.429 0.99,-0.979 0,-0.66 -0.439,-1.002 -0.957,-1.002 -0.539,0 -0.935,0.353 -0.968,0.946 h -1.431 c 0.033,-1.397 1.078,-2.233 2.398,-2.233 1.387,0 2.388,0.925 2.388,2.244 0,0.848 -0.385,1.332 -0.902,1.606 0.562,0.297 1.012,0.836 1.012,1.782 0,1.564 -1.143,2.335 -2.486,2.335 z"
   id="path193"
   style="fill:#218fb2" />
			<path
   d="m 328.051,136.45 c -0.352,0.353 -0.913,0.639 -1.727,0.639 -0.814,0 -1.408,-0.286 -1.749,-0.628 -0.484,-0.483 -0.595,-1.056 -0.639,-1.628 h 1.431 c 0.077,0.616 0.362,0.969 0.957,0.969 0.274,0 0.506,-0.077 0.682,-0.254 0.253,-0.253 0.309,-0.671 0.309,-1.166 0,-0.902 -0.265,-1.408 -0.957,-1.408 -0.584,0 -0.848,0.33 -0.946,0.639 h -1.31 v -4.423 h 4.467 v 1.287 H 325.4 v 1.684 c 0.21,-0.198 0.649,-0.396 1.178,-0.396 0.649,0 1.145,0.209 1.463,0.528 0.616,0.616 0.704,1.353 0.704,2.09 -10e-4,0.879 -0.122,1.495 -0.694,2.067 z"
   id="path195"
   style="fill:#218fb2" />
			<path
   d="m 331.693,137.022 v -1.287 l 2.926,-3.399 c 0.286,-0.341 0.407,-0.583 0.407,-0.946 0,-0.583 -0.341,-0.979 -0.946,-0.979 -0.473,0 -0.957,0.242 -0.957,1.002 h -1.43 c 0,-1.431 1.045,-2.289 2.387,-2.289 1.387,0 2.377,0.869 2.377,2.277 0,0.76 -0.297,1.166 -0.837,1.794 l -2.188,2.541 h 3.025 v 1.287 h -4.764 z"
   id="path197"
   style="fill:#218fb2" />
			<path
   d="m 343.694,135.911 v 1.111 h -1.375 v -1.111 h -3.202 v -1.354 l 2.685,-5.368 h 1.562 l -2.685,5.368 h 1.64 v -1.463 h 1.375 v 1.463 h 0.715 v 1.354 h -0.715 z"
   id="path199"
   style="fill:#218fb2" />
		</g>
		<g
   id="g201">
			<path
   d="m 105.271,100.272 v -6.293 l -1.596,1.387 v -1.541 l 1.596,-1.386 h 1.43 v 7.833 h -1.43 z"
   id="path203"
   style="fill:#218fb2" />
			<path
   d="m 117.578,100.339 c -1.276,0 -2.387,-0.837 -2.387,-2.333 v -3.3 c 0,-1.497 1.11,-2.333 2.387,-2.333 1.277,0 2.377,0.836 2.377,2.333 v 3.3 c 0,1.496 -1.1,2.333 -2.377,2.333 z m 0.947,-5.612 c 0,-0.66 -0.385,-1.067 -0.946,-1.067 -0.561,0 -0.957,0.407 -0.957,1.067 v 3.268 c 0,0.66 0.396,1.057 0.957,1.057 0.562,0 0.946,-0.396 0.946,-1.057 v -3.268 z"
   id="path205"
   style="fill:#218fb2" />
			<path
   d="m 125.279,100.339 c -1.275,0 -2.475,-0.672 -2.497,-2.311 h 1.431 c 0.021,0.704 0.506,1.023 1.066,1.023 0.616,0 1.057,-0.386 1.057,-1.09 0,-0.648 -0.396,-1.078 -1.101,-1.078 h -0.209 V 95.64 h 0.209 c 0.693,0 0.99,-0.429 0.99,-0.979 0,-0.66 -0.439,-1.002 -0.957,-1.002 -0.539,0 -0.935,0.353 -0.968,0.946 h -1.431 c 0.033,-1.397 1.078,-2.233 2.398,-2.233 1.387,0 2.388,0.925 2.388,2.244 0,0.848 -0.385,1.332 -0.902,1.606 0.562,0.297 1.012,0.836 1.012,1.782 0,1.564 -1.144,2.335 -2.486,2.335 z"
   id="path207"
   style="fill:#218fb2" />
			<path
   d="m 130.701,100.272 v -1.287 l 2.926,-3.399 c 0.286,-0.341 0.407,-0.583 0.407,-0.946 0,-0.583 -0.341,-0.979 -0.946,-0.979 -0.473,0 -0.957,0.242 -0.957,1.002 h -1.43 c 0,-1.431 1.045,-2.289 2.387,-2.289 1.387,0 2.377,0.869 2.377,2.277 0,0.76 -0.297,1.166 -0.837,1.794 l -2.188,2.541 h 3.025 v 1.287 h -4.764 z"
   id="path209"
   style="fill:#218fb2" />
			<path
   d="m 145.088,100.339 c -1.386,0 -2.508,-0.825 -2.508,-2.344 0,-0.957 0.55,-1.475 0.979,-1.76 -0.396,-0.275 -0.88,-0.793 -0.88,-1.629 0,-1.386 1.101,-2.233 2.409,-2.233 1.31,0 2.398,0.848 2.398,2.233 0,0.836 -0.484,1.354 -0.88,1.629 0.429,0.285 0.99,0.803 0.99,1.76 0.001,1.518 -1.121,2.344 -2.508,2.344 z m 0,-3.456 c -0.604,0 -1.078,0.484 -1.078,1.089 0,0.605 0.474,1.079 1.078,1.079 0.605,0 1.078,-0.474 1.078,-1.079 0,-0.604 -0.472,-1.089 -1.078,-1.089 z m 0,-3.223 c -0.561,0 -0.979,0.43 -0.979,0.99 0,0.572 0.418,0.99 0.979,0.99 0.562,0 0.969,-0.418 0.969,-0.99 0,-0.56 -0.407,-0.99 -0.969,-0.99 z"
   id="path211"
   style="fill:#218fb2" />
			<path
   d="m 152.822,100.272 h -1.551 l 2.541,-6.546 h -2.068 v 1.232 h -1.364 v -2.52 h 4.984 v 1.287 l -2.542,6.547 z"
   id="path213"
   style="fill:#218fb2" />
			<path
   d="m 160.29,100.272 v -6.293 l -1.596,1.387 v -1.541 l 1.596,-1.386 h 1.43 v 7.833 h -1.43 z"
   id="path215"
   style="fill:#218fb2" />
		</g>
		<g
   id="g217">
			<path
   d="m 195.76,46.539 v -6.717 l -1.703,1.48 v -1.645 l 1.703,-1.479 h 1.526 v 8.361 h -1.526 z"
   id="path219"
   style="fill:#218fb2" />
			<path
   d="m 208.898,46.61 c -1.362,0 -2.548,-0.893 -2.548,-2.49 v -3.522 c 0,-1.598 1.185,-2.49 2.548,-2.49 1.362,0 2.537,0.892 2.537,2.49 v 3.522 c 0,1.596 -1.175,2.49 -2.537,2.49 z m 1.01,-5.99 c 0,-0.705 -0.411,-1.139 -1.01,-1.139 -0.598,0 -1.022,0.435 -1.022,1.139 v 3.488 c 0,0.705 0.423,1.128 1.022,1.128 0.599,0 1.01,-0.423 1.01,-1.128 V 40.62 z"
   id="path221"
   style="fill:#218fb2" />
			<path
   d="m 217.152,46.61 c -1.362,0 -2.548,-0.893 -2.548,-2.49 v -3.522 c 0,-1.598 1.185,-2.49 2.548,-2.49 1.362,0 2.537,0.892 2.537,2.49 v 3.522 c 0,1.596 -1.174,2.49 -2.537,2.49 z m 1.01,-5.99 c 0,-0.705 -0.411,-1.139 -1.01,-1.139 -0.598,0 -1.022,0.435 -1.022,1.139 v 3.488 c 0,0.705 0.423,1.128 1.022,1.128 0.599,0 1.01,-0.423 1.01,-1.128 V 40.62 z"
   id="path223"
   style="fill:#218fb2" />
			<path
   d="m 222.905,46.539 v -1.374 l 3.123,-3.629 c 0.305,-0.364 0.435,-0.622 0.435,-1.01 0,-0.622 -0.364,-1.046 -1.01,-1.046 -0.505,0 -1.022,0.259 -1.022,1.07 h -1.526 c 0,-1.527 1.115,-2.443 2.548,-2.443 1.48,0 2.537,0.928 2.537,2.431 0,0.811 -0.317,1.245 -0.893,1.915 l -2.336,2.712 h 3.229 v 1.374 h -5.085 z"
   id="path225"
   style="fill:#218fb2" />
			<path
   d="m 238.262,46.61 c -1.362,0 -2.548,-0.893 -2.548,-2.49 v -3.522 c 0,-1.598 1.185,-2.49 2.548,-2.49 1.362,0 2.537,0.892 2.537,2.49 v 3.522 c 0,1.596 -1.175,2.49 -2.537,2.49 z m 1.01,-5.99 c 0,-0.705 -0.411,-1.139 -1.01,-1.139 -0.598,0 -1.022,0.435 -1.022,1.139 v 3.488 c 0,0.705 0.423,1.128 1.022,1.128 0.599,0 1.01,-0.423 1.01,-1.128 V 40.62 z"
   id="path227"
   style="fill:#218fb2" />
			<path
   d="m 248.384,45.928 c -0.375,0.376 -0.975,0.682 -1.843,0.682 -0.869,0 -1.503,-0.305 -1.867,-0.67 -0.517,-0.516 -0.635,-1.127 -0.682,-1.738 h 1.527 c 0.082,0.658 0.387,1.034 1.022,1.034 0.293,0 0.54,-0.082 0.728,-0.271 0.27,-0.27 0.329,-0.716 0.329,-1.245 0,-0.963 -0.282,-1.503 -1.022,-1.503 -0.622,0 -0.905,0.352 -1.01,0.682 h -1.398 v -4.721 h 4.768 v 1.374 h -3.383 v 1.797 c 0.224,-0.212 0.693,-0.423 1.257,-0.423 0.693,0 1.222,0.223 1.562,0.564 0.658,0.658 0.752,1.444 0.752,2.231 0,0.939 -0.13,1.596 -0.74,2.207 z"
   id="path229"
   style="fill:#218fb2" />
			<path
   d="m 254.735,46.61 c -1.361,0 -2.641,-0.717 -2.665,-2.466 h 1.527 c 0.023,0.752 0.54,1.092 1.138,1.092 0.658,0 1.128,-0.412 1.128,-1.163 0,-0.692 -0.423,-1.151 -1.175,-1.151 h -0.223 v -1.327 h 0.223 c 0.74,0 1.057,-0.458 1.057,-1.044 0,-0.705 -0.469,-1.07 -1.022,-1.07 -0.575,0 -0.998,0.376 -1.033,1.01 h -1.527 c 0.035,-1.492 1.151,-2.384 2.56,-2.384 1.48,0 2.549,0.987 2.549,2.395 0,0.905 -0.411,1.422 -0.963,1.715 0.599,0.317 1.08,0.892 1.08,1.902 0,1.668 -1.221,2.491 -2.654,2.491 z"
   id="path231"
   style="fill:#218fb2" />
		</g>
	</g>
</g>
<g
   transform="translate(-38.758004,-7.149)"
   id="Calque_2"
   style="display:none">
	<rect
   width="383.16699"
   height="381"
   x="0"
   y="-0.667"
   id="rect234"
   style="fill:none;display:inline" />
</g>
</svg>