<?xml version="1.0" encoding="utf-8"?>
<!-- Generator: Adobe Illustrator 17.0.0, SVG Export Plug-In . SVG Version: 6.00 Build 0)  -->
<!DOCTYPE svg PUBLIC "-//W3C//DTD SVG 1.1//EN" "http://www.w3.org/Graphics/SVG/1.1/DTD/svg11.dtd">
<svg version="1.1" id="Calque_1" xmlns="http://www.w3.org/2000/svg" xmlns:xlink="http://www.w3.org/1999/xlink" x="0px" y="0px"
	 width="385.333px" height="381px" viewBox="0 0 385.333 381" enable-background="new 0 0 385.333 381" xml:space="preserve">
<g id="Calque_2" display="none">
	<rect y="-0.667" display="inline" fill="none" width="383.167" height="381"/>
</g>
<g>
	<path fill="#218FB2" d="M296.822,299.445L55.478,223.976l-7.075-62.76c0,0-0.655-2.358,3.276-3.014l57.65-11.137l-0.917-15.33
		c0,0-0.262-2.751,3.8-3.145l54.636-7.73l75.6,4.455c0,0,3.276-0.262,3.538,4.455l-1.834,52.016c0,0,1.441,1.703,2.62,1.703
		l89.75,14.281c0,0,2.096-0.393,1.965,4.717l-5.372,51.754L296.822,299.445z"/>
	<path fill="#D7D6D1" d="M145.371,184.871l0.214-29.654c0,0-1.508,1.418-2.885,1.937c-1.837,0.705-3.96,0.994-3.96,0.994
		l0.036-5.007c0,0,2.999-0.526,5.049-2.026c1.758-1.293,3.482-3.892,3.482-3.892l3.368,0.384l-0.273,37.837L145.371,184.871z"/>
	<g>
		<path fill="#D7D6D1" d="M245.183,270.022c-3.578-0.239-7.056-1.462-9.987-4.036l2.452-4.047c2.645,2.208,5.061,3.113,7.831,3.298
			c3.77,0.252,6.628-2.233,6.869-6.131c0.235-3.799-1.468-6.242-6.084-6.55l-2.924-0.195l0.302-4.885l2.962,0.198
			c3.385,0.226,5.56-2.453,5.795-6.253c0.309-4.984-2.755-6.03-5.179-6.192c-1.846-0.123-4.755,1.317-6.151,3.899l-2.657-3.249
			c2.698-4.279,6.078-5.837,9.925-5.58c7.001,0.468,8.952,6.395,8.671,10.935c-0.324,5.23-2.955,8.424-4.779,8.55
			c2.097,0.438,5.086,3.957,4.737,9.582C256.534,266.371,252.262,270.495,245.183,270.022z"/>
	</g>
	<g>
		<path fill="#D7D6D1" d="M66.359,207.966l10.894-9.079c0.908-0.841,4.874-3.934,5.071-6.941c0.238-3.643-1.965-5.266-4.619-5.964
			c-3.422-0.9-5.349,0.86-5.518,3.442l-0.079,1.203l-3.876-1.019l0.083-1.273c0.289-4.421,4.07-7.384,9.552-5.943
			c4.959,1.304,9.12,4.486,8.732,10.427c-0.277,4.244-4.316,7.355-4.991,7.897l-6.796,5.624l11.698,3.077l-0.247,3.785
			L66.359,207.966z"/>
	</g>
	<path fill="#106377" d="M195.41,207.075c0,0,105.735,23.584,106.521,23.191l35.376-32.232l-90.537-14.543L195.41,207.075z"/>
	<path fill="#106377" d="M193.248,203.34l51.295-22.208l1.572-53.064c0,0-0.393-2.555-1.965-2.162c0,0-51.295,15.133-50.706,15.133
		C194.034,141.039,193.248,203.34,193.248,203.34z"/>
	<polygon fill="#106377" points="50.892,158.989 110.639,170.519 109.328,147.066 	"/>
	<line fill="none" stroke="#106377" stroke-miterlimit="10" x1="186.565" y1="115.833" x2="186.565" y2="20.233"/>
	
		<line fill="none" stroke="#106377" stroke-miterlimit="10" stroke-dasharray="3" x1="96.661" y1="141.96" x2="96.661" y2="73.675"/>
	<g>
		<line fill="none" x1="276.922" y1="182.724" x2="276.922" y2="110.68"/>
		<g>
			<line fill="none" stroke="#106377" stroke-miterlimit="10" x1="276.922" y1="182.724" x2="276.922" y2="181.224"/>
			
				<line fill="none" stroke="#106377" stroke-miterlimit="10" stroke-dasharray="3.0019,3.0019" x1="276.922" y1="178.222" x2="276.922" y2="113.681"/>
			<line fill="none" stroke="#106377" stroke-miterlimit="10" x1="276.922" y1="112.18" x2="276.922" y2="110.68"/>
		</g>
	</g>
	<g>
		<path fill="#106377" d="M41.905,66.692h-1.508v2.948h-1.529v-7.833h3.037c1.617,0,2.585,1.111,2.585,2.442
			C44.49,65.581,43.522,66.692,41.905,66.692z M41.828,63.172h-1.431v2.146h1.431c0.692,0,1.133-0.43,1.133-1.067
			C42.961,63.611,42.52,63.172,41.828,63.172z"/>
		<path fill="#106377" d="M51.441,69.64l-0.462-1.386h-2.783l-0.473,1.386h-1.596l2.85-7.833h1.199l2.86,7.833H51.441z
			 M49.615,64.118l-0.99,2.849h1.947L49.615,64.118z"/>
		<path fill="#106377" d="M58.372,66.427v3.213h-1.519v-3.213l-2.354-4.62h1.661l1.463,3.157l1.441-3.157h1.661L58.372,66.427z"/>
		<path fill="#106377" d="M65.588,69.707c-1.188,0-2.091-0.254-2.86-1.034l0.99-0.99c0.495,0.495,1.166,0.66,1.892,0.66
			c0.902,0,1.387-0.342,1.387-0.969c0-0.274-0.077-0.506-0.242-0.66c-0.154-0.143-0.33-0.22-0.693-0.274l-0.946-0.132
			c-0.671-0.1-1.166-0.309-1.518-0.649c-0.374-0.374-0.562-0.88-0.562-1.54c0-1.397,1.034-2.377,2.729-2.377
			c1.078,0,1.859,0.265,2.53,0.913l-0.968,0.957c-0.495-0.473-1.089-0.539-1.606-0.539c-0.814,0-1.21,0.451-1.21,0.99
			c0,0.198,0.065,0.407,0.23,0.562c0.154,0.143,0.407,0.264,0.727,0.308l0.924,0.132c0.716,0.1,1.166,0.298,1.496,0.605
			c0.418,0.396,0.605,0.968,0.605,1.661C68.492,68.848,67.226,69.707,65.588,69.707z"/>
		<path fill="#106377" d="M80.899,68.892c-0.517,0.517-1.254,0.748-2.067,0.748h-2.828v-7.833h2.828c0.813,0,1.551,0.23,2.067,0.748
			c0.881,0.88,0.793,1.958,0.793,3.136C81.692,66.868,81.78,68.012,80.899,68.892z M79.833,63.655
			c-0.265-0.318-0.616-0.483-1.145-0.483h-1.155v5.104h1.155c0.528,0,0.88-0.165,1.145-0.484c0.286-0.352,0.33-0.913,0.33-2.101
			C80.163,64.503,80.119,64.008,79.833,63.655z"/>
		<path fill="#106377" d="M85.013,69.64v-7.833h5.159v1.364h-3.63v1.837h3.091v1.364h-3.091v1.903h3.63v1.364h-5.159V69.64z"/>
		<path fill="#106377" d="M97.74,69.64v-7.833h1.529v6.469h3.554v1.364H97.74z"/>
		<path fill="#106377" d="M110.28,69.64l-0.462-1.386h-2.783l-0.473,1.386h-1.596l2.85-7.833h1.199l2.86,7.833H110.28z
			 M108.454,64.118l-0.99,2.849h1.947L108.454,64.118z"/>
		<path fill="#106377" d="M118.915,69.64v-7.833h1.529v6.469h3.554v1.364H118.915z"/>
		<path fill="#106377" d="M131.456,68.848c-0.551,0.55-1.222,0.858-2.112,0.858c-0.892,0-1.573-0.309-2.123-0.858
			c-0.793-0.792-0.771-1.771-0.771-3.125c0-1.353-0.022-2.332,0.771-3.124c0.55-0.55,1.231-0.858,2.123-0.858
			c0.891,0,1.562,0.309,2.112,0.858c0.792,0.792,0.781,1.771,0.781,3.124C132.237,67.077,132.248,68.056,131.456,68.848z
			 M130.322,63.523c-0.22-0.253-0.561-0.418-0.979-0.418s-0.771,0.165-0.99,0.418c-0.297,0.33-0.374,0.693-0.374,2.2
			c0,1.508,0.077,1.871,0.374,2.201c0.22,0.253,0.572,0.418,0.99,0.418s0.759-0.165,0.979-0.418c0.298-0.33,0.386-0.693,0.386-2.201
			C130.708,64.216,130.62,63.853,130.322,63.523z"/>
		<path fill="#106377" d="M135.557,69.64v-7.833h1.529v7.833H135.557z"/>
		<path fill="#106377" d="M144.832,69.64l-1.529-3.124h-1.101v3.124h-1.529v-7.833h3.069c1.596,0,2.542,1.089,2.542,2.398
			c0,1.1-0.671,1.782-1.431,2.057l1.749,3.378H144.832z M143.643,63.172h-1.441v2.068h1.441c0.671,0,1.111-0.43,1.111-1.034
			C144.755,63.6,144.314,63.172,143.643,63.172z"/>
		<path fill="#106377" d="M149.627,69.64v-7.833h5.159v1.364h-3.63v1.837h3.091v1.364h-3.091v1.903h3.63v1.364h-5.159V69.64z"/>
	</g>
	<g>
		<path fill="#106377" d="M157.047,15.047h-3.278V7.214h3.146c1.529,0,2.42,0.858,2.42,2.2c0,0.869-0.572,1.431-0.968,1.617
			c0.473,0.22,1.078,0.715,1.078,1.761C159.445,14.255,158.444,15.047,157.047,15.047z M156.794,8.578h-1.496v1.804h1.496
			c0.649,0,1.012-0.362,1.012-0.901S157.443,8.578,156.794,8.578z M156.892,11.757h-1.595v1.925h1.595
			c0.693,0,1.023-0.44,1.023-0.968C157.916,12.186,157.586,11.757,156.892,11.757z"/>
		<path fill="#106377" d="M166.925,15.047l-1.529-3.124h-1.101v3.124h-1.529V7.214h3.069c1.596,0,2.542,1.089,2.542,2.398
			c0,1.1-0.671,1.782-1.431,2.057l1.749,3.378C168.695,15.047,166.925,15.047,166.925,15.047z M165.736,8.578h-1.441v2.068h1.441
			c0.671,0,1.111-0.43,1.111-1.034C166.847,9.007,166.407,8.578,165.736,8.578z"/>
		<path fill="#106377" d="M171.719,15.047V7.214h5.16v1.364h-3.631v1.837h3.092v1.364h-3.092v1.903h3.631v1.364L171.719,15.047
			L171.719,15.047z"/>
		<path fill="#106377" d="M183.127,8.578v6.469h-1.529V8.578h-2.046V7.214h5.621v1.364H183.127z"/>
		<path fill="#106377" d="M191.97,15.047l-0.462-1.386h-2.783l-0.473,1.386h-1.596l2.85-7.833h1.199l2.86,7.833H191.97z
			 M190.144,9.524l-0.99,2.849h1.947L190.144,9.524z"/>
		<path fill="#106377" d="M201.012,14.221c-0.604,0.616-1.331,0.892-2.211,0.892c-0.836,0-1.54-0.286-2.112-0.858
			c-0.341-0.341-0.55-0.737-0.638-1.178c-0.089-0.439-0.133-1.089-0.133-1.947c0-0.857,0.044-1.507,0.133-1.947
			c0.088-0.45,0.297-0.836,0.638-1.177c0.572-0.572,1.276-0.858,2.112-0.858c1.782,0,2.739,1.145,2.948,2.509h-1.54
			c-0.188-0.759-0.649-1.145-1.408-1.145c-0.407,0-0.737,0.144-0.979,0.418c-0.286,0.363-0.374,0.649-0.374,2.2
			c0,1.541,0.066,1.849,0.374,2.212c0.231,0.274,0.562,0.407,0.979,0.407c0.451,0,0.814-0.144,1.089-0.44
			c0.231-0.264,0.353-0.616,0.353-1.045v-0.297h-1.441V10.69h2.959v1.144C201.76,12.978,201.552,13.649,201.012,14.221z"/>
		<path fill="#106377" d="M209.582,15.047l-3.103-4.808v4.808h-1.529V7.214h1.364l3.103,4.797V7.214h1.529v7.833
			C210.946,15.047,209.582,15.047,209.582,15.047z"/>
		<path fill="#106377" d="M214.531,15.047V7.214h5.159v1.364h-3.63v1.837h3.091v1.364h-3.091v1.903h3.63v1.364L214.531,15.047
			L214.531,15.047z"/>
	</g>
	<g>
		<path fill="#106377" d="M237.07,106.474l-1.529-3.124h-1.1v3.124h-1.529v-7.833h3.069c1.595,0,2.541,1.089,2.541,2.398
			c0,1.1-0.671,1.782-1.43,2.057l1.749,3.378H237.07z M235.883,100.005h-1.441v2.068h1.441c0.671,0,1.11-0.43,1.11-1.034
			C236.993,100.434,236.553,100.005,235.883,100.005z"/>
		<path fill="#106377" d="M246.046,106.474v-3.278h-2.651v3.278h-1.529v-7.833h1.529v3.201h2.651v-3.201h1.529v7.833H246.046z"/>
		<path fill="#106377" d="M255.902,105.682c-0.55,0.55-1.221,0.858-2.112,0.858s-1.573-0.309-2.123-0.858
			c-0.792-0.792-0.771-1.771-0.771-3.125c0-1.353-0.021-2.332,0.771-3.124c0.55-0.55,1.232-0.858,2.123-0.858
			c0.892,0,1.562,0.309,2.112,0.858c0.792,0.792,0.781,1.771,0.781,3.124C256.683,103.91,256.694,104.89,255.902,105.682z
			 M254.703,97.882l-0.913-1.002l-0.913,1.002h-1.111l1.452-1.859h1.145l1.452,1.859H254.703z M254.769,100.356
			c-0.22-0.253-0.562-0.418-0.979-0.418s-0.77,0.165-0.99,0.418c-0.297,0.33-0.374,0.693-0.374,2.2c0,1.508,0.077,1.871,0.374,2.201
			c0.221,0.253,0.572,0.418,0.99,0.418s0.76-0.165,0.979-0.418c0.297-0.33,0.385-0.693,0.385-2.201
			C255.154,101.05,255.066,100.687,254.769,100.356z"/>
		<path fill="#106377" d="M264.636,106.474l-3.103-4.808v4.808h-1.529v-7.833h1.364l3.103,4.797v-4.797H266v7.833H264.636z"/>
		<path fill="#106377" d="M269.586,106.474v-7.833h5.159v1.364h-3.63v1.837h3.091v1.364h-3.091v1.903h3.63v1.364h-5.159V106.474z"/>
		<path fill="#106377" d="M286.767,106.474l-0.462-1.386h-2.783l-0.473,1.386h-1.596l2.85-7.833h1.199l2.86,7.833H286.767z
			 M284.941,100.951l-0.99,2.849h1.947L284.941,100.951z"/>
		<path fill="#106377" d="M291.09,106.474v-7.833h1.529v6.469h3.554v1.364H291.09z"/>
		<path fill="#106377" d="M302.212,103.525h-1.507v2.948h-1.529V98.64h3.036c1.617,0,2.586,1.111,2.586,2.442
			S303.829,103.525,302.212,103.525z M302.135,100.005h-1.43v2.146h1.43c0.693,0,1.134-0.43,1.134-1.067
			C303.268,100.444,302.828,100.005,302.135,100.005z"/>
		<path fill="#106377" d="M307.843,106.474v-7.833h5.16v1.364h-3.631v1.837h3.092v1.364h-3.092v1.903h3.631v1.364h-5.16V106.474z"/>
		<path fill="#106377" d="M318.414,106.54c-1.188,0-2.09-0.254-2.86-1.034l0.99-0.99c0.495,0.495,1.166,0.66,1.893,0.66
			c0.902,0,1.386-0.342,1.386-0.969c0-0.274-0.076-0.506-0.241-0.66c-0.154-0.143-0.33-0.22-0.693-0.274l-0.946-0.132
			c-0.671-0.1-1.166-0.309-1.519-0.649c-0.374-0.374-0.561-0.88-0.561-1.54c0-1.397,1.034-2.377,2.729-2.377
			c1.078,0,1.859,0.265,2.53,0.913l-0.969,0.957c-0.495-0.473-1.089-0.539-1.605-0.539c-0.814,0-1.211,0.451-1.211,0.99
			c0,0.198,0.066,0.407,0.231,0.562c0.154,0.143,0.407,0.264,0.726,0.308l0.925,0.133c0.715,0.099,1.166,0.297,1.496,0.604
			c0.418,0.396,0.604,0.968,0.604,1.661C321.318,105.682,320.053,106.54,318.414,106.54z"/>
	</g>
	<g>
		<path fill="#D33C3D" d="M196.664,30.79c-1.275,0-2.475-0.672-2.496-2.311h1.43c0.021,0.704,0.506,1.023,1.066,1.023
			c0.617,0,1.057-0.386,1.057-1.09c0-0.648-0.396-1.078-1.1-1.078h-0.209v-1.243h0.209c0.693,0,0.99-0.429,0.99-0.979
			c0-0.66-0.439-1.002-0.957-1.002c-0.539,0-0.936,0.353-0.969,0.946h-1.43c0.033-1.397,1.078-2.233,2.398-2.233
			c1.387,0,2.387,0.925,2.387,2.244c0,0.848-0.385,1.332-0.902,1.606c0.562,0.297,1.012,0.836,1.012,1.782
			C199.15,30.02,198.008,30.79,196.664,30.79z"/>
		<path fill="#D33C3D" d="M208.742,30.79c-1.277,0-2.387-0.837-2.387-2.333v-3.3c0-1.497,1.109-2.333,2.387-2.333
			c1.275,0,2.377,0.836,2.377,2.333v3.3C211.119,29.953,210.017,30.79,208.742,30.79z M209.687,25.179
			c0-0.66-0.385-1.067-0.945-1.067s-0.957,0.407-0.957,1.067v3.268c0,0.66,0.396,1.057,0.957,1.057s0.945-0.396,0.945-1.057V25.179z
			"/>
		<path fill="#D33C3D" d="M216.474,30.724h-1.551l2.541-6.546h-2.068v1.232h-1.363v-2.52h4.984v1.287L216.474,30.724z"/>
		<path fill="#D33C3D" d="M221.865,30.724v-1.287l2.926-3.399c0.285-0.341,0.406-0.583,0.406-0.946c0-0.583-0.34-0.979-0.945-0.979
			c-0.473,0-0.957,0.242-0.957,1.002h-1.43c0-1.431,1.045-2.289,2.387-2.289c1.387,0,2.377,0.869,2.377,2.277
			c0,0.76-0.297,1.166-0.838,1.794l-2.188,2.541h3.025v1.287h-4.763V30.724z"/>
	</g>
	<g>
		<path fill="#D33C3D" d="M104.677,85.015v-1.287l2.926-3.399c0.286-0.341,0.407-0.583,0.407-0.946c0-0.583-0.341-0.979-0.946-0.979
			c-0.473,0-0.957,0.242-0.957,1.002h-1.43c0-1.431,1.045-2.289,2.387-2.289c1.387,0,2.377,0.869,2.377,2.277
			c0,0.76-0.297,1.166-0.837,1.794l-2.188,2.541h3.025v1.287L104.677,85.015L104.677,85.015z"/>
		<path fill="#D33C3D" d="M119.063,85.082c-1.386,0-2.508-0.825-2.508-2.344c0-0.957,0.55-1.475,0.979-1.76
			c-0.396-0.275-0.88-0.793-0.88-1.629c0-1.386,1.101-2.233,2.409-2.233c1.31,0,2.398,0.848,2.398,2.233
			c0,0.836-0.484,1.354-0.88,1.629c0.429,0.285,0.99,0.803,0.99,1.76C121.572,84.257,120.45,85.082,119.063,85.082z M119.063,81.627
			c-0.604,0-1.078,0.484-1.078,1.089c0,0.605,0.474,1.079,1.078,1.079c0.605,0,1.078-0.474,1.078-1.079
			C120.141,82.111,119.669,81.627,119.063,81.627z M119.063,78.403c-0.561,0-0.979,0.43-0.979,0.99c0,0.572,0.418,0.99,0.979,0.99
			c0.562,0,0.969-0.418,0.969-0.99C120.032,78.833,119.625,78.403,119.063,78.403z"/>
		<path fill="#D33C3D" d="M126.775,85.082c-1.387,0-2.442-0.869-2.442-2.421c0-0.715,0.308-1.375,0.66-2.09l1.65-3.389h1.562
			l-1.628,3.234c0.187-0.077,0.396-0.099,0.583-0.099c1.057,0,2.058,0.869,2.058,2.321
			C129.218,84.179,128.161,85.082,126.775,85.082z M126.775,81.506c-0.583,0-1.013,0.418-1.013,1.145
			c0,0.726,0.43,1.145,1.013,1.145s1.012-0.419,1.012-1.145C127.787,81.957,127.38,81.506,126.775,81.506z"/>
		<path fill="#D33C3D" d="M134.529,85.015h-1.551l2.541-6.546h-2.068v1.232h-1.364v-2.52h4.984v1.287L134.529,85.015z"/>
	</g>
	<g>
		<g>
			<path fill="#D33C3D" d="M284.272,121.515v-1.287l2.926-3.399c0.286-0.341,0.407-0.583,0.407-0.946
				c0-0.583-0.341-0.979-0.946-0.979c-0.473,0-0.957,0.242-0.957,1.002h-1.43c0-1.431,1.045-2.289,2.387-2.289
				c1.387,0,2.377,0.869,2.377,2.277c0,0.76-0.297,1.166-0.837,1.794l-2.188,2.541h3.025v1.287L284.272,121.515L284.272,121.515z"/>
			<path fill="#D33C3D" d="M298.637,121.582c-1.387,0-2.442-0.869-2.442-2.421c0-0.715,0.308-1.375,0.66-2.09l1.65-3.389h1.562
				l-1.628,3.234c0.187-0.077,0.396-0.099,0.583-0.099c1.057,0,2.058,0.869,2.058,2.321
				C301.08,120.679,300.023,121.582,298.637,121.582z M298.637,118.006c-0.583,0-1.013,0.418-1.013,1.145
				c0,0.726,0.43,1.145,1.013,1.145s1.012-0.419,1.012-1.145C299.649,118.457,299.242,118.006,298.637,118.006z"/>
			<path fill="#D33C3D" d="M304.05,121.515v-1.287l2.926-3.399c0.286-0.341,0.407-0.583,0.407-0.946
				c0-0.583-0.341-0.979-0.946-0.979c-0.473,0-0.957,0.242-0.957,1.002h-1.43c0-1.431,1.045-2.289,2.387-2.289
				c1.387,0,2.377,0.869,2.377,2.277c0,0.76-0.297,1.166-0.837,1.794l-2.188,2.541h3.025v1.287L304.05,121.515L304.05,121.515z"/>
			<path fill="#D33C3D" d="M314.125,121.515h-1.551l2.541-6.546h-2.068v1.232h-1.364v-2.52h4.984v1.287L314.125,121.515z"/>
		</g>
		<g>
			<path fill="#218FB2" d="M286.594,137.265v-6.293l-1.596,1.387v-1.541l1.596-1.386h1.43v7.833L286.594,137.265L286.594,137.265z"
				/>
			<path fill="#218FB2" d="M298.881,137.332c-1.387,0-2.442-0.869-2.442-2.421c0-0.715,0.308-1.375,0.66-2.09l1.65-3.389h1.562
				l-1.628,3.234c0.187-0.077,0.396-0.099,0.583-0.099c1.057,0,2.058,0.869,2.058,2.321
				C301.323,136.429,300.266,137.332,298.881,137.332z M298.881,133.756c-0.583,0-1.013,0.418-1.013,1.145
				c0,0.726,0.43,1.145,1.013,1.145s1.012-0.419,1.012-1.145C299.892,134.207,299.485,133.756,298.881,133.756z"/>
			<path fill="#218FB2" d="M306.614,137.332c-1.387,0-2.442-0.869-2.442-2.421c0-0.715,0.308-1.375,0.66-2.09l1.65-3.389h1.562
				l-1.628,3.234c0.187-0.077,0.396-0.099,0.583-0.099c1.057,0,2.058,0.869,2.058,2.321
				C309.056,136.429,308,137.332,306.614,137.332z M306.614,133.756c-0.583,0-1.013,0.418-1.013,1.145
				c0,0.726,0.43,1.145,1.013,1.145s1.012-0.419,1.012-1.145C307.626,134.207,307.219,133.756,306.614,133.756z"/>
			<path fill="#218FB2" d="M316.117,136.693c-0.352,0.353-0.913,0.639-1.727,0.639s-1.408-0.286-1.749-0.628
				c-0.484-0.483-0.595-1.056-0.639-1.628h1.431c0.077,0.616,0.362,0.969,0.957,0.969c0.274,0,0.506-0.077,0.682-0.254
				c0.253-0.253,0.309-0.671,0.309-1.166c0-0.902-0.265-1.408-0.957-1.408c-0.583,0-0.848,0.33-0.946,0.639h-1.31v-4.423h4.467
				v1.287h-3.169v1.684c0.21-0.198,0.649-0.396,1.178-0.396c0.649,0,1.145,0.209,1.463,0.528c0.616,0.616,0.704,1.353,0.704,2.09
				C316.81,135.506,316.689,136.121,316.117,136.693z"/>
			<path fill="#218FB2" d="M328.338,136.154v1.111h-1.375v-1.111h-3.202V134.8l2.685-5.368h1.562l-2.685,5.368h1.64v-1.463h1.375
				v1.463h0.715v1.354H328.338z"/>
			<path fill="#218FB2" d="M336.071,136.154v1.111h-1.375v-1.111h-3.202V134.8l2.685-5.368h1.562l-2.685,5.368h1.64v-1.463h1.375
				v1.463h0.715v1.354H336.071z"/>
			<path fill="#218FB2" d="M341.856,137.332c-1.387,0-2.442-0.869-2.442-2.421c0-0.715,0.308-1.375,0.66-2.09l1.65-3.389h1.562
				l-1.628,3.234c0.187-0.077,0.396-0.099,0.583-0.099c1.057,0,2.058,0.869,2.058,2.321
				C344.299,136.429,343.242,137.332,341.856,137.332z M341.856,133.756c-0.583,0-1.013,0.418-1.013,1.145
				c0,0.726,0.43,1.145,1.013,1.145s1.012-0.419,1.012-1.145C342.868,134.207,342.461,133.756,341.856,133.756z"/>
		</g>
	</g>
	<g>
		<path fill="#218FB2" d="M105.381,100.273V93.98l-1.596,1.387v-1.541l1.596-1.386h1.43v7.833H105.381z"/>
		<path fill="#218FB2" d="M117.688,100.339c-1.276,0-2.387-0.837-2.387-2.333v-3.3c0-1.497,1.11-2.333,2.387-2.333
			s2.377,0.836,2.377,2.333v3.3C120.065,99.502,118.965,100.339,117.688,100.339z M118.635,94.728c0-0.66-0.385-1.067-0.946-1.067
			s-0.957,0.407-0.957,1.067v3.268c0,0.66,0.396,1.057,0.957,1.057c0.562,0,0.946-0.396,0.946-1.057V94.728z"/>
		<path fill="#218FB2" d="M127.347,99.161v1.111h-1.375v-1.111h-3.202v-1.354l2.685-5.368h1.562l-2.685,5.368h1.64v-1.463h1.375
			v1.463h0.715v1.354H127.347z"/>
		<path fill="#218FB2" d="M133.154,100.339c-1.276,0-2.387-0.837-2.387-2.333v-3.3c0-1.497,1.11-2.333,2.387-2.333
			s2.377,0.836,2.377,2.333v3.3C135.531,99.502,134.43,100.339,133.154,100.339z M134.1,94.728c0-0.66-0.385-1.067-0.946-1.067
			s-0.957,0.407-0.957,1.067v3.268c0,0.66,0.396,1.057,0.957,1.057c0.562,0,0.946-0.396,0.946-1.057V94.728z"/>
		<path fill="#218FB2" d="M145.198,100.339c-1.386,0-2.508-0.825-2.508-2.344c0-0.957,0.55-1.475,0.979-1.76
			c-0.396-0.275-0.88-0.793-0.88-1.629c0-1.386,1.101-2.233,2.409-2.233c1.31,0,2.398,0.848,2.398,2.233
			c0,0.836-0.484,1.354-0.88,1.629c0.429,0.285,0.99,0.803,0.99,1.76C147.707,99.514,146.585,100.339,145.198,100.339z
			 M145.198,96.884c-0.604,0-1.078,0.484-1.078,1.089c0,0.605,0.474,1.079,1.078,1.079c0.605,0,1.078-0.474,1.078-1.079
			S145.803,96.884,145.198,96.884z M145.198,93.66c-0.561,0-0.979,0.43-0.979,0.99c0,0.572,0.418,0.99,0.979,0.99
			c0.562,0,0.969-0.418,0.969-0.99C146.167,94.09,145.76,93.66,145.198,93.66z"/>
		<path fill="#218FB2" d="M152.898,100.339c-1.275,0-2.475-0.672-2.497-2.311h1.431c0.021,0.704,0.506,1.023,1.066,1.023
			c0.616,0,1.057-0.386,1.057-1.09c0-0.648-0.396-1.078-1.101-1.078h-0.209V95.64h0.209c0.693,0,0.99-0.429,0.99-0.979
			c0-0.66-0.439-1.002-0.957-1.002c-0.539,0-0.935,0.353-0.968,0.946h-1.431c0.033-1.397,1.078-2.233,2.398-2.233
			c1.387,0,2.388,0.925,2.388,2.244c0,0.848-0.385,1.332-0.902,1.606c0.562,0.297,1.012,0.836,1.012,1.782
			C155.385,99.569,154.241,100.339,152.898,100.339z"/>
		<path fill="#218FB2" d="M158.321,100.273v-1.287l2.926-3.399c0.286-0.341,0.407-0.583,0.407-0.946
			c0-0.583-0.341-0.979-0.946-0.979c-0.473,0-0.957,0.242-0.957,1.002h-1.43c0-1.431,1.045-2.289,2.387-2.289
			c1.387,0,2.377,0.869,2.377,2.277c0,0.76-0.297,1.166-0.837,1.794l-2.188,2.541h3.025v1.287L158.321,100.273L158.321,100.273z"/>
	</g>
	<g>
		<path fill="#218FB2" d="M198.403,43.155l-1.661,3.389h-1.552l1.629-3.234c-0.188,0.077-0.396,0.099-0.584,0.099
			c-1.056,0-2.067-0.869-2.067-2.321c0-1.54,1.056-2.442,2.442-2.442s2.441,0.869,2.441,2.421
			C199.052,41.78,198.755,42.44,198.403,43.155z M196.61,39.931c-0.584,0-1.013,0.418-1.013,1.145c0,0.693,0.407,1.145,1.013,1.145
			c0.583,0,1.012-0.418,1.012-1.145S197.193,39.931,196.61,39.931z"/>
		<path fill="#218FB2" d="M206.135,43.155l-1.661,3.389h-1.552l1.629-3.234c-0.188,0.077-0.396,0.099-0.584,0.099
			c-1.056,0-2.067-0.869-2.067-2.321c0-1.54,1.056-2.442,2.442-2.442s2.441,0.869,2.441,2.421
			C206.784,41.78,206.487,42.44,206.135,43.155z M204.343,39.931c-0.584,0-1.013,0.418-1.013,1.145c0,0.693,0.407,1.145,1.013,1.145
			c0.583,0,1.012-0.418,1.012-1.145S204.926,39.931,204.343,39.931z"/>
		<path fill="#218FB2" d="M213.812,45.971c-0.352,0.353-0.913,0.639-1.727,0.639c-0.814,0-1.408-0.286-1.749-0.628
			c-0.484-0.483-0.595-1.056-0.639-1.628h1.431c0.077,0.616,0.362,0.969,0.957,0.969c0.274,0,0.506-0.077,0.682-0.254
			c0.253-0.253,0.309-0.671,0.309-1.166c0-0.902-0.265-1.408-0.957-1.408c-0.584,0-0.848,0.33-0.946,0.639h-1.31v-4.423h4.467v1.287
			h-3.169v1.684c0.21-0.198,0.649-0.396,1.178-0.396c0.649,0,1.145,0.209,1.463,0.528c0.616,0.616,0.704,1.353,0.704,2.09
			C214.506,44.784,214.385,45.399,213.812,45.971z"/>
		<path fill="#218FB2" d="M224.075,46.61c-1.275,0-2.475-0.672-2.497-2.311h1.431c0.021,0.704,0.506,1.023,1.066,1.023
			c0.616,0,1.057-0.386,1.057-1.09c0-0.648-0.396-1.078-1.101-1.078h-0.209v-1.243h0.209c0.693,0,0.99-0.429,0.99-0.979
			c0-0.66-0.439-1.002-0.957-1.002c-0.539,0-0.935,0.353-0.968,0.946h-1.431c0.033-1.397,1.078-2.233,2.398-2.233
			c1.387,0,2.388,0.925,2.388,2.244c0,0.848-0.385,1.332-0.902,1.606c0.562,0.297,1.012,0.836,1.012,1.782
			C226.561,45.84,225.418,46.61,224.075,46.61z"/>
		<path fill="#218FB2" d="M231.807,46.61c-1.275,0-2.475-0.672-2.497-2.311h1.431c0.021,0.704,0.506,1.023,1.066,1.023
			c0.616,0,1.057-0.386,1.057-1.09c0-0.648-0.396-1.078-1.101-1.078h-0.209v-1.243h0.209c0.693,0,0.99-0.429,0.99-0.979
			c0-0.66-0.439-1.002-0.957-1.002c-0.539,0-0.935,0.353-0.968,0.946h-1.431c0.033-1.397,1.078-2.233,2.398-2.233
			c1.387,0,2.388,0.925,2.388,2.244c0,0.848-0.385,1.332-0.902,1.606c0.562,0.297,1.012,0.836,1.012,1.782
			C234.294,45.84,233.15,46.61,231.807,46.61z"/>
		<path fill="#218FB2" d="M237.23,46.544v-1.287l2.926-3.399c0.286-0.341,0.407-0.583,0.407-0.946c0-0.583-0.341-0.979-0.946-0.979
			c-0.473,0-0.957,0.242-0.957,1.002h-1.43c0-1.431,1.045-2.289,2.387-2.289c1.387,0,2.377,0.869,2.377,2.277
			c0,0.76-0.297,1.166-0.836,1.794l-2.189,2.541h3.025v1.287L237.23,46.544L237.23,46.544z"/>
	</g>
	<path fill="#D33C3D" d="M115.683,338.127h-1.979v3.871h-2.008v-10.286h3.987c2.123,0,3.394,1.459,3.394,3.207
		S117.807,338.127,115.683,338.127z M115.582,333.504h-1.878v2.817h1.878c0.91,0,1.487-0.564,1.487-1.401
		S116.492,333.504,115.582,333.504z"/>
	<path fill="#D33C3D" d="M129.596,340.958c-0.723,0.723-1.603,1.127-2.774,1.127s-2.066-0.405-2.788-1.127
		c-1.04-1.04-1.011-2.326-1.011-4.102c0-1.777-0.029-3.062,1.011-4.103c0.723-0.723,1.618-1.127,2.788-1.127
		s2.051,0.404,2.774,1.127c1.04,1.04,1.026,2.326,1.026,4.103C130.621,338.632,130.636,339.918,129.596,340.958z M128.108,333.966
		c-0.289-0.332-0.737-0.549-1.285-0.549s-1.011,0.217-1.3,0.549c-0.39,0.434-0.491,0.91-0.491,2.889
		c0,1.979,0.101,2.456,0.491,2.889c0.289,0.333,0.751,0.55,1.3,0.55s0.997-0.217,1.285-0.55c0.39-0.433,0.506-0.91,0.506-2.889
		C128.613,334.876,128.498,334.4,128.108,333.966z"/>
	<path fill="#D33C3D" d="M138.9,342.085c-2.109,0-3.784-1.43-3.784-3.612v-6.761h2.008v6.689c0,1.184,0.693,1.893,1.776,1.893
		s1.792-0.708,1.792-1.893v-6.689h1.993v6.761C142.685,340.655,141.01,342.085,138.9,342.085z"/>
	<path fill="#D33C3D" d="M152.987,341.998l-2.008-4.103h-1.444v4.103h-2.008v-10.286h4.03c2.095,0,3.337,1.43,3.337,3.149
		c0,1.444-0.881,2.341-1.878,2.702l2.297,4.435H152.987z M151.427,333.504h-1.892v2.716h1.892c0.881,0,1.459-0.564,1.459-1.358
		S152.309,333.504,151.427,333.504z"/>
	<path fill="#D33C3D" d="M167.912,341.998v-8.263l-2.094,1.82v-2.023l2.094-1.82h1.878v10.286H167.912z"/>
	<path fill="#D33C3D" d="M178.705,342.085c-1.675,0-3.134-1.098-3.134-3.062v-4.334c0-1.965,1.459-3.062,3.134-3.062
		c1.676,0,3.12,1.098,3.12,3.062v4.334C181.825,340.986,180.381,342.085,178.705,342.085z M179.947,334.718
		c0-0.867-0.506-1.401-1.242-1.401c-0.737,0-1.256,0.534-1.256,1.401v4.29c0,0.867,0.52,1.387,1.256,1.387
		c0.737,0,1.242-0.521,1.242-1.387V334.718z"/>
	<path fill="#D33C3D" d="M195.104,342.085c-1.675,0-3.134-1.098-3.134-3.062v-4.334c0-1.965,1.459-3.062,3.134-3.062
		c1.676,0,3.12,1.098,3.12,3.062v4.334C198.224,340.986,196.78,342.085,195.104,342.085z M196.346,334.718
		c0-0.867-0.506-1.401-1.242-1.401s-1.256,0.534-1.256,1.401v4.29c0,0.867,0.52,1.387,1.256,1.387s1.242-0.521,1.242-1.387V334.718z
		"/>
	<path fill="#D33C3D" d="M205.55,342.085c-1.675,0-3.134-1.098-3.134-3.062v-4.334c0-1.965,1.459-3.062,3.134-3.062
		c1.676,0,3.12,1.098,3.12,3.062v4.334C208.67,340.986,207.226,342.085,205.55,342.085z M206.792,334.718
		c0-0.867-0.506-1.401-1.242-1.401s-1.256,0.534-1.256,1.401v4.29c0,0.867,0.52,1.387,1.256,1.387s1.242-0.521,1.242-1.387V334.718z
		"/>
	<path fill="#D33C3D" d="M215.996,342.085c-1.675,0-3.134-1.098-3.134-3.062v-4.334c0-1.965,1.459-3.062,3.134-3.062
		c1.676,0,3.12,1.098,3.12,3.062v4.334C219.116,340.986,217.672,342.085,215.996,342.085z M217.238,334.718
		c0-0.867-0.506-1.401-1.242-1.401s-1.256,0.534-1.256,1.401v4.29c0,0.867,0.52,1.387,1.256,1.387s1.242-0.521,1.242-1.387V334.718z
		"/>
	<path fill="#D33C3D" d="M235.154,341.998v-4.305h-3.481v4.305h-2.008v-10.286h2.008v4.204h3.481v-4.204h2.008v10.286H235.154z"/>
	<path fill="#D33C3D" d="M248.012,341.998l-0.607-1.82h-3.655l-0.621,1.82h-2.095l3.742-10.286h1.574l3.756,10.286H248.012z
		 M245.614,334.746l-1.3,3.741h2.557L245.614,334.746z"/>
	<path fill="#D33C3D" d="M258.285,341.998h-4.305v-10.286h4.131c2.008,0,3.178,1.127,3.178,2.889c0,1.141-0.751,1.878-1.271,2.124
		c0.622,0.289,1.415,0.939,1.415,2.311C261.434,340.958,260.119,341.998,258.285,341.998z M257.952,333.504h-1.964v2.369h1.964
		c0.853,0,1.329-0.477,1.329-1.184C259.281,333.981,258.805,333.504,257.952,333.504z M258.082,337.679h-2.094v2.528h2.094
		c0.91,0,1.343-0.578,1.343-1.271C259.426,338.242,258.993,337.679,258.082,337.679z"/>
	<path fill="#218FB2" d="M121.613,365.263c-1.049,0-1.932-0.359-2.65-1.077c-0.428-0.428-0.69-0.924-0.8-1.476
		c-0.11-0.552-0.165-1.366-0.165-2.443c0-1.077,0.055-1.891,0.165-2.443c0.111-0.565,0.372-1.048,0.8-1.476
		c0.718-0.718,1.601-1.076,2.65-1.076c1.891,0,3.285,1.104,3.616,3.105h-1.946c-0.207-0.842-0.731-1.394-1.656-1.394
		c-0.524,0-0.939,0.165-1.228,0.511c-0.401,0.428-0.483,0.869-0.483,2.774c0,1.904,0.082,2.346,0.483,2.774
		c0.289,0.345,0.704,0.511,1.228,0.511c0.924,0,1.449-0.553,1.656-1.394h1.946C124.898,364.158,123.49,365.263,121.613,365.263z"/>
	<path fill="#218FB2" d="M134.615,365.097v-4.112h-3.326v4.112h-1.918v-9.826h1.918v4.016h3.326v-4.016h1.918v9.826H134.615z"/>
	<path fill="#218FB2" d="M141.31,365.097v-9.826h1.918v9.826H141.31z"/>
	<path fill="#218FB2" d="M149.922,356.983v2.415h3.878v1.711h-3.878v3.988h-1.918v-9.826h6.472v1.712H149.922z"/>
	<path fill="#218FB2" d="M160.55,356.983v2.415h3.878v1.711h-3.878v3.988h-1.918v-9.826h6.472v1.712H160.55z"/>
	<path fill="#218FB2" d="M174.476,365.097l-1.918-3.919h-1.38v3.919h-1.918v-9.826h3.85c2.001,0,3.188,1.366,3.188,3.009
		c0,1.38-0.842,2.236-1.794,2.581l2.194,4.237H174.476z M172.985,356.983h-1.808v2.594h1.808c0.842,0,1.394-0.538,1.394-1.298
		C174.379,357.521,173.827,356.983,172.985,356.983z"/>
	<path fill="#218FB2" d="M180.77,365.097v-9.826h6.472v1.712h-4.554v2.304h3.878v1.711h-3.878v2.388h4.554v1.711H180.77z"/>
	<path fill="#218FB2" d="M208.761,365.097h-4.112v-9.826h3.946c1.918,0,3.036,1.077,3.036,2.76c0,1.09-0.718,1.794-1.215,2.029
		c0.593,0.276,1.352,0.897,1.352,2.208C211.769,364.104,210.513,365.097,208.761,365.097z M208.443,356.983h-1.876v2.263h1.876
		c0.814,0,1.27-0.455,1.27-1.132S209.258,356.983,208.443,356.983z M208.567,360.972h-2.001v2.415h2.001
		c0.87,0,1.283-0.552,1.283-1.215S209.437,360.972,208.567,360.972z"/>
	<path fill="#218FB2" d="M221.431,365.097l-1.918-3.919h-1.38v3.919h-1.918v-9.826h3.85c2.001,0,3.188,1.366,3.188,3.009
		c0,1.38-0.842,2.236-1.794,2.581l2.194,4.237H221.431z M219.941,356.983h-1.808v2.594h1.808c0.842,0,1.394-0.538,1.394-1.298
		C221.335,357.521,220.783,356.983,219.941,356.983z"/>
	<path fill="#218FB2" d="M231.189,365.18c-2.015,0-3.615-1.366-3.615-3.451v-6.458h1.918v6.39c0,1.132,0.662,1.808,1.697,1.808
		s1.712-0.677,1.712-1.808v-6.39h1.904v6.458C234.805,363.814,233.204,365.18,231.189,365.18z"/>
	<path fill="#218FB2" d="M243.184,356.983v8.114h-1.918v-8.114h-2.567v-1.712h7.052v1.712H243.184z"/>
	<path fill="#218FB2" d="M251.648,365.15c-1.473,0-2.592-0.314-3.547-1.283l1.228-1.228c0.614,0.614,1.446,0.818,2.347,0.818
		c1.119,0,1.719-0.423,1.719-1.201c0-0.341-0.095-0.628-0.3-0.818c-0.191-0.177-0.409-0.273-0.86-0.341l-1.173-0.163
		c-0.832-0.123-1.446-0.382-1.883-0.805c-0.464-0.464-0.696-1.091-0.696-1.91c0-1.733,1.283-2.947,3.384-2.947
		c1.337,0,2.306,0.327,3.138,1.132l-1.201,1.187c-0.614-0.587-1.351-0.669-1.992-0.669c-1.01,0-1.501,0.559-1.501,1.228
		c0,0.245,0.082,0.505,0.286,0.696c0.191,0.177,0.505,0.327,0.9,0.382l1.146,0.164c0.887,0.123,1.446,0.368,1.856,0.75
		c0.519,0.491,0.75,1.201,0.75,2.06C255.25,364.085,253.681,365.15,251.648,365.15z"/>
	<path fill="#218FB2" d="M193.402,365.15c-1.473,0-2.592-0.314-3.547-1.283l1.228-1.228c0.614,0.614,1.446,0.818,2.347,0.818
		c1.119,0,1.719-0.423,1.719-1.201c0-0.341-0.095-0.628-0.3-0.818c-0.191-0.177-0.409-0.273-0.86-0.341l-1.173-0.163
		c-0.832-0.123-1.446-0.382-1.883-0.805c-0.464-0.464-0.696-1.091-0.696-1.91c0-1.733,1.283-2.947,3.384-2.947
		c1.337,0,2.306,0.327,3.138,1.132l-1.201,1.187c-0.614-0.587-1.351-0.669-1.992-0.669c-1.01,0-1.501,0.559-1.501,1.228
		c0,0.245,0.082,0.505,0.286,0.696c0.191,0.177,0.505,0.327,0.9,0.382l1.146,0.164c0.887,0.123,1.446,0.368,1.856,0.75
		c0.519,0.491,0.75,1.201,0.75,2.06C197.004,364.085,195.435,365.15,193.402,365.15z"/>
</g>
</svg>
