<?xml version="1.0" encoding="UTF-8" standalone="no"?>
<!-- Created with Inkscape (http://www.inkscape.org/) -->

<svg
   xmlns:dc="http://purl.org/dc/elements/1.1/"
   xmlns:cc="http://creativecommons.org/ns#"
   xmlns:rdf="http://www.w3.org/1999/02/22-rdf-syntax-ns#"
   xmlns:svg="http://www.w3.org/2000/svg"
   xmlns="http://www.w3.org/2000/svg"
   version="1.1"
   width="332.28"
   height="365.37201"
   viewBox="0 0 332.27999 365.37201"
   id="svg2"
   xml:space="preserve"><metadata
   id="metadata242"><rdf:RDF><cc:Work
       rdf:about=""><dc:format>image/svg+xml</dc:format><dc:type
         rdf:resource="http://purl.org/dc/dcmitype/StillImage" /><dc:title></dc:title></cc:Work></rdf:RDF></metadata><defs
   id="defs240" />
<g
   transform="translate(-38.868004,-7.148)"
   id="Calque_1">
	<g
   id="g5">
		<g
   id="g7">
			<path
   d="m 128.201,345.56 h -1.891 v 3.698 h -1.918 v -9.826 h 3.809 c 2.028,0 3.243,1.394 3.243,3.064 0,1.67 -1.214,3.064 -3.243,3.064 z m -0.096,-4.416 h -1.794 v 2.691 h 1.794 c 0.869,0 1.421,-0.538 1.421,-1.339 0,-0.8 -0.552,-1.352 -1.421,-1.352 z"
   id="path9"
   style="fill:#d33c3d" />
			<path
   d="m 141.492,348.265 c -0.69,0.69 -1.532,1.077 -2.65,1.077 -1.118,0 -1.974,-0.387 -2.664,-1.077 -0.993,-0.993 -0.966,-2.222 -0.966,-3.919 0,-1.698 -0.028,-2.926 0.966,-3.919 0.69,-0.69 1.546,-1.076 2.664,-1.076 1.118,0 1.959,0.386 2.65,1.076 0.994,0.994 0.98,2.222 0.98,3.919 0,1.697 0.014,2.925 -0.98,3.919 z m -1.421,-6.679 c -0.276,-0.317 -0.704,-0.524 -1.228,-0.524 -0.524,0 -0.966,0.207 -1.242,0.524 -0.372,0.414 -0.469,0.87 -0.469,2.76 0,1.891 0.096,2.346 0.469,2.76 0.276,0.318 0.718,0.525 1.242,0.525 0.524,0 0.952,-0.207 1.228,-0.525 0.372,-0.414 0.483,-0.869 0.483,-2.76 0,-1.891 -0.111,-2.346 -0.483,-2.76 z"
   id="path11"
   style="fill:#d33c3d" />
			<path
   d="m 150.381,349.342 c -2.015,0 -3.615,-1.366 -3.615,-3.451 v -6.458 h 1.918 v 6.39 c 0,1.132 0.662,1.808 1.697,1.808 1.035,0 1.712,-0.677 1.712,-1.808 v -6.39 h 1.904 v 6.458 c 0,2.084 -1.6,3.451 -3.616,3.451 z"
   id="path13"
   style="fill:#d33c3d" />
			<path
   d="m 163.839,349.259 -1.918,-3.919 h -1.38 v 3.919 h -1.918 v -9.826 h 3.85 c 2.001,0 3.188,1.366 3.188,3.009 0,1.38 -0.842,2.236 -1.794,2.581 l 2.194,4.237 h -2.222 z m -1.491,-8.115 h -1.808 v 2.594 h 1.808 c 0.842,0 1.394,-0.538 1.394,-1.298 0,-0.76 -0.552,-1.296 -1.394,-1.296 z"
   id="path15"
   style="fill:#d33c3d" />
			<path
   d="m 178.097,349.259 v -7.894 l -2.001,1.739 v -1.932 l 2.001,-1.739 h 1.794 v 9.826 h -1.794 z"
   id="path17"
   style="fill:#d33c3d" />
			<path
   d="m 188.407,349.342 c -1.6,0 -2.994,-1.049 -2.994,-2.926 v -4.14 c 0,-1.877 1.394,-2.926 2.994,-2.926 1.601,0 2.981,1.049 2.981,2.926 v 4.14 c 0,1.876 -1.38,2.926 -2.981,2.926 z m 1.187,-7.039 c 0,-0.829 -0.483,-1.339 -1.187,-1.339 -0.704,0 -1.2,0.51 -1.2,1.339 v 4.098 c 0,0.828 0.497,1.325 1.2,1.325 0.703,0 1.187,-0.497 1.187,-1.325 v -4.098 z"
   id="path19"
   style="fill:#d33c3d" />
			<path
   d="m 204.074,349.342 c -1.6,0 -2.994,-1.049 -2.994,-2.926 v -4.14 c 0,-1.877 1.394,-2.926 2.994,-2.926 1.601,0 2.981,1.049 2.981,2.926 v 4.14 c 0,1.876 -1.38,2.926 -2.981,2.926 z m 1.187,-7.039 c 0,-0.829 -0.483,-1.339 -1.187,-1.339 -0.704,0 -1.2,0.51 -1.2,1.339 v 4.098 c 0,0.828 0.497,1.325 1.2,1.325 0.703,0 1.187,-0.497 1.187,-1.325 v -4.098 z"
   id="path21"
   style="fill:#d33c3d" />
			<path
   d="m 214.053,349.342 c -1.6,0 -2.994,-1.049 -2.994,-2.926 v -4.14 c 0,-1.877 1.394,-2.926 2.994,-2.926 1.601,0 2.981,1.049 2.981,2.926 v 4.14 c 0,1.876 -1.38,2.926 -2.981,2.926 z m 1.187,-7.039 c 0,-0.829 -0.483,-1.339 -1.187,-1.339 -0.704,0 -1.2,0.51 -1.2,1.339 v 4.098 c 0,0.828 0.497,1.325 1.2,1.325 0.704,0 1.187,-0.497 1.187,-1.325 v -4.098 z"
   id="path23"
   style="fill:#d33c3d" />
			<path
   d="m 224.032,349.342 c -1.6,0 -2.994,-1.049 -2.994,-2.926 v -4.14 c 0,-1.877 1.394,-2.926 2.994,-2.926 1.601,0 2.981,1.049 2.981,2.926 v 4.14 c 0,1.876 -1.38,2.926 -2.981,2.926 z m 1.187,-7.039 c 0,-0.829 -0.483,-1.339 -1.187,-1.339 -0.704,0 -1.2,0.51 -1.2,1.339 v 4.098 c 0,0.828 0.497,1.325 1.2,1.325 0.703,0 1.187,-0.497 1.187,-1.325 v -4.098 z"
   id="path25"
   style="fill:#d33c3d" />
			<path
   d="m 242.334,349.259 v -4.112 h -3.326 v 4.112 h -1.918 v -9.826 h 1.918 v 4.016 h 3.326 v -4.016 h 1.918 v 9.826 h -1.918 z"
   id="path27"
   style="fill:#d33c3d" />
			<path
   d="m 254.618,349.259 -0.58,-1.739 h -3.492 l -0.593,1.739 h -2.001 l 3.575,-9.826 h 1.504 l 3.588,9.826 h -2.001 z m -2.291,-6.928 -1.242,3.574 h 2.443 l -1.201,-3.574 z"
   id="path29"
   style="fill:#d33c3d" />
			<path
   d="m 264.432,349.259 h -4.112 v -9.826 h 3.946 c 1.918,0 3.036,1.077 3.036,2.76 0,1.09 -0.718,1.794 -1.215,2.029 0.594,0.276 1.352,0.897 1.352,2.208 10e-4,1.835 -1.255,2.829 -3.007,2.829 z m -0.318,-8.115 h -1.876 v 2.263 h 1.876 c 0.814,0 1.27,-0.455 1.27,-1.132 0,-0.675 -0.456,-1.131 -1.27,-1.131 z m 0.124,3.989 h -2.001 v 2.415 h 2.001 c 0.87,0 1.283,-0.552 1.283,-1.215 10e-4,-0.663 -0.413,-1.2 -1.283,-1.2 z"
   id="path31"
   style="fill:#d33c3d" />
			<path
   d="m 139.243,372.52 c -1.049,0 -1.932,-0.359 -2.65,-1.077 -0.428,-0.428 -0.69,-0.924 -0.8,-1.476 -0.11,-0.552 -0.165,-1.366 -0.165,-2.443 0,-1.077 0.055,-1.891 0.165,-2.443 0.111,-0.565 0.372,-1.049 0.8,-1.476 0.718,-0.718 1.601,-1.076 2.65,-1.076 1.891,0 3.285,1.104 3.616,3.105 h -1.946 c -0.207,-0.842 -0.731,-1.394 -1.656,-1.394 -0.524,0 -0.939,0.165 -1.228,0.511 -0.401,0.428 -0.483,0.869 -0.483,2.774 0,1.904 0.082,2.346 0.483,2.774 0.289,0.345 0.704,0.511 1.228,0.511 0.924,0 1.449,-0.553 1.656,-1.394 h 1.946 c -0.332,1.999 -1.739,3.104 -3.616,3.104 z"
   id="path33"
   style="fill:#218fb2" />
			<path
   d="m 152.245,372.437 v -4.112 h -3.326 v 4.112 h -1.918 v -9.826 h 1.918 v 4.016 h 3.326 v -4.016 h 1.918 v 9.826 h -1.918 z"
   id="path35"
   style="fill:#218fb2" />
			<path
   d="m 158.94,372.437 v -9.826 h 1.918 v 9.826 h -1.918 z"
   id="path37"
   style="fill:#218fb2" />
			<path
   d="m 167.552,364.322 v 2.415 h 3.878 v 1.711 h -3.878 v 3.988 h -1.918 v -9.826 h 6.472 v 1.712 h -4.554 z"
   id="path39"
   style="fill:#218fb2" />
			<path
   d="m 178.18,364.322 v 2.415 h 3.878 v 1.711 h -3.878 v 3.988 h -1.918 v -9.826 h 6.472 v 1.712 h -4.554 z"
   id="path41"
   style="fill:#218fb2" />
			<path
   d="m 192.105,372.437 -1.918,-3.919 h -1.38 v 3.919 h -1.918 v -9.826 h 3.85 c 2.001,0 3.188,1.366 3.188,3.009 0,1.38 -0.842,2.236 -1.794,2.581 l 2.194,4.237 h -2.222 z m -1.49,-8.115 h -1.808 v 2.594 h 1.808 c 0.842,0 1.394,-0.538 1.394,-1.298 0,-0.758 -0.552,-1.296 -1.394,-1.296 z"
   id="path43"
   style="fill:#218fb2" />
			<path
   d="m 198.4,372.437 v -9.826 h 6.472 v 1.712 h -4.554 v 2.304 h 3.878 v 1.711 h -3.878 v 2.388 h 4.554 v 1.711 H 198.4 z"
   id="path45"
   style="fill:#218fb2" />
			<path
   d="m 219.035,372.437 h -4.112 v -9.826 h 3.946 c 1.918,0 3.036,1.077 3.036,2.76 0,1.09 -0.718,1.794 -1.215,2.029 0.593,0.276 1.352,0.897 1.352,2.208 0,1.835 -1.255,2.829 -3.007,2.829 z m -0.318,-8.115 h -1.876 v 2.263 h 1.876 c 0.814,0 1.27,-0.455 1.27,-1.132 0,-0.675 -0.456,-1.131 -1.27,-1.131 z m 0.124,3.989 h -2.001 v 2.415 h 2.001 c 0.87,0 1.283,-0.552 1.283,-1.215 0,-0.663 -0.413,-1.2 -1.283,-1.2 z"
   id="path47"
   style="fill:#218fb2" />
			<path
   d="m 231.705,372.437 -1.918,-3.919 h -1.38 v 3.919 h -1.918 v -9.826 h 3.85 c 2.001,0 3.188,1.366 3.188,3.009 0,1.38 -0.842,2.236 -1.794,2.581 l 2.194,4.237 h -2.222 z m -1.491,-8.115 h -1.808 v 2.594 h 1.808 c 0.842,0 1.394,-0.538 1.394,-1.298 0,-0.758 -0.552,-1.296 -1.394,-1.296 z"
   id="path49"
   style="fill:#218fb2" />
			<path
   d="m 241.463,372.52 c -2.015,0 -3.615,-1.366 -3.615,-3.451 v -6.458 h 1.918 V 369 c 0,1.132 0.662,1.808 1.697,1.808 1.035,0 1.712,-0.677 1.712,-1.808 v -6.39 h 1.904 v 6.458 c -0.001,2.085 -1.601,3.452 -3.616,3.452 z"
   id="path51"
   style="fill:#218fb2" />
			<path
   d="m 253.457,364.322 v 8.114 h -1.918 v -8.114 h -2.567 v -1.712 h 7.052 v 1.712 h -2.567 z"
   id="path53"
   style="fill:#218fb2" />
		</g>
		<path
   d="M 296.822,299.445 55.478,223.976 48.403,161.216 c 0,0 -0.655,-2.358 3.276,-3.014 l 57.65,-11.137 -0.917,-15.33 c 0,0 -0.262,-2.751 3.8,-3.145 l 54.636,-7.73 75.6,4.455 c 0,0 3.276,-0.262 3.538,4.455 l -1.834,52.016 c 0,0 1.441,1.703 2.62,1.703 l 89.75,14.281 c 0,0 2.096,-0.393 1.965,4.717 l -5.372,51.754 -36.293,45.204 z"
   id="path55"
   style="fill:#218fb2" />
		<path
   d="m 145.371,184.871 0.214,-29.654 c 0,0 -1.508,1.418 -2.885,1.937 -1.837,0.705 -3.96,0.994 -3.96,0.994 l 0.036,-5.007 c 0,0 2.999,-0.526 5.049,-2.026 1.758,-1.293 3.482,-3.892 3.482,-3.892 l 3.368,0.384 -0.273,37.837 -5.031,-0.573 z"
   id="path57"
   style="fill:#d7d6d1" />
		<g
   id="g59">
			<path
   d="m 245.183,270.022 c -3.578,-0.239 -7.056,-1.462 -9.987,-4.036 l 2.452,-4.047 c 2.645,2.208 5.061,3.113 7.831,3.298 3.77,0.252 6.628,-2.233 6.869,-6.131 0.235,-3.799 -1.468,-6.242 -6.084,-6.55 l -2.924,-0.195 0.302,-4.885 2.962,0.198 c 3.385,0.226 5.56,-2.453 5.795,-6.253 0.309,-4.984 -2.755,-6.03 -5.179,-6.192 -1.846,-0.123 -4.755,1.317 -6.151,3.899 l -2.657,-3.249 c 2.698,-4.279 6.078,-5.837 9.925,-5.58 7.001,0.468 8.952,6.395 8.671,10.935 -0.324,5.23 -2.955,8.424 -4.779,8.55 2.097,0.438 5.086,3.957 4.737,9.582 -0.432,7.005 -4.704,11.129 -11.783,10.656 z"
   id="path61"
   style="fill:#d7d6d1" />
		</g>
		<g
   id="g63">
			<path
   d="m 66.359,207.966 10.894,-9.079 c 0.908,-0.841 4.874,-3.934 5.071,-6.941 0.238,-3.643 -1.965,-5.266 -4.619,-5.964 -3.422,-0.9 -5.349,0.86 -5.518,3.442 l -0.079,1.203 -3.876,-1.019 0.083,-1.273 c 0.289,-4.421 4.07,-7.384 9.552,-5.943 4.959,1.304 9.12,4.486 8.732,10.427 -0.277,4.244 -4.316,7.355 -4.991,7.897 l -6.796,5.624 11.698,3.077 -0.247,3.785 -19.904,-5.236 z"
   id="path65"
   style="fill:#d7d6d1" />
		</g>
		<path
   d="m 195.41,207.075 c 0,0 105.735,23.584 106.521,23.191 l 35.376,-32.232 -90.537,-14.543 -51.36,23.584 z"
   id="path67"
   style="fill:#106377" />
		<path
   d="m 193.248,203.34 51.295,-22.208 1.572,-53.064 c 0,0 -0.393,-2.555 -1.965,-2.162 0,0 -51.295,15.133 -50.706,15.133 0.59,0 -0.196,62.301 -0.196,62.301 z"
   id="path69"
   style="fill:#106377" />
		<polygon
   points="109.328,147.066 50.892,158.989 110.639,170.519 "
   id="polygon71"
   style="fill:#106377" />
		<line
   stroke-miterlimit="10"
   x1="186.565"
   y1="115.833"
   x2="186.565"
   y2="20.233"
   id="line73"
   style="fill:#ffffff;stroke:#106377;stroke-miterlimit:10" />
		
			<line
   stroke-miterlimit="10"
   x1="96.661003"
   y1="141.96001"
   x2="96.661003"
   y2="73.675003"
   id="line75"
   style="fill:#ffffff;stroke:#106377;stroke-miterlimit:10;stroke-dasharray:3" />
		<g
   id="g77">
			<line
   x1="276.922"
   y1="182.724"
   x2="276.922"
   y2="110.68"
   id="line79"
   style="fill:#ffffff" />
			<g
   id="g81">
				<line
   stroke-miterlimit="10"
   x1="276.922"
   y1="182.724"
   x2="276.922"
   y2="181.224"
   id="line83"
   style="fill:none;stroke:#106377;stroke-miterlimit:10" />
				
					<line
   stroke-miterlimit="10"
   x1="276.922"
   y1="178.222"
   x2="276.922"
   y2="113.681"
   id="line85"
   style="fill:none;stroke:#106377;stroke-miterlimit:10;stroke-dasharray:3.0019, 3.0019" />
				<line
   stroke-miterlimit="10"
   x1="276.922"
   y1="112.18"
   x2="276.922"
   y2="110.68"
   id="line87"
   style="fill:none;stroke:#106377;stroke-miterlimit:10" />
			</g>
		</g>
		<g
   id="g89">
			<path
   d="m 41.905,66.692 h -1.508 v 2.948 h -1.529 v -7.833 h 3.037 c 1.617,0 2.585,1.111 2.585,2.442 0,1.332 -0.968,2.443 -2.585,2.443 z m -0.077,-3.52 h -1.431 v 2.146 h 1.431 c 0.692,0 1.133,-0.43 1.133,-1.067 0,-0.64 -0.441,-1.079 -1.133,-1.079 z"
   id="path91"
   style="fill:#106377" />
			<path
   d="m 51.441,69.64 -0.462,-1.386 h -2.783 l -0.473,1.386 h -1.596 l 2.85,-7.833 h 1.199 l 2.86,7.833 h -1.595 z m -1.826,-5.522 -0.99,2.849 h 1.947 l -0.957,-2.849 z"
   id="path93"
   style="fill:#106377" />
			<path
   d="m 58.372,66.427 v 3.213 h -1.519 v -3.213 l -2.354,-4.62 h 1.661 l 1.463,3.157 1.441,-3.157 h 1.661 l -2.353,4.62 z"
   id="path95"
   style="fill:#106377" />
			<path
   d="m 65.588,69.707 c -1.188,0 -2.091,-0.254 -2.86,-1.034 l 0.99,-0.99 c 0.495,0.495 1.166,0.66 1.892,0.66 0.902,0 1.387,-0.342 1.387,-0.969 0,-0.274 -0.077,-0.506 -0.242,-0.66 -0.154,-0.143 -0.33,-0.22 -0.693,-0.274 l -0.946,-0.132 c -0.671,-0.1 -1.166,-0.309 -1.518,-0.649 -0.374,-0.374 -0.562,-0.88 -0.562,-1.54 0,-1.397 1.034,-2.377 2.729,-2.377 1.078,0 1.859,0.265 2.53,0.913 l -0.968,0.957 c -0.495,-0.473 -1.089,-0.539 -1.606,-0.539 -0.814,0 -1.21,0.451 -1.21,0.99 0,0.198 0.065,0.407 0.23,0.562 0.154,0.143 0.407,0.264 0.727,0.308 l 0.924,0.132 c 0.716,0.1 1.166,0.298 1.496,0.605 0.418,0.396 0.605,0.968 0.605,1.661 -10e-4,1.517 -1.267,2.376 -2.905,2.376 z"
   id="path97"
   style="fill:#106377" />
			<path
   d="m 80.899,68.892 c -0.517,0.517 -1.254,0.748 -2.067,0.748 h -2.828 v -7.833 h 2.828 c 0.813,0 1.551,0.23 2.067,0.748 0.881,0.88 0.793,1.958 0.793,3.136 0,1.177 0.088,2.321 -0.793,3.201 z m -1.066,-5.237 c -0.265,-0.318 -0.616,-0.483 -1.145,-0.483 h -1.155 v 5.104 h 1.155 c 0.528,0 0.88,-0.165 1.145,-0.484 0.286,-0.352 0.33,-0.913 0.33,-2.101 0,-1.188 -0.044,-1.683 -0.33,-2.036 z"
   id="path99"
   style="fill:#106377" />
			<path
   d="m 85.013,69.64 v -7.833 h 5.159 v 1.364 h -3.63 v 1.837 h 3.091 v 1.364 h -3.091 v 1.903 h 3.63 v 1.364 h -5.159 z"
   id="path101"
   style="fill:#106377" />
			<path
   d="m 97.74,69.64 v -7.833 h 1.529 v 6.469 h 3.554 V 69.64 H 97.74 z"
   id="path103"
   style="fill:#106377" />
			<path
   d="m 110.28,69.64 -0.462,-1.386 h -2.783 l -0.473,1.386 h -1.596 l 2.85,-7.833 h 1.199 l 2.86,7.833 h -1.595 z m -1.826,-5.522 -0.99,2.849 h 1.947 l -0.957,-2.849 z"
   id="path105"
   style="fill:#106377" />
			<path
   d="m 118.915,69.64 v -7.833 h 1.529 v 6.469 h 3.554 v 1.364 h -5.083 z"
   id="path107"
   style="fill:#106377" />
			<path
   d="m 131.456,68.848 c -0.551,0.55 -1.222,0.858 -2.112,0.858 -0.892,0 -1.573,-0.309 -2.123,-0.858 -0.793,-0.792 -0.771,-1.771 -0.771,-3.125 0,-1.353 -0.022,-2.332 0.771,-3.124 0.55,-0.55 1.231,-0.858 2.123,-0.858 0.891,0 1.562,0.309 2.112,0.858 0.792,0.792 0.781,1.771 0.781,3.124 0,1.354 0.011,2.333 -0.781,3.125 z m -1.134,-5.325 c -0.22,-0.253 -0.561,-0.418 -0.979,-0.418 -0.418,0 -0.771,0.165 -0.99,0.418 -0.297,0.33 -0.374,0.693 -0.374,2.2 0,1.508 0.077,1.871 0.374,2.201 0.22,0.253 0.572,0.418 0.99,0.418 0.418,0 0.759,-0.165 0.979,-0.418 0.298,-0.33 0.386,-0.693 0.386,-2.201 0,-1.507 -0.088,-1.87 -0.386,-2.2 z"
   id="path109"
   style="fill:#106377" />
			<path
   d="m 135.557,69.64 v -7.833 h 1.529 v 7.833 h -1.529 z"
   id="path111"
   style="fill:#106377" />
			<path
   d="m 144.832,69.64 -1.529,-3.124 h -1.101 v 3.124 h -1.529 v -7.833 h 3.069 c 1.596,0 2.542,1.089 2.542,2.398 0,1.1 -0.671,1.782 -1.431,2.057 l 1.749,3.378 h -1.77 z m -1.189,-6.468 h -1.441 v 2.068 h 1.441 c 0.671,0 1.111,-0.43 1.111,-1.034 0.001,-0.606 -0.44,-1.034 -1.111,-1.034 z"
   id="path113"
   style="fill:#106377" />
			<path
   d="m 149.627,69.64 v -7.833 h 5.159 v 1.364 h -3.63 v 1.837 h 3.091 v 1.364 h -3.091 v 1.903 h 3.63 v 1.364 h -5.159 z"
   id="path115"
   style="fill:#106377" />
		</g>
		<g
   id="g117">
			<path
   d="m 157.047,15.047 h -3.278 V 7.214 h 3.146 c 1.529,0 2.42,0.858 2.42,2.2 0,0.869 -0.572,1.431 -0.968,1.617 0.473,0.22 1.078,0.715 1.078,1.761 0,1.463 -1.001,2.255 -2.398,2.255 z m -0.253,-6.469 h -1.496 v 1.804 h 1.496 c 0.649,0 1.012,-0.362 1.012,-0.901 0,-0.539 -0.363,-0.903 -1.012,-0.903 z m 0.098,3.179 h -1.595 v 1.925 h 1.595 c 0.693,0 1.023,-0.44 1.023,-0.968 0.001,-0.528 -0.329,-0.957 -1.023,-0.957 z"
   id="path119"
   style="fill:#106377" />
			<path
   d="m 166.925,15.047 -1.529,-3.124 h -1.101 v 3.124 h -1.529 V 7.214 h 3.069 c 1.596,0 2.542,1.089 2.542,2.398 0,1.1 -0.671,1.782 -1.431,2.057 l 1.749,3.378 h -1.77 z m -1.189,-6.469 h -1.441 v 2.068 h 1.441 c 0.671,0 1.111,-0.43 1.111,-1.034 0,-0.605 -0.44,-1.034 -1.111,-1.034 z"
   id="path121"
   style="fill:#106377" />
			<path
   d="M 171.719,15.047 V 7.214 h 5.16 v 1.364 h -3.631 v 1.837 h 3.092 v 1.364 h -3.092 v 1.903 h 3.631 v 1.364 h -5.16 z"
   id="path123"
   style="fill:#106377" />
			<path
   d="m 183.127,8.578 v 6.469 h -1.529 V 8.578 h -2.046 V 7.214 h 5.621 v 1.364 h -2.046 z"
   id="path125"
   style="fill:#106377" />
			<path
   d="m 191.97,15.047 -0.462,-1.386 h -2.783 l -0.473,1.386 h -1.596 l 2.85,-7.833 h 1.199 l 2.86,7.833 h -1.595 z m -1.826,-5.523 -0.99,2.849 h 1.947 l -0.957,-2.849 z"
   id="path127"
   style="fill:#106377" />
			<path
   d="m 201.012,14.221 c -0.604,0.616 -1.331,0.892 -2.211,0.892 -0.836,0 -1.54,-0.286 -2.112,-0.858 -0.341,-0.341 -0.55,-0.737 -0.638,-1.178 -0.089,-0.439 -0.133,-1.089 -0.133,-1.947 0,-0.857 0.044,-1.507 0.133,-1.947 0.088,-0.45 0.297,-0.836 0.638,-1.177 0.572,-0.572 1.276,-0.858 2.112,-0.858 1.782,0 2.739,1.145 2.948,2.509 h -1.54 c -0.188,-0.759 -0.649,-1.145 -1.408,-1.145 -0.407,0 -0.737,0.144 -0.979,0.418 -0.286,0.363 -0.374,0.649 -0.374,2.2 0,1.541 0.066,1.849 0.374,2.212 0.231,0.274 0.562,0.407 0.979,0.407 0.451,0 0.814,-0.144 1.089,-0.44 0.231,-0.264 0.353,-0.616 0.353,-1.045 v -0.297 h -1.441 V 10.69 h 2.959 v 1.144 c -0.001,1.144 -0.209,1.815 -0.749,2.387 z"
   id="path129"
   style="fill:#106377" />
			<path
   d="m 209.582,15.047 -3.103,-4.808 v 4.808 H 204.95 V 7.214 h 1.364 l 3.103,4.797 V 7.214 h 1.529 v 7.833 h -1.364 z"
   id="path131"
   style="fill:#106377" />
			<path
   d="M 214.531,15.047 V 7.214 h 5.159 v 1.364 h -3.63 v 1.837 h 3.091 v 1.364 h -3.091 v 1.903 h 3.63 v 1.364 h -5.159 z"
   id="path133"
   style="fill:#106377" />
		</g>
		<g
   id="g135">
			<path
   d="m 237.07,106.474 -1.529,-3.124 h -1.1 v 3.124 h -1.529 v -7.833 h 3.069 c 1.595,0 2.541,1.089 2.541,2.398 0,1.1 -0.671,1.782 -1.43,2.057 l 1.749,3.378 h -1.771 z m -1.187,-6.469 h -1.441 v 2.068 h 1.441 c 0.671,0 1.11,-0.43 1.11,-1.034 0,-0.605 -0.44,-1.034 -1.11,-1.034 z"
   id="path137"
   style="fill:#106377" />
			<path
   d="m 246.046,106.474 v -3.278 h -2.651 v 3.278 h -1.529 v -7.833 h 1.529 v 3.201 h 2.651 v -3.201 h 1.529 v 7.833 h -1.529 z"
   id="path139"
   style="fill:#106377" />
			<path
   d="m 255.902,105.682 c -0.55,0.55 -1.221,0.858 -2.112,0.858 -0.891,0 -1.573,-0.309 -2.123,-0.858 -0.792,-0.792 -0.771,-1.771 -0.771,-3.125 0,-1.353 -0.021,-2.332 0.771,-3.124 0.55,-0.55 1.232,-0.858 2.123,-0.858 0.892,0 1.562,0.309 2.112,0.858 0.792,0.792 0.781,1.771 0.781,3.124 0,1.353 0.011,2.333 -0.781,3.125 z m -1.199,-7.8 -0.913,-1.002 -0.913,1.002 h -1.111 l 1.452,-1.859 h 1.145 l 1.452,1.859 h -1.112 z m 0.066,2.474 c -0.22,-0.253 -0.562,-0.418 -0.979,-0.418 -0.417,0 -0.77,0.165 -0.99,0.418 -0.297,0.33 -0.374,0.693 -0.374,2.2 0,1.508 0.077,1.871 0.374,2.201 0.221,0.253 0.572,0.418 0.99,0.418 0.418,0 0.76,-0.165 0.979,-0.418 0.297,-0.33 0.385,-0.693 0.385,-2.201 0,-1.506 -0.088,-1.869 -0.385,-2.2 z"
   id="path141"
   style="fill:#106377" />
			<path
   d="m 264.636,106.474 -3.103,-4.808 v 4.808 h -1.529 v -7.833 h 1.364 l 3.103,4.797 V 98.641 H 266 v 7.833 h -1.364 z"
   id="path143"
   style="fill:#106377" />
			<path
   d="m 269.586,106.474 v -7.833 h 5.159 v 1.364 h -3.63 v 1.837 h 3.091 v 1.364 h -3.091 v 1.903 h 3.63 v 1.364 h -5.159 z"
   id="path145"
   style="fill:#106377" />
			<path
   d="m 286.767,106.474 -0.462,-1.386 h -2.783 l -0.473,1.386 h -1.596 l 2.85,-7.833 h 1.199 l 2.86,7.833 h -1.595 z m -1.826,-5.523 -0.99,2.849 h 1.947 l -0.957,-2.849 z"
   id="path147"
   style="fill:#106377" />
			<path
   d="m 291.09,106.474 v -7.833 h 1.529 v 6.469 h 3.554 v 1.364 h -5.083 z"
   id="path149"
   style="fill:#106377" />
			<path
   d="m 302.212,103.525 h -1.507 v 2.948 h -1.529 V 98.64 h 3.036 c 1.617,0 2.586,1.111 2.586,2.442 0,1.331 -0.969,2.443 -2.586,2.443 z m -0.077,-3.52 h -1.43 v 2.146 h 1.43 c 0.693,0 1.134,-0.43 1.134,-1.067 -0.001,-0.64 -0.441,-1.079 -1.134,-1.079 z"
   id="path151"
   style="fill:#106377" />
			<path
   d="m 307.843,106.474 v -7.833 h 5.16 v 1.364 h -3.631 v 1.837 h 3.092 v 1.364 h -3.092 v 1.903 h 3.631 v 1.364 h -5.16 z"
   id="path153"
   style="fill:#106377" />
			<path
   d="m 318.414,106.54 c -1.188,0 -2.09,-0.254 -2.86,-1.034 l 0.99,-0.99 c 0.495,0.495 1.166,0.66 1.893,0.66 0.902,0 1.386,-0.342 1.386,-0.969 0,-0.274 -0.076,-0.506 -0.241,-0.66 -0.154,-0.143 -0.33,-0.22 -0.693,-0.274 l -0.946,-0.132 c -0.671,-0.1 -1.166,-0.309 -1.519,-0.649 -0.374,-0.374 -0.561,-0.88 -0.561,-1.54 0,-1.397 1.034,-2.377 2.729,-2.377 1.078,0 1.859,0.265 2.53,0.913 l -0.969,0.957 c -0.495,-0.473 -1.089,-0.539 -1.605,-0.539 -0.814,0 -1.211,0.451 -1.211,0.99 0,0.198 0.066,0.407 0.231,0.562 0.154,0.143 0.407,0.264 0.726,0.308 l 0.925,0.133 c 0.715,0.099 1.166,0.297 1.496,0.604 0.418,0.396 0.604,0.968 0.604,1.661 -0.001,1.518 -1.266,2.376 -2.905,2.376 z"
   id="path155"
   style="fill:#106377" />
		</g>
		<g
   id="g157">
			<path
   d="m 196.664,30.79 c -1.275,0 -2.475,-0.672 -2.496,-2.311 h 1.43 c 0.021,0.704 0.506,1.023 1.066,1.023 0.617,0 1.057,-0.386 1.057,-1.09 0,-0.648 -0.396,-1.078 -1.1,-1.078 h -0.209 v -1.243 h 0.209 c 0.693,0 0.99,-0.429 0.99,-0.979 0,-0.66 -0.439,-1.002 -0.957,-1.002 -0.539,0 -0.936,0.353 -0.969,0.946 h -1.43 c 0.033,-1.397 1.078,-2.233 2.398,-2.233 1.387,0 2.387,0.925 2.387,2.244 0,0.848 -0.385,1.332 -0.902,1.606 0.562,0.297 1.012,0.836 1.012,1.782 0,1.565 -1.142,2.335 -2.486,2.335 z"
   id="path159"
   style="fill:#d33c3d" />
			<path
   d="m 208.742,30.79 c -1.277,0 -2.387,-0.837 -2.387,-2.333 v -3.3 c 0,-1.497 1.109,-2.333 2.387,-2.333 1.275,0 2.377,0.836 2.377,2.333 v 3.3 c 0,1.496 -1.102,2.333 -2.377,2.333 z m 0.945,-5.611 c 0,-0.66 -0.385,-1.067 -0.945,-1.067 -0.56,0 -0.957,0.407 -0.957,1.067 v 3.268 c 0,0.66 0.396,1.057 0.957,1.057 0.561,0 0.945,-0.396 0.945,-1.057 v -3.268 z"
   id="path161"
   style="fill:#d33c3d" />
			<path
   d="m 216.474,30.724 h -1.551 l 2.541,-6.546 h -2.068 v 1.232 h -1.363 v -2.52 h 4.984 v 1.287 l -2.543,6.547 z"
   id="path163"
   style="fill:#d33c3d" />
			<path
   d="m 221.865,30.724 v -1.287 l 2.926,-3.399 c 0.285,-0.341 0.406,-0.583 0.406,-0.946 0,-0.583 -0.34,-0.979 -0.945,-0.979 -0.473,0 -0.957,0.242 -0.957,1.002 h -1.43 c 0,-1.431 1.045,-2.289 2.387,-2.289 1.387,0 2.377,0.869 2.377,2.277 0,0.76 -0.297,1.166 -0.838,1.794 l -2.188,2.541 h 3.025 v 1.287 h -4.763 z"
   id="path165"
   style="fill:#d33c3d" />
		</g>
		<g
   id="g167">
			<path
   d="m 104.677,85.015 v -1.287 l 2.926,-3.399 c 0.286,-0.341 0.407,-0.583 0.407,-0.946 0,-0.583 -0.341,-0.979 -0.946,-0.979 -0.473,0 -0.957,0.242 -0.957,1.002 h -1.43 c 0,-1.431 1.045,-2.289 2.387,-2.289 1.387,0 2.377,0.869 2.377,2.277 0,0.76 -0.297,1.166 -0.837,1.794 l -2.188,2.541 h 3.025 v 1.287 h -4.764 z"
   id="path169"
   style="fill:#d33c3d" />
			<path
   d="m 119.063,85.082 c -1.386,0 -2.508,-0.825 -2.508,-2.344 0,-0.957 0.55,-1.475 0.979,-1.76 -0.396,-0.275 -0.88,-0.793 -0.88,-1.629 0,-1.386 1.101,-2.233 2.409,-2.233 1.31,0 2.398,0.848 2.398,2.233 0,0.836 -0.484,1.354 -0.88,1.629 0.429,0.285 0.99,0.803 0.99,1.76 0.001,1.519 -1.121,2.344 -2.508,2.344 z m 0,-3.455 c -0.604,0 -1.078,0.484 -1.078,1.089 0,0.605 0.474,1.079 1.078,1.079 0.605,0 1.078,-0.474 1.078,-1.079 0,-0.605 -0.472,-1.089 -1.078,-1.089 z m 0,-3.224 c -0.561,0 -0.979,0.43 -0.979,0.99 0,0.572 0.418,0.99 0.979,0.99 0.562,0 0.969,-0.418 0.969,-0.99 0,-0.56 -0.407,-0.99 -0.969,-0.99 z"
   id="path171"
   style="fill:#d33c3d" />
			<path
   d="m 126.775,85.082 c -1.387,0 -2.442,-0.869 -2.442,-2.421 0,-0.715 0.308,-1.375 0.66,-2.09 l 1.65,-3.389 h 1.562 l -1.628,3.234 c 0.187,-0.077 0.396,-0.099 0.583,-0.099 1.057,0 2.058,0.869 2.058,2.321 0,1.541 -1.057,2.444 -2.443,2.444 z m 0,-3.576 c -0.583,0 -1.013,0.418 -1.013,1.145 0,0.726 0.43,1.145 1.013,1.145 0.583,0 1.012,-0.419 1.012,-1.145 0,-0.694 -0.407,-1.145 -1.012,-1.145 z"
   id="path173"
   style="fill:#d33c3d" />
			<path
   d="m 134.529,85.015 h -1.551 l 2.541,-6.546 h -2.068 v 1.232 h -1.364 v -2.52 h 4.984 v 1.287 l -2.542,6.547 z"
   id="path175"
   style="fill:#d33c3d" />
		</g>
		<g
   id="g177">
			<g
   id="g179">
				<path
   d="m 284.272,121.515 v -1.287 l 2.926,-3.399 c 0.286,-0.341 0.407,-0.583 0.407,-0.946 0,-0.583 -0.341,-0.979 -0.946,-0.979 -0.473,0 -0.957,0.242 -0.957,1.002 h -1.43 c 0,-1.431 1.045,-2.289 2.387,-2.289 1.387,0 2.377,0.869 2.377,2.277 0,0.76 -0.297,1.166 -0.837,1.794 l -2.188,2.541 h 3.025 v 1.287 h -4.764 z"
   id="path181"
   style="fill:#d33c3d" />
				<path
   d="m 298.637,121.582 c -1.387,0 -2.442,-0.869 -2.442,-2.421 0,-0.715 0.308,-1.375 0.66,-2.09 l 1.65,-3.389 h 1.562 l -1.628,3.234 c 0.187,-0.077 0.396,-0.099 0.583,-0.099 1.057,0 2.058,0.869 2.058,2.321 0,1.541 -1.057,2.444 -2.443,2.444 z m 0,-3.576 c -0.583,0 -1.013,0.418 -1.013,1.145 0,0.726 0.43,1.145 1.013,1.145 0.583,0 1.012,-0.419 1.012,-1.145 0,-0.694 -0.407,-1.145 -1.012,-1.145 z"
   id="path183"
   style="fill:#d33c3d" />
				<path
   d="m 304.05,121.515 v -1.287 l 2.926,-3.399 c 0.286,-0.341 0.407,-0.583 0.407,-0.946 0,-0.583 -0.341,-0.979 -0.946,-0.979 -0.473,0 -0.957,0.242 -0.957,1.002 h -1.43 c 0,-1.431 1.045,-2.289 2.387,-2.289 1.387,0 2.377,0.869 2.377,2.277 0,0.76 -0.297,1.166 -0.837,1.794 l -2.188,2.541 h 3.025 v 1.287 h -4.764 z"
   id="path185"
   style="fill:#d33c3d" />
				<path
   d="m 314.125,121.515 h -1.551 l 2.541,-6.546 h -2.068 v 1.232 h -1.364 v -2.52 h 4.984 v 1.287 l -2.542,6.547 z"
   id="path187"
   style="fill:#d33c3d" />
			</g>
			<g
   id="g189">
				<path
   d="m 286.594,137.265 v -6.293 l -1.596,1.387 v -1.541 l 1.596,-1.386 h 1.43 v 7.833 h -1.43 z"
   id="path191"
   style="fill:#218fb2" />
				<path
   d="m 298.881,137.332 c -1.387,0 -2.442,-0.869 -2.442,-2.421 0,-0.715 0.308,-1.375 0.66,-2.09 l 1.65,-3.389 h 1.562 l -1.628,3.234 c 0.187,-0.077 0.396,-0.099 0.583,-0.099 1.057,0 2.058,0.869 2.058,2.321 -0.001,1.541 -1.058,2.444 -2.443,2.444 z m 0,-3.576 c -0.583,0 -1.013,0.418 -1.013,1.145 0,0.726 0.43,1.145 1.013,1.145 0.583,0 1.012,-0.419 1.012,-1.145 -10e-4,-0.694 -0.408,-1.145 -1.012,-1.145 z"
   id="path193"
   style="fill:#218fb2" />
				<path
   d="m 306.614,137.332 c -1.387,0 -2.442,-0.869 -2.442,-2.421 0,-0.715 0.308,-1.375 0.66,-2.09 l 1.65,-3.389 h 1.562 l -1.628,3.234 c 0.187,-0.077 0.396,-0.099 0.583,-0.099 1.057,0 2.058,0.869 2.058,2.321 -0.001,1.541 -1.057,2.444 -2.443,2.444 z m 0,-3.576 c -0.583,0 -1.013,0.418 -1.013,1.145 0,0.726 0.43,1.145 1.013,1.145 0.583,0 1.012,-0.419 1.012,-1.145 0,-0.694 -0.407,-1.145 -1.012,-1.145 z"
   id="path195"
   style="fill:#218fb2" />
				<path
   d="m 316.117,136.693 c -0.352,0.353 -0.913,0.639 -1.727,0.639 -0.814,0 -1.408,-0.286 -1.749,-0.628 -0.484,-0.483 -0.595,-1.056 -0.639,-1.628 h 1.431 c 0.077,0.616 0.362,0.969 0.957,0.969 0.274,0 0.506,-0.077 0.682,-0.254 0.253,-0.253 0.309,-0.671 0.309,-1.166 0,-0.902 -0.265,-1.408 -0.957,-1.408 -0.583,0 -0.848,0.33 -0.946,0.639 h -1.31 v -4.423 h 4.467 v 1.287 h -3.169 v 1.684 c 0.21,-0.198 0.649,-0.396 1.178,-0.396 0.649,0 1.145,0.209 1.463,0.528 0.616,0.616 0.704,1.353 0.704,2.09 -10e-4,0.88 -0.122,1.495 -0.694,2.067 z"
   id="path197"
   style="fill:#218fb2" />
				<path
   d="m 328.338,136.154 v 1.111 h -1.375 v -1.111 h -3.202 V 134.8 l 2.685,-5.368 h 1.562 l -2.685,5.368 h 1.64 v -1.463 h 1.375 v 1.463 h 0.715 v 1.354 h -0.715 z"
   id="path199"
   style="fill:#218fb2" />
				<path
   d="m 336.071,136.154 v 1.111 h -1.375 v -1.111 h -3.202 V 134.8 l 2.685,-5.368 h 1.562 l -2.685,5.368 h 1.64 v -1.463 h 1.375 v 1.463 h 0.715 v 1.354 h -0.715 z"
   id="path201"
   style="fill:#218fb2" />
				<path
   d="m 341.856,137.332 c -1.387,0 -2.442,-0.869 -2.442,-2.421 0,-0.715 0.308,-1.375 0.66,-2.09 l 1.65,-3.389 h 1.562 l -1.628,3.234 c 0.187,-0.077 0.396,-0.099 0.583,-0.099 1.057,0 2.058,0.869 2.058,2.321 0,1.541 -1.057,2.444 -2.443,2.444 z m 0,-3.576 c -0.583,0 -1.013,0.418 -1.013,1.145 0,0.726 0.43,1.145 1.013,1.145 0.583,0 1.012,-0.419 1.012,-1.145 0,-0.694 -0.407,-1.145 -1.012,-1.145 z"
   id="path203"
   style="fill:#218fb2" />
			</g>
		</g>
		<g
   id="g205">
			<path
   d="M 105.381,100.273 V 93.98 l -1.596,1.387 v -1.541 l 1.596,-1.386 h 1.43 v 7.833 h -1.43 z"
   id="path207"
   style="fill:#218fb2" />
			<path
   d="m 117.688,100.339 c -1.276,0 -2.387,-0.837 -2.387,-2.333 v -3.3 c 0,-1.497 1.11,-2.333 2.387,-2.333 1.277,0 2.377,0.836 2.377,2.333 v 3.3 c 0,1.496 -1.1,2.333 -2.377,2.333 z m 0.947,-5.611 c 0,-0.66 -0.385,-1.067 -0.946,-1.067 -0.561,0 -0.957,0.407 -0.957,1.067 v 3.268 c 0,0.66 0.396,1.057 0.957,1.057 0.562,0 0.946,-0.396 0.946,-1.057 v -3.268 z"
   id="path209"
   style="fill:#218fb2" />
			<path
   d="m 127.347,99.161 v 1.111 h -1.375 v -1.111 h -3.202 v -1.354 l 2.685,-5.368 h 1.562 l -2.685,5.368 h 1.64 v -1.463 h 1.375 v 1.463 h 0.715 v 1.354 h -0.715 z"
   id="path211"
   style="fill:#218fb2" />
			<path
   d="m 133.154,100.339 c -1.276,0 -2.387,-0.837 -2.387,-2.333 v -3.3 c 0,-1.497 1.11,-2.333 2.387,-2.333 1.277,0 2.377,0.836 2.377,2.333 v 3.3 c 0,1.496 -1.101,2.333 -2.377,2.333 z m 0.946,-5.611 c 0,-0.66 -0.385,-1.067 -0.946,-1.067 -0.561,0 -0.957,0.407 -0.957,1.067 v 3.268 c 0,0.66 0.396,1.057 0.957,1.057 0.562,0 0.946,-0.396 0.946,-1.057 v -3.268 z"
   id="path213"
   style="fill:#218fb2" />
			<path
   d="m 145.198,100.339 c -1.386,0 -2.508,-0.825 -2.508,-2.344 0,-0.957 0.55,-1.475 0.979,-1.76 -0.396,-0.275 -0.88,-0.793 -0.88,-1.629 0,-1.386 1.101,-2.233 2.409,-2.233 1.31,0 2.398,0.848 2.398,2.233 0,0.836 -0.484,1.354 -0.88,1.629 0.429,0.285 0.99,0.803 0.99,1.76 0.001,1.519 -1.121,2.344 -2.508,2.344 z m 0,-3.455 c -0.604,0 -1.078,0.484 -1.078,1.089 0,0.605 0.474,1.079 1.078,1.079 0.605,0 1.078,-0.474 1.078,-1.079 0,-0.605 -0.473,-1.089 -1.078,-1.089 z m 0,-3.224 c -0.561,0 -0.979,0.43 -0.979,0.99 0,0.572 0.418,0.99 0.979,0.99 0.562,0 0.969,-0.418 0.969,-0.99 0,-0.56 -0.407,-0.99 -0.969,-0.99 z"
   id="path215"
   style="fill:#218fb2" />
			<path
   d="m 152.898,100.339 c -1.275,0 -2.475,-0.672 -2.497,-2.311 h 1.431 c 0.021,0.704 0.506,1.023 1.066,1.023 0.616,0 1.057,-0.386 1.057,-1.09 0,-0.648 -0.396,-1.078 -1.101,-1.078 h -0.209 V 95.64 h 0.209 c 0.693,0 0.99,-0.429 0.99,-0.979 0,-0.66 -0.439,-1.002 -0.957,-1.002 -0.539,0 -0.935,0.353 -0.968,0.946 h -1.431 c 0.033,-1.397 1.078,-2.233 2.398,-2.233 1.387,0 2.388,0.925 2.388,2.244 0,0.848 -0.385,1.332 -0.902,1.606 0.562,0.297 1.012,0.836 1.012,1.782 0.001,1.565 -1.143,2.335 -2.486,2.335 z"
   id="path217"
   style="fill:#218fb2" />
			<path
   d="m 158.321,100.273 v -1.287 l 2.926,-3.399 c 0.286,-0.341 0.407,-0.583 0.407,-0.946 0,-0.583 -0.341,-0.979 -0.946,-0.979 -0.473,0 -0.957,0.242 -0.957,1.002 h -1.43 c 0,-1.431 1.045,-2.289 2.387,-2.289 1.387,0 2.377,0.869 2.377,2.277 0,0.76 -0.297,1.166 -0.837,1.794 l -2.188,2.541 h 3.025 v 1.287 h -4.764 z"
   id="path219"
   style="fill:#218fb2" />
		</g>
		<g
   id="g221">
			<path
   d="m 198.403,43.155 -1.661,3.389 h -1.552 l 1.629,-3.234 c -0.188,0.077 -0.396,0.099 -0.584,0.099 -1.056,0 -2.067,-0.869 -2.067,-2.321 0,-1.54 1.056,-2.442 2.442,-2.442 1.386,0 2.441,0.869 2.441,2.421 0.001,0.713 -0.296,1.373 -0.648,2.088 z m -1.793,-3.224 c -0.584,0 -1.013,0.418 -1.013,1.145 0,0.693 0.407,1.145 1.013,1.145 0.583,0 1.012,-0.418 1.012,-1.145 0,-0.727 -0.429,-1.145 -1.012,-1.145 z"
   id="path223"
   style="fill:#218fb2" />
			<path
   d="m 206.135,43.155 -1.661,3.389 h -1.552 l 1.629,-3.234 c -0.188,0.077 -0.396,0.099 -0.584,0.099 -1.056,0 -2.067,-0.869 -2.067,-2.321 0,-1.54 1.056,-2.442 2.442,-2.442 1.386,0 2.441,0.869 2.441,2.421 0.001,0.713 -0.296,1.373 -0.648,2.088 z m -1.792,-3.224 c -0.584,0 -1.013,0.418 -1.013,1.145 0,0.693 0.407,1.145 1.013,1.145 0.583,0 1.012,-0.418 1.012,-1.145 0,-0.727 -0.429,-1.145 -1.012,-1.145 z"
   id="path225"
   style="fill:#218fb2" />
			<path
   d="m 213.812,45.971 c -0.352,0.353 -0.913,0.639 -1.727,0.639 -0.814,0 -1.408,-0.286 -1.749,-0.628 -0.484,-0.483 -0.595,-1.056 -0.639,-1.628 h 1.431 c 0.077,0.616 0.362,0.969 0.957,0.969 0.274,0 0.506,-0.077 0.682,-0.254 0.253,-0.253 0.309,-0.671 0.309,-1.166 0,-0.902 -0.265,-1.408 -0.957,-1.408 -0.584,0 -0.848,0.33 -0.946,0.639 h -1.31 v -4.423 h 4.467 v 1.287 h -3.169 v 1.684 c 0.21,-0.198 0.649,-0.396 1.178,-0.396 0.649,0 1.145,0.209 1.463,0.528 0.616,0.616 0.704,1.353 0.704,2.09 0,0.88 -0.121,1.495 -0.694,2.067 z"
   id="path227"
   style="fill:#218fb2" />
			<path
   d="m 224.075,46.61 c -1.275,0 -2.475,-0.672 -2.497,-2.311 h 1.431 c 0.021,0.704 0.506,1.023 1.066,1.023 0.616,0 1.057,-0.386 1.057,-1.09 0,-0.648 -0.396,-1.078 -1.101,-1.078 h -0.209 v -1.243 h 0.209 c 0.693,0 0.99,-0.429 0.99,-0.979 0,-0.66 -0.439,-1.002 -0.957,-1.002 -0.539,0 -0.935,0.353 -0.968,0.946 h -1.431 c 0.033,-1.397 1.078,-2.233 2.398,-2.233 1.387,0 2.388,0.925 2.388,2.244 0,0.848 -0.385,1.332 -0.902,1.606 0.562,0.297 1.012,0.836 1.012,1.782 0,1.565 -1.143,2.335 -2.486,2.335 z"
   id="path229"
   style="fill:#218fb2" />
			<path
   d="m 231.807,46.61 c -1.275,0 -2.475,-0.672 -2.497,-2.311 h 1.431 c 0.021,0.704 0.506,1.023 1.066,1.023 0.616,0 1.057,-0.386 1.057,-1.09 0,-0.648 -0.396,-1.078 -1.101,-1.078 h -0.209 v -1.243 h 0.209 c 0.693,0 0.99,-0.429 0.99,-0.979 0,-0.66 -0.439,-1.002 -0.957,-1.002 -0.539,0 -0.935,0.353 -0.968,0.946 h -1.431 c 0.033,-1.397 1.078,-2.233 2.398,-2.233 1.387,0 2.388,0.925 2.388,2.244 0,0.848 -0.385,1.332 -0.902,1.606 0.562,0.297 1.012,0.836 1.012,1.782 0.001,1.565 -1.143,2.335 -2.486,2.335 z"
   id="path231"
   style="fill:#218fb2" />
			<path
   d="m 237.23,46.544 v -1.287 l 2.926,-3.399 c 0.286,-0.341 0.407,-0.583 0.407,-0.946 0,-0.583 -0.341,-0.979 -0.946,-0.979 -0.473,0 -0.957,0.242 -0.957,1.002 h -1.43 c 0,-1.431 1.045,-2.289 2.387,-2.289 1.387,0 2.377,0.869 2.377,2.277 0,0.76 -0.297,1.166 -0.836,1.794 l -2.189,2.541 h 3.025 v 1.287 h -4.764 z"
   id="path233"
   style="fill:#218fb2" />
		</g>
	</g>
</g>
<g
   transform="translate(-38.868004,-7.148)"
   id="Calque_2"
   style="display:none">
	<rect
   width="383.16699"
   height="381"
   x="0"
   y="-0.667"
   id="rect236"
   style="fill:none;display:inline" />
</g>
</svg>