<?xml version="1.0" encoding="utf-8"?>
<!-- Generator: Adobe Illustrator 17.0.0, SVG Export Plug-In . SVG Version: 6.00 Build 0)  -->
<!DOCTYPE svg PUBLIC "-//W3C//DTD SVG 1.1//EN" "http://www.w3.org/Graphics/SVG/1.1/DTD/svg11.dtd">
<svg version="1.1" id="Calque_1" xmlns="http://www.w3.org/2000/svg" xmlns:xlink="http://www.w3.org/1999/xlink" x="0px" y="0px"
	 width="385.333px" height="381px" viewBox="0 0 385.333 381" enable-background="new 0 0 385.333 381" xml:space="preserve">
<g id="Calque_2" display="none">
	<rect y="-0.667" display="inline" fill="none" width="383.167" height="381"/>
</g>
<g>
	<path fill="#218FB2" d="M291.852,299.445L50.509,223.976l-7.075-62.76c0,0-0.655-2.358,3.276-3.014l57.65-11.137l-0.917-15.33
		c0,0-0.262-2.751,3.8-3.145l54.636-7.73l75.6,4.455c0,0,3.276-0.262,3.538,4.455l-1.834,52.016c0,0,1.441,1.703,2.62,1.703
		l89.75,14.281c0,0,2.096-0.393,1.965,4.717l-5.372,51.754L291.852,299.445z"/>
	<path fill="#D7D6D1" d="M140.401,184.871l0.214-29.654c0,0-1.508,1.418-2.885,1.937c-1.837,0.705-3.96,0.994-3.96,0.994
		l0.036-5.007c0,0,2.999-0.526,5.049-2.026c1.758-1.293,3.482-3.892,3.482-3.892l3.368,0.384l-0.273,37.837L140.401,184.871z"/>
	<g>
		<path fill="#D7D6D1" d="M240.214,270.022c-3.578-0.239-7.056-1.462-9.987-4.036l2.452-4.047c2.645,2.208,5.061,3.113,7.831,3.298
			c3.77,0.252,6.628-2.233,6.869-6.131c0.235-3.799-1.468-6.242-6.084-6.55l-2.924-0.195l0.302-4.885l2.962,0.198
			c3.385,0.226,5.56-2.453,5.795-6.253c0.309-4.984-2.755-6.03-5.179-6.192c-1.846-0.123-4.755,1.317-6.151,3.899l-2.657-3.249
			c2.698-4.279,6.078-5.837,9.925-5.58c7.001,0.468,8.952,6.395,8.671,10.935c-0.324,5.23-2.955,8.424-4.779,8.55
			c2.097,0.438,5.086,3.957,4.737,9.582C251.565,266.371,247.292,270.495,240.214,270.022z"/>
	</g>
	<g>
		<path fill="#D7D6D1" d="M61.389,207.966l10.894-9.079c0.908-0.841,4.874-3.934,5.071-6.941c0.238-3.643-1.965-5.266-4.619-5.964
			c-3.422-0.9-5.349,0.86-5.518,3.442l-0.079,1.203l-3.876-1.019l0.083-1.273c0.289-4.421,4.07-7.384,9.552-5.943
			c4.959,1.304,9.12,4.486,8.732,10.427c-0.277,4.244-4.316,7.355-4.991,7.897l-6.796,5.624l11.698,3.077l-0.247,3.785
			L61.389,207.966z"/>
	</g>
	<path fill="#106377" d="M190.441,207.075c0,0,105.735,23.584,106.521,23.191l35.376-32.232l-90.537-14.543L190.441,207.075z"/>
	<path fill="#106377" d="M188.279,203.34l51.295-22.208l1.572-53.064c0,0-0.393-2.555-1.965-2.162c0,0-51.295,15.133-50.706,15.133
		C189.065,141.039,188.279,203.34,188.279,203.34z"/>
	<polygon fill="#106377" points="45.923,158.989 105.669,170.519 104.359,147.066 	"/>
	<line fill="none" stroke="#106377" stroke-miterlimit="10" x1="181.595" y1="115.833" x2="181.595" y2="20.233"/>
	
		<line fill="none" stroke="#106377" stroke-miterlimit="10" stroke-dasharray="3" x1="91.692" y1="141.96" x2="91.692" y2="73.675"/>
	<g>
		<line fill="none" x1="271.953" y1="182.724" x2="271.953" y2="110.68"/>
		<g>
			<line fill="none" stroke="#106377" stroke-miterlimit="10" x1="271.953" y1="182.724" x2="271.953" y2="181.224"/>
			
				<line fill="none" stroke="#106377" stroke-miterlimit="10" stroke-dasharray="3.0019,3.0019" x1="271.953" y1="178.222" x2="271.953" y2="113.681"/>
			<line fill="none" stroke="#106377" stroke-miterlimit="10" x1="271.953" y1="112.18" x2="271.953" y2="110.68"/>
		</g>
	</g>
	<g>
		<path fill="#106377" d="M62.174,69.64h-3.278v-7.833h3.146c1.529,0,2.42,0.858,2.42,2.2c0,0.869-0.572,1.431-0.968,1.617
			c0.473,0.22,1.078,0.715,1.078,1.761C64.573,68.848,63.572,69.64,62.174,69.64z M61.921,63.172h-1.496v1.804h1.496
			c0.649,0,1.012-0.362,1.012-0.901C62.933,63.535,62.571,63.172,61.921,63.172z M62.02,66.351h-1.595v1.925h1.595
			c0.693,0,1.023-0.44,1.023-0.968S62.713,66.351,62.02,66.351z"/>
		<path fill="#106377" d="M72.052,69.64l-1.529-3.124h-1.101v3.124h-1.529v-7.833h3.069c1.596,0,2.542,1.089,2.542,2.398
			c0,1.1-0.671,1.782-1.431,2.057l1.749,3.378H72.052z M70.864,63.172h-1.441v2.068h1.441c0.671,0,1.111-0.43,1.111-1.034
			C71.975,63.6,71.535,63.172,70.864,63.172z"/>
		<path fill="#106377" d="M76.847,69.64v-7.833h5.16v1.364h-3.631v1.837h3.092v1.364h-3.092v1.903h3.631v1.364h-5.16V69.64z"/>
		<path fill="#106377" d="M88.254,63.172v6.469h-1.529v-6.469h-2.046v-1.364H90.3v1.364C90.3,63.172,88.254,63.172,88.254,63.172z"
			/>
		<path fill="#106377" d="M97.098,69.64l-0.462-1.386h-2.783L93.38,69.64h-1.596l2.85-7.833h1.199l2.86,7.833H97.098z
			 M95.272,64.118l-0.99,2.849h1.947L95.272,64.118z"/>
		<path fill="#106377" d="M106.14,68.815c-0.604,0.616-1.331,0.892-2.211,0.892c-0.836,0-1.54-0.286-2.112-0.858
			c-0.341-0.341-0.55-0.737-0.638-1.178c-0.089-0.439-0.133-1.089-0.133-1.947c0-0.857,0.044-1.507,0.133-1.947
			c0.088-0.45,0.297-0.836,0.638-1.177c0.572-0.572,1.276-0.858,2.112-0.858c1.782,0,2.739,1.145,2.948,2.509h-1.54
			c-0.187-0.759-0.649-1.145-1.408-1.145c-0.407,0-0.737,0.144-0.979,0.418c-0.286,0.363-0.374,0.649-0.374,2.2
			c0,1.541,0.066,1.849,0.374,2.212c0.231,0.274,0.562,0.407,0.979,0.407c0.451,0,0.814-0.144,1.089-0.44
			c0.231-0.264,0.353-0.616,0.353-1.045V66.56h-1.441v-1.276h2.959v1.144C106.888,67.572,106.679,68.243,106.14,68.815z"/>
		<path fill="#106377" d="M114.709,69.64l-3.103-4.808v4.808h-1.529v-7.833h1.364l3.103,4.797v-4.797h1.529v7.833H114.709z"/>
		<path fill="#106377" d="M119.659,69.64v-7.833h5.159v1.364h-3.63v1.837h3.091v1.364h-3.091v1.903h3.63v1.364h-5.159V69.64z"/>
	</g>
	<g>
		<path fill="#106377" d="M126.365,12.098h-1.508v2.948h-1.529V7.214h3.037c1.617,0,2.585,1.111,2.585,2.442
			S127.982,12.098,126.365,12.098z M126.287,8.578h-1.431v2.146h1.431c0.692,0,1.133-0.43,1.133-1.067
			C127.42,9.017,126.98,8.578,126.287,8.578z"/>
		<path fill="#106377" d="M135.901,15.047l-0.462-1.386h-2.783l-0.473,1.386h-1.596l2.85-7.833h1.199l2.86,7.833H135.901z
			 M134.075,9.524l-0.99,2.849h1.947L134.075,9.524z"/>
		<path fill="#106377" d="M142.831,11.834v3.213h-1.519v-3.213l-2.354-4.62h1.661l1.463,3.157l1.441-3.157h1.661L142.831,11.834z"/>
		<path fill="#106377" d="M150.047,15.113c-1.188,0-2.091-0.254-2.86-1.034l0.99-0.99c0.495,0.495,1.166,0.66,1.892,0.66
			c0.902,0,1.387-0.342,1.387-0.969c0-0.274-0.077-0.506-0.242-0.66c-0.154-0.143-0.33-0.22-0.693-0.274l-0.946-0.132
			c-0.671-0.1-1.166-0.309-1.518-0.649c-0.374-0.374-0.562-0.88-0.562-1.54c0-1.397,1.034-2.377,2.729-2.377
			c1.078,0,1.859,0.265,2.53,0.913l-0.968,0.957c-0.495-0.473-1.089-0.539-1.606-0.539c-0.814,0-1.21,0.451-1.21,0.99
			c0,0.198,0.065,0.407,0.23,0.562c0.154,0.143,0.407,0.264,0.727,0.308l0.924,0.133c0.716,0.099,1.166,0.297,1.496,0.604
			c0.418,0.396,0.605,0.968,0.605,1.661C152.952,14.255,151.686,15.113,150.047,15.113z"/>
		<path fill="#106377" d="M165.36,14.298c-0.518,0.517-1.255,0.748-2.068,0.748h-2.828V7.214h2.828c0.813,0,1.551,0.23,2.068,0.748
			c0.88,0.88,0.792,1.958,0.792,3.136C166.152,12.274,166.24,13.419,165.36,14.298z M164.292,9.062
			c-0.265-0.319-0.616-0.484-1.145-0.484h-1.155v5.104h1.155c0.528,0,0.88-0.165,1.145-0.484c0.286-0.352,0.33-0.913,0.33-2.101
			C164.622,9.909,164.579,9.414,164.292,9.062z"/>
		<path fill="#106377" d="M169.473,15.047V7.214h5.159v1.364h-3.63v1.837h3.091v1.364h-3.091v1.903h3.63v1.364L169.473,15.047
			L169.473,15.047z"/>
		<path fill="#106377" d="M182.2,15.047V7.214h1.529v6.469h3.554v1.364C187.283,15.047,182.2,15.047,182.2,15.047z"/>
		<path fill="#106377" d="M194.74,15.047l-0.462-1.386h-2.783l-0.473,1.386h-1.596l2.85-7.833h1.199l2.86,7.833H194.74z
			 M192.913,9.524l-0.99,2.849h1.947L192.913,9.524z"/>
		<path fill="#106377" d="M203.374,15.047V7.214h1.529v6.469h3.554v1.364C208.457,15.047,203.374,15.047,203.374,15.047z"/>
		<path fill="#106377" d="M215.915,14.255c-0.55,0.55-1.222,0.858-2.112,0.858c-0.892,0-1.573-0.309-2.123-0.858
			c-0.793-0.792-0.771-1.771-0.771-3.125c0-1.353-0.022-2.332,0.771-3.124c0.55-0.55,1.231-0.858,2.123-0.858
			c0.891,0,1.562,0.309,2.112,0.858c0.792,0.792,0.781,1.771,0.781,3.124C216.697,12.483,216.707,13.463,215.915,14.255z
			 M214.782,8.929c-0.22-0.253-0.561-0.418-0.979-0.418s-0.771,0.165-0.99,0.418c-0.297,0.33-0.374,0.693-0.374,2.2
			c0,1.508,0.077,1.871,0.374,2.201c0.22,0.253,0.572,0.418,0.99,0.418s0.759-0.165,0.979-0.418c0.298-0.33,0.386-0.693,0.386-2.201
			C215.167,9.623,215.079,9.259,214.782,8.929z"/>
		<path fill="#106377" d="M220.017,15.047V7.214h1.529v7.833C221.546,15.047,220.017,15.047,220.017,15.047z"/>
		<path fill="#106377" d="M229.291,15.047l-1.529-3.124h-1.101v3.124h-1.529V7.214h3.069c1.596,0,2.542,1.089,2.542,2.398
			c0,1.1-0.671,1.782-1.431,2.057l1.749,3.378C231.061,15.047,229.291,15.047,229.291,15.047z M228.103,8.578h-1.441v2.068h1.441
			c0.671,0,1.111-0.43,1.111-1.034C229.214,9.007,228.774,8.578,228.103,8.578z"/>
		<path fill="#106377" d="M234.086,15.047V7.214h5.159v1.364h-3.63v1.837h3.091v1.364h-3.091v1.903h3.63v1.364L234.086,15.047
			L234.086,15.047z"/>
	</g>
	<g>
		<path fill="#106377" d="M232.101,106.474l-1.529-3.124h-1.101v3.124h-1.529v-7.833h3.069c1.596,0,2.542,1.089,2.542,2.398
			c0,1.1-0.671,1.782-1.431,2.057l1.749,3.378H232.101z M230.912,100.005h-1.441v2.068h1.441c0.671,0,1.111-0.43,1.111-1.034
			C232.024,100.434,231.583,100.005,230.912,100.005z"/>
		<path fill="#106377" d="M241.077,106.474v-3.278h-2.651v3.278h-1.529v-7.833h1.529v3.201h2.651v-3.201h1.529v7.833H241.077z"/>
		<path fill="#106377" d="M250.933,105.682c-0.551,0.55-1.222,0.858-2.112,0.858c-0.892,0-1.573-0.309-2.123-0.858
			c-0.793-0.792-0.771-1.771-0.771-3.125c0-1.353-0.022-2.332,0.771-3.124c0.55-0.55,1.231-0.858,2.123-0.858
			c0.891,0,1.562,0.309,2.112,0.858c0.792,0.792,0.781,1.771,0.781,3.124C251.714,103.91,251.725,104.89,250.933,105.682z
			 M249.734,97.882l-0.913-1.002l-0.913,1.002h-1.111l1.452-1.859h1.145l1.452,1.859H249.734z M249.799,100.356
			c-0.22-0.253-0.561-0.418-0.979-0.418s-0.771,0.165-0.99,0.418c-0.297,0.33-0.374,0.693-0.374,2.2
			c0,1.508,0.077,1.871,0.374,2.201c0.22,0.253,0.572,0.418,0.99,0.418s0.759-0.165,0.979-0.418c0.298-0.33,0.386-0.693,0.386-2.201
			C250.185,101.05,250.097,100.687,249.799,100.356z"/>
		<path fill="#106377" d="M259.666,106.474l-3.103-4.808v4.808h-1.529v-7.833h1.364l3.103,4.797v-4.797h1.529v7.833H259.666z"/>
		<path fill="#106377" d="M264.616,106.474v-7.833h5.16v1.364h-3.631v1.837h3.092v1.364h-3.092v1.903h3.631v1.364h-5.16V106.474z"/>
		<path fill="#106377" d="M281.798,106.474l-0.462-1.386h-2.783l-0.474,1.386h-1.595l2.849-7.833h1.199l2.86,7.833H281.798z
			 M279.972,100.951l-0.99,2.849h1.947L279.972,100.951z"/>
		<path fill="#106377" d="M286.12,106.474v-7.833h1.529v6.469h3.554v1.364H286.12z"/>
		<path fill="#106377" d="M297.243,103.525h-1.508v2.948h-1.529V98.64h3.037c1.617,0,2.585,1.111,2.585,2.442
			S298.86,103.525,297.243,103.525z M297.165,100.005h-1.431v2.146h1.431c0.692,0,1.133-0.43,1.133-1.067
			C298.298,100.444,297.858,100.005,297.165,100.005z"/>
		<path fill="#106377" d="M302.873,106.474v-7.833h5.159v1.364h-3.63v1.837h3.091v1.364h-3.091v1.903h3.63v1.364h-5.159V106.474z"/>
		<path fill="#106377" d="M313.445,106.54c-1.188,0-2.091-0.254-2.86-1.034l0.99-0.99c0.495,0.495,1.166,0.66,1.892,0.66
			c0.902,0,1.387-0.342,1.387-0.969c0-0.274-0.077-0.506-0.242-0.66c-0.154-0.143-0.33-0.22-0.693-0.274l-0.946-0.132
			c-0.671-0.1-1.166-0.309-1.518-0.649c-0.374-0.374-0.562-0.88-0.562-1.54c0-1.397,1.034-2.377,2.729-2.377
			c1.078,0,1.859,0.265,2.53,0.913l-0.968,0.957c-0.495-0.473-1.089-0.539-1.606-0.539c-0.814,0-1.21,0.451-1.21,0.99
			c0,0.198,0.065,0.407,0.23,0.562c0.154,0.143,0.407,0.264,0.727,0.308l0.924,0.133c0.716,0.099,1.166,0.297,1.496,0.604
			c0.418,0.396,0.605,0.968,0.605,1.661C316.349,105.682,315.083,106.54,313.445,106.54z"/>
	</g>
	<g>
		<path fill="#D33C3D" d="M189.385,30.498v-1.287l2.926-3.399c0.286-0.341,0.407-0.583,0.407-0.946c0-0.583-0.341-0.979-0.946-0.979
			c-0.473,0-0.957,0.242-0.957,1.002h-1.43c0-1.431,1.045-2.289,2.387-2.289c1.387,0,2.377,0.869,2.377,2.277
			c0,0.76-0.297,1.166-0.837,1.794l-2.188,2.541h3.025v1.287h-4.764L189.385,30.498L189.385,30.498z"/>
		<path fill="#D33C3D" d="M203.772,30.564c-1.386,0-2.508-0.825-2.508-2.344c0-0.957,0.55-1.475,0.979-1.76
			c-0.396-0.275-0.88-0.793-0.88-1.629c0-1.386,1.101-2.233,2.409-2.233c1.31,0,2.398,0.848,2.398,2.233
			c0,0.836-0.484,1.354-0.88,1.629c0.429,0.285,0.99,0.803,0.99,1.76C206.281,29.739,205.159,30.564,203.772,30.564z
			 M203.772,27.109c-0.604,0-1.078,0.484-1.078,1.089c0,0.605,0.474,1.079,1.078,1.079c0.605,0,1.078-0.474,1.078-1.079
			S204.377,27.109,203.772,27.109z M203.772,23.885c-0.561,0-0.979,0.43-0.979,0.99c0,0.572,0.418,0.99,0.979,0.99
			c0.562,0,0.969-0.418,0.969-0.99C204.741,24.315,204.333,23.885,203.772,23.885z"/>
		<path fill="#D33C3D" d="M209.162,30.498v-1.287l2.926-3.399c0.286-0.341,0.407-0.583,0.407-0.946c0-0.583-0.341-0.979-0.946-0.979
			c-0.473,0-0.957,0.242-0.957,1.002h-1.43c0-1.431,1.045-2.289,2.387-2.289c1.387,0,2.377,0.869,2.377,2.277
			c0,0.76-0.297,1.166-0.837,1.794l-2.188,2.541h3.025v1.287h-4.764L209.162,30.498L209.162,30.498z"/>
		<path fill="#D33C3D" d="M219.216,30.564c-1.387,0-2.442-0.869-2.442-2.421c0-0.715,0.308-1.375,0.66-2.09l1.65-3.389h1.562
			l-1.628,3.234c0.187-0.077,0.396-0.099,0.583-0.099c1.057,0,2.058,0.869,2.058,2.321
			C221.659,29.662,220.602,30.564,219.216,30.564z M219.216,26.988c-0.583,0-1.013,0.418-1.013,1.145
			c0,0.726,0.43,1.145,1.013,1.145s1.012-0.419,1.012-1.145C220.228,27.439,219.821,26.988,219.216,26.988z"/>
	</g>
	<g>
		<path fill="#D33C3D" d="M98.706,85.015v-1.287l2.926-3.399c0.286-0.341,0.407-0.583,0.407-0.946c0-0.583-0.341-0.979-0.946-0.979
			c-0.473,0-0.957,0.242-0.957,1.002h-1.43c0-1.431,1.045-2.289,2.387-2.289c1.387,0,2.377,0.869,2.377,2.277
			c0,0.76-0.297,1.166-0.837,1.794l-2.188,2.541h3.025v1.287L98.706,85.015L98.706,85.015z"/>
		<path fill="#D33C3D" d="M113.093,85.082c-1.386,0-2.508-0.825-2.508-2.344c0-0.957,0.55-1.475,0.979-1.76
			c-0.396-0.275-0.88-0.793-0.88-1.629c0-1.386,1.101-2.233,2.409-2.233c1.31,0,2.398,0.848,2.398,2.233
			c0,0.836-0.484,1.354-0.88,1.629c0.429,0.285,0.99,0.803,0.99,1.76C115.602,84.257,114.48,85.082,113.093,85.082z M113.093,81.627
			c-0.604,0-1.078,0.484-1.078,1.089c0,0.605,0.474,1.079,1.078,1.079c0.605,0,1.078-0.474,1.078-1.079
			C114.171,82.111,113.699,81.627,113.093,81.627z M113.093,78.403c-0.561,0-0.979,0.43-0.979,0.99c0,0.572,0.418,0.99,0.979,0.99
			c0.562,0,0.969-0.418,0.969-0.99C114.062,78.833,113.655,78.403,113.093,78.403z"/>
		<path fill="#D33C3D" d="M120.827,85.082c-1.276,0-2.387-0.837-2.387-2.333v-3.3c0-1.497,1.11-2.333,2.387-2.333
			s2.377,0.836,2.377,2.333v3.3C123.204,84.245,122.103,85.082,120.827,85.082z M121.773,79.47c0-0.66-0.385-1.067-0.946-1.067
			s-0.957,0.407-0.957,1.067v3.268c0,0.66,0.396,1.057,0.957,1.057c0.562,0,0.946-0.396,0.946-1.057V79.47z"/>
		<path fill="#D33C3D" d="M126.216,85.015v-1.287l2.926-3.399c0.286-0.341,0.407-0.583,0.407-0.946c0-0.583-0.341-0.979-0.946-0.979
			c-0.473,0-0.957,0.242-0.957,1.002h-1.43c0-1.431,1.045-2.289,2.387-2.289c1.387,0,2.377,0.869,2.377,2.277
			c0,0.76-0.297,1.166-0.837,1.794l-2.188,2.541h3.025v1.287L126.216,85.015L126.216,85.015z"/>
	</g>
	<g>
		<path fill="#D33C3D" d="M279.303,121.731v-1.287l2.926-3.399c0.286-0.341,0.407-0.583,0.407-0.946
			c0-0.583-0.341-0.979-0.946-0.979c-0.473,0-0.957,0.242-0.957,1.002h-1.43c0-1.431,1.045-2.289,2.387-2.289
			c1.387,0,2.377,0.869,2.377,2.277c0,0.76-0.297,1.166-0.837,1.794l-2.188,2.541h3.025v1.287L279.303,121.731L279.303,121.731z"/>
		<path fill="#D33C3D" d="M293.668,121.797c-1.387,0-2.442-0.869-2.442-2.421c0-0.715,0.308-1.375,0.66-2.09l1.65-3.389h1.562
			l-1.628,3.234c0.187-0.077,0.396-0.099,0.583-0.099c1.057,0,2.058,0.869,2.058,2.321
			C296.111,120.895,295.054,121.797,293.668,121.797z M293.668,118.221c-0.583,0-1.013,0.418-1.013,1.145
			c0,0.726,0.43,1.145,1.013,1.145s1.012-0.419,1.012-1.145C294.68,118.672,294.273,118.221,293.668,118.221z"/>
		<path fill="#D33C3D" d="M303.349,120.62v1.111h-1.375v-1.111h-3.202v-1.354l2.685-5.368h1.562l-2.685,5.368h1.64v-1.463h1.375
			v1.463h0.715v1.354H303.349z"/>
		<path fill="#D33C3D" d="M308.892,121.731v-6.293l-1.596,1.387v-1.541l1.596-1.386h1.43v7.833H308.892z"/>
	</g>
	<g>
		<path fill="#218FB2" d="M280.928,137.167v-6.408l-1.625,1.412v-1.569l1.625-1.411h1.456v7.976H280.928z"/>
		<path fill="#218FB2" d="M293.438,137.234c-1.412,0-2.487-0.885-2.487-2.465c0-0.728,0.313-1.4,0.672-2.128l1.68-3.45h1.59
			l-1.658,3.293c0.19-0.079,0.403-0.1,0.594-0.1c1.076,0,2.095,0.885,2.095,2.364C295.925,136.316,294.849,137.234,293.438,137.234z
			 M293.438,133.593c-0.594,0-1.031,0.426-1.031,1.165s0.438,1.165,1.031,1.165c0.594,0,1.03-0.427,1.03-1.165
			C294.468,134.052,294.054,133.593,293.438,133.593z"/>
		<path fill="#218FB2" d="M301.335,137.167h-1.579l2.587-6.665h-2.106v1.255h-1.389v-2.565h5.075v1.311L301.335,137.167z"/>
		<path fill="#218FB2" d="M309.174,137.234c-1.299,0-2.52-0.684-2.543-2.353h1.457c0.022,0.717,0.515,1.042,1.086,1.042
			c0.627,0,1.076-0.393,1.076-1.11c0-0.66-0.404-1.098-1.121-1.098h-0.213v-1.266h0.213c0.706,0,1.008-0.437,1.008-0.996
			c0-0.672-0.447-1.02-0.974-1.02c-0.549,0-0.952,0.359-0.985,0.964h-1.457c0.034-1.423,1.098-2.274,2.442-2.274
			c1.412,0,2.431,0.942,2.431,2.285c0,0.863-0.392,1.356-0.919,1.636c0.572,0.302,1.03,0.851,1.03,1.815
			C311.706,136.45,310.541,137.234,309.174,137.234z"/>
		<path fill="#218FB2" d="M323.309,133.716l-1.691,3.451h-1.58l1.659-3.293c-0.191,0.079-0.404,0.1-0.595,0.1
			c-1.075,0-2.105-0.885-2.105-2.364c0-1.568,1.075-2.487,2.487-2.487c1.411,0,2.486,0.885,2.486,2.465
			C323.97,132.316,323.667,132.988,323.309,133.716z M321.484,130.434c-0.595,0-1.031,0.426-1.031,1.165
			c0,0.706,0.415,1.165,1.031,1.165c0.594,0,1.03-0.426,1.03-1.165C322.514,130.859,322.077,130.434,321.484,130.434z"/>
		<path fill="#218FB2" d="M331.184,133.716l-1.691,3.451h-1.58l1.659-3.293c-0.191,0.079-0.404,0.1-0.595,0.1
			c-1.075,0-2.105-0.885-2.105-2.364c0-1.568,1.075-2.487,2.487-2.487c1.411,0,2.486,0.885,2.486,2.465
			C331.844,132.316,331.542,132.988,331.184,133.716z M329.358,130.434c-0.595,0-1.031,0.426-1.031,1.165
			c0,0.706,0.415,1.165,1.031,1.165c0.594,0,1.03-0.426,1.03-1.165C330.388,130.859,329.952,130.434,329.358,130.434z"/>
		<path fill="#218FB2" d="M337.22,137.234c-1.411,0-2.554-0.84-2.554-2.387c0-0.974,0.56-1.502,0.996-1.792
			c-0.403-0.28-0.896-0.807-0.896-1.659c0-1.411,1.121-2.274,2.453-2.274c1.333,0,2.442,0.863,2.442,2.274
			c0,0.851-0.493,1.378-0.896,1.659c0.437,0.29,1.008,0.817,1.008,1.792C339.774,136.394,338.632,137.234,337.22,137.234z
			 M337.22,133.716c-0.616,0-1.098,0.493-1.098,1.109c0,0.617,0.482,1.099,1.098,1.099c0.617,0,1.098-0.482,1.098-1.099
			C338.317,134.209,337.836,133.716,337.22,133.716z M337.22,130.434c-0.571,0-0.996,0.438-0.996,1.008
			c0,0.583,0.426,1.008,0.996,1.008c0.572,0,0.986-0.426,0.986-1.008C338.206,130.871,337.791,130.434,337.22,130.434z"/>
	</g>
	<g>
		<path fill="#218FB2" d="M102.501,96.884l-1.661,3.389h-1.552l1.629-3.234c-0.188,0.077-0.396,0.099-0.584,0.099
			c-1.056,0-2.067-0.869-2.067-2.321c0-1.54,1.056-2.442,2.442-2.442s2.441,0.869,2.441,2.421
			C103.15,95.509,102.853,96.169,102.501,96.884z M100.708,93.66c-0.584,0-1.013,0.418-1.013,1.145c0,0.693,0.407,1.145,1.013,1.145
			c0.583,0,1.012-0.418,1.012-1.145S101.291,93.66,100.708,93.66z"/>
		<path fill="#218FB2" d="M108.429,100.339c-1.276,0-2.387-0.837-2.387-2.333v-3.3c0-1.497,1.11-2.333,2.387-2.333
			s2.377,0.836,2.377,2.333v3.3C110.806,99.502,109.705,100.339,108.429,100.339z M109.375,94.728c0-0.66-0.385-1.067-0.946-1.067
			s-0.957,0.407-0.957,1.067v3.268c0,0.66,0.396,1.057,0.957,1.057c0.562,0,0.946-0.396,0.946-1.057V94.728z"/>
		<path fill="#218FB2" d="M116.162,100.273h-1.551l2.541-6.546h-2.068v1.232h-1.364v-2.52h4.984v1.287L116.162,100.273z"/>
		<path fill="#218FB2" d="M128.185,100.339c-1.387,0-2.442-0.869-2.442-2.421c0-0.715,0.308-1.375,0.66-2.09l1.65-3.389h1.562
			l-1.628,3.234c0.187-0.077,0.396-0.099,0.583-0.099c1.057,0,2.058,0.869,2.058,2.321
			C130.627,99.437,129.571,100.339,128.185,100.339z M128.185,96.763c-0.583,0-1.013,0.418-1.013,1.145
			c0,0.726,0.43,1.145,1.013,1.145c0.583,0,1.012-0.419,1.012-1.145C129.197,97.214,128.789,96.763,128.185,96.763z"/>
		<path fill="#218FB2" d="M133.596,100.273v-1.287l2.926-3.399c0.286-0.341,0.407-0.583,0.407-0.946
			c0-0.583-0.341-0.979-0.946-0.979c-0.473,0-0.957,0.242-0.957,1.002h-1.43c0-1.431,1.045-2.289,2.387-2.289
			c1.387,0,2.377,0.869,2.377,2.277c0,0.76-0.297,1.166-0.836,1.794l-2.189,2.541h3.025v1.287L133.596,100.273L133.596,100.273z"/>
		<path fill="#218FB2" d="M145.42,99.7c-0.352,0.353-0.913,0.639-1.727,0.639c-0.814,0-1.408-0.286-1.749-0.628
			c-0.484-0.483-0.595-1.056-0.639-1.628h1.431c0.077,0.616,0.362,0.969,0.957,0.969c0.274,0,0.506-0.077,0.682-0.254
			c0.253-0.253,0.309-0.671,0.309-1.166c0-0.902-0.265-1.408-0.957-1.408c-0.584,0-0.848,0.33-0.946,0.639h-1.31V92.44h4.467v1.287
			h-3.169v1.684c0.21-0.198,0.649-0.396,1.178-0.396c0.649,0,1.145,0.209,1.463,0.528c0.616,0.616,0.704,1.353,0.704,2.09
			C146.114,98.513,145.993,99.128,145.42,99.7z"/>
	</g>
	<g>
		<path fill="#218FB2" d="M190.879,45.831v-6.293l-1.596,1.387v-1.541l1.596-1.386h1.43v7.833H190.879z"/>
		<path fill="#218FB2" d="M203.187,45.897c-1.276,0-2.387-0.837-2.387-2.333v-3.3c0-1.497,1.11-2.333,2.387-2.333
			s2.377,0.836,2.377,2.333v3.3C205.564,45.06,204.463,45.897,203.187,45.897z M204.133,40.286c0-0.66-0.385-1.067-0.946-1.067
			s-0.957,0.407-0.957,1.067v3.268c0,0.66,0.396,1.057,0.957,1.057c0.562,0,0.946-0.396,0.946-1.057V40.286z"/>
		<path fill="#218FB2" d="M208.578,45.831v-1.287l2.926-3.399c0.286-0.341,0.407-0.583,0.407-0.946c0-0.583-0.341-0.979-0.946-0.979
			c-0.473,0-0.957,0.242-0.957,1.002h-1.43c0-1.431,1.045-2.289,2.387-2.289c1.387,0,2.377,0.869,2.377,2.277
			c0,0.76-0.297,1.166-0.837,1.794l-2.188,2.541h3.025v1.287L208.578,45.831L208.578,45.831z"/>
		<path fill="#218FB2" d="M220.402,45.258c-0.352,0.353-0.913,0.639-1.727,0.639c-0.814,0-1.408-0.286-1.749-0.628
			c-0.484-0.483-0.595-1.056-0.639-1.628h1.431c0.077,0.616,0.362,0.969,0.957,0.969c0.274,0,0.506-0.077,0.682-0.254
			c0.253-0.253,0.309-0.671,0.309-1.166c0-0.902-0.265-1.408-0.957-1.408c-0.583,0-0.848,0.33-0.946,0.639h-1.31v-4.423h4.467v1.287
			h-3.169v1.684c0.21-0.198,0.649-0.396,1.178-0.396c0.649,0,1.145,0.209,1.463,0.528c0.616,0.616,0.704,1.353,0.704,2.09
			C221.095,44.071,220.974,44.686,220.402,45.258z"/>
		<path fill="#218FB2" d="M230.697,45.897c-1.386,0-2.508-0.825-2.508-2.344c0-0.957,0.55-1.475,0.979-1.76
			c-0.396-0.275-0.88-0.793-0.88-1.629c0-1.386,1.101-2.233,2.409-2.233c1.31,0,2.398,0.848,2.398,2.233
			c0,0.836-0.484,1.354-0.88,1.629c0.429,0.285,0.99,0.803,0.99,1.76C233.205,45.072,232.083,45.897,230.697,45.897z
			 M230.697,42.442c-0.604,0-1.078,0.484-1.078,1.089s0.474,1.079,1.078,1.079c0.605,0,1.078-0.474,1.078-1.079
			C231.775,42.926,231.302,42.442,230.697,42.442z M230.697,39.218c-0.561,0-0.979,0.43-0.979,0.99c0,0.572,0.418,0.99,0.979,0.99
			c0.562,0,0.969-0.418,0.969-0.99C231.665,39.648,231.258,39.218,230.697,39.218z"/>
		<path fill="#218FB2" d="M238.43,45.897c-1.386,0-2.508-0.825-2.508-2.344c0-0.957,0.55-1.475,0.979-1.76
			c-0.396-0.275-0.88-0.793-0.88-1.629c0-1.386,1.101-2.233,2.409-2.233c1.31,0,2.398,0.848,2.398,2.233
			c0,0.836-0.484,1.354-0.88,1.629c0.429,0.285,0.99,0.803,0.99,1.76C240.939,45.072,239.817,45.897,238.43,45.897z M238.43,42.442
			c-0.604,0-1.078,0.484-1.078,1.089s0.474,1.079,1.078,1.079c0.605,0,1.078-0.474,1.078-1.079
			C239.508,42.926,239.036,42.442,238.43,42.442z M238.43,39.218c-0.561,0-0.979,0.43-0.979,0.99c0,0.572,0.418,0.99,0.979,0.99
			c0.562,0,0.969-0.418,0.969-0.99C239.399,39.648,238.992,39.218,238.43,39.218z"/>
		<path fill="#218FB2" d="M246.162,45.831h-1.551l2.541-6.546h-2.068v1.232h-1.364v-2.52h4.984v1.287L246.162,45.831z"/>
	</g>
	<path fill="#D33C3D" d="M110.713,338.127h-1.979v3.871h-2.008v-10.286h3.987c2.123,0,3.394,1.459,3.394,3.207
		S112.837,338.127,110.713,338.127z M110.612,333.504h-1.878v2.817h1.878c0.91,0,1.487-0.564,1.487-1.401
		S111.522,333.504,110.612,333.504z"/>
	<path fill="#D33C3D" d="M124.626,340.958c-0.723,0.723-1.603,1.127-2.774,1.127s-2.066-0.405-2.788-1.127
		c-1.04-1.04-1.011-2.326-1.011-4.102c0-1.777-0.029-3.062,1.011-4.103c0.723-0.723,1.618-1.127,2.788-1.127
		s2.051,0.404,2.774,1.127c1.04,1.04,1.026,2.326,1.026,4.103C125.651,338.632,125.666,339.918,124.626,340.958z M123.138,333.966
		c-0.289-0.332-0.737-0.549-1.285-0.549s-1.011,0.217-1.3,0.549c-0.39,0.434-0.491,0.91-0.491,2.889
		c0,1.979,0.101,2.456,0.491,2.889c0.289,0.333,0.751,0.55,1.3,0.55s0.997-0.217,1.285-0.55c0.39-0.433,0.506-0.91,0.506-2.889
		C123.643,334.876,123.528,334.4,123.138,333.966z"/>
	<path fill="#D33C3D" d="M133.93,342.085c-2.109,0-3.784-1.43-3.784-3.612v-6.761h2.008v6.689c0,1.184,0.693,1.893,1.776,1.893
		s1.792-0.708,1.792-1.893v-6.689h1.993v6.761C137.715,340.655,136.04,342.085,133.93,342.085z"/>
	<path fill="#D33C3D" d="M148.017,341.998l-2.008-4.103h-1.444v4.103h-2.008v-10.286h4.03c2.095,0,3.337,1.43,3.337,3.149
		c0,1.444-0.881,2.341-1.878,2.702l2.297,4.435H148.017z M146.457,333.504h-1.892v2.716h1.892c0.881,0,1.459-0.564,1.459-1.358
		S147.339,333.504,146.457,333.504z"/>
	<path fill="#D33C3D" d="M162.942,341.998v-8.263l-2.094,1.82v-2.023l2.094-1.82h1.878v10.286H162.942z"/>
	<path fill="#D33C3D" d="M173.735,342.085c-1.675,0-3.134-1.098-3.134-3.062v-4.334c0-1.965,1.459-3.062,3.134-3.062
		c1.676,0,3.12,1.098,3.12,3.062v4.334C176.855,340.986,175.411,342.085,173.735,342.085z M174.977,334.718
		c0-0.867-0.506-1.401-1.242-1.401c-0.737,0-1.256,0.534-1.256,1.401v4.29c0,0.867,0.52,1.387,1.256,1.387
		c0.737,0,1.242-0.521,1.242-1.387V334.718z"/>
	<path fill="#D33C3D" d="M190.134,342.085c-1.675,0-3.134-1.098-3.134-3.062v-4.334c0-1.965,1.459-3.062,3.134-3.062
		c1.676,0,3.12,1.098,3.12,3.062v4.334C193.254,340.986,191.81,342.085,190.134,342.085z M191.376,334.718
		c0-0.867-0.506-1.401-1.242-1.401s-1.256,0.534-1.256,1.401v4.29c0,0.867,0.52,1.387,1.256,1.387s1.242-0.521,1.242-1.387V334.718z
		"/>
	<path fill="#D33C3D" d="M200.58,342.085c-1.675,0-3.134-1.098-3.134-3.062v-4.334c0-1.965,1.459-3.062,3.134-3.062
		c1.676,0,3.12,1.098,3.12,3.062v4.334C203.7,340.986,202.256,342.085,200.58,342.085z M201.822,334.718
		c0-0.867-0.506-1.401-1.242-1.401s-1.256,0.534-1.256,1.401v4.29c0,0.867,0.52,1.387,1.256,1.387s1.242-0.521,1.242-1.387V334.718z
		"/>
	<path fill="#D33C3D" d="M211.026,342.085c-1.675,0-3.134-1.098-3.134-3.062v-4.334c0-1.965,1.459-3.062,3.134-3.062
		c1.676,0,3.12,1.098,3.12,3.062v4.334C214.146,340.986,212.702,342.085,211.026,342.085z M212.268,334.718
		c0-0.867-0.506-1.401-1.242-1.401s-1.256,0.534-1.256,1.401v4.29c0,0.867,0.52,1.387,1.256,1.387s1.242-0.521,1.242-1.387V334.718z
		"/>
	<path fill="#D33C3D" d="M230.184,341.998v-4.305h-3.481v4.305h-2.008v-10.286h2.008v4.204h3.481v-4.204h2.008v10.286H230.184z"/>
	<path fill="#D33C3D" d="M243.042,341.998l-0.607-1.82h-3.655l-0.621,1.82h-2.095l3.742-10.286h1.574l3.756,10.286H243.042z
		 M240.644,334.746l-1.3,3.741h2.557L240.644,334.746z"/>
	<path fill="#D33C3D" d="M253.315,341.998h-4.305v-10.286h4.131c2.008,0,3.178,1.127,3.178,2.889c0,1.141-0.751,1.878-1.271,2.124
		c0.622,0.289,1.415,0.939,1.415,2.311C256.464,340.958,255.149,341.998,253.315,341.998z M252.982,333.504h-1.964v2.369h1.964
		c0.852,0,1.329-0.477,1.329-1.184C254.311,333.981,253.835,333.504,252.982,333.504z M253.112,337.679h-2.094v2.528h2.094
		c0.91,0,1.343-0.578,1.343-1.271C254.456,338.242,254.023,337.679,253.112,337.679z"/>
	<path fill="#218FB2" d="M116.643,365.263c-1.049,0-1.932-0.359-2.65-1.077c-0.428-0.428-0.69-0.924-0.8-1.476
		c-0.11-0.552-0.165-1.366-0.165-2.443c0-1.077,0.055-1.891,0.165-2.443c0.111-0.565,0.372-1.048,0.8-1.476
		c0.718-0.718,1.601-1.076,2.65-1.076c1.891,0,3.285,1.104,3.616,3.105h-1.946c-0.207-0.842-0.731-1.394-1.656-1.394
		c-0.524,0-0.939,0.165-1.228,0.511c-0.401,0.428-0.483,0.869-0.483,2.774c0,1.904,0.082,2.346,0.483,2.774
		c0.289,0.345,0.704,0.511,1.228,0.511c0.924,0,1.449-0.553,1.656-1.394h1.946C119.928,364.158,118.52,365.263,116.643,365.263z"/>
	<path fill="#218FB2" d="M129.645,365.097v-4.112h-3.326v4.112h-1.918v-9.826h1.918v4.016h3.326v-4.016h1.918v9.826H129.645z"/>
	<path fill="#218FB2" d="M136.34,365.097v-9.826h1.918v9.826H136.34z"/>
	<path fill="#218FB2" d="M144.952,356.983v2.415h3.878v1.711h-3.878v3.988h-1.918v-9.826h6.472v1.712H144.952z"/>
	<path fill="#218FB2" d="M155.58,356.983v2.415h3.878v1.711h-3.878v3.988h-1.918v-9.826h6.472v1.712H155.58z"/>
	<path fill="#218FB2" d="M169.506,365.097l-1.918-3.919h-1.38v3.919h-1.918v-9.826h3.85c2.001,0,3.188,1.366,3.188,3.009
		c0,1.38-0.842,2.236-1.794,2.581l2.194,4.237H169.506z M168.015,356.983h-1.808v2.594h1.808c0.842,0,1.394-0.538,1.394-1.298
		C169.409,357.521,168.857,356.983,168.015,356.983z"/>
	<path fill="#218FB2" d="M175.8,365.097v-9.826h6.472v1.712h-4.554v2.304h3.878v1.711h-3.878v2.388h4.554v1.711H175.8z"/>
	<path fill="#218FB2" d="M203.791,365.097h-4.112v-9.826h3.946c1.918,0,3.036,1.077,3.036,2.76c0,1.09-0.718,1.794-1.215,2.029
		c0.593,0.276,1.352,0.897,1.352,2.208C206.799,364.104,205.543,365.097,203.791,365.097z M203.473,356.983h-1.876v2.263h1.876
		c0.814,0,1.27-0.455,1.27-1.132S204.288,356.983,203.473,356.983z M203.597,360.972h-2.001v2.415h2.001
		c0.87,0,1.283-0.552,1.283-1.215S204.467,360.972,203.597,360.972z"/>
	<path fill="#218FB2" d="M216.461,365.097l-1.918-3.919h-1.38v3.919h-1.918v-9.826h3.85c2.001,0,3.188,1.366,3.188,3.009
		c0,1.38-0.842,2.236-1.794,2.581l2.194,4.237H216.461z M214.971,356.983h-1.808v2.594h1.808c0.842,0,1.394-0.538,1.394-1.298
		C216.365,357.521,215.813,356.983,214.971,356.983z"/>
	<path fill="#218FB2" d="M226.219,365.18c-2.015,0-3.615-1.366-3.615-3.451v-6.458h1.918v6.39c0,1.132,0.662,1.808,1.697,1.808
		s1.712-0.677,1.712-1.808v-6.39h1.904v6.458C229.835,363.814,228.234,365.18,226.219,365.18z"/>
	<path fill="#218FB2" d="M238.214,356.983v8.114h-1.918v-8.114h-2.567v-1.712h7.052v1.712H238.214z"/>
	<path fill="#218FB2" d="M246.678,365.15c-1.473,0-2.592-0.314-3.547-1.283l1.228-1.228c0.614,0.614,1.446,0.818,2.347,0.818
		c1.119,0,1.719-0.423,1.719-1.201c0-0.341-0.095-0.628-0.3-0.818c-0.191-0.177-0.409-0.273-0.86-0.341l-1.173-0.163
		c-0.832-0.123-1.446-0.382-1.883-0.805c-0.464-0.464-0.696-1.091-0.696-1.91c0-1.733,1.283-2.947,3.384-2.947
		c1.337,0,2.306,0.327,3.138,1.132l-1.201,1.187c-0.614-0.587-1.351-0.669-1.992-0.669c-1.01,0-1.501,0.559-1.501,1.228
		c0,0.245,0.082,0.505,0.286,0.696c0.191,0.177,0.505,0.327,0.9,0.382l1.146,0.164c0.887,0.123,1.446,0.368,1.856,0.75
		c0.519,0.491,0.75,1.201,0.75,2.06C250.28,364.085,248.711,365.15,246.678,365.15z"/>
	<path fill="#218FB2" d="M188.432,365.15c-1.473,0-2.592-0.314-3.547-1.283l1.228-1.228c0.614,0.614,1.446,0.818,2.347,0.818
		c1.119,0,1.719-0.423,1.719-1.201c0-0.341-0.095-0.628-0.3-0.818c-0.191-0.177-0.409-0.273-0.86-0.341l-1.173-0.163
		c-0.832-0.123-1.446-0.382-1.883-0.805c-0.464-0.464-0.696-1.091-0.696-1.91c0-1.733,1.283-2.947,3.384-2.947
		c1.337,0,2.306,0.327,3.138,1.132l-1.201,1.187c-0.614-0.587-1.351-0.669-1.992-0.669c-1.01,0-1.501,0.559-1.501,1.228
		c0,0.245,0.082,0.505,0.286,0.696c0.191,0.177,0.505,0.327,0.9,0.382l1.146,0.164c0.887,0.123,1.446,0.368,1.856,0.75
		c0.519,0.491,0.75,1.201,0.75,2.06C192.034,364.085,190.465,365.15,188.432,365.15z"/>
</g>
</svg>
