<?xml version="1.0" encoding="utf-8"?>
<!-- Generator: Adobe Illustrator 17.0.0, SVG Export Plug-In . SVG Version: 6.00 Build 0)  -->
<!DOCTYPE svg PUBLIC "-//W3C//DTD SVG 1.1//EN" "http://www.w3.org/Graphics/SVG/1.1/DTD/svg11.dtd">
<svg version="1.1" id="Calque_1" xmlns="http://www.w3.org/2000/svg" xmlns:xlink="http://www.w3.org/1999/xlink" x="0px" y="0px"
	 width="190.167px" height="210.452px" viewBox="0 0 190.167 210.452" enable-background="new 0 0 190.167 210.452"
	 xml:space="preserve">
<g>
	<polygon opacity="0.9" fill="#702024" enable-background="new    " points="13.004,58.942 99.159,9.201 185.311,58.942 
		185.311,158.423 99.159,208.164 13.004,158.423 	"/>
	<polygon fill="#D33C3D" points="5.009,54.445 91.164,4.704 177.316,54.445 177.316,153.925 91.164,203.666 5.009,153.925 	"/>
	<rect x="16.948" y="64.197" fill="none" width="148.432" height="121.155"/>
	<g enable-background="new    ">
		<path fill="#EAE9E5" d="M34.061,86.903c-1.792,0-3.3-0.613-4.526-1.839c-0.73-0.73-1.179-1.58-1.367-2.522
			c-0.188-0.943-0.283-2.334-0.283-4.173s0.094-3.229,0.283-4.173c0.188-0.967,0.637-1.792,1.367-2.522
			c1.226-1.226,2.735-1.839,4.526-1.839c3.23,0,5.611,1.886,6.177,5.305h-3.324c-0.354-1.438-1.25-2.382-2.829-2.382
			c-0.896,0-1.604,0.283-2.098,0.873c-0.684,0.73-0.825,1.485-0.825,4.738s0.141,4.008,0.825,4.738
			c0.495,0.59,1.202,0.872,2.098,0.872c1.579,0,2.475-0.942,2.829-2.381h3.324C39.672,85.017,37.268,86.903,34.061,86.903z"/>
		<path fill="#EAE9E5" d="M52.023,86.761v-7.025h-5.682v7.025h-3.277V69.976h3.277v6.86h5.682v-6.86H55.3v16.785H52.023z"/>
		<path fill="#EAE9E5" d="M69.371,85.064c-1.179,1.179-2.616,1.839-4.526,1.839c-1.909,0-3.371-0.66-4.55-1.839
			c-1.697-1.697-1.649-3.796-1.649-6.695s-0.048-4.998,1.649-6.695c1.179-1.179,2.641-1.839,4.55-1.839
			c1.91,0,3.348,0.66,4.526,1.839c1.697,1.697,1.674,3.796,1.674,6.695S71.068,83.367,69.371,85.064z M66.943,73.654
			c-0.472-0.542-1.202-0.896-2.099-0.896c-0.896,0-1.65,0.354-2.121,0.896c-0.637,0.707-0.802,1.485-0.802,4.715
			s0.165,4.008,0.802,4.715c0.471,0.542,1.226,0.896,2.121,0.896c0.896,0,1.627-0.354,2.099-0.896
			c0.637-0.707,0.825-1.485,0.825-4.715S67.58,74.361,66.943,73.654z"/>
		<path fill="#EAE9E5" d="M74.391,86.761V69.976h3.276v16.785H74.391z"/>
		<path fill="#EAE9E5" d="M86.2,86.903c-2.546,0-4.479-0.542-6.129-2.216l2.121-2.122c1.062,1.061,2.499,1.414,4.056,1.414
			c1.933,0,2.97-0.73,2.97-2.074c0-0.589-0.165-1.084-0.519-1.414c-0.33-0.307-0.707-0.472-1.485-0.59l-2.027-0.283
			c-1.438-0.212-2.499-0.66-3.253-1.391c-0.802-0.802-1.202-1.886-1.202-3.301c0-2.993,2.216-5.092,5.846-5.092
			c2.311,0,3.984,0.565,5.423,1.957l-2.075,2.051c-1.061-1.014-2.333-1.155-3.441-1.155c-1.744,0-2.594,0.967-2.594,2.122
			c0,0.424,0.142,0.872,0.495,1.202c0.33,0.307,0.873,0.565,1.557,0.66l1.979,0.282c1.533,0.213,2.499,0.637,3.207,1.297
			c0.896,0.849,1.296,2.075,1.296,3.56C92.424,85.064,89.713,86.903,86.2,86.903z"/>
		<path fill="#EAE9E5" d="M95.511,86.761V69.976h3.276v16.785H95.511z"/>
		<path fill="#EAE9E5" d="M107.319,86.903c-2.546,0-4.479-0.542-6.129-2.216l2.121-2.122c1.062,1.061,2.499,1.414,4.056,1.414
			c1.933,0,2.97-0.73,2.97-2.074c0-0.589-0.165-1.084-0.519-1.414c-0.33-0.307-0.707-0.472-1.485-0.59l-2.027-0.283
			c-1.438-0.212-2.499-0.66-3.253-1.391c-0.802-0.802-1.202-1.886-1.202-3.301c0-2.993,2.216-5.092,5.846-5.092
			c2.311,0,3.984,0.565,5.423,1.957l-2.075,2.051c-1.061-1.014-2.333-1.155-3.441-1.155c-1.744,0-2.594,0.967-2.594,2.122
			c0,0.424,0.142,0.872,0.495,1.202c0.33,0.307,0.873,0.565,1.557,0.66l1.979,0.282c1.533,0.213,2.499,0.637,3.207,1.297
			c0.896,0.849,1.296,2.075,1.296,3.56C113.543,85.064,110.832,86.903,107.319,86.903z"/>
		<path fill="#EAE9E5" d="M121.108,86.903c-2.546,0-4.479-0.542-6.129-2.216l2.121-2.122c1.062,1.061,2.499,1.414,4.056,1.414
			c1.933,0,2.97-0.73,2.97-2.074c0-0.589-0.165-1.084-0.519-1.414c-0.33-0.307-0.707-0.472-1.485-0.59l-2.027-0.283
			c-1.438-0.212-2.499-0.66-3.253-1.391c-0.802-0.802-1.202-1.886-1.202-3.301c0-2.993,2.216-5.092,5.846-5.092
			c2.311,0,3.984,0.565,5.423,1.957l-2.075,2.051c-1.061-1.014-2.333-1.155-3.441-1.155c-1.744,0-2.594,0.967-2.594,2.122
			c0,0.424,0.142,0.872,0.495,1.202c0.33,0.307,0.873,0.565,1.557,0.66l1.979,0.282c1.533,0.213,2.499,0.637,3.207,1.297
			c0.896,0.849,1.296,2.075,1.296,3.56C127.332,85.064,124.621,86.903,121.108,86.903z"/>
		<path fill="#EAE9E5" d="M130.419,86.761V69.976h11.057v2.923h-7.78v3.938h6.625v2.923h-6.625v4.079h7.78v2.923H130.419z"/>
		<path fill="#EAE9E5" d="M143.665,86.761v-2.641l7.166-11.222h-6.86v-2.923h10.727v2.593l-7.189,11.27h7.189v2.923H143.665z"/>
	</g>
	<g enable-background="new    ">
		<path fill="#EAE9E5" d="M63.784,117.225h-2.452l-5.539-16.785h3.395l3.371,10.938l3.371-10.938h3.418L63.784,117.225z"/>
		<path fill="#EAE9E5" d="M81.298,115.528c-1.179,1.179-2.616,1.839-4.526,1.839c-1.909,0-3.371-0.66-4.55-1.839
			c-1.697-1.697-1.65-3.796-1.65-6.695s-0.047-4.998,1.65-6.695c1.179-1.179,2.641-1.839,4.55-1.839c1.91,0,3.348,0.66,4.526,1.839
			c1.697,1.697,1.674,3.796,1.674,6.695S82.995,113.831,81.298,115.528z M78.87,104.118c-0.472-0.542-1.202-0.896-2.099-0.896
			c-0.896,0-1.65,0.354-2.121,0.896c-0.637,0.707-0.802,1.485-0.802,4.715s0.165,4.008,0.802,4.715
			c0.471,0.542,1.226,0.896,2.121,0.896c0.896,0,1.627-0.354,2.099-0.896c0.637-0.707,0.825-1.485,0.825-4.715
			S79.507,104.825,78.87,104.118z"/>
		<path fill="#EAE9E5" d="M92.259,103.363v13.862h-3.277v-13.862h-4.385v-2.923h12.047v2.923H92.259z"/>
		<path fill="#EAE9E5" d="M108.217,117.225l-3.277-6.695h-2.357v6.695h-3.276V100.44h6.577c3.418,0,5.445,2.334,5.445,5.14
			c0,2.357-1.438,3.818-3.064,4.408l3.748,7.237H108.217z M105.671,103.363h-3.089v4.433h3.089c1.438,0,2.381-0.92,2.381-2.216
			C108.052,104.283,107.108,103.363,105.671,103.363z"/>
		<path fill="#EAE9E5" d="M114.721,117.225V100.44h11.057v2.923h-7.78v3.938h6.625v2.923h-6.625v4.079h7.78v2.923H114.721z"/>
	</g>
	<g enable-background="new    ">
		<path fill="#EAE9E5" d="M61.91,147.831c-2.546,0-4.479-0.542-6.13-2.216l2.122-2.122c1.061,1.061,2.499,1.414,4.056,1.414
			c1.933,0,2.97-0.73,2.97-2.074c0-0.589-0.165-1.084-0.519-1.414c-0.33-0.307-0.707-0.472-1.485-0.59l-2.027-0.283
			c-1.438-0.212-2.499-0.66-3.253-1.391c-0.802-0.802-1.203-1.886-1.203-3.301c0-2.993,2.217-5.092,5.847-5.092
			c2.311,0,3.984,0.565,5.423,1.957l-2.075,2.051c-1.061-1.014-2.333-1.155-3.441-1.155c-1.744,0-2.594,0.967-2.594,2.122
			c0,0.424,0.142,0.872,0.495,1.202c0.33,0.307,0.873,0.565,1.557,0.66l1.98,0.282c1.532,0.213,2.498,0.637,3.206,1.297
			c0.896,0.849,1.296,2.075,1.296,3.56C68.134,145.992,65.423,147.831,61.91,147.831z"/>
		<path fill="#EAE9E5" d="M77.727,141.371h-3.229v6.318h-3.276v-16.785h6.506c3.466,0,5.541,2.381,5.541,5.233
			S81.192,141.371,77.727,141.371z M77.562,133.827h-3.064v4.598h3.064c1.485,0,2.429-0.92,2.429-2.287
			S79.047,133.827,77.562,133.827z"/>
		<path fill="#EAE9E5" d="M96.183,145.992c-1.179,1.179-2.616,1.839-4.526,1.839c-1.909,0-3.371-0.66-4.55-1.839
			c-1.697-1.697-1.65-3.796-1.65-6.695s-0.047-4.998,1.65-6.695c1.179-1.179,2.641-1.839,4.55-1.839c1.91,0,3.348,0.66,4.526,1.839
			c1.697,1.697,1.674,3.796,1.674,6.695S97.88,144.294,96.183,145.992z M93.755,134.582c-0.472-0.542-1.202-0.896-2.099-0.896
			c-0.896,0-1.65,0.354-2.121,0.896c-0.637,0.707-0.802,1.485-0.802,4.715s0.165,4.008,0.802,4.715
			c0.471,0.542,1.226,0.896,2.121,0.896c0.896,0,1.627-0.354,2.099-0.896c0.637-0.707,0.825-1.485,0.825-4.715
			S94.392,135.289,93.755,134.582z"/>
		<path fill="#EAE9E5" d="M110.114,147.689l-3.277-6.695h-2.357v6.695h-3.276v-16.785h6.577c3.418,0,5.445,2.334,5.445,5.14
			c0,2.357-1.438,3.818-3.064,4.408l3.748,7.237H110.114z M107.568,133.827h-3.089v4.433h3.089c1.438,0,2.381-0.92,2.381-2.216
			C109.949,134.747,109.006,133.827,107.568,133.827z"/>
		<path fill="#EAE9E5" d="M123.03,133.827v13.862h-3.277v-13.862h-4.385v-2.923h12.047v2.923H123.03z"/>
	</g>
</g>
</svg>
