<?xml version="1.0" encoding="utf-8"?>
<!-- Generator: Adobe Illustrator 17.0.0, SVG Export Plug-In . SVG Version: 6.00 Build 0)  -->
<!DOCTYPE svg PUBLIC "-//W3C//DTD SVG 1.1//EN" "http://www.w3.org/Graphics/SVG/1.1/DTD/svg11.dtd">
<svg version="1.1" id="Calque_1" xmlns="http://www.w3.org/2000/svg" xmlns:xlink="http://www.w3.org/1999/xlink" x="0px" y="0px"
	 width="242.362px" height="269.291px" viewBox="0 0 242.362 269.291" enable-background="new 0 0 242.362 269.291"
	 xml:space="preserve">
<g>
	<polygon fill="#D33B3D" points="8.227,69.105 121.349,3.794 234.471,69.105 234.471,199.727 121.349,265.038 8.227,199.727 	"/>
	<g>
		<path fill="#EAE9E5" d="M35.256,139.497c-2.621,0-4.829-0.895-6.624-2.691c-1.068-1.07-1.723-2.311-1.999-3.691
			c-0.276-1.38-0.415-3.415-0.415-6.106c0-2.693,0.139-4.728,0.415-6.108c0.276-1.414,0.931-2.621,1.999-3.691
			c1.795-1.793,4.003-2.691,6.624-2.691c4.728,0,8.213,2.76,9.041,7.762h-4.865c-0.518-2.105-1.829-3.485-4.14-3.485
			c-1.313,0-2.347,0.415-3.072,1.277c-1.001,1.07-1.207,2.174-1.207,6.936c0,4.76,0.206,5.864,1.207,6.934
			c0.725,0.862,1.759,1.277,3.072,1.277c2.311,0,3.622-1.38,4.14-3.485h4.865C43.469,136.737,39.948,139.497,35.256,139.497z"/>
		<path fill="#EAE9E5" d="M61.351,139.291l-1.45-4.347h-8.729l-1.483,4.347h-5.002l8.935-24.565h3.761l8.969,24.565H61.351z
			 M55.624,121.972l-3.106,8.935h6.106L55.624,121.972z"/>
		<path fill="#EAE9E5" d="M76.025,119.003v20.288H71.23v-20.288h-6.418v-4.277h17.631v4.277H76.025z"/>
		<path fill="#EAE9E5" d="M85.66,139.291v-24.565h16.181v4.277H90.456v5.762h9.696v4.279h-9.696v5.967h11.386v4.279H85.66z
			 M94.562,112.345H91.56l2.208-5.866h4.728L94.562,112.345z"/>
		<path fill="#EAE9E5" d="M121,136.703c-1.898,1.932-4.176,2.794-6.936,2.794c-2.621,0-4.829-0.895-6.624-2.691
			c-1.068-1.07-1.723-2.311-1.999-3.691s-0.415-3.415-0.415-6.106c0-2.693,0.139-4.728,0.415-6.108
			c0.276-1.414,0.931-2.621,1.999-3.691c1.795-1.793,4.003-2.691,6.624-2.691c5.59,0,8.592,3.588,9.247,7.865h-4.831
			c-0.586-2.381-2.035-3.588-4.416-3.588c-1.277,0-2.311,0.449-3.07,1.311c-0.898,1.14-1.174,2.037-1.174,6.902
			c0,4.829,0.206,5.794,1.174,6.934c0.725,0.862,1.759,1.277,3.07,1.277c1.416,0,2.554-0.449,3.417-1.38
			c0.723-0.828,1.104-1.932,1.104-3.278v-0.931h-4.521v-4.003h9.281v3.59C123.345,132.803,122.69,134.908,121,136.703z"/>
		<path fill="#EAE9E5" d="M142.021,136.806c-1.723,1.726-3.83,2.691-6.624,2.691c-2.794,0-4.932-0.965-6.658-2.691
			c-2.484-2.484-2.415-5.554-2.415-9.797c0-4.245-0.07-7.315,2.415-9.799c1.726-1.726,3.864-2.691,6.658-2.691
			c2.794,0,4.901,0.965,6.624,2.691c2.486,2.484,2.448,5.554,2.448,9.799C144.469,131.253,144.507,134.322,142.021,136.806z
			 M138.468,120.107c-0.691-0.792-1.761-1.311-3.072-1.311c-1.308,0-2.412,0.518-3.104,1.311c-0.931,1.037-1.174,2.174-1.174,6.902
			c0,4.726,0.242,5.864,1.174,6.898c0.691,0.794,1.795,1.313,3.104,1.313c1.311,0,2.381-0.518,3.072-1.313
			c0.931-1.035,1.205-2.172,1.205-6.898C139.674,122.281,139.4,121.144,138.468,120.107z"/>
		<path fill="#EAE9E5" d="M161.733,139.291l-4.795-9.799h-3.451v9.799h-4.795v-24.565h9.624c5.002,0,7.968,3.415,7.968,7.522
			c0,3.449-2.103,5.588-4.484,6.451l5.486,10.592H161.733z M158.004,119.003h-4.517v6.487h4.517c2.107,0,3.485-1.346,3.485-3.243
			C161.489,120.349,160.111,119.003,158.004,119.003z"/>
		<path fill="#EAE9E5" d="M170.574,139.291v-24.565h4.795v24.565H170.574z"/>
		<path fill="#EAE9E5" d="M180.413,139.291v-24.565h16.181v4.277h-11.386v5.762h9.696v4.279h-9.696v5.967h11.386v4.279H180.413z"/>
		<path fill="#EAE9E5" d="M207.369,139.497c-3.725,0-6.557-0.792-8.971-3.243l3.106-3.106c1.555,1.553,3.658,2.071,5.933,2.071
			c2.832,0,4.349-1.07,4.349-3.036c0-0.864-0.24-1.589-0.758-2.071c-0.485-0.449-1.037-0.689-2.174-0.862l-2.967-0.415
			c-2.103-0.31-3.658-0.965-4.762-2.035c-1.171-1.174-1.757-2.76-1.757-4.829c0-4.382,3.24-7.452,8.554-7.452
			c3.38,0,5.832,0.828,7.935,2.863l-3.034,3.002c-1.555-1.485-3.417-1.692-5.04-1.692c-2.554,0-3.792,1.414-3.792,3.106
			c0,0.622,0.206,1.277,0.725,1.759c0.48,0.449,1.277,0.828,2.275,0.965l2.899,0.415c2.242,0.31,3.658,0.931,4.69,1.898
			c1.311,1.241,1.9,3.036,1.9,5.208C216.48,136.806,212.51,139.497,207.369,139.497z"/>
	</g>
</g>
</svg>
