<?xml version="1.0" encoding="UTF-8" standalone="no"?>
<!-- Generator: Adobe Illustrator 17.0.0, SVG Export Plug-In . SVG Version: 6.00 Build 0)  -->

<svg
   xmlns:dc="http://purl.org/dc/elements/1.1/"
   xmlns:cc="http://creativecommons.org/ns#"
   xmlns:rdf="http://www.w3.org/1999/02/22-rdf-syntax-ns#"
   xmlns:svg="http://www.w3.org/2000/svg"
   xmlns="http://www.w3.org/2000/svg"
   xmlns:sodipodi="http://sodipodi.sourceforge.net/DTD/sodipodi-0.dtd"
   xmlns:inkscape="http://www.inkscape.org/namespaces/inkscape"
   version="1.1"
   id="Calque_1"
   x="0px"
   y="0px"
   width="116.50752"
   height="112.335"
   viewBox="0 0 116.50752 112.335"
   enable-background="new 0 0 395.333 200"
   xml:space="preserve"
   inkscape:version="0.48.4 r9939"
   sodipodi:docname="couronne-titre.svg"><metadata
   id="metadata3149"><rdf:RDF><cc:Work
       rdf:about=""><dc:format>image/svg+xml</dc:format><dc:type
         rdf:resource="http://purl.org/dc/dcmitype/StillImage" /></cc:Work></rdf:RDF></metadata><defs
   id="defs3147" /><sodipodi:namedview
   pagecolor="#ffffff"
   bordercolor="#666666"
   borderopacity="1"
   objecttolerance="10"
   gridtolerance="10"
   guidetolerance="10"
   inkscape:pageopacity="0"
   inkscape:pageshadow="2"
   inkscape:window-width="1366"
   inkscape:window-height="706"
   id="namedview3145"
   showgrid="false"
   fit-margin-top="0"
   fit-margin-left="0"
   fit-margin-right="0"
   fit-margin-bottom="0"
   inkscape:zoom="2.5112447"
   inkscape:cx="55.624395"
   inkscape:cy="15.578142"
   inkscape:window-x="-8"
   inkscape:window-y="-8"
   inkscape:window-maximized="1"
   inkscape:current-layer="Calque_1" />
<rect
   x="-159.93668"
   y="136.036"
   width="434.224"
   height="141.412"
   id="rect3069"
   style="fill:none" />

<g
   id="g3081"
   transform="translate(-135.81968,-7.139)">
	<path
   d="m 148.443,41.585 c -0.199,0.891 -0.427,1.777 -0.589,2.675 -0.124,0.688 0.143,1.133 0.924,1.02 0.762,-0.11 1.517,-0.272 2.277,-0.401 3.238,-0.548 5.546,-2.443 7.219,-5.144 0.674,-1.089 1.094,-2.335 1.716,-3.699 -1.667,0.491 -2.975,0.861 -4.273,1.263 -1.445,0.447 -2.97,0.752 -4.295,1.439 -1.114,0.578 -1.989,1.615 -2.97,2.449 0.097,-0.522 0.115,-1.073 0.303,-1.56 1.589,-4.131 3.642,-8.028 6.089,-11.71 2.669,-4.015 5.701,-7.737 9.216,-11.049 0.285,-0.268 0.702,-0.497 1.084,-0.545 3.985,-0.508 7.231,-2.146 9.081,-5.901 0.495,-1.005 0.838,-2.085 1.289,-3.228 -2.21,0.587 -4.159,1.028 -6.059,1.629 -2.234,0.706 -3.882,2.111 -4.852,4.323 -0.484,1.104 -0.371,2.375 -1.394,3.351 -4.641,4.429 -8.557,9.46 -11.594,15.109 -1.587,2.951 -3.016,6.022 -4.149,9.171 -0.945,2.628 -1.432,5.433 -1.984,8.187 -0.789,3.937 -0.712,7.935 -0.156,11.876 0.441,3.123 1.167,6.227 2.035,9.263 0.796,2.782 1.883,5.489 2.971,8.177 0.681,1.683 1.601,3.269 2.413,4.899 -0.2,-0.13 -0.429,-0.231 -0.596,-0.394 -1.673,-1.638 -3.699,-2.304 -6.01,-2.32 -0.946,-0.006 -1.889,-0.221 -2.837,-0.31 -0.861,-0.081 -1.726,-0.119 -2.703,-0.184 0.097,0.336 0.111,0.518 0.196,0.658 3.051,5.023 6.709,6.779 12.09,6.446 0.597,-0.037 0.756,-0.353 0.666,-0.829 -0.168,-0.89 -0.396,-1.769 -0.599,-2.652 0.295,0.337 0.599,0.667 0.885,1.012 1.941,2.339 3.871,4.686 5.822,7.016 0.441,0.528 0.948,1.001 1.425,1.499 -0.048,0.091 -0.097,0.181 -0.145,0.272 -1.65,-1.171 -3.503,-1.095 -5.311,-0.88 -1.702,0.202 -3.373,0.666 -5.057,1.018 -0.507,0.106 -1.011,0.225 -1.676,0.374 2.231,2.357 4.74,3.83 7.8,4.262 2.076,0.293 4.045,-0.325 6,-0.891 0.606,-0.176 0.89,-0.687 0.509,-1.332 -0.306,-0.518 -0.638,-1.021 -1.112,-1.775 0.436,0.206 0.611,0.252 0.74,0.354 4.715,3.748 9.919,6.534 15.7,8.297 3.19,0.973 6.435,1.529 9.713,2.031 1.371,0.21 2.696,0.762 4.019,1.223 0.797,0.277 0.779,0.689 0.172,1.293 -1.093,1.087 -2.305,2.14 -3.087,3.437 -1.508,2.502 -2.764,5.157 -4.081,7.77 -0.108,0.213 0.115,0.594 0.185,0.896 0.195,-0.19 0.464,-0.345 0.571,-0.575 0.477,-1.022 0.87,-2.083 1.364,-3.096 1.437,-2.949 3.187,-5.675 5.694,-7.857 0.678,-0.59 1.271,-0.66 1.918,-0.002 0.268,0.272 0.58,0.501 0.851,0.77 2.904,2.886 4.734,6.429 6.23,10.18 0.092,0.232 0.369,0.39 0.559,0.583 0.071,-0.3 0.281,-0.652 0.189,-0.89 -0.455,-1.187 -0.944,-2.365 -1.504,-3.506 -1.449,-2.95 -3.278,-5.634 -5.738,-7.846 -0.516,-0.464 -0.537,-0.831 0.132,-1.078 1.251,-0.462 2.492,-1.129 3.785,-1.27 4.64,-0.505 9.159,-1.505 13.49,-3.195 3.529,-1.377 6.868,-3.188 9.968,-5.395 0.944,-0.672 1.861,-1.38 2.791,-2.072 -0.175,0.665 -0.504,1.145 -0.815,1.637 -0.379,0.599 -0.243,1.186 0.389,1.377 1.303,0.394 2.636,0.74 3.982,0.922 2.19,0.297 4.263,-0.259 6.169,-1.325 1.328,-0.743 2.634,-1.56 3.605,-2.94 -0.286,-0.077 -0.447,-0.133 -0.613,-0.164 -1.698,-0.309 -3.424,-0.51 -5.088,-0.945 -1.949,-0.509 -3.817,-0.56 -5.678,0.259 -0.188,0.083 -0.387,0.139 -0.85,0.303 0.343,-0.429 0.47,-0.641 0.645,-0.798 2.597,-2.329 4.782,-5.005 6.727,-7.891 0.265,-0.393 0.668,-0.693 1.007,-1.036 -0.229,0.91 -0.5,1.813 -0.655,2.736 -0.034,0.201 0.363,0.69 0.535,0.678 1.891,-0.13 3.869,-0.036 5.644,-0.585 2.893,-0.894 4.89,-3.083 6.453,-5.636 0.13,-0.212 0.159,-0.485 0.255,-0.796 -2.468,0.178 -4.793,0.345 -7.117,0.518 -0.137,0.01 -0.266,0.092 -0.404,0.118 -1.702,0.325 -3.073,1.265 -4.376,2.336 0.535,-1.14 1.051,-2.29 1.609,-3.42 1.806,-3.657 3.307,-7.423 4.114,-11.437 0.563,-2.8 1.298,-5.585 1.603,-8.414 0.558,-5.176 0.317,-10.343 -1.24,-15.363 -0.854,-2.755 -1.623,-5.568 -2.811,-8.182 -3.43,-7.545 -8.211,-14.174 -14.151,-19.966 -0.374,-0.365 -0.677,-0.935 -0.755,-1.449 -0.399,-2.629 -1.858,-4.506 -4.23,-5.467 -2.186,-0.886 -4.524,-1.398 -7.055,-2.152 0.245,0.751 0.396,1.307 0.605,1.841 1.965,5.016 4.933,6.492 9.503,7.331 0.453,0.083 0.993,0.268 1.28,0.593 2.529,2.86 5.089,5.699 7.487,8.668 3.192,3.953 5.485,8.45 7.461,13.109 0.276,0.652 0.396,1.37 0.588,2.057 -0.107,0.047 -0.213,0.095 -0.32,0.142 -1.071,-1.244 -2.258,-2.304 -3.879,-2.749 -2.298,-0.631 -4.588,-1.293 -6.927,-1.954 0,0.253 -0.088,0.54 0.014,0.718 0.912,1.597 1.722,3.277 2.824,4.735 1.686,2.231 4.238,3.072 6.864,3.586 1.741,0.341 1.851,0.189 2.177,-1.504 0.013,-0.069 0.145,-0.115 0.324,-0.249 0.225,1.063 0.394,2.059 0.648,3.033 0.866,3.326 1.062,6.711 0.945,10.125 -0.135,3.933 -0.751,7.792 -1.862,11.567 -0.659,2.238 -1.239,4.51 -2.067,6.685 -1.743,4.577 -4.135,8.799 -7.248,12.609 -3.057,3.741 -6.596,6.916 -10.701,9.463 -3.042,1.887 -6.186,3.575 -9.647,4.542 -2.817,0.787 -5.663,1.491 -8.526,2.087 -2.551,0.531 -5.212,0.584 -7.493,2.114 -0.317,0.213 -1.007,0.154 -1.379,-0.048 -1.696,-0.921 -3.445,-1.508 -5.392,-1.729 -2.477,-0.282 -4.964,-0.697 -7.367,-1.347 -2.381,-0.644 -4.71,-1.544 -6.981,-2.522 -5.272,-2.271 -9.918,-5.485 -13.938,-9.602 -6.846,-7.01 -10.644,-15.582 -12.68,-25.004 -0.617,-2.857 -0.87,-5.81 -1.086,-8.734 -0.324,-4.383 0.376,-8.684 1.501,-12.91 0.212,-0.773 0.703,-1.472 1.063,-2.207 z m -12.058,21.354 c -0.463,4.709 6.051,11.236 10.333,10.585 0.668,-2.979 -0.232,-5.466 -2.762,-7.035 -1.348,-0.837 -2.896,-1.351 -4.348,-2.023 -1.045,-0.484 -2.081,-0.986 -3.223,-1.527 z m 18.329,-16.476 c -0.253,0.089 -0.45,0.106 -0.576,0.211 -1.668,1.385 -3.355,2.751 -4.981,4.185 -2.708,2.387 -3.45,5.745 -1.52,8.578 5.147,-2.139 7.746,-6.854 7.077,-12.974 z m 78.684,0.135 c -0.571,5.674 1.414,9.933 6.566,12.7 0.173,0.093 0.71,-0.127 0.819,-0.336 1.321,-2.547 1.029,-5.116 -1.082,-7.336 -1.744,-1.835 -3.854,-3.322 -5.811,-4.952 -0.089,-0.075 -0.265,-0.045 -0.492,-0.076 z m -77,23.273 c -0.167,0.329 -0.358,0.621 -0.472,0.94 -0.521,1.46 -0.883,2.995 -1.562,4.374 -0.824,1.671 -0.916,3.375 -0.796,5.149 0.109,1.601 1.832,3.742 3.371,4.205 3.597,-4.903 2.881,-10.513 -0.541,-14.668 z m 95.483,-6.875 c -0.345,0.077 -0.488,0.086 -0.613,0.14 -1.773,0.77 -3.538,1.556 -5.314,2.319 -2.91,1.25 -4.799,3.432 -4.744,6.276 0.038,1.979 0.014,2.011 1.912,1.537 2.944,-0.735 5.337,-2.3 6.896,-4.948 0.937,-1.591 1.586,-3.313 1.863,-5.324 z M 148.88,19.281 c -3.78,3.84 -4.185,11.852 -0.774,14.814 3.302,-1.924 4.142,-5.062 2.983,-8.471 -0.714,-2.102 -1.459,-4.193 -2.209,-6.343 z m 77.06,86.692 c -1.188,-0.635 -2.215,-1.225 -3.277,-1.743 -1.861,-0.908 -3.445,-2.358 -5.683,-2.535 -2.296,-0.182 -4.7,0.654 -5.853,2.593 4.488,4.07 9.19,4.638 14.813,1.685 z m -48.954,-1.742 c -1.597,-2.386 -4.975,-3.349 -7.717,-2.043 -1.701,0.81 -3.324,1.782 -4.984,2.677 -0.656,0.353 -1.317,0.696 -2.075,1.095 5.214,2.883 10.38,2.539 14.776,-1.729 z M 231.19,84.664 c 2.192,-1.132 3.37,-3.08 3.415,-5.451 0.026,-1.404 -0.299,-2.688 -0.851,-3.978 -0.746,-1.74 -1.326,-3.552 -1.995,-5.379 -3.318,3.934 -4.295,9.465 -0.569,14.808 z M 141.705,31.249 c -0.15,0.174 -0.373,0.333 -0.458,0.546 -2.027,5.104 -1.9,8.9 1.741,13.425 0.52,0.646 0.94,0.648 1.521,0.034 2.021,-2.136 2.301,-5.276 0.671,-8.051 -1.145,-1.95 -2.28,-3.906 -3.475,-5.954 z M 252.24,47.208 c -0.253,0.139 -0.443,0.219 -0.604,0.337 -1.577,1.154 -3.134,2.336 -4.727,3.468 -2.875,2.044 -3.821,4.531 -2.945,7.861 0.159,0.603 0.471,0.991 1.13,0.658 2.307,-1.166 4.456,-2.528 5.707,-4.92 1.202,-2.294 1.754,-4.714 1.439,-7.404 z M 135.893,47.19 c -0.569,5.71 2.191,10.499 7.673,12.518 1.342,-1.538 1.375,-4.534 -0.122,-6.424 -0.805,-1.017 -1.873,-1.848 -2.903,-2.662 -1.481,-1.17 -3.035,-2.248 -4.648,-3.432 z m 33.757,41.382 c -0.02,0.326 -0.076,0.506 -0.035,0.661 0.604,2.286 1.088,4.615 1.866,6.84 1.042,2.983 3.047,4.492 6.246,4.555 0.532,0.011 0.84,-0.184 0.733,-0.744 -0.256,-1.338 -0.423,-2.707 -0.836,-3.997 -1.248,-3.891 -4.275,-5.885 -7.974,-7.315 z m 48.916,0.313 c -0.078,-0.073 -0.155,-0.146 -0.233,-0.219 -0.615,0.247 -1.248,0.457 -1.842,0.747 -4.226,2.061 -6.489,5.457 -6.843,10.137 -0.045,0.591 0.014,1.058 0.799,1.051 2.359,-0.022 4.364,-0.861 5.397,-3.016 0.81,-1.69 1.2,-3.583 1.759,-5.392 0.339,-1.098 0.644,-2.205 0.963,-3.308 z M 246.518,31.05 c -1.154,1.984 -2.075,3.702 -3.122,5.339 -2.066,3.227 -2.044,6.228 0.138,8.809 0.558,0.66 1.034,0.722 1.607,0.013 2.592,-3.205 3.737,-6.762 2.613,-10.843 -0.301,-1.089 -0.787,-2.128 -1.236,-3.318 z m -6.413,3.088 c 3.483,-5.13 2.787,-10.646 -0.921,-14.775 -0.633,1.849 -1.198,3.74 -1.923,5.568 -1.75,4.416 -0.088,7.573 2.844,9.207 z m -84.601,28.926 c -0.214,-1.285 -0.413,-2.572 -0.653,-3.851 -0.045,-0.238 -0.248,-0.447 -0.378,-0.669 -0.208,0.16 -0.458,0.287 -0.619,0.485 -1.269,1.573 -2.53,3.153 -3.776,4.744 -1.934,2.468 -1.933,5.577 -0.466,7.881 0.45,0.706 0.884,1.01 1.637,0.278 2.503,-2.433 4.345,-5.15 4.255,-8.868 z m 84.28,5.151 c -0.099,-0.032 -0.198,-0.063 -0.296,-0.095 0.158,-1.659 -0.472,-3.05 -1.458,-4.311 -1.143,-1.462 -2.295,-2.918 -3.456,-4.367 -0.272,-0.339 -0.594,-0.638 -0.893,-0.955 -0.172,0.386 -0.352,0.769 -0.512,1.16 -0.107,0.261 -0.229,0.528 -0.27,0.803 -0.675,4.529 0.435,8.43 3.999,11.502 0.728,0.627 1.224,0.481 1.557,-0.275 0.5,-1.129 0.892,-2.305 1.329,-3.462 z m -78.517,11.478 c -0.037,0.324 -0.07,0.528 -0.083,0.734 -0.126,1.872 -0.208,3.747 -0.38,5.614 -0.296,3.221 0.819,6.101 4.249,7.529 0.735,0.306 1.105,0.076 1.258,-0.585 0.159,-0.688 0.147,-1.416 0.316,-2.1 1.007,-4.059 -1.977,-9.086 -5.36,-11.192 z m 65.657,-0.103 c -4.959,3.707 -6.428,8.015 -5.153,13.319 0.201,0.836 0.632,0.974 1.399,0.629 3.1,-1.399 4.618,-4.292 4.127,-7.732 -0.224,-1.573 -0.261,-3.173 -0.369,-4.762 -0.028,-0.412 -0.004,-0.827 -0.004,-1.454 z M 159.281,8.703 c -2.766,2.315 -4.697,4.89 -4.822,8.428 -0.046,1.319 0.234,2.656 0.421,3.976 0.152,1.073 0.527,1.237 1.505,0.806 2.702,-1.191 3.838,-3.657 3.691,-6.361 -0.104,-1.903 -0.367,-3.797 -0.571,-5.694 -0.035,-0.329 -0.125,-0.654 -0.224,-1.155 z m 69.534,0.073 c -0.069,0.236 -0.128,0.362 -0.142,0.494 -0.221,2.074 -0.544,4.145 -0.628,6.225 -0.113,2.795 0.867,5.179 3.731,6.44 0.6,0.264 1.177,0.409 1.414,-0.47 1.375,-5.083 0.041,-9.217 -4.375,-12.689 z m -5.735,18.201 c 0,0.333 -0.027,0.419 0.004,0.469 2.213,3.632 5.605,6.386 10.527,5.718 0.953,-0.129 1.142,-0.679 0.88,-1.406 -0.598,-1.661 -1.541,-3.093 -3.209,-3.865 -2.618,-1.211 -5.424,-0.499 -8.202,-0.916 z m -57.756,0.198 c -1.934,0 -3.488,-0.005 -5.043,10e-4 -2.986,0.012 -5.236,1.151 -6.417,4.062 -0.579,1.428 -0.372,1.805 1.121,1.973 3.08,0.347 5.615,-0.82 7.788,-2.827 0.943,-0.87 1.624,-2.021 2.551,-3.209 z m 63.035,-4.138 c -1.217,-2.476 -2.713,-4.179 -5.48,-4.006 -1.792,0.112 -3.579,0.321 -5.361,0.544 -0.575,0.072 -0.7,0.46 -0.23,0.874 0.711,0.625 1.409,1.274 2.178,1.823 1.851,1.323 3.921,1.958 6.197,1.587 0.896,-0.146 1.755,-0.528 2.696,-0.822 z m -68.51,-0.129 c 0.226,0.163 0.406,0.348 0.624,0.44 3.408,1.425 8.28,0.033 10.394,-2.953 0.423,-0.597 0.194,-0.784 -0.445,-0.85 -1.119,-0.115 -2.229,-0.323 -3.35,-0.422 -1.505,-0.133 -3.044,-0.376 -4.447,0.442 -1.285,0.749 -2.193,1.847 -2.776,3.343 z"
   id="path3083"
   inkscape:connector-curvature="0"
   style="fill:#106478" />
	<path
   d="m 235.236,83.621 c -0.339,0.343 -0.742,0.643 -1.007,1.036 -1.945,2.886 -4.13,5.562 -6.727,7.891 -0.175,0.157 -0.302,0.369 -0.645,0.798 0.463,-0.164 0.662,-0.22 0.85,-0.303 1.861,-0.819 3.729,-0.768 5.678,-0.259 1.665,0.435 3.39,0.637 5.088,0.945 0.166,0.03 0.327,0.086 0.613,0.164 -0.971,1.38 -2.277,2.197 -3.605,2.94 -1.906,1.066 -3.979,1.622 -6.169,1.325 -1.346,-0.182 -2.679,-0.529 -3.982,-0.922 -0.632,-0.191 -0.768,-0.778 -0.389,-1.377 0.311,-0.491 0.64,-0.972 0.815,-1.637 -0.929,0.692 -1.847,1.401 -2.791,2.072 -3.101,2.207 -6.439,4.018 -9.968,5.395 -4.33,1.69 -8.85,2.69 -13.49,3.195 -1.293,0.141 -2.534,0.808 -3.785,1.27 -0.669,0.247 -0.648,0.614 -0.132,1.078 2.46,2.212 4.289,4.896 5.738,7.846 0.56,1.141 1.049,2.319 1.504,3.506 0.091,0.238 -0.118,0.59 -0.189,0.89 -0.191,-0.193 -0.467,-0.351 -0.559,-0.583 -1.496,-3.751 -3.325,-7.293 -6.23,-10.18 -0.271,-0.269 -0.583,-0.498 -0.851,-0.77 -0.647,-0.658 -1.24,-0.589 -1.918,0.002 -2.507,2.182 -4.257,4.908 -5.694,7.857 -0.494,1.013 -0.886,2.075 -1.364,3.096 -0.108,0.23 -0.377,0.386 -0.571,0.575 -0.069,-0.303 -0.292,-0.683 -0.185,-0.896 1.317,-2.613 2.573,-5.268 4.081,-7.77 0.782,-1.297 1.994,-2.35 3.087,-3.437 0.607,-0.604 0.624,-1.016 -0.172,-1.293 -1.324,-0.46 -2.648,-1.013 -4.019,-1.223 -3.279,-0.502 -6.524,-1.059 -9.713,-2.031 -5.781,-1.763 -10.985,-4.549 -15.7,-8.297 -0.129,-0.103 -0.303,-0.148 -0.74,-0.354 0.474,0.754 0.806,1.257 1.112,1.775 0.381,0.645 0.098,1.157 -0.509,1.332 -1.955,0.566 -3.924,1.185 -6,0.891 -3.06,-0.432 -5.569,-1.905 -7.8,-4.262 0.665,-0.149 1.169,-0.268 1.676,-0.374 1.684,-0.353 3.355,-0.816 5.057,-1.018 1.808,-0.215 3.661,-0.291 5.311,0.88 0.048,-0.091 0.097,-0.181 0.145,-0.272 -0.477,-0.498 -0.983,-0.971 -1.425,-1.499 -1.95,-2.331 -3.881,-4.678 -5.822,-7.016 -0.286,-0.345 -0.59,-0.675 -0.885,-1.011 -0.069,-0.139 -0.138,-0.278 -0.208,-0.417 -0.813,-1.63 -1.732,-3.216 -2.413,-4.899 -1.088,-2.688 -2.176,-5.394 -2.971,-8.177 -0.868,-3.036 -1.595,-6.14 -2.035,-9.263 -0.556,-3.94 -0.634,-7.938 0.156,-11.876 0.552,-2.754 1.038,-5.559 1.984,-8.187 1.133,-3.149 2.562,-6.22 4.149,-9.171 3.037,-5.649 6.953,-10.68 11.594,-15.109 1.023,-0.977 0.909,-2.248 1.394,-3.351 0.97,-2.212 2.619,-3.617 4.852,-4.323 1.899,-0.601 3.849,-1.042 6.059,-1.629 -0.451,1.143 -0.794,2.223 -1.289,3.228 -1.85,3.755 -5.097,5.393 -9.081,5.901 -0.381,0.049 -0.799,0.277 -1.084,0.545 -3.515,3.311 -6.547,7.033 -9.216,11.049 -2.447,3.682 -4.5,7.579 -6.089,11.71 -0.187,0.487 -0.206,1.038 -0.303,1.56 -0.003,0.132 -0.006,0.265 -0.01,0.398 -0.36,0.735 -0.851,1.434 -1.057,2.209 -1.125,4.227 -1.825,8.528 -1.501,12.91 0.216,2.924 0.469,5.877 1.086,8.734 2.036,9.422 5.833,17.994 12.68,25.004 4.02,4.116 8.665,7.331 13.938,9.602 2.27,0.978 4.599,1.878 6.981,2.522 2.403,0.65 4.89,1.064 7.367,1.347 1.946,0.222 3.695,0.808 5.392,1.729 0.371,0.202 1.062,0.26 1.379,0.048 2.282,-1.531 4.943,-1.583 7.493,-2.114 2.863,-0.596 5.709,-1.3 8.526,-2.087 3.461,-0.967 6.606,-2.655 9.647,-4.542 4.105,-2.547 7.644,-5.722 10.701,-9.463 3.113,-3.81 5.505,-8.032 7.248,-12.609 0.828,-2.176 1.408,-4.447 2.067,-6.685 1.111,-3.775 1.728,-7.634 1.862,-11.567 0.117,-3.414 -0.078,-6.799 -0.945,-10.125 -0.254,-0.974 -0.423,-1.969 -0.648,-3.033 -0.18,0.134 -0.311,0.18 -0.324,0.249 -0.326,1.693 -0.437,1.845 -2.177,1.504 -2.626,-0.515 -5.178,-1.356 -6.864,-3.586 -1.102,-1.458 -1.912,-3.138 -2.824,-4.735 -0.102,-0.178 -0.014,-0.465 -0.014,-0.718 2.339,0.661 4.629,1.323 6.927,1.954 1.621,0.445 2.809,1.505 3.879,2.749 0.107,-0.047 0.213,-0.095 0.32,-0.142 -0.192,-0.687 -0.311,-1.406 -0.588,-2.057 -1.976,-4.659 -4.269,-9.157 -7.461,-13.109 -2.398,-2.969 -4.957,-5.808 -7.487,-8.668 -0.287,-0.325 -0.827,-0.51 -1.28,-0.593 -4.571,-0.84 -7.538,-2.316 -9.503,-7.331 -0.209,-0.534 -0.36,-1.09 -0.605,-1.841 2.531,0.754 4.869,1.266 7.055,2.152 2.373,0.961 3.831,2.839 4.23,5.467 0.078,0.514 0.381,1.084 0.755,1.449 5.939,5.793 10.721,12.422 14.151,19.966 1.188,2.614 1.957,5.427 2.811,8.182 1.557,5.02 1.798,10.187 1.24,15.363 -0.305,2.83 -1.04,5.614 -1.603,8.414 -0.807,4.014 -2.308,7.78 -4.114,11.437 -0.558,1.129 -1.074,2.279 -1.608,3.419 -0.114,0.209 -0.227,0.42 -0.34,0.631 z"
   id="path3085"
   inkscape:connector-curvature="0"
   style="fill:#106478" />
	<path
   d="m 148.443,41.585 c 0.003,-0.133 0.007,-0.265 0.01,-0.398 0.981,-0.834 1.856,-1.871 2.97,-2.449 1.324,-0.687 2.849,-0.992 4.295,-1.439 1.298,-0.402 2.606,-0.772 4.273,-1.263 -0.622,1.364 -1.042,2.61 -1.716,3.699 -1.673,2.701 -3.981,4.596 -7.219,5.144 -0.76,0.129 -1.515,0.29 -2.277,0.401 -0.781,0.113 -1.048,-0.332 -0.924,-1.02 0.161,-0.898 0.388,-1.784 0.588,-2.675 z"
   id="path3087"
   inkscape:connector-curvature="0"
   style="fill:#106478" />
	<path
   d="m 136.385,62.939 c 1.142,0.542 2.178,1.044 3.223,1.526 1.452,0.671 3,1.186 4.348,2.023 2.53,1.57 3.43,4.057 2.762,7.035 -4.282,0.652 -10.797,-5.876 -10.333,-10.584 z"
   id="path3089"
   inkscape:connector-curvature="0"
   style="fill:#106478" />
	<path
   d="m 152.747,83.18 c 0.069,0.139 0.138,0.278 0.208,0.417 0.203,0.883 0.431,1.762 0.598,2.652 0.09,0.476 -0.069,0.792 -0.666,0.829 -5.381,0.333 -9.039,-1.423 -12.09,-6.446 -0.085,-0.14 -0.099,-0.322 -0.196,-0.658 0.978,0.065 1.843,0.103 2.703,0.184 0.948,0.089 1.891,0.303 2.837,0.31 2.311,0.015 4.338,0.682 6.01,2.32 0.167,0.162 0.396,0.262 0.596,0.392 z"
   id="path3091"
   inkscape:connector-curvature="0"
   style="fill:#106478" />
	<path
   d="m 154.714,46.463 c 0.669,6.12 -1.931,10.835 -7.077,12.973 -1.93,-2.833 -1.188,-6.191 1.52,-8.578 1.626,-1.434 3.313,-2.799 4.981,-4.185 0.126,-0.104 0.324,-0.121 0.576,-0.21 z"
   id="path3093"
   inkscape:connector-curvature="0"
   style="fill:#106478" />
	<path
   d="m 233.398,46.598 c 0.227,0.031 0.403,10e-4 0.492,0.075 1.957,1.63 4.067,3.118 5.811,4.952 2.111,2.22 2.403,4.789 1.082,7.336 -0.108,0.209 -0.646,0.429 -0.819,0.336 -5.152,-2.766 -7.137,-7.025 -6.566,-12.699 z"
   id="path3095"
   inkscape:connector-curvature="0"
   style="fill:#106478" />
	<path
   d="m 156.398,69.871 c 3.422,4.155 4.138,9.766 0.541,14.669 -1.539,-0.462 -3.262,-2.604 -3.371,-4.205 -0.121,-1.774 -0.028,-3.478 0.796,-5.149 0.68,-1.379 1.042,-2.915 1.562,-4.374 0.114,-0.321 0.305,-0.613 0.472,-0.941 z"
   id="path3097"
   inkscape:connector-curvature="0"
   style="fill:#106478" />
	<path
   d="m 235.236,83.621 c 0.113,-0.211 0.226,-0.422 0.338,-0.632 1.302,-1.07 2.673,-2.011 4.375,-2.335 0.137,-0.026 0.267,-0.108 0.404,-0.118 2.324,-0.174 4.649,-0.34 7.117,-0.518 -0.097,0.312 -0.126,0.585 -0.255,0.796 -1.563,2.553 -3.56,4.742 -6.453,5.636 -1.775,0.548 -3.753,0.455 -5.644,0.585 -0.173,0.012 -0.569,-0.477 -0.535,-0.678 0.153,-0.923 0.424,-1.826 0.653,-2.736 z"
   id="path3099"
   inkscape:connector-curvature="0"
   style="fill:#106478" />
	<path
   d="m 251.881,62.996 c -0.277,2.011 -0.926,3.733 -1.864,5.325 -1.559,2.647 -3.952,4.213 -6.896,4.948 -1.897,0.474 -1.874,0.442 -1.912,-1.537 -0.055,-2.844 1.835,-5.026 4.744,-6.276 1.776,-0.763 3.542,-1.549 5.314,-2.319 0.126,-0.055 0.27,-0.064 0.614,-0.141 z"
   id="path3101"
   inkscape:connector-curvature="0"
   style="fill:#106478" />
	<path
   d="m 148.88,19.281 c 0.75,2.15 1.495,4.241 2.209,6.342 1.159,3.41 0.319,6.548 -2.983,8.471 -3.411,-2.961 -3.006,-10.973 0.774,-14.813 z"
   id="path3103"
   inkscape:connector-curvature="0"
   style="fill:#106478" />
	<path
   d="m 225.94,105.973 c -5.623,2.954 -10.325,2.385 -14.813,-1.685 1.153,-1.939 3.557,-2.774 5.853,-2.593 2.239,0.177 3.822,1.626 5.683,2.535 1.063,0.517 2.09,1.107 3.277,1.743 z"
   id="path3105"
   inkscape:connector-curvature="0"
   style="fill:#106478" />
	<path
   d="m 176.986,104.231 c -4.396,4.267 -9.562,4.611 -14.776,1.73 0.757,-0.399 1.419,-0.741 2.075,-1.095 1.66,-0.895 3.283,-1.867 4.984,-2.677 2.743,-1.307 6.12,-0.344 7.717,2.042 z"
   id="path3107"
   inkscape:connector-curvature="0"
   style="fill:#106478" />
	<path
   d="m 231.19,84.664 c -3.726,-5.343 -2.749,-10.873 0.569,-14.808 0.668,1.827 1.249,3.638 1.995,5.379 0.553,1.29 0.878,2.575 0.851,3.978 -0.045,2.371 -1.223,4.318 -3.415,5.451 z"
   id="path3109"
   inkscape:connector-curvature="0"
   style="fill:#106478" />
	<path
   d="m 141.705,31.249 c 1.195,2.048 2.33,4.004 3.476,5.955 1.63,2.775 1.35,5.915 -0.671,8.051 -0.58,0.613 -1,0.612 -1.521,-0.034 -3.641,-4.525 -3.769,-8.321 -1.741,-13.425 0.084,-0.215 0.307,-0.373 0.457,-0.547 z"
   id="path3111"
   inkscape:connector-curvature="0"
   style="fill:#106478" />
	<path
   d="m 252.24,47.208 c 0.315,2.691 -0.237,5.11 -1.437,7.403 -1.251,2.392 -3.4,3.754 -5.707,4.92 -0.66,0.333 -0.972,-0.055 -1.13,-0.658 -0.876,-3.33 0.069,-5.818 2.945,-7.861 1.593,-1.132 3.149,-2.314 4.727,-3.468 0.16,-0.118 0.349,-0.197 0.602,-0.336 z"
   id="path3113"
   inkscape:connector-curvature="0"
   style="fill:#106478" />
	<path
   d="m 135.893,47.19 c 1.612,1.183 3.167,2.262 4.648,3.433 1.029,0.814 2.097,1.644 2.903,2.662 1.496,1.89 1.464,4.886 0.122,6.424 -5.482,-2.02 -8.241,-6.808 -7.673,-12.519 z"
   id="path3115"
   inkscape:connector-curvature="0"
   style="fill:#106478" />
	<path
   d="m 169.65,88.572 c 3.699,1.431 6.726,3.424 7.974,7.316 0.413,1.289 0.58,2.659 0.836,3.997 0.107,0.56 -0.201,0.755 -0.733,0.744 -3.199,-0.064 -5.204,-1.573 -6.246,-4.555 -0.778,-2.226 -1.262,-4.555 -1.866,-6.84 -0.041,-0.156 0.015,-0.336 0.035,-0.662 z"
   id="path3117"
   inkscape:connector-curvature="0"
   style="fill:#106478" />
	<path
   d="m 218.566,88.885 c -0.32,1.103 -0.624,2.21 -0.963,3.307 -0.559,1.809 -0.949,3.702 -1.759,5.392 -1.033,2.156 -3.038,2.995 -5.397,3.016 -0.786,0.007 -0.844,-0.459 -0.799,-1.051 0.355,-4.68 2.617,-8.076 6.843,-10.137 0.594,-0.29 1.227,-0.5 1.842,-0.747 0.078,0.074 0.156,0.147 0.233,0.22 z"
   id="path3119"
   inkscape:connector-curvature="0"
   style="fill:#106478" />
	<path
   d="m 246.518,31.05 c 0.449,1.19 0.935,2.228 1.236,3.318 1.124,4.081 -0.021,7.638 -2.613,10.843 -0.573,0.709 -1.049,0.647 -1.607,-0.013 -2.182,-2.581 -2.204,-5.582 -0.138,-8.809 1.047,-1.636 1.967,-3.355 3.122,-5.339 z"
   id="path3121"
   inkscape:connector-curvature="0"
   style="fill:#106478" />
	<path
   d="m 240.105,34.138 c -2.932,-1.634 -4.594,-4.792 -2.843,-9.207 0.725,-1.827 1.29,-3.718 1.923,-5.568 3.707,4.129 4.403,9.645 0.92,14.775 z"
   id="path3123"
   inkscape:connector-curvature="0"
   style="fill:#106478" />
	<path
   d="m 155.504,63.064 c 0.09,3.718 -1.752,6.435 -4.255,8.868 -0.753,0.732 -1.188,0.428 -1.637,-0.278 -1.467,-2.304 -1.468,-5.413 0.466,-7.881 1.247,-1.591 2.507,-3.171 3.776,-4.744 0.16,-0.199 0.41,-0.325 0.619,-0.485 0.13,0.222 0.334,0.431 0.378,0.669 0.24,1.279 0.44,2.566 0.653,3.851 z"
   id="path3125"
   inkscape:connector-curvature="0"
   style="fill:#106478" />
	<path
   d="m 239.784,68.215 c -0.438,1.157 -0.83,2.333 -1.328,3.463 -0.334,0.756 -0.83,0.902 -1.557,0.275 -3.564,-3.072 -4.674,-6.973 -3.999,-11.502 0.041,-0.275 0.163,-0.541 0.27,-0.803 0.16,-0.391 0.34,-0.774 0.512,-1.16 0.299,0.317 0.621,0.616 0.893,0.955 1.161,1.449 2.312,2.904 3.456,4.367 0.986,1.261 1.616,2.651 1.458,4.311 0.098,0.031 0.197,0.062 0.295,0.094 z"
   id="path3127"
   inkscape:connector-curvature="0"
   style="fill:#106478" />
	<path
   d="m 161.267,79.693 c 3.383,2.106 6.367,7.133 5.36,11.192 -0.17,0.684 -0.157,1.413 -0.316,2.1 -0.153,0.661 -0.523,0.892 -1.258,0.585 -3.43,-1.428 -4.545,-4.307 -4.249,-7.529 0.171,-1.867 0.254,-3.743 0.38,-5.614 0.013,-0.205 0.045,-0.41 0.083,-0.734 z"
   id="path3129"
   inkscape:connector-curvature="0"
   style="fill:#106478" />
	<path
   d="m 226.924,79.59 c 0,0.627 -0.024,1.042 0.004,1.453 0.108,1.589 0.145,3.189 0.369,4.762 0.49,3.44 -1.027,6.334 -4.127,7.732 -0.767,0.346 -1.198,0.208 -1.399,-0.629 -1.275,-5.303 0.194,-9.611 5.153,-13.318 z"
   id="path3131"
   inkscape:connector-curvature="0"
   style="fill:#106478" />
	<path
   d="m 159.281,8.703 c 0.099,0.501 0.189,0.825 0.225,1.155 0.203,1.897 0.467,3.791 0.571,5.694 0.148,2.704 -0.989,5.171 -3.691,6.361 -0.979,0.431 -1.353,0.267 -1.505,-0.806 -0.187,-1.321 -0.468,-2.657 -0.421,-3.976 0.124,-3.537 2.056,-6.113 4.821,-8.428 z"
   id="path3133"
   inkscape:connector-curvature="0"
   style="fill:#106478" />
	<path
   d="m 228.815,8.776 c 4.416,3.472 5.75,7.606 4.376,12.689 -0.238,0.879 -0.814,0.734 -1.414,0.47 -2.864,-1.261 -3.844,-3.645 -3.731,-6.44 0.084,-2.08 0.406,-4.151 0.628,-6.225 0.014,-0.132 0.072,-0.258 0.141,-0.494 z"
   id="path3135"
   inkscape:connector-curvature="0"
   style="fill:#106478" />
	<path
   d="m 223.08,26.977 c 2.777,0.417 5.584,-0.295 8.202,0.916 1.668,0.772 2.612,2.204 3.209,3.865 0.262,0.727 0.073,1.276 -0.88,1.406 -4.922,0.668 -8.314,-2.085 -10.527,-5.718 -0.031,-0.05 -0.004,-0.135 -0.004,-0.469 z"
   id="path3137"
   inkscape:connector-curvature="0"
   style="fill:#106478" />
	<path
   d="m 165.324,27.175 c -0.928,1.188 -1.609,2.339 -2.55,3.209 -2.173,2.007 -4.708,3.174 -7.788,2.827 -1.493,-0.168 -1.7,-0.545 -1.121,-1.973 1.181,-2.911 3.431,-4.05 6.417,-4.062 1.554,-0.006 3.108,-10e-4 5.042,-10e-4 z"
   id="path3139"
   inkscape:connector-curvature="0"
   style="fill:#106478" />
	<path
   d="m 228.359,23.037 c -0.941,0.295 -1.8,0.676 -2.698,0.822 -2.275,0.372 -4.345,-0.264 -6.197,-1.587 -0.768,-0.549 -1.467,-1.198 -2.178,-1.823 -0.47,-0.413 -0.345,-0.802 0.23,-0.874 1.782,-0.223 3.57,-0.432 5.361,-0.544 2.769,-0.173 4.265,1.53 5.482,4.006 z"
   id="path3141"
   inkscape:connector-curvature="0"
   style="fill:#106478" />
	<path
   d="m 159.849,22.908 c 0.583,-1.496 1.491,-2.594 2.776,-3.343 1.403,-0.818 2.942,-0.575 4.447,-0.442 1.12,0.099 2.23,0.307 3.35,0.422 0.64,0.066 0.868,0.253 0.445,0.85 -2.114,2.986 -6.987,4.378 -10.394,2.953 -0.219,-0.092 -0.398,-0.277 -0.624,-0.44 z"
   id="path3143"
   inkscape:connector-curvature="0"
   style="fill:#106478" />
</g>
</svg>