<?xml version="1.0" encoding="utf-8"?>
<!-- Generator: Adobe Illustrator 17.0.0, SVG Export Plug-In . SVG Version: 6.00 Build 0)  -->
<!DOCTYPE svg PUBLIC "-//W3C//DTD SVG 1.1//EN" "http://www.w3.org/Graphics/SVG/1.1/DTD/svg11.dtd">
<svg version="1.1" id="Calque_1" xmlns="http://www.w3.org/2000/svg" xmlns:xlink="http://www.w3.org/1999/xlink" x="0px" y="0px"
	 width="395.333px" height="200px" viewBox="0 0 395.333 200" enable-background="new 0 0 395.333 200" xml:space="preserve">
<rect x="-24.117" y="143.175" fill="none" width="434.224" height="141.412"/>
<text transform="matrix(1 0 0 1 57.3746 162.0804)"><tspan x="0" y="0" fill="#1A4B59" font-family="'Abel-Regular'" font-size="27" letter-spacing="4">Sports en France</tspan><tspan x="-63.981" y="32.4" fill="#1A4B59" font-family="'Abel-Regular'" font-size="27" letter-spacing="4"> </tspan><tspan x="-53.452" y="32.4" fill="#1A4B59" font-family="'Abel-Regular'" font-size="18" letter-spacing="2">Les Pays de la Loire relèvent le défi</tspan><tspan x="338.102" y="32.4" fill="#1A4B59" font-family="'Abel-Regular'" font-size="27" letter-spacing="4"> </tspan></text>
<g>
	<path fill="#106478" d="M148.443,41.585c-0.199,0.891-0.427,1.777-0.589,2.675c-0.124,0.688,0.143,1.133,0.924,1.02
		c0.762-0.11,1.517-0.272,2.277-0.401c3.238-0.548,5.546-2.443,7.219-5.144c0.674-1.089,1.094-2.335,1.716-3.699
		c-1.667,0.491-2.975,0.861-4.273,1.263c-1.445,0.447-2.97,0.752-4.295,1.439c-1.114,0.578-1.989,1.615-2.97,2.449
		c0.097-0.522,0.115-1.073,0.303-1.56c1.589-4.131,3.642-8.028,6.089-11.71c2.669-4.015,5.701-7.737,9.216-11.049
		c0.285-0.268,0.702-0.497,1.084-0.545c3.985-0.508,7.231-2.146,9.081-5.901c0.495-1.005,0.838-2.085,1.289-3.228
		c-2.21,0.587-4.159,1.028-6.059,1.629c-2.234,0.706-3.882,2.111-4.852,4.323c-0.484,1.104-0.371,2.375-1.394,3.351
		c-4.641,4.429-8.557,9.46-11.594,15.109c-1.587,2.951-3.016,6.022-4.149,9.171c-0.945,2.628-1.432,5.433-1.984,8.187
		c-0.789,3.937-0.712,7.935-0.156,11.876c0.441,3.123,1.167,6.227,2.035,9.263c0.796,2.782,1.883,5.489,2.971,8.177
		c0.681,1.683,1.601,3.269,2.413,4.899c-0.2-0.13-0.429-0.231-0.596-0.394c-1.673-1.638-3.699-2.304-6.01-2.32
		c-0.946-0.006-1.889-0.221-2.837-0.31c-0.861-0.081-1.726-0.119-2.703-0.184c0.097,0.336,0.111,0.518,0.196,0.658
		c3.051,5.023,6.709,6.779,12.09,6.446c0.597-0.037,0.756-0.353,0.666-0.829c-0.168-0.89-0.396-1.769-0.599-2.652
		c0.295,0.337,0.599,0.667,0.885,1.012c1.941,2.339,3.871,4.686,5.822,7.016c0.441,0.528,0.948,1.001,1.425,1.499
		c-0.048,0.091-0.097,0.181-0.145,0.272c-1.65-1.171-3.503-1.095-5.311-0.88c-1.702,0.202-3.373,0.666-5.057,1.018
		c-0.507,0.106-1.011,0.225-1.676,0.374c2.231,2.357,4.74,3.83,7.8,4.262c2.076,0.293,4.045-0.325,6-0.891
		c0.606-0.176,0.89-0.687,0.509-1.332c-0.306-0.518-0.638-1.021-1.112-1.775c0.436,0.206,0.611,0.252,0.74,0.354
		c4.715,3.748,9.919,6.534,15.7,8.297c3.19,0.973,6.435,1.529,9.713,2.031c1.371,0.21,2.696,0.762,4.019,1.223
		c0.797,0.277,0.779,0.689,0.172,1.293c-1.093,1.087-2.305,2.14-3.087,3.437c-1.508,2.502-2.764,5.157-4.081,7.77
		c-0.108,0.213,0.115,0.594,0.185,0.896c0.195-0.19,0.464-0.345,0.571-0.575c0.477-1.022,0.87-2.083,1.364-3.096
		c1.437-2.949,3.187-5.675,5.694-7.857c0.678-0.59,1.271-0.66,1.918-0.002c0.268,0.272,0.58,0.501,0.851,0.77
		c2.904,2.886,4.734,6.429,6.23,10.18c0.092,0.232,0.369,0.39,0.559,0.583c0.071-0.3,0.281-0.652,0.189-0.89
		c-0.455-1.187-0.944-2.365-1.504-3.506c-1.449-2.95-3.278-5.634-5.738-7.846c-0.516-0.464-0.537-0.831,0.132-1.078
		c1.251-0.462,2.492-1.129,3.785-1.27c4.64-0.505,9.159-1.505,13.49-3.195c3.529-1.377,6.868-3.188,9.968-5.395
		c0.944-0.672,1.861-1.38,2.791-2.072c-0.175,0.665-0.504,1.145-0.815,1.637c-0.379,0.599-0.243,1.186,0.389,1.377
		c1.303,0.394,2.636,0.74,3.982,0.922c2.19,0.297,4.263-0.259,6.169-1.325c1.328-0.743,2.634-1.56,3.605-2.94
		c-0.286-0.077-0.447-0.133-0.613-0.164c-1.698-0.309-3.424-0.51-5.088-0.945c-1.949-0.509-3.817-0.56-5.678,0.259
		c-0.188,0.083-0.387,0.139-0.85,0.303c0.343-0.429,0.47-0.641,0.645-0.798c2.597-2.329,4.782-5.005,6.727-7.891
		c0.265-0.393,0.668-0.693,1.007-1.036c-0.229,0.91-0.5,1.813-0.655,2.736c-0.034,0.201,0.363,0.69,0.535,0.678
		c1.891-0.13,3.869-0.036,5.644-0.585c2.893-0.894,4.89-3.083,6.453-5.636c0.13-0.212,0.159-0.485,0.255-0.796
		c-2.468,0.178-4.793,0.345-7.117,0.518c-0.137,0.01-0.266,0.092-0.404,0.118c-1.702,0.325-3.073,1.265-4.376,2.336
		c0.535-1.14,1.051-2.29,1.609-3.42c1.806-3.657,3.307-7.423,4.114-11.437c0.563-2.8,1.298-5.585,1.603-8.414
		c0.558-5.176,0.317-10.343-1.24-15.363c-0.854-2.755-1.623-5.568-2.811-8.182c-3.43-7.545-8.211-14.174-14.151-19.966
		c-0.374-0.365-0.677-0.935-0.755-1.449c-0.399-2.629-1.858-4.506-4.23-5.467c-2.186-0.886-4.524-1.398-7.055-2.152
		c0.245,0.751,0.396,1.307,0.605,1.841c1.965,5.016,4.933,6.492,9.503,7.331c0.453,0.083,0.993,0.268,1.28,0.593
		c2.529,2.86,5.089,5.699,7.487,8.668c3.192,3.953,5.485,8.45,7.461,13.109c0.276,0.652,0.396,1.37,0.588,2.057
		c-0.107,0.047-0.213,0.095-0.32,0.142c-1.071-1.244-2.258-2.304-3.879-2.749c-2.298-0.631-4.588-1.293-6.927-1.954
		c0,0.253-0.088,0.54,0.014,0.718c0.912,1.597,1.722,3.277,2.824,4.735c1.686,2.231,4.238,3.072,6.864,3.586
		c1.741,0.341,1.851,0.189,2.177-1.504c0.013-0.069,0.145-0.115,0.324-0.249c0.225,1.063,0.394,2.059,0.648,3.033
		c0.866,3.326,1.062,6.711,0.945,10.125c-0.135,3.933-0.751,7.792-1.862,11.567c-0.659,2.238-1.239,4.51-2.067,6.685
		c-1.743,4.577-4.135,8.799-7.248,12.609c-3.057,3.741-6.596,6.916-10.701,9.463c-3.042,1.887-6.186,3.575-9.647,4.542
		c-2.817,0.787-5.663,1.491-8.526,2.087c-2.551,0.531-5.212,0.584-7.493,2.114c-0.317,0.213-1.007,0.154-1.379-0.048
		c-1.696-0.921-3.445-1.508-5.392-1.729c-2.477-0.282-4.964-0.697-7.367-1.347c-2.381-0.644-4.71-1.544-6.981-2.522
		c-5.272-2.271-9.918-5.485-13.938-9.602c-6.846-7.01-10.644-15.582-12.68-25.004c-0.617-2.857-0.87-5.81-1.086-8.734
		c-0.324-4.383,0.376-8.684,1.501-12.91C147.592,43.019,148.083,42.32,148.443,41.585z M136.385,62.939
		c-0.463,4.709,6.051,11.236,10.333,10.585c0.668-2.979-0.232-5.466-2.762-7.035c-1.348-0.837-2.896-1.351-4.348-2.023
		C138.563,63.982,137.527,63.48,136.385,62.939z M154.714,46.463c-0.253,0.089-0.45,0.106-0.576,0.211
		c-1.668,1.385-3.355,2.751-4.981,4.185c-2.708,2.387-3.45,5.745-1.52,8.578C152.784,57.298,155.383,52.583,154.714,46.463z
		 M233.398,46.598c-0.571,5.674,1.414,9.933,6.566,12.7c0.173,0.093,0.71-0.127,0.819-0.336c1.321-2.547,1.029-5.116-1.082-7.336
		c-1.744-1.835-3.854-3.322-5.811-4.952C233.801,46.599,233.625,46.629,233.398,46.598z M156.398,69.871
		c-0.167,0.329-0.358,0.621-0.472,0.94c-0.521,1.46-0.883,2.995-1.562,4.374c-0.824,1.671-0.916,3.375-0.796,5.149
		c0.109,1.601,1.832,3.742,3.371,4.205C160.536,79.636,159.82,74.026,156.398,69.871z M251.881,62.996
		c-0.345,0.077-0.488,0.086-0.613,0.14c-1.773,0.77-3.538,1.556-5.314,2.319c-2.91,1.25-4.799,3.432-4.744,6.276
		c0.038,1.979,0.014,2.011,1.912,1.537c2.944-0.735,5.337-2.3,6.896-4.948C250.955,66.729,251.604,65.007,251.881,62.996z
		 M148.88,19.281c-3.78,3.84-4.185,11.852-0.774,14.814c3.302-1.924,4.142-5.062,2.983-8.471
		C150.375,23.522,149.63,21.431,148.88,19.281z M225.94,105.973c-1.188-0.635-2.215-1.225-3.277-1.743
		c-1.861-0.908-3.445-2.358-5.683-2.535c-2.296-0.182-4.7,0.654-5.853,2.593C215.615,108.358,220.317,108.926,225.94,105.973z
		 M176.986,104.231c-1.597-2.386-4.975-3.349-7.717-2.043c-1.701,0.81-3.324,1.782-4.984,2.677
		c-0.656,0.353-1.317,0.696-2.075,1.095C167.424,108.843,172.59,108.499,176.986,104.231z M231.19,84.664
		c2.192-1.132,3.37-3.08,3.415-5.451c0.026-1.404-0.299-2.688-0.851-3.978c-0.746-1.74-1.326-3.552-1.995-5.379
		C228.441,73.79,227.464,79.321,231.19,84.664z M141.705,31.249c-0.15,0.174-0.373,0.333-0.458,0.546
		c-2.027,5.104-1.9,8.9,1.741,13.425c0.52,0.646,0.94,0.648,1.521,0.034c2.021-2.136,2.301-5.276,0.671-8.051
		C144.035,35.253,142.9,33.297,141.705,31.249z M252.24,47.208c-0.253,0.139-0.443,0.219-0.604,0.337
		c-1.577,1.154-3.134,2.336-4.727,3.468c-2.875,2.044-3.821,4.531-2.945,7.861c0.159,0.603,0.471,0.991,1.13,0.658
		c2.307-1.166,4.456-2.528,5.707-4.92C252.003,52.318,252.555,49.898,252.24,47.208z M135.893,47.19
		c-0.569,5.71,2.191,10.499,7.673,12.518c1.342-1.538,1.375-4.534-0.122-6.424c-0.805-1.017-1.873-1.848-2.903-2.662
		C139.06,49.452,137.506,48.374,135.893,47.19z M169.65,88.572c-0.02,0.326-0.076,0.506-0.035,0.661
		c0.604,2.286,1.088,4.615,1.866,6.84c1.042,2.983,3.047,4.492,6.246,4.555c0.532,0.011,0.84-0.184,0.733-0.744
		c-0.256-1.338-0.423-2.707-0.836-3.997C176.376,91.996,173.349,90.002,169.65,88.572z M218.566,88.885
		c-0.078-0.073-0.155-0.146-0.233-0.219c-0.615,0.247-1.248,0.457-1.842,0.747c-4.226,2.061-6.489,5.457-6.843,10.137
		c-0.045,0.591,0.014,1.058,0.799,1.051c2.359-0.022,4.364-0.861,5.397-3.016c0.81-1.69,1.2-3.583,1.759-5.392
		C217.942,91.095,218.247,89.988,218.566,88.885z M246.518,31.05c-1.154,1.984-2.075,3.702-3.122,5.339
		c-2.066,3.227-2.044,6.228,0.138,8.809c0.558,0.66,1.034,0.722,1.607,0.013c2.592-3.205,3.737-6.762,2.613-10.843
		C247.453,33.279,246.967,32.24,246.518,31.05z M240.105,34.138c3.483-5.13,2.787-10.646-0.921-14.775
		c-0.633,1.849-1.198,3.74-1.923,5.568C235.511,29.347,237.173,32.504,240.105,34.138z M155.504,63.064
		c-0.214-1.285-0.413-2.572-0.653-3.851c-0.045-0.238-0.248-0.447-0.378-0.669c-0.208,0.16-0.458,0.287-0.619,0.485
		c-1.269,1.573-2.53,3.153-3.776,4.744c-1.934,2.468-1.933,5.577-0.466,7.881c0.45,0.706,0.884,1.01,1.637,0.278
		C153.752,69.499,155.594,66.782,155.504,63.064z M239.784,68.215c-0.099-0.032-0.198-0.063-0.296-0.095
		c0.158-1.659-0.472-3.05-1.458-4.311c-1.143-1.462-2.295-2.918-3.456-4.367c-0.272-0.339-0.594-0.638-0.893-0.955
		c-0.172,0.386-0.352,0.769-0.512,1.16c-0.107,0.261-0.229,0.528-0.27,0.803c-0.675,4.529,0.435,8.43,3.999,11.502
		c0.728,0.627,1.224,0.481,1.557-0.275C238.955,70.548,239.347,69.372,239.784,68.215z M161.267,79.693
		c-0.037,0.324-0.07,0.528-0.083,0.734c-0.126,1.872-0.208,3.747-0.38,5.614c-0.296,3.221,0.819,6.101,4.249,7.529
		c0.735,0.306,1.105,0.076,1.258-0.585c0.159-0.688,0.147-1.416,0.316-2.1C167.634,86.826,164.65,81.799,161.267,79.693z
		 M226.924,79.59c-4.959,3.707-6.428,8.015-5.153,13.319c0.201,0.836,0.632,0.974,1.399,0.629c3.1-1.399,4.618-4.292,4.127-7.732
		c-0.224-1.573-0.261-3.173-0.369-4.762C226.9,80.632,226.924,80.217,226.924,79.59z M159.281,8.703
		c-2.766,2.315-4.697,4.89-4.822,8.428c-0.046,1.319,0.234,2.656,0.421,3.976c0.152,1.073,0.527,1.237,1.505,0.806
		c2.702-1.191,3.838-3.657,3.691-6.361c-0.104-1.903-0.367-3.797-0.571-5.694C159.47,9.529,159.38,9.204,159.281,8.703z
		 M228.815,8.776c-0.069,0.236-0.128,0.362-0.142,0.494c-0.221,2.074-0.544,4.145-0.628,6.225c-0.113,2.795,0.867,5.179,3.731,6.44
		c0.6,0.264,1.177,0.409,1.414-0.47C234.565,16.382,233.231,12.248,228.815,8.776z M223.08,26.977c0,0.333-0.027,0.419,0.004,0.469
		c2.213,3.632,5.605,6.386,10.527,5.718c0.953-0.129,1.142-0.679,0.88-1.406c-0.598-1.661-1.541-3.093-3.209-3.865
		C228.664,26.682,225.858,27.394,223.08,26.977z M165.324,27.175c-1.934,0-3.488-0.005-5.043,0.001
		c-2.986,0.012-5.236,1.151-6.417,4.062c-0.579,1.428-0.372,1.805,1.121,1.973c3.08,0.347,5.615-0.82,7.788-2.827
		C163.716,29.514,164.397,28.363,165.324,27.175z M228.359,23.037c-1.217-2.476-2.713-4.179-5.48-4.006
		c-1.792,0.112-3.579,0.321-5.361,0.544c-0.575,0.072-0.7,0.46-0.23,0.874c0.711,0.625,1.409,1.274,2.178,1.823
		c1.851,1.323,3.921,1.958,6.197,1.587C226.559,23.713,227.418,23.331,228.359,23.037z M159.849,22.908
		c0.226,0.163,0.406,0.348,0.624,0.44c3.408,1.425,8.28,0.033,10.394-2.953c0.423-0.597,0.194-0.784-0.445-0.85
		c-1.119-0.115-2.229-0.323-3.35-0.422c-1.505-0.133-3.044-0.376-4.447,0.442C161.34,20.314,160.432,21.412,159.849,22.908z"/>
	<path fill="#106478" d="M235.236,83.621c-0.339,0.343-0.742,0.643-1.007,1.036c-1.945,2.886-4.13,5.562-6.727,7.891
		c-0.175,0.157-0.302,0.369-0.645,0.798c0.463-0.164,0.662-0.22,0.85-0.303c1.861-0.819,3.729-0.768,5.678-0.259
		c1.665,0.435,3.39,0.637,5.088,0.945c0.166,0.03,0.327,0.086,0.613,0.164c-0.971,1.38-2.277,2.197-3.605,2.94
		c-1.906,1.066-3.979,1.622-6.169,1.325c-1.346-0.182-2.679-0.529-3.982-0.922c-0.632-0.191-0.768-0.778-0.389-1.377
		c0.311-0.491,0.64-0.972,0.815-1.637c-0.929,0.692-1.847,1.401-2.791,2.072c-3.101,2.207-6.439,4.018-9.968,5.395
		c-4.33,1.69-8.85,2.69-13.49,3.195c-1.293,0.141-2.534,0.808-3.785,1.27c-0.669,0.247-0.648,0.614-0.132,1.078
		c2.46,2.212,4.289,4.896,5.738,7.846c0.56,1.141,1.049,2.319,1.504,3.506c0.091,0.238-0.118,0.59-0.189,0.89
		c-0.191-0.193-0.467-0.351-0.559-0.583c-1.496-3.751-3.325-7.293-6.23-10.18c-0.271-0.269-0.583-0.498-0.851-0.77
		c-0.647-0.658-1.24-0.589-1.918,0.002c-2.507,2.182-4.257,4.908-5.694,7.857c-0.494,1.013-0.886,2.075-1.364,3.096
		c-0.108,0.23-0.377,0.386-0.571,0.575c-0.069-0.303-0.292-0.683-0.185-0.896c1.317-2.613,2.573-5.268,4.081-7.77
		c0.782-1.297,1.994-2.35,3.087-3.437c0.607-0.604,0.624-1.016-0.172-1.293c-1.324-0.46-2.648-1.013-4.019-1.223
		c-3.279-0.502-6.524-1.059-9.713-2.031c-5.781-1.763-10.985-4.549-15.7-8.297c-0.129-0.103-0.303-0.148-0.74-0.354
		c0.474,0.754,0.806,1.257,1.112,1.775c0.381,0.645,0.098,1.157-0.509,1.332c-1.955,0.566-3.924,1.185-6,0.891
		c-3.06-0.432-5.569-1.905-7.8-4.262c0.665-0.149,1.169-0.268,1.676-0.374c1.684-0.353,3.355-0.816,5.057-1.018
		c1.808-0.215,3.661-0.291,5.311,0.88c0.048-0.091,0.097-0.181,0.145-0.272c-0.477-0.498-0.983-0.971-1.425-1.499
		c-1.95-2.331-3.881-4.678-5.822-7.016c-0.286-0.345-0.59-0.675-0.885-1.011c-0.069-0.139-0.138-0.278-0.208-0.417
		c-0.813-1.63-1.732-3.216-2.413-4.899c-1.088-2.688-2.176-5.394-2.971-8.177c-0.868-3.036-1.595-6.14-2.035-9.263
		c-0.556-3.94-0.634-7.938,0.156-11.876c0.552-2.754,1.038-5.559,1.984-8.187c1.133-3.149,2.562-6.22,4.149-9.171
		c3.037-5.649,6.953-10.68,11.594-15.109c1.023-0.977,0.909-2.248,1.394-3.351c0.97-2.212,2.619-3.617,4.852-4.323
		c1.899-0.601,3.849-1.042,6.059-1.629c-0.451,1.143-0.794,2.223-1.289,3.228c-1.85,3.755-5.097,5.393-9.081,5.901
		c-0.381,0.049-0.799,0.277-1.084,0.545c-3.515,3.311-6.547,7.033-9.216,11.049c-2.447,3.682-4.5,7.579-6.089,11.71
		c-0.187,0.487-0.206,1.038-0.303,1.56c-0.003,0.132-0.006,0.265-0.01,0.398c-0.36,0.735-0.851,1.434-1.057,2.209
		c-1.125,4.227-1.825,8.528-1.501,12.91c0.216,2.924,0.469,5.877,1.086,8.734c2.036,9.422,5.833,17.994,12.68,25.004
		c4.02,4.116,8.665,7.331,13.938,9.602c2.27,0.978,4.599,1.878,6.981,2.522c2.403,0.65,4.89,1.064,7.367,1.347
		c1.946,0.222,3.695,0.808,5.392,1.729c0.371,0.202,1.062,0.26,1.379,0.048c2.282-1.531,4.943-1.583,7.493-2.114
		c2.863-0.596,5.709-1.3,8.526-2.087c3.461-0.967,6.606-2.655,9.647-4.542c4.105-2.547,7.644-5.722,10.701-9.463
		c3.113-3.81,5.505-8.032,7.248-12.609c0.828-2.176,1.408-4.447,2.067-6.685c1.111-3.775,1.728-7.634,1.862-11.567
		c0.117-3.414-0.078-6.799-0.945-10.125c-0.254-0.974-0.423-1.969-0.648-3.033c-0.18,0.134-0.311,0.18-0.324,0.249
		c-0.326,1.693-0.437,1.845-2.177,1.504c-2.626-0.515-5.178-1.356-6.864-3.586c-1.102-1.458-1.912-3.138-2.824-4.735
		c-0.102-0.178-0.014-0.465-0.014-0.718c2.339,0.661,4.629,1.323,6.927,1.954c1.621,0.445,2.809,1.505,3.879,2.749
		c0.107-0.047,0.213-0.095,0.32-0.142c-0.192-0.687-0.311-1.406-0.588-2.057c-1.976-4.659-4.269-9.157-7.461-13.109
		c-2.398-2.969-4.957-5.808-7.487-8.668c-0.287-0.325-0.827-0.51-1.28-0.593c-4.571-0.84-7.538-2.316-9.503-7.331
		c-0.209-0.534-0.36-1.09-0.605-1.841c2.531,0.754,4.869,1.266,7.055,2.152c2.373,0.961,3.831,2.839,4.23,5.467
		c0.078,0.514,0.381,1.084,0.755,1.449c5.939,5.793,10.721,12.422,14.151,19.966c1.188,2.614,1.957,5.427,2.811,8.182
		c1.557,5.02,1.798,10.187,1.24,15.363c-0.305,2.83-1.04,5.614-1.603,8.414c-0.807,4.014-2.308,7.78-4.114,11.437
		c-0.558,1.129-1.074,2.279-1.608,3.419C235.462,83.199,235.349,83.41,235.236,83.621z"/>
	<path fill="#106478" d="M148.443,41.585c0.003-0.133,0.007-0.265,0.01-0.398c0.981-0.834,1.856-1.871,2.97-2.449
		c1.324-0.687,2.849-0.992,4.295-1.439c1.298-0.402,2.606-0.772,4.273-1.263c-0.622,1.364-1.042,2.61-1.716,3.699
		c-1.673,2.701-3.981,4.596-7.219,5.144c-0.76,0.129-1.515,0.29-2.277,0.401c-0.781,0.113-1.048-0.332-0.924-1.02
		C148.016,43.362,148.243,42.476,148.443,41.585z"/>
	<path fill="#106478" d="M136.385,62.939c1.142,0.542,2.178,1.044,3.223,1.526c1.452,0.671,3,1.186,4.348,2.023
		c2.53,1.57,3.43,4.057,2.762,7.035C142.436,74.175,135.921,67.647,136.385,62.939z"/>
	<path fill="#106478" d="M152.747,83.18c0.069,0.139,0.138,0.278,0.208,0.417c0.203,0.883,0.431,1.762,0.598,2.652
		c0.09,0.476-0.069,0.792-0.666,0.829c-5.381,0.333-9.039-1.423-12.09-6.446c-0.085-0.14-0.099-0.322-0.196-0.658
		c0.978,0.065,1.843,0.103,2.703,0.184c0.948,0.089,1.891,0.303,2.837,0.31c2.311,0.015,4.338,0.682,6.01,2.32
		C152.318,82.95,152.547,83.05,152.747,83.18z"/>
	<path fill="#106478" d="M154.714,46.463c0.669,6.12-1.931,10.835-7.077,12.973c-1.93-2.833-1.188-6.191,1.52-8.578
		c1.626-1.434,3.313-2.799,4.981-4.185C154.264,46.569,154.462,46.552,154.714,46.463z"/>
	<path fill="#106478" d="M233.398,46.598c0.227,0.031,0.403,0.001,0.492,0.075c1.957,1.63,4.067,3.118,5.811,4.952
		c2.111,2.22,2.403,4.789,1.082,7.336c-0.108,0.209-0.646,0.429-0.819,0.336C234.812,56.531,232.827,52.272,233.398,46.598z"/>
	<path fill="#106478" d="M156.398,69.871c3.422,4.155,4.138,9.766,0.541,14.669c-1.539-0.462-3.262-2.604-3.371-4.205
		c-0.121-1.774-0.028-3.478,0.796-5.149c0.68-1.379,1.042-2.915,1.562-4.374C156.04,70.491,156.231,70.199,156.398,69.871z"/>
	<path fill="#106478" d="M235.236,83.621c0.113-0.211,0.226-0.422,0.338-0.632c1.302-1.07,2.673-2.011,4.375-2.335
		c0.137-0.026,0.267-0.108,0.404-0.118c2.324-0.174,4.649-0.34,7.117-0.518c-0.097,0.312-0.126,0.585-0.255,0.796
		c-1.563,2.553-3.56,4.742-6.453,5.636c-1.775,0.548-3.753,0.455-5.644,0.585c-0.173,0.012-0.569-0.477-0.535-0.678
		C234.736,85.434,235.007,84.531,235.236,83.621z"/>
	<path fill="#106478" d="M251.881,62.996c-0.277,2.011-0.926,3.733-1.864,5.325c-1.559,2.647-3.952,4.213-6.896,4.948
		c-1.897,0.474-1.874,0.442-1.912-1.537c-0.055-2.844,1.835-5.026,4.744-6.276c1.776-0.763,3.542-1.549,5.314-2.319
		C251.393,63.082,251.537,63.073,251.881,62.996z"/>
	<path fill="#106478" d="M148.88,19.281c0.75,2.15,1.495,4.241,2.209,6.342c1.159,3.41,0.319,6.548-2.983,8.471
		C144.695,31.133,145.1,23.121,148.88,19.281z"/>
	<path fill="#106478" d="M225.94,105.973c-5.623,2.954-10.325,2.385-14.813-1.685c1.153-1.939,3.557-2.774,5.853-2.593
		c2.239,0.177,3.822,1.626,5.683,2.535C223.726,104.747,224.753,105.337,225.94,105.973z"/>
	<path fill="#106478" d="M176.986,104.231c-4.396,4.267-9.562,4.611-14.776,1.73c0.757-0.399,1.419-0.741,2.075-1.095
		c1.66-0.895,3.283-1.867,4.984-2.677C172.012,100.882,175.389,101.845,176.986,104.231z"/>
	<path fill="#106478" d="M231.19,84.664c-3.726-5.343-2.749-10.873,0.569-14.808c0.668,1.827,1.249,3.638,1.995,5.379
		c0.553,1.29,0.878,2.575,0.851,3.978C234.56,81.584,233.382,83.531,231.19,84.664z"/>
	<path fill="#106478" d="M141.705,31.249c1.195,2.048,2.33,4.004,3.476,5.955c1.63,2.775,1.35,5.915-0.671,8.051
		c-0.58,0.613-1,0.612-1.521-0.034c-3.641-4.525-3.769-8.321-1.741-13.425C141.332,31.581,141.555,31.423,141.705,31.249z"/>
	<path fill="#106478" d="M252.24,47.208c0.315,2.691-0.237,5.11-1.437,7.403c-1.251,2.392-3.4,3.754-5.707,4.92
		c-0.66,0.333-0.972-0.055-1.13-0.658c-0.876-3.33,0.069-5.818,2.945-7.861c1.593-1.132,3.149-2.314,4.727-3.468
		C251.798,47.426,251.987,47.347,252.24,47.208z"/>
	<path fill="#106478" d="M135.893,47.19c1.612,1.183,3.167,2.262,4.648,3.433c1.029,0.814,2.097,1.644,2.903,2.662
		c1.496,1.89,1.464,4.886,0.122,6.424C138.084,57.689,135.325,52.901,135.893,47.19z"/>
	<path fill="#106478" d="M169.65,88.572c3.699,1.431,6.726,3.424,7.974,7.316c0.413,1.289,0.58,2.659,0.836,3.997
		c0.107,0.56-0.201,0.755-0.733,0.744c-3.199-0.064-5.204-1.573-6.246-4.555c-0.778-2.226-1.262-4.555-1.866-6.84
		C169.574,89.078,169.63,88.898,169.65,88.572z"/>
	<path fill="#106478" d="M218.566,88.885c-0.32,1.103-0.624,2.21-0.963,3.307c-0.559,1.809-0.949,3.702-1.759,5.392
		c-1.033,2.156-3.038,2.995-5.397,3.016c-0.786,0.007-0.844-0.459-0.799-1.051c0.355-4.68,2.617-8.076,6.843-10.137
		c0.594-0.29,1.227-0.5,1.842-0.747C218.411,88.739,218.489,88.812,218.566,88.885z"/>
	<path fill="#106478" d="M246.518,31.05c0.449,1.19,0.935,2.228,1.236,3.318c1.124,4.081-0.021,7.638-2.613,10.843
		c-0.573,0.709-1.049,0.647-1.607-0.013c-2.182-2.581-2.204-5.582-0.138-8.809C244.443,34.753,245.363,33.034,246.518,31.05z"/>
	<path fill="#106478" d="M240.105,34.138c-2.932-1.634-4.594-4.792-2.843-9.207c0.725-1.827,1.29-3.718,1.923-5.568
		C242.892,23.492,243.588,29.008,240.105,34.138z"/>
	<path fill="#106478" d="M155.504,63.064c0.09,3.718-1.752,6.435-4.255,8.868c-0.753,0.732-1.188,0.428-1.637-0.278
		c-1.467-2.304-1.468-5.413,0.466-7.881c1.247-1.591,2.507-3.171,3.776-4.744c0.16-0.199,0.41-0.325,0.619-0.485
		c0.13,0.222,0.334,0.431,0.378,0.669C155.091,60.492,155.291,61.779,155.504,63.064z"/>
	<path fill="#106478" d="M239.784,68.215c-0.438,1.157-0.83,2.333-1.328,3.463c-0.334,0.756-0.83,0.902-1.557,0.275
		c-3.564-3.072-4.674-6.973-3.999-11.502c0.041-0.275,0.163-0.541,0.27-0.803c0.16-0.391,0.34-0.774,0.512-1.16
		c0.299,0.317,0.621,0.616,0.893,0.955c1.161,1.449,2.312,2.904,3.456,4.367c0.986,1.261,1.616,2.651,1.458,4.311
		C239.587,68.152,239.686,68.183,239.784,68.215z"/>
	<path fill="#106478" d="M161.267,79.693c3.383,2.106,6.367,7.133,5.36,11.192c-0.17,0.684-0.157,1.413-0.316,2.1
		c-0.153,0.661-0.523,0.892-1.258,0.585c-3.43-1.428-4.545-4.307-4.249-7.529c0.171-1.867,0.254-3.743,0.38-5.614
		C161.197,80.222,161.229,80.017,161.267,79.693z"/>
	<path fill="#106478" d="M226.924,79.59c0,0.627-0.024,1.042,0.004,1.453c0.108,1.589,0.145,3.189,0.369,4.762
		c0.49,3.44-1.027,6.334-4.127,7.732c-0.767,0.346-1.198,0.208-1.399-0.629C220.496,87.605,221.965,83.297,226.924,79.59z"/>
	<path fill="#106478" d="M159.281,8.703c0.099,0.501,0.189,0.825,0.225,1.155c0.203,1.897,0.467,3.791,0.571,5.694
		c0.148,2.704-0.989,5.171-3.691,6.361c-0.979,0.431-1.353,0.267-1.505-0.806c-0.187-1.321-0.468-2.657-0.421-3.976
		C154.584,13.594,156.516,11.018,159.281,8.703z"/>
	<path fill="#106478" d="M228.815,8.776c4.416,3.472,5.75,7.606,4.376,12.689c-0.238,0.879-0.814,0.734-1.414,0.47
		c-2.864-1.261-3.844-3.645-3.731-6.44c0.084-2.08,0.406-4.151,0.628-6.225C228.688,9.138,228.746,9.012,228.815,8.776z"/>
	<path fill="#106478" d="M223.08,26.977c2.777,0.417,5.584-0.295,8.202,0.916c1.668,0.772,2.612,2.204,3.209,3.865
		c0.262,0.727,0.073,1.276-0.88,1.406c-4.922,0.668-8.314-2.085-10.527-5.718C223.053,27.396,223.08,27.311,223.08,26.977z"/>
	<path fill="#106478" d="M165.324,27.175c-0.928,1.188-1.609,2.339-2.55,3.209c-2.173,2.007-4.708,3.174-7.788,2.827
		c-1.493-0.168-1.7-0.545-1.121-1.973c1.181-2.911,3.431-4.05,6.417-4.062C161.836,27.17,163.39,27.175,165.324,27.175z"/>
	<path fill="#106478" d="M228.359,23.037c-0.941,0.295-1.8,0.676-2.698,0.822c-2.275,0.372-4.345-0.264-6.197-1.587
		c-0.768-0.549-1.467-1.198-2.178-1.823c-0.47-0.413-0.345-0.802,0.23-0.874c1.782-0.223,3.57-0.432,5.361-0.544
		C225.646,18.858,227.142,20.561,228.359,23.037z"/>
	<path fill="#106478" d="M159.849,22.908c0.583-1.496,1.491-2.594,2.776-3.343c1.403-0.818,2.942-0.575,4.447-0.442
		c1.12,0.099,2.23,0.307,3.35,0.422c0.64,0.066,0.868,0.253,0.445,0.85c-2.114,2.986-6.987,4.378-10.394,2.953
		C160.254,23.256,160.075,23.071,159.849,22.908z"/>
</g>
</svg>
