<?xml version="1.0" encoding="utf-8"?>
<!-- Generator: Adobe Illustrator 17.0.0, SVG Export Plug-In . SVG Version: 6.00 Build 0)  -->
<!DOCTYPE svg PUBLIC "-//W3C//DTD SVG 1.1//EN" "http://www.w3.org/Graphics/SVG/1.1/DTD/svg11.dtd">
<svg version="1.1" id="Calque_1" xmlns="http://www.w3.org/2000/svg" xmlns:xlink="http://www.w3.org/1999/xlink" x="0px" y="0px"
	 width="104.25px" height="104.5px" viewBox="90.23 78.73 104.25 104.5" enable-background="new 90.23 78.73 104.25 104.5"
	 xml:space="preserve">
<g>
	<circle fill="#D33C3D" cx="142.355" cy="130.98" r="50.828"/>
	<path fill="#FFFFFF" d="M166.572,101.245c-1.316-1.504-3.919-1.806-5.479-0.48c-2.406,2.044,0.139,5.387-1.142,7.859
		c-0.334,0.644-1.268,0.913-1.778,0.384c-0.553-0.574-0.066-1.799-0.053-2.492c0,0-1.976-1.263-15.264-1.431
		c0,0-0.181,0-0.501,0.002c-0.32-0.002-0.501-0.002-0.501-0.002c-13.288,0.168-15.264,1.43-15.264,1.43
		c0.012,0.694,0.5,1.919-0.053,2.493c-0.51,0.529-1.444,0.26-1.778-0.384c-1.281-2.472,1.264-5.815-1.142-7.859
		c-1.56-1.326-4.162-1.024-5.479,0.48c-0.772,0.882-1.089,2.078-1.034,3.226c0.339,6.986,4.64,13.102,9.159,18.125
		c0.58,0.645,1.187,1.264,1.786,1.892c0.16,0.167,1.64,1.902,1.694,1.876c-2.579,1.233,1.458,2.915,1.458,2.915l0.224,3.869
		c0,2.523,0.841,2.747,0.841,2.747c-0.056,7.065,7.317,10.485,7.317,10.485l-0.378,0.042l0.042,1.598
		c2.355,1.43,0.799,4.247,0.799,4.247c-0.631,0.168-0.715,0.547-0.715,0.547l-0.042,0.883c-0.547,0.042-0.799,0.715-0.799,0.715
		l-0.084,1.346c0.126,0.294,0.421,0.799,0.421,0.799c-0.21-0.042-0.715,0.505-0.715,0.505c-1.472,0.336-2.271,1.724-2.271,1.724
		c-0.547,0.463-1.556,3.827-1.556,3.827l-0.042,0.925c-0.463,0.126-0.505,0.631-0.505,0.631l-0.042,1.892
		c0.168,1.794,2.565,2.397,2.565,2.397l6.093-0.059l6.093,0.059c0,0,2.397-0.603,2.565-2.397l-0.042-1.892
		c0,0-0.042-0.505-0.505-0.631l-0.042-0.925c0,0-1.009-3.364-1.556-3.827c0,0-0.799-1.388-2.271-1.724c0,0-0.505-0.547-0.715-0.505
		c0,0,0.294-0.505,0.421-0.799l-0.084-1.346c0,0-0.252-0.673-0.799-0.715l-0.042-0.883c0,0-0.084-0.378-0.715-0.547
		c0,0-1.556-2.817,0.799-4.247l0.042-1.598l-0.378-0.042c0,0,7.373-3.42,7.317-10.485c0,0,0.841-0.224,0.841-2.747l0.224-3.869
		c0,0,4.037-1.682,1.458-2.915c0.054,0.026,1.535-1.709,1.694-1.876c0.599-0.627,1.206-1.247,1.786-1.892
		c4.519-5.023,8.82-11.139,9.159-18.125C167.661,103.323,167.344,102.127,166.572,101.245z M123.859,117.488
		c-1.674-2.721-2.736-5.738-3.666-8.778c-0.648-2.121-1.327-6.772,2.371-4.818c-1.029,1.227-0.056,3.369,0.51,4.589
		c0.646,1.392,1.909,2.808,3.609,1.854c0.281-0.155,1.219,4.266,1.283,4.603c0.157,0.823,1.131,5.871,1.446,6.06
		c0.769,1.063,1.052,2.212,1.244,3.511c0.056,0.376,0.124,0.757,0.154,1.136c0.001,0.015,0.038,0.582-0.086,0.439
		C127.89,122.797,123.859,117.488,123.859,117.488z M130.08,127.709c0.392,0.084,0.813-0.505,0.813-0.505l0.112,1.374
		C130.697,128.522,130.08,127.709,130.08,127.709z M153.705,128.578l0.112-1.374c0,0,0.421,0.589,0.813,0.505
		C154.63,127.709,154.013,128.522,153.705,128.578z M164.516,108.71c-0.929,3.041-1.992,6.057-3.666,8.778
		c0,0-4.031,5.309-6.866,8.595c-0.124,0.143-0.087-0.424-0.086-0.439c0.03-0.38,0.098-0.76,0.154-1.136
		c0.192-1.299,0.475-2.448,1.244-3.511c0.315-0.189,1.289-5.236,1.446-6.06c0.064-0.337,1.002-4.758,1.283-4.603
		c1.7,0.954,2.963-0.462,3.609-1.854c0.566-1.22,1.539-3.361,0.51-4.589C165.843,101.938,165.165,106.589,164.516,108.71z"/>
</g>
</svg>
