<?xml version="1.0" encoding="utf-8"?>
<!-- Generator: Adobe Illustrator 17.0.0, SVG Export Plug-In . SVG Version: 6.00 Build 0)  -->
<!DOCTYPE svg PUBLIC "-//W3C//DTD SVG 1.1//EN" "http://www.w3.org/Graphics/SVG/1.1/DTD/svg11.dtd">
<svg version="1.1" id="Calque_1" xmlns="http://www.w3.org/2000/svg" xmlns:xlink="http://www.w3.org/1999/xlink" x="0px" y="0px"
	 width="368.504px" height="382.677px" viewBox="275.748 51.217 368.504 382.677"
	 enable-background="new 275.748 51.217 368.504 382.677" xml:space="preserve">
<path fill="#D33C3D" d="M568.977,94.304c-5.923-6.768-17.633-8.126-24.654-2.161c-10.828,9.2,0.624,24.243-5.141,35.367
	c-1.503,2.9-5.706,4.108-7.999,1.729c-2.489-2.582-0.295-8.094-0.24-11.212c0,0-8.894-5.683-68.69-6.44c0,0-0.814,0-2.252,0.008
	c-1.438-0.008-2.252-0.008-2.252-0.008c-59.796,0.757-68.69,6.434-68.69,6.434c0.054,3.124,2.248,8.637-0.24,11.218
	c-2.294,2.379-6.496,1.171-7.999-1.729c-5.765-11.124,5.687-26.167-5.141-35.367c-7.02-5.965-18.731-4.607-24.654,2.161
	c-3.474,3.97-4.902,9.352-4.651,14.515c1.524,31.437,20.881,58.959,41.215,81.563c2.61,2.902,5.343,5.69,8.038,8.512
	c0.718,0.752,7.381,8.559,7.625,8.442c-11.606,5.551,6.56,13.12,6.56,13.12l1.009,17.409c0,11.354,3.785,12.363,3.785,12.363
	c-0.252,31.79,32.926,47.181,32.926,47.181l-1.703,0.189l0.189,7.191c10.597,6.434,3.595,19.112,3.595,19.112
	c-2.838,0.757-3.217,2.46-3.217,2.46l-0.189,3.974c-2.46,0.189-3.595,3.217-3.595,3.217l-0.378,6.055
	c0.568,1.325,1.892,3.595,1.892,3.595c-0.946-0.189-3.217,2.271-3.217,2.271c-6.623,1.514-10.218,7.758-10.218,7.758
	c-2.46,2.082-7.001,17.22-7.001,17.22l-0.189,4.163c-2.082,0.568-2.271,2.838-2.271,2.838l-0.189,8.515
	c0.757,8.074,11.543,10.786,11.543,10.786L460,396.49l27.419,0.263c0,0,10.786-2.712,11.543-10.786l-0.189-8.515
	c0,0-0.189-2.271-2.271-2.838l-0.189-4.163c0,0-4.542-15.138-7.001-17.22c0,0-3.595-6.245-10.218-7.758c0,0-2.271-2.46-3.217-2.271
	c0,0,1.325-2.271,1.892-3.595l-0.378-6.055c0,0-1.135-3.028-3.595-3.217l-0.189-3.974c0,0-0.378-1.703-3.217-2.46
	c0,0-7.001-12.678,3.595-19.112l0.189-7.191l-1.703-0.189c0,0,33.178-15.391,32.926-47.181c0,0,3.785-1.009,3.785-12.363
	l1.009-17.409c0,0,18.166-7.569,6.56-13.12c0.244,0.117,6.907-7.69,7.625-8.442c2.695-2.822,5.428-5.61,8.038-8.512
	c20.334-22.604,39.691-50.126,41.215-81.563C573.878,103.656,572.451,98.274,568.977,94.304z M376.77,167.399
	c-7.532-12.246-12.314-25.819-16.496-39.503c-2.917-9.546-5.971-30.474,10.672-21.681c-4.63,5.522-0.253,15.16,2.293,20.649
	c2.905,6.263,8.59,12.637,16.24,8.344c1.264-0.699,5.486,19.195,5.775,20.712c0.707,3.705,5.091,26.42,6.508,27.268
	c3.462,4.783,4.734,9.952,5.599,15.798c0.251,1.694,0.558,3.406,0.692,5.114c0.005,0.069,0.171,2.621-0.386,1.976
	C394.907,191.29,376.77,167.399,376.77,167.399z M404.764,213.391c1.766,0.378,3.658-2.271,3.658-2.271l0.505,6.182
	C407.539,217.05,404.764,213.391,404.764,213.391z M511.073,217.302l0.505-6.182c0,0,1.892,2.649,3.658,2.271
	C515.236,213.391,512.461,217.05,511.073,217.302z M559.726,127.896c-4.182,13.684-8.964,27.257-16.496,39.503
	c0,0-18.138,23.891-30.897,38.677c-0.557,0.645-0.391-1.908-0.386-1.976c0.134-1.708,0.442-3.42,0.692-5.114
	c0.865-5.845,2.137-11.014,5.599-15.798c1.417-0.848,5.801-23.563,6.508-27.268c0.289-1.517,4.511-21.411,5.775-20.712
	c7.65,4.293,13.334-2.081,16.24-8.344c2.546-5.489,6.923-15.127,2.293-20.649C565.698,97.422,562.643,118.351,559.726,127.896z"/>
</svg>
