<?xml version="1.0" encoding="utf-8"?>
<!-- Generator: Adobe Illustrator 17.0.0, SVG Export Plug-In . SVG Version: 6.00 Build 0)  -->
<!DOCTYPE svg PUBLIC "-//W3C//DTD SVG 1.1//EN" "http://www.w3.org/Graphics/SVG/1.1/DTD/svg11.dtd">
<svg version="1.1" id="Calque_1" xmlns="http://www.w3.org/2000/svg" xmlns:xlink="http://www.w3.org/1999/xlink" x="0px" y="0px"
	 width="368.504px" height="368.504px" viewBox="275.748 58.304 368.504 368.504"
	 enable-background="new 275.748 58.304 368.504 368.504" xml:space="preserve">
<g>
	<path fill="#0D3E49" d="M383.266,412.927h-3.739v7.315h-3.794v-19.435h7.534c4.013,0,6.415,2.757,6.415,6.06
		C389.681,410.17,387.279,412.927,383.266,412.927z M383.075,404.192h-3.549v5.322h3.549c1.72,0,2.811-1.065,2.811-2.648
		C385.887,405.284,384.795,404.192,383.075,404.192z"/>
	<g>
		
			<image overflow="visible" enable-background="new    " width="283" height="283" xlink:href="825E2932B7E8A354.png"  transform="matrix(0.9999 0 0 0.9999 315.5176 108.8697)">
		</image>
		<polygon fill="none" points="611.081,166.125 460,78.898 308.919,166.125 308.919,340.577 380.377,381.834 539.623,381.834 
			611.081,340.577 		"/>
		<polygon fill="#0D3E49" points="308.919,340.577 308.919,166.125 460,78.898 611.081,166.125 611.081,340.577 539.623,381.834 
			565.624,381.834 624.081,348.083 624.081,158.619 460,63.887 295.919,158.619 295.919,348.083 354.376,381.834 380.377,381.834 		
			"/>
		<path fill="#0D3E49" d="M397.791,420.406v-19.435h12.802v3.386h-9.008v4.557h7.67v3.384h-7.67v4.723h9.008v3.384h-12.802V420.406z
			 M404.833,399.088h-2.375l1.747-4.64h3.739L404.833,399.088z"/>
	</g>
	<path fill="#0D3E49" d="M426.646,404.192v16.049h-3.794v-16.049h-5.077v-3.386h13.949v3.386H426.646z"/>
	<path fill="#0D3E49" d="M449.14,420.242l-1.146-3.439h-6.906l-1.174,3.439h-3.958l7.07-19.435h2.975l7.097,19.435H449.14z
		 M444.609,406.54l-2.457,7.069h4.831L444.609,406.54z"/>
	<path fill="#0D3E49" d="M471.908,420.242l-7.697-11.928v11.928h-3.794v-19.435h3.385l7.697,11.902v-11.902h3.794v19.435H471.908z"
		/>
	<path fill="#0D3E49" d="M496.915,421.224l-1.72-1.72c-1.092,0.71-2.402,1.065-3.931,1.065c-2.211,0-3.903-0.765-5.268-2.13
		c-1.965-1.964-1.911-4.395-1.911-7.751c0-3.358-0.054-5.787,1.911-7.753c1.365-1.365,3.057-2.129,5.268-2.129
		s3.876,0.763,5.241,2.129c1.965,1.966,1.938,4.395,1.938,7.753c0,2.92,0.027,5.077-1.201,6.878l1.665,1.666L496.915,421.224z
		 M493.694,405.228c-0.546-0.627-1.392-1.037-2.429-1.037s-1.911,0.41-2.457,1.037c-0.737,0.819-0.928,1.72-0.928,5.46
		s0.191,4.64,0.928,5.458c0.546,0.629,1.419,1.038,2.457,1.038c0.464,0,0.901-0.109,1.256-0.355l-1.693-1.666l2.02-1.992
		l1.447,1.447c0.3-0.846,0.355-1.966,0.355-3.93C494.649,406.948,494.431,406.047,493.694,405.228z"/>
	<path fill="#0D3E49" d="M514.06,420.406c-3.985,0-7.152-2.703-7.152-6.825v-12.774h3.794v12.638c0,2.238,1.31,3.577,3.357,3.577
		c2.047,0,3.385-1.339,3.385-3.577v-12.638h3.767v12.774C521.211,417.703,518.045,420.406,514.06,420.406z"/>
	<path fill="#0D3E49" d="M530.359,420.242v-19.435h12.802v3.386h-9.008v4.557h7.67v3.384h-7.67v4.723h9.008v3.384h-12.802V420.242z"
		/>
</g>
</svg>
