<?xml version="1.0" encoding="utf-8"?>
<!-- Generator: Adobe Illustrator 17.0.0, SVG Export Plug-In . SVG Version: 6.00 Build 0)  -->
<!DOCTYPE svg PUBLIC "-//W3C//DTD SVG 1.1//EN" "http://www.w3.org/Graphics/SVG/1.1/DTD/svg11.dtd">
<svg version="1.1" id="Calque_1" xmlns="http://www.w3.org/2000/svg" xmlns:xlink="http://www.w3.org/1999/xlink" x="0px" y="0px"
	 width="368.504px" height="368.504px" viewBox="0 0 368.504 368.504" enable-background="new 0 0 368.504 368.504"
	 xml:space="preserve">
<polygon fill="none" points="335.332,286.773 335.332,112.321 184.253,25.094 33.172,112.321 33.172,286.773 105.191,328.354 
	263.314,328.354 "/>
<polygon fill="#0D3E49" points="348.332,104.815 184.253,10.083 20.172,104.815 20.172,294.28 79.19,328.354 105.191,328.354 
	33.172,286.773 33.172,112.321 184.253,25.094 335.332,112.321 335.332,286.773 263.314,328.354 289.315,328.354 348.332,294.28 "/>
<g>
	<path fill="#0D3E49" d="M80.93,146.749v21.686h-5.127v-21.686h-6.859v-4.578h18.846v4.578H80.93z"/>
	<path fill="#0D3E49" d="M115.929,165.777c-1.846,1.846-4.093,2.881-7.082,2.881s-5.276-1.035-7.122-2.881
		c-2.652-2.652-2.578-5.939-2.578-10.472c0-4.538-0.074-7.819,2.578-10.477c1.846-1.846,4.133-2.875,7.122-2.875
		s5.236,1.029,7.082,2.875c2.658,2.658,2.618,5.939,2.618,10.477C118.547,159.838,118.587,163.125,115.929,165.777z
		 M112.128,147.926c-0.737-0.846-1.881-1.4-3.281-1.4c-1.4,0-2.584,0.554-3.321,1.4c-0.995,1.109-1.252,2.326-1.252,7.379
		c0,5.053,0.257,6.27,1.252,7.374c0.737,0.852,1.921,1.406,3.321,1.406c1.4,0,2.544-0.554,3.281-1.406
		c0.995-1.103,1.292-2.321,1.292-7.374C113.42,150.253,113.123,149.035,112.128,147.926z"/>
	<path fill="#0D3E49" d="M141.851,168.658c-5.384,0-9.66-3.652-9.66-9.226V142.17h5.127v17.079c0,3.024,1.766,4.836,4.533,4.836
		s4.578-1.812,4.578-4.836V142.17h5.087v17.262C151.517,165.005,147.241,168.658,141.851,168.658z"/>
	<path fill="#0D3E49" d="M173.266,168.658c-3.984,0-7.008-0.852-9.586-3.47l3.315-3.321c1.663,1.663,3.91,2.218,6.345,2.218
		c3.024,0,4.647-1.149,4.647-3.247c0-0.926-0.257-1.698-0.812-2.218c-0.514-0.474-1.103-0.737-2.321-0.92l-3.172-0.44
		c-2.252-0.332-3.91-1.035-5.093-2.178c-1.252-1.252-1.881-2.949-1.881-5.162c0-4.687,3.47-7.968,9.151-7.968
		c3.612,0,6.23,0.886,8.482,3.058l-3.247,3.212c-1.658-1.589-3.652-1.812-5.384-1.812c-2.732,0-4.058,1.515-4.058,3.321
		c0,0.663,0.223,1.366,0.777,1.881c0.514,0.48,1.36,0.886,2.429,1.035l3.098,0.446c2.401,0.332,3.915,0.995,5.019,2.023
		c1.4,1.332,2.029,3.247,2.029,5.573C183.006,165.777,178.765,168.658,173.266,168.658z"/>
	<path fill="#0D3E49" d="M221.457,168.435V142.17h5.127v21.692h11.912v4.573H221.457z"/>
	<path fill="#0D3E49" d="M251.472,168.435V142.17h17.296v4.578h-12.169v6.156h10.363v4.573h-10.363v6.385h12.169v4.573H251.472z"/>
	<path fill="#0D3E49" d="M289.82,168.658c-3.984,0-7.008-0.852-9.586-3.47l3.315-3.321c1.663,1.663,3.91,2.218,6.345,2.218
		c3.024,0,4.647-1.149,4.647-3.247c0-0.926-0.257-1.698-0.812-2.218c-0.514-0.474-1.103-0.737-2.321-0.92l-3.172-0.44
		c-2.252-0.332-3.91-1.035-5.093-2.178c-1.252-1.252-1.881-2.949-1.881-5.162c0-4.687,3.47-7.968,9.151-7.968
		c3.612,0,6.23,0.886,8.482,3.058l-3.247,3.212c-1.658-1.589-3.652-1.812-5.384-1.812c-2.732,0-4.058,1.515-4.058,3.321
		c0,0.663,0.223,1.366,0.777,1.881c0.514,0.48,1.36,0.886,2.429,1.035l3.104,0.446c2.395,0.332,3.91,0.995,5.013,2.023
		c1.4,1.332,2.029,3.247,2.029,5.573C299.56,165.777,295.319,168.658,289.82,168.658z"/>
	<path fill="#0D3E49" d="M105.006,215.483c-3.984,0-7.008-0.852-9.586-3.47l3.315-3.321c1.663,1.663,3.91,2.218,6.345,2.218
		c3.024,0,4.647-1.149,4.647-3.247c0-0.926-0.257-1.698-0.812-2.218c-0.514-0.474-1.103-0.737-2.321-0.92l-3.172-0.44
		c-2.252-0.332-3.91-1.035-5.093-2.178c-1.252-1.252-1.881-2.949-1.881-5.161c0-4.687,3.47-7.968,9.151-7.968
		c3.612,0,6.23,0.886,8.482,3.058l-3.247,3.212c-1.658-1.589-3.652-1.812-5.384-1.812c-2.732,0-4.058,1.515-4.058,3.321
		c0,0.663,0.223,1.366,0.777,1.881c0.514,0.48,1.36,0.886,2.429,1.035l3.098,0.446c2.401,0.332,3.915,0.995,5.019,2.023
		c1.4,1.332,2.029,3.247,2.029,5.573C114.746,212.602,110.505,215.483,105.006,215.483z"/>
	<path fill="#0D3E49" d="M138.57,205.377h-5.053v9.883h-5.127v-26.265h10.18c5.419,0,8.665,3.727,8.665,8.191
		C147.235,201.65,143.989,205.377,138.57,205.377z M138.313,193.574h-4.796v7.191h4.796c2.321,0,3.795-1.44,3.795-3.578
		S140.634,193.574,138.313,193.574z"/>
	<path fill="#0D3E49" d="M176.255,212.602c-1.846,1.846-4.093,2.881-7.082,2.881c-2.989,0-5.276-1.035-7.122-2.881
		c-2.652-2.652-2.578-5.939-2.578-10.472c0-4.538-0.074-7.819,2.578-10.477c1.846-1.846,4.133-2.875,7.122-2.875
		c2.989,0,5.236,1.029,7.082,2.875c2.658,2.658,2.618,5.939,2.618,10.477C178.873,206.663,178.913,209.95,176.255,212.602z
		 M172.454,194.751c-0.737-0.846-1.881-1.4-3.281-1.4c-1.4,0-2.584,0.554-3.321,1.4c-0.995,1.109-1.252,2.326-1.252,7.379
		c0,5.053,0.257,6.27,1.252,7.374c0.737,0.852,1.921,1.406,3.321,1.406c1.4,0,2.544-0.554,3.281-1.406
		c0.995-1.103,1.292-2.321,1.292-7.374C173.746,197.078,173.449,195.86,172.454,194.751z"/>
	<path fill="#0D3E49" d="M206.864,215.26l-5.127-10.477h-3.687v10.477h-5.127v-26.265h10.289c5.35,0,8.522,3.652,8.522,8.042
		c0,3.687-2.252,5.979-4.796,6.899l5.865,11.323H206.864z M202.88,193.574h-4.83v6.933h4.83c2.252,0,3.727-1.44,3.727-3.47
		C206.607,195.008,205.132,193.574,202.88,193.574z"/>
	<path fill="#0D3E49" d="M235.879,193.574v21.686h-5.127v-21.686h-6.859v-4.578h18.846v4.578H235.879z"/>
	<path fill="#0D3E49" d="M262.944,215.483c-3.984,0-7.008-0.852-9.586-3.47l3.315-3.321c1.663,1.663,3.91,2.218,6.345,2.218
		c3.024,0,4.647-1.149,4.647-3.247c0-0.926-0.257-1.698-0.812-2.218c-0.514-0.474-1.103-0.737-2.321-0.92l-3.172-0.44
		c-2.252-0.332-3.91-1.035-5.093-2.178c-1.252-1.252-1.881-2.949-1.881-5.161c0-4.687,3.47-7.968,9.151-7.968
		c3.612,0,6.23,0.886,8.482,3.058l-3.247,3.212c-1.658-1.589-3.652-1.812-5.384-1.812c-2.732,0-4.058,1.515-4.058,3.321
		c0,0.663,0.223,1.366,0.777,1.881c0.514,0.48,1.36,0.886,2.429,1.035l3.104,0.446c2.395,0.332,3.91,0.995,5.013,2.023
		c1.4,1.332,2.029,3.247,2.029,5.573C272.684,212.602,268.442,215.483,262.944,215.483z"/>
</g>
</svg>
