<?xml version="1.0" encoding="UTF-8" standalone="no"?>
<!-- Generator: Adobe Illustrator 17.0.0, SVG Export Plug-In . SVG Version: 6.00 Build 0)  -->

<svg
   xmlns:dc="http://purl.org/dc/elements/1.1/"
   xmlns:cc="http://creativecommons.org/ns#"
   xmlns:rdf="http://www.w3.org/1999/02/22-rdf-syntax-ns#"
   xmlns:svg="http://www.w3.org/2000/svg"
   xmlns="http://www.w3.org/2000/svg"
   xmlns:sodipodi="http://sodipodi.sourceforge.net/DTD/sodipodi-0.dtd"
   xmlns:inkscape="http://www.inkscape.org/namespaces/inkscape"
   version="1.1"
   id="Calque_1"
   x="0px"
   y="0px"
   width="116.17436"
   height="243.67999"
   viewBox="0 0 116.17437 243.68"
   enable-background="new 0 0 283.46 283.46"
   xml:space="preserve"
   inkscape:version="0.48.4 r9939"
   sodipodi:docname="flamme.svg"><metadata
   id="metadata3021"><rdf:RDF><cc:Work
       rdf:about=""><dc:format>image/svg+xml</dc:format><dc:type
         rdf:resource="http://purl.org/dc/dcmitype/StillImage" /><dc:title></dc:title></cc:Work></rdf:RDF></metadata><defs
   id="defs3019" /><sodipodi:namedview
   pagecolor="#ffffff"
   bordercolor="#666666"
   borderopacity="1"
   objecttolerance="10"
   gridtolerance="10"
   guidetolerance="10"
   inkscape:pageopacity="0"
   inkscape:pageshadow="2"
   inkscape:window-width="1366"
   inkscape:window-height="706"
   id="namedview3017"
   showgrid="false"
   fit-margin-top="0"
   fit-margin-left="0"
   fit-margin-right="0"
   fit-margin-bottom="0"
   inkscape:zoom="1.8309462"
   inkscape:cx="57.662998"
   inkscape:cy="117.774"
   inkscape:window-x="-8"
   inkscape:window-y="-8"
   inkscape:window-maximized="1"
   inkscape:current-layer="Calque_1" />
<g
   id="g3005"
   style="opacity:0.15"
   transform="translate(-84.067,-15.824)">
	<path
   d="m 107.728,148.393 c 0,0 -11.418,-11.723 -6.01,-27.606 5.409,-15.883 2.01,-21.746 -1.399,-26.927 -3.409,-5.181 14.62,8.598 14.019,15.23 -0.601,6.632 -3.005,-8.474 21.033,-25.56 24.038,-17.086 23.437,-40.004 15.625,-49.879 -7.812,-9.875 20.432,5.149 13.822,33.995 l 12.019,-5.04 c 0,0 -10.216,25.974 -4.207,30.531 6.01,4.557 3.005,-5.228 14.423,-6.646 0,0 -9.902,10.28 -2.404,27.97 4.998,11.792 -4.207,32.511 -15.625,33.713 -11.416,1.2 -61.296,0.219 -61.296,0.219 z"
   id="path3007"
   inkscape:connector-curvature="0"
   style="fill:#218fb2" />
	<path
   d="m 119.306,87.637 c -4.206,5.529 -6.347,10.975 -6.59,12.964 -0.606,4.948 -1.768,-6.795 -1.768,-6.795 0,0 -2.188,-13.415 21.19,-37.323 0,0 7.193,-7.946 1.798,-20.363 -5.395,-12.417 -2.592,-16.077 -0.434,-20.296 0,0 -1.364,4.182 4.75,11.083 6.114,6.901 9.912,13.354 10.966,21.196 1.718,12.787 -11.425,23.404 -15.282,25.879 0,0.001 -9.578,7.015 -14.63,13.655 z"
   id="path3009"
   inkscape:connector-curvature="0"
   style="fill:#218fb2" />
	<path
   d="m 177.81,18.872 c 0,0 -12.838,13.381 -9.721,22.554 3.116,9.172 6.26,8.955 2.227,17.095 0,0 8.372,-3.97 8.149,-13.773 -0.223,-9.803 -5.332,-12.948 -0.655,-25.876 z"
   id="path3011"
   inkscape:connector-curvature="0"
   style="fill:#218fb2" />
	<path
   d="m 187.183,61.344 c 0,0 2.351,10.976 -2.173,14.707 -4.524,3.731 -6.073,2.618 -6.588,8.093 0,0 -3.047,-4.709 0.188,-9.686 3.234,-4.976 6.866,-4.968 8.573,-13.114 z"
   id="path3013"
   inkscape:connector-curvature="0"
   style="fill:#218fb2" />
	<path
   d="m 187.054,197.056 c 1.854,-0.268 3.584,-0.909 5.13,-1.828 0.004,-0.003 0.007,-0.004 0.011,-0.006 0.003,-0.002 0.006,-0.004 0.008,-0.006 1.051,-0.628 2.01,-1.392 2.861,-2.262 0.228,-0.213 0.455,-0.453 0.678,-0.744 0.038,-0.05 0.072,-0.107 0.109,-0.158 1.894,-2.299 3.062,-5.201 3.172,-8.386 2.049,-10.339 0.894,-24.152 0.894,-24.152 l -0.34,0.315 c -0.73,-2.716 -2.939,-4.824 -5.73,-5.359 v -0.137 H 91.479 c -4.093,0 -7.412,3.318 -7.412,7.412 0,0.521 0.055,1.029 0.157,1.519 0.48,4.361 2.115,17.172 5.45,25.093 0.117,0.295 0.248,0.581 0.384,0.865 1.313,2.858 2.871,4.947 4.709,5.518 2.256,1.551 4.986,2.462 7.93,2.462 0.306,0 0.609,-0.012 0.91,-0.032 0.044,0.149 0.079,0.293 0.114,0.435 -2.916,2.025 -4.83,5.393 -4.83,9.212 0,5.576 4.07,10.2 9.4,11.07 0.01,0.097 0.015,0.149 0.015,0.149 h 7.409 v 41.468 h 50.483 v -41.468 h 6.213 c 0,0 0.023,-0.034 0.055,-0.084 0.442,0.053 0.891,0.084 1.348,0.084 6.196,0 11.218,-5.023 11.218,-11.218 0,-4.082 -2.18,-7.653 -5.439,-9.615 h 2.323 c 1.571,0.244 3.466,0.336 5.138,-0.147 z"
   id="path3015"
   inkscape:connector-curvature="0"
   style="fill:#218fb2" />
</g>
</svg>