<?xml version="1.0" encoding="utf-8"?>
<!-- Generator: Adobe Illustrator 17.0.0, SVG Export Plug-In . SVG Version: 6.00 Build 0)  -->
<!DOCTYPE svg PUBLIC "-//W3C//DTD SVG 1.1//EN" "http://www.w3.org/Graphics/SVG/1.1/DTD/svg11.dtd">
<svg version="1.1" id="Calque_1" xmlns="http://www.w3.org/2000/svg" xmlns:xlink="http://www.w3.org/1999/xlink" x="0px" y="0px"
	 width="166.667px" height="45.667px" viewBox="0 0 166.667 45.667" enable-background="new 0 0 166.667 45.667"
	 xml:space="preserve">
<rect x="-389.926" y="-38.841" fill="none" stroke="#D33D3D" stroke-miterlimit="10" width="151.96" height="38.348"/>
<rect x="-384.581" y="-27" fill="none" width="139.5" height="16.667"/>
<text transform="matrix(0.7853 0 0 1 -376.6515 -12.0475)" fill="#D33D3D" font-family="'DINPro-Bold'" font-size="21" letter-spacing="6.367">LICENCIÉS</text>
<path fill="#2290B2" d="M-191.215,124.649L-432.558,49.18l-7.075-62.76c0,0-0.655-2.358,3.276-3.014l57.65-11.137l-0.917-15.33
	c0,0-0.262-2.751,3.8-3.145l54.636-7.73l75.6,4.455c0,0,3.276-0.262,3.538,4.455l-1.834,52.016c0,0,1.441,1.703,2.62,1.703
	l89.75,14.281c0,0,2.096-0.393,1.965,4.717l-5.372,51.754L-191.215,124.649z"/>
<path fill="#D7D6D1" d="M-342.666,10.074l0.214-29.654c0,0-1.508,1.418-2.885,1.937c-1.837,0.705-3.96,0.994-3.96,0.994l0.036-5.007
	c0,0,2.999-0.526,5.049-2.026c1.758-1.293,3.482-3.892,3.482-3.892l3.368,0.384l-0.273,37.837L-342.666,10.074z"/>
<g>
	<path fill="#D7D6D1" d="M-242.853,95.225c-3.578-0.239-7.056-1.462-9.987-4.036l2.452-4.047c2.645,2.208,5.061,3.113,7.831,3.298
		c3.77,0.252,6.628-2.233,6.869-6.131c0.235-3.799-1.468-6.242-6.084-6.55l-2.924-0.195l0.302-4.885l2.962,0.198
		c3.385,0.226,5.56-2.453,5.795-6.253c0.309-4.984-2.755-6.03-5.179-6.192c-1.846-0.123-4.755,1.317-6.151,3.899l-2.657-3.249
		c2.698-4.279,6.078-5.837,9.925-5.58c7.001,0.468,8.952,6.395,8.671,10.935c-0.324,5.231-2.955,8.424-4.779,8.55
		c2.097,0.438,5.086,3.957,4.737,9.582C-231.502,91.574-235.775,95.698-242.853,95.225z"/>
</g>
<g>
	<path fill="#D7D6D1" d="M-421.678,33.17l10.894-9.079c0.908-0.841,4.874-3.934,5.071-6.941c0.238-3.643-1.965-5.266-4.619-5.964
		c-3.422-0.9-5.349,0.86-5.518,3.442l-0.079,1.203l-3.876-1.019l0.083-1.273c0.289-4.421,4.07-7.384,9.552-5.943
		c4.959,1.304,9.12,4.486,8.732,10.427c-0.277,4.244-4.316,7.355-4.991,7.897l-6.796,5.624l11.698,3.077l-0.247,3.785
		L-421.678,33.17z"/>
</g>
<path fill="#106478" d="M-292.626,32.278c0,0,105.735,23.584,106.521,23.191l35.376-32.232l-90.537-14.543L-292.626,32.278z"/>
<path fill="#106478" d="M-294.788,28.544l51.295-22.208l1.572-53.064c0,0-0.393-2.555-1.965-2.162c0,0-51.295,15.133-50.706,15.133
	S-294.788,28.544-294.788,28.544z"/>
<polygon fill="#106478" points="-437.144,-15.807 -377.398,-4.278 -378.708,-27.731 "/>
<line fill="#FFFFFF" stroke="#106478" stroke-miterlimit="10" x1="-301.472" y1="-58.964" x2="-301.472" y2="-154.563"/>
<line fill="#FFFFFF" stroke="#106478" stroke-miterlimit="10" stroke-dasharray="3" x1="-391.375" y1="-32.837" x2="-391.375" y2="-101.121"/>
<g>
	<line fill="#FFFFFF" x1="-211.114" y1="7.928" x2="-211.114" y2="-64.117"/>
	<g>
		<line fill="none" stroke="#106478" stroke-miterlimit="10" x1="-211.114" y1="7.928" x2="-211.114" y2="6.428"/>
		
			<line fill="none" stroke="#106478" stroke-miterlimit="10" stroke-dasharray="3.0019,3.0019" x1="-211.114" y1="3.426" x2="-211.114" y2="-61.116"/>
		<line fill="none" stroke="#106478" stroke-miterlimit="10" x1="-211.114" y1="-62.617" x2="-211.114" y2="-64.117"/>
	</g>
</g>
<rect x="-462.373" y="-112.841" fill="none" width="141.997" height="9.877"/>
<text transform="matrix(1 0 0 1 -450.6917 -105.01)" fill="#106478" font-family="'DINPro-Bold'" font-size="11" letter-spacing="1">PAys de la loire</text>
<rect x="-358.712" y="-167.582" fill="none" width="114.48" height="11.72"/>
<text transform="matrix(1 0 0 1 -335.5665 -159.749)" fill="#106478" font-family="'DINPro-Bold'" font-size="11" letter-spacing="1">BRETAGNE</text>
<rect x="-261.418" y="-89.402" fill="none" width="100.608" height="23.521"/>
<text transform="matrix(1 0 0 1 -232.7786 -81.5691)"><tspan x="0" y="0" fill="#106478" font-family="'DINPro-Bold'" font-size="11" letter-spacing="1">RHÔNE </tspan><tspan x="-27.23" y="13.2" fill="#106478" font-family="'DINPro-Bold'" font-size="11" letter-spacing="1">ALPES-ALSACE</tspan></text>
<path fill="#D33D3D" d="M-357.909,170.587h-1.979v3.871h-2.008v-10.286h3.987c2.123,0,3.394,1.459,3.394,3.207
	C-354.515,169.128-355.786,170.587-357.909,170.587z M-358.01,165.964h-1.878v2.817h1.878c0.91,0,1.487-0.564,1.487-1.401
	C-356.523,166.542-357.1,165.964-358.01,165.964z"/>
<path fill="#D33D3D" d="M-343.997,173.418c-0.723,0.723-1.603,1.127-2.774,1.127s-2.066-0.405-2.788-1.127
	c-1.04-1.04-1.011-2.326-1.011-4.102c0-1.777-0.029-3.062,1.011-4.103c0.723-0.723,1.618-1.127,2.788-1.127s2.051,0.404,2.774,1.127
	c1.04,1.04,1.026,2.326,1.026,4.103C-342.971,171.092-342.956,172.378-343.997,173.418z M-345.485,166.426
	c-0.289-0.332-0.737-0.549-1.285-0.549s-1.011,0.217-1.3,0.549c-0.39,0.434-0.491,0.91-0.491,2.889s0.101,2.456,0.491,2.889
	c0.289,0.333,0.751,0.55,1.3,0.55s0.997-0.217,1.285-0.55c0.39-0.433,0.506-0.91,0.506-2.889S-345.095,166.86-345.485,166.426z"/>
<path fill="#D33D3D" d="M-334.692,174.545c-2.109,0-3.784-1.43-3.784-3.612v-6.761h2.008v6.688c0,1.184,0.693,1.893,1.776,1.893
	c1.083,0,1.792-0.708,1.792-1.893v-6.688h1.993v6.761C-330.907,173.115-332.582,174.545-334.692,174.545z"/>
<path fill="#D33D3D" d="M-320.605,174.458l-2.008-4.103h-1.444v4.103h-2.008v-10.286h4.03c2.095,0,3.337,1.43,3.337,3.149
	c0,1.444-0.881,2.341-1.878,2.702l2.297,4.435H-320.605z M-322.165,165.964h-1.892v2.716h1.892c0.881,0,1.459-0.564,1.459-1.358
	S-321.284,165.964-322.165,165.964z"/>
<path fill="#D33D3D" d="M-305.68,174.458v-8.263l-2.094,1.82v-2.023l2.094-1.82h1.878v10.286H-305.68z"/>
<path fill="#D33D3D" d="M-294.888,174.545c-1.675,0-3.134-1.098-3.134-3.062v-4.334c0-1.965,1.459-3.062,3.134-3.062
	c1.676,0,3.12,1.098,3.12,3.062v4.334C-291.767,173.447-293.212,174.545-294.888,174.545z M-293.645,167.178
	c0-0.867-0.506-1.401-1.242-1.401c-0.737,0-1.256,0.534-1.256,1.401v4.29c0,0.867,0.52,1.387,1.256,1.387
	c0.737,0,1.242-0.521,1.242-1.387V167.178z"/>
<path fill="#D33D3D" d="M-278.488,174.545c-1.675,0-3.134-1.098-3.134-3.062v-4.334c0-1.965,1.459-3.062,3.134-3.062
	c1.676,0,3.12,1.098,3.12,3.062v4.334C-275.368,173.447-276.812,174.545-278.488,174.545z M-277.246,167.178
	c0-0.867-0.506-1.401-1.242-1.401c-0.737,0-1.256,0.534-1.256,1.401v4.29c0,0.867,0.52,1.387,1.256,1.387
	c0.737,0,1.242-0.521,1.242-1.387V167.178z"/>
<path fill="#D33D3D" d="M-268.042,174.545c-1.675,0-3.134-1.098-3.134-3.062v-4.334c0-1.965,1.459-3.062,3.134-3.062
	c1.676,0,3.12,1.098,3.12,3.062v4.334C-264.922,173.447-266.366,174.545-268.042,174.545z M-266.8,167.178
	c0-0.867-0.506-1.401-1.242-1.401c-0.737,0-1.256,0.534-1.256,1.401v4.29c0,0.867,0.52,1.387,1.256,1.387
	c0.737,0,1.242-0.521,1.242-1.387V167.178z"/>
<path fill="#D33D3D" d="M-257.596,174.545c-1.675,0-3.134-1.098-3.134-3.062v-4.334c0-1.965,1.459-3.062,3.134-3.062
	c1.676,0,3.12,1.098,3.12,3.062v4.334C-254.476,173.447-255.92,174.545-257.596,174.545z M-256.354,167.178
	c0-0.867-0.506-1.401-1.242-1.401c-0.737,0-1.256,0.534-1.256,1.401v4.29c0,0.867,0.52,1.387,1.256,1.387
	c0.737,0,1.242-0.521,1.242-1.387V167.178z"/>
<path fill="#D33D3D" d="M-238.438,174.458v-4.305h-3.481v4.305h-2.008v-10.286h2.008v4.204h3.481v-4.204h2.008v10.286H-238.438z"/>
<path fill="#D33D3D" d="M-225.58,174.458l-0.607-1.82h-3.655l-0.621,1.82h-2.095l3.742-10.286h1.574l3.756,10.286H-225.58z
	 M-227.978,167.207l-1.3,3.741h2.557L-227.978,167.207z"/>
<path fill="#D33D3D" d="M-215.307,174.458h-4.305v-10.286h4.131c2.008,0,3.178,1.127,3.178,2.889c0,1.141-0.751,1.878-1.271,2.124
	c0.622,0.289,1.415,0.939,1.415,2.311C-212.159,173.418-213.473,174.458-215.307,174.458z M-215.64,165.964h-1.964v2.369h1.964
	c0.852,0,1.329-0.477,1.329-1.184S-214.788,165.964-215.64,165.964z M-215.51,170.139h-2.094v2.528h2.094
	c0.91,0,1.343-0.578,1.343-1.271C-214.167,170.702-214.6,170.139-215.51,170.139z"/>
<path fill="#2290B2" d="M-351.979,197.723c-1.049,0-1.932-0.359-2.65-1.077c-0.428-0.428-0.69-0.924-0.8-1.476
	c-0.11-0.552-0.165-1.366-0.165-2.443c0-1.077,0.055-1.891,0.165-2.443c0.111-0.565,0.372-1.049,0.8-1.476
	c0.718-0.718,1.601-1.076,2.65-1.076c1.891,0,3.285,1.104,3.616,3.105h-1.946c-0.207-0.842-0.731-1.394-1.656-1.394
	c-0.524,0-0.939,0.165-1.228,0.511c-0.401,0.428-0.483,0.869-0.483,2.774c0,1.904,0.082,2.346,0.483,2.774
	c0.289,0.345,0.704,0.511,1.228,0.511c0.924,0,1.449-0.553,1.656-1.394h1.946C-348.694,196.618-350.102,197.723-351.979,197.723z"/>
<path fill="#2290B2" d="M-338.977,197.557v-4.112h-3.326v4.112h-1.918v-9.826h1.918v4.016h3.326v-4.016h1.918v9.826H-338.977z"/>
<path fill="#2290B2" d="M-332.282,197.557v-9.826h1.918v9.826H-332.282z"/>
<path fill="#2290B2" d="M-323.67,189.443v2.415h3.878v1.711h-3.878v3.988h-1.918v-9.826h6.472v1.712H-323.67z"/>
<path fill="#2290B2" d="M-313.042,189.443v2.415h3.878v1.711h-3.878v3.988h-1.918v-9.826h6.472v1.712H-313.042z"/>
<path fill="#2290B2" d="M-299.117,197.557l-1.918-3.919h-1.38v3.919h-1.918v-9.826h3.85c2.001,0,3.188,1.366,3.188,3.009
	c0,1.38-0.842,2.236-1.794,2.581l2.194,4.237H-299.117z M-300.607,189.443h-1.808v2.594h1.808c0.842,0,1.394-0.538,1.394-1.298
	C-299.213,189.981-299.765,189.443-300.607,189.443z"/>
<path fill="#2290B2" d="M-292.822,197.557v-9.826h6.472v1.712h-4.554v2.304h3.878v1.711h-3.878v2.388h4.554v1.711H-292.822z"/>
<path fill="#2290B2" d="M-264.831,197.557h-4.112v-9.826h3.946c1.918,0,3.036,1.077,3.036,2.76c0,1.09-0.718,1.794-1.215,2.029
	c0.593,0.276,1.352,0.897,1.352,2.208C-261.824,196.564-263.079,197.557-264.831,197.557z M-265.149,189.443h-1.876v2.263h1.876
	c0.814,0,1.27-0.455,1.27-1.132S-264.335,189.443-265.149,189.443z M-265.025,193.432h-2.001v2.415h2.001
	c0.87,0,1.283-0.552,1.283-1.215C-263.742,193.969-264.155,193.432-265.025,193.432z"/>
<path fill="#2290B2" d="M-252.161,197.557l-1.918-3.919h-1.38v3.919h-1.918v-9.826h3.85c2.001,0,3.188,1.366,3.188,3.009
	c0,1.38-0.842,2.236-1.794,2.581l2.194,4.237H-252.161z M-253.652,189.443h-1.808v2.594h1.808c0.842,0,1.394-0.538,1.394-1.298
	C-252.258,189.981-252.81,189.443-253.652,189.443z"/>
<path fill="#2290B2" d="M-242.403,197.64c-2.015,0-3.615-1.366-3.615-3.451v-6.458h1.918v6.39c0,1.132,0.662,1.808,1.697,1.808
	s1.712-0.677,1.712-1.808v-6.39h1.904v6.458C-238.788,196.274-240.388,197.64-242.403,197.64z"/>
<path fill="#2290B2" d="M-230.409,189.443v8.114h-1.918v-8.114h-2.567v-1.712h7.052v1.712H-230.409z"/>
<path fill="#D33D3D" d="M-203.506-52.691v-1.353l3.075-3.572c0.301-0.358,0.428-0.613,0.428-0.994c0-0.613-0.358-1.029-0.994-1.029
	c-0.497,0-1.006,0.254-1.006,1.052h-1.503c0-1.503,1.098-2.405,2.509-2.405c1.457,0,2.497,0.913,2.497,2.393
	c0,0.798-0.312,1.225-0.879,1.885l-2.301,2.671h3.18v1.353H-203.506z"/>
<path fill="#D33D3D" d="M-192.707-52.622c-1.457,0-2.566-0.913-2.566-2.544c0-0.751,0.323-1.445,0.694-2.197l1.734-3.561h1.641
	l-1.711,3.399c0.197-0.081,0.417-0.104,0.613-0.104c1.11,0,2.162,0.913,2.162,2.439C-190.14-53.57-191.25-52.622-192.707-52.622z
	 M-192.707-56.379c-0.613,0-1.063,0.44-1.063,1.203c0,0.762,0.45,1.202,1.063,1.202s1.064-0.44,1.064-1.202
	C-191.643-55.905-192.071-56.379-192.707-56.379z"/>
<path fill="#D33D3D" d="M-184.601-52.691v-6.613l-1.676,1.457v-1.619l1.676-1.457h1.503v8.232H-184.601z"/>
<path fill="#D33D3D" d="M-172.129-52.622c-1.341,0-2.601-0.705-2.624-2.428h1.503c0.023,0.74,0.532,1.075,1.121,1.075
	c0.647,0,1.11-0.405,1.11-1.145c0-0.682-0.416-1.133-1.156-1.133h-0.22v-1.306h0.22c0.729,0,1.041-0.45,1.041-1.029
	c0-0.694-0.462-1.052-1.006-1.052c-0.566,0-0.982,0.37-1.017,0.994h-1.503c0.034-1.469,1.133-2.347,2.52-2.347
	c1.457,0,2.509,0.971,2.509,2.358c0,0.89-0.405,1.399-0.948,1.688c0.59,0.312,1.063,0.879,1.063,1.873
	C-169.516-53.431-170.719-52.622-172.129-52.622z"/>
<path fill="#2290B2" d="M-202.806-36.941v-6.613l-1.676,1.457v-1.619l1.676-1.457h1.503v8.232H-202.806z"/>
<path fill="#2290B2" d="M-194.191-36.872c-1.457,0-2.566-0.913-2.566-2.544c0-0.751,0.323-1.445,0.694-2.197l1.734-3.561h1.641
	l-1.711,3.399c0.197-0.081,0.417-0.104,0.613-0.104c1.11,0,2.162,0.913,2.162,2.439C-191.624-37.82-192.735-36.872-194.191-36.872z
	 M-194.191-40.629c-0.613,0-1.063,0.44-1.063,1.203c0,0.762,0.45,1.202,1.063,1.202s1.064-0.44,1.064-1.202
	C-193.127-40.155-193.555-40.629-194.191-40.629z"/>
<path fill="#2290B2" d="M-183.97-37.543c-0.37,0.37-0.959,0.671-1.815,0.671c-0.855,0-1.48-0.301-1.838-0.659
	c-0.509-0.509-0.624-1.11-0.67-1.711h1.503c0.081,0.647,0.382,1.017,1.006,1.017c0.289,0,0.532-0.081,0.717-0.266
	c0.266-0.266,0.324-0.705,0.324-1.225c0-0.948-0.278-1.48-1.006-1.48c-0.613,0-0.89,0.347-0.994,0.671h-1.376v-4.648h4.694v1.353
	h-3.33v1.769c0.22-0.208,0.682-0.417,1.237-0.417c0.682,0,1.202,0.22,1.537,0.555c0.647,0.648,0.74,1.422,0.74,2.197
	C-183.241-38.791-183.368-38.144-183.97-37.543z"/>
<path fill="#2290B2" d="M-177.471-36.872c-1.457,0-2.566-0.913-2.566-2.544c0-0.751,0.323-1.445,0.694-2.197l1.734-3.561h1.641
	l-1.711,3.399c0.197-0.081,0.417-0.104,0.613-0.104c1.11,0,2.162,0.913,2.162,2.439C-174.904-37.82-176.014-36.872-177.471-36.872z
	 M-177.471-40.629c-0.613,0-1.063,0.44-1.063,1.203c0,0.762,0.45,1.202,1.063,1.202c0.613,0,1.064-0.44,1.064-1.202
	C-176.407-40.155-176.835-40.629-177.471-40.629z"/>
<path fill="#2290B2" d="M-166.786-36.941v-1.353l3.075-3.572c0.301-0.358,0.428-0.613,0.428-0.994c0-0.613-0.358-1.029-0.994-1.029
	c-0.497,0-1.006,0.254-1.006,1.052h-1.503c0-1.503,1.098-2.405,2.509-2.405c1.457,0,2.497,0.913,2.497,2.393
	c0,0.798-0.312,1.225-0.879,1.885l-2.301,2.671h3.18v1.353H-166.786z"/>
<path fill="#2290B2" d="M-156.241-36.941v-6.613l-1.676,1.457v-1.619l1.676-1.457h1.503v8.232H-156.241z"/>
<path fill="#2290B2" d="M-147.638-36.872c-1.341,0-2.601-0.705-2.624-2.428h1.503c0.023,0.74,0.532,1.075,1.121,1.075
	c0.647,0,1.11-0.405,1.11-1.145c0-0.682-0.416-1.133-1.156-1.133h-0.22v-1.306h0.22c0.729,0,1.041-0.45,1.041-1.029
	c0-0.694-0.462-1.052-1.006-1.052c-0.566,0-0.982,0.37-1.017,0.994h-1.503c0.034-1.469,1.133-2.347,2.52-2.347
	c1.457,0,2.509,0.971,2.509,2.358c0,0.89-0.405,1.399-0.948,1.688c0.59,0.312,1.063,0.879,1.063,1.873
	C-145.025-37.681-146.227-36.872-147.638-36.872z"/>
<path fill="#2290B2" d="M-201.175-23.738v1.168h-1.445v-1.168h-3.364v-1.422l2.821-5.642h1.641l-2.821,5.642h1.723v-1.538h1.445
	v1.538h0.751v1.422H-201.175z"/>
<path fill="#2290B2" d="M-194.838-22.501c-1.457,0-2.636-0.867-2.636-2.463c0-1.006,0.578-1.549,1.029-1.849
	c-0.416-0.289-0.925-0.833-0.925-1.711c0-1.457,1.156-2.347,2.532-2.347c1.376,0,2.52,0.89,2.52,2.347
	c0,0.878-0.509,1.422-0.925,1.711c0.45,0.3,1.041,0.844,1.041,1.849C-192.202-23.368-193.382-22.501-194.838-22.501z
	 M-194.838-26.132c-0.636,0-1.133,0.509-1.133,1.145s0.497,1.133,1.133,1.133c0.636,0,1.133-0.497,1.133-1.133
	S-194.202-26.132-194.838-26.132z M-194.838-29.519c-0.59,0-1.029,0.45-1.029,1.04c0,0.601,0.439,1.041,1.029,1.041
	c0.59,0,1.017-0.439,1.017-1.041C-193.821-29.068-194.249-29.519-194.838-29.519z"/>
<path fill="#2290B2" d="M-184.64-23.172c-0.37,0.37-0.959,0.671-1.815,0.671c-0.855,0-1.48-0.301-1.838-0.659
	c-0.509-0.509-0.624-1.11-0.67-1.711h1.503c0.081,0.647,0.382,1.017,1.006,1.017c0.289,0,0.532-0.081,0.717-0.266
	c0.266-0.266,0.324-0.705,0.324-1.225c0-0.948-0.278-1.48-1.006-1.48c-0.613,0-0.89,0.347-0.994,0.671h-1.376v-4.648h4.694v1.353
	h-3.33v1.769c0.22-0.208,0.682-0.417,1.237-0.417c0.682,0,1.202,0.22,1.537,0.555c0.647,0.648,0.74,1.422,0.74,2.197
	C-183.911-24.421-184.038-23.773-184.64-23.172z"/>
<path fill="#2290B2" d="M-175.816-22.57v-1.353l3.075-3.572c0.301-0.358,0.428-0.613,0.428-0.994c0-0.613-0.358-1.029-0.994-1.029
	c-0.497,0-1.006,0.254-1.006,1.052h-1.503c0-1.503,1.098-2.405,2.509-2.405c1.457,0,2.497,0.913,2.497,2.393
	c0,0.798-0.312,1.225-0.878,1.885l-2.301,2.671h3.18v1.353H-175.816z"/>
<path fill="#2290B2" d="M-165.017-22.501c-1.457,0-2.566-0.913-2.566-2.544c0-0.751,0.323-1.445,0.694-2.197l1.734-3.561h1.641
	l-1.711,3.399c0.197-0.081,0.416-0.104,0.613-0.104c1.11,0,2.162,0.913,2.162,2.439C-162.45-23.449-163.561-22.501-165.017-22.501z
	 M-165.017-26.259c-0.613,0-1.063,0.44-1.063,1.203c0,0.762,0.45,1.202,1.063,1.202s1.064-0.44,1.064-1.202
	C-163.953-25.784-164.381-26.259-165.017-26.259z"/>
<path fill="#2290B2" d="M-159.096-22.57v-1.353l3.075-3.572c0.301-0.358,0.428-0.613,0.428-0.994c0-0.613-0.358-1.029-0.994-1.029
	c-0.497,0-1.006,0.254-1.006,1.052h-1.503c0-1.503,1.098-2.405,2.509-2.405c1.457,0,2.497,0.913,2.497,2.393
	c0,0.798-0.312,1.225-0.878,1.885l-2.301,2.671h3.18v1.353H-159.096z"/>
<path fill="#D33D3D" d="M-294.86-144.09v-1.382l3.142-3.651c0.307-0.366,0.437-0.626,0.437-1.016c0-0.626-0.366-1.051-1.016-1.051
	c-0.508,0-1.028,0.26-1.028,1.075h-1.536c0-1.536,1.122-2.457,2.564-2.457c1.489,0,2.552,0.933,2.552,2.445
	c0,0.816-0.319,1.252-0.898,1.926l-2.351,2.729h3.249v1.382H-294.86z"/>
<path fill="#D33D3D" d="M-281.564-147.831l-1.799,3.67h-1.68l1.763-3.502c-0.202,0.083-0.429,0.107-0.631,0.107
	c-1.143,0-2.24-0.941-2.24-2.514c0-1.668,1.144-2.644,2.645-2.644c1.501,0,2.644,0.941,2.644,2.621
	C-280.862-149.32-281.184-148.605-281.564-147.831z M-283.506-151.321c-0.631,0-1.096,0.453-1.096,1.239
	c0,0.75,0.441,1.239,1.096,1.239c0.631,0,1.096-0.453,1.096-1.239S-282.875-151.321-283.506-151.321z"/>
<path fill="#D33D3D" d="M-274.928-144.09c-1.501,0-2.644-0.941-2.644-2.621c0-0.774,0.333-1.489,0.715-2.263l1.787-3.67h1.691
	l-1.763,3.503c0.203-0.084,0.429-0.107,0.631-0.107c1.144,0,2.228,0.941,2.228,2.513
	C-272.283-145.067-273.427-144.09-274.928-144.09z M-274.928-147.962c-0.631,0-1.096,0.453-1.096,1.24
	c0,0.786,0.464,1.239,1.096,1.239c0.631,0,1.096-0.453,1.096-1.239C-273.832-147.474-274.272-147.962-274.928-147.962z"/>
<path fill="#D33D3D" d="M-262.03-144.162v-6.814l-1.727,1.501v-1.668l1.727-1.501h1.549v8.482H-262.03z"/>
<path fill="#2290B2" d="M-290.876-132.221l-1.799,3.67h-1.68l1.763-3.502c-0.202,0.083-0.429,0.107-0.631,0.107
	c-1.143,0-2.24-0.941-2.24-2.514c0-1.668,1.144-2.644,2.645-2.644s2.644,0.941,2.644,2.621
	C-290.174-133.71-290.495-132.995-290.876-132.221z M-292.818-135.711c-0.631,0-1.096,0.453-1.096,1.239
	c0,0.75,0.441,1.239,1.096,1.239c0.631,0,1.096-0.453,1.096-1.239C-291.723-135.259-292.187-135.711-292.818-135.711z"/>
<path fill="#2290B2" d="M-282.321-129.171c-0.381,0.382-0.988,0.691-1.87,0.691c-0.881,0-1.525-0.31-1.894-0.679
	c-0.524-0.524-0.643-1.144-0.691-1.763h1.549c0.083,0.667,0.393,1.048,1.036,1.048c0.298,0,0.548-0.083,0.739-0.274
	c0.274-0.274,0.334-0.726,0.334-1.263c0-0.977-0.286-1.525-1.036-1.525c-0.632,0-0.917,0.358-1.025,0.691h-1.418v-4.79h4.837v1.394
	h-3.431v1.823c0.227-0.214,0.703-0.429,1.275-0.429c0.702,0,1.239,0.227,1.584,0.572c0.667,0.668,0.762,1.465,0.762,2.263
	C-281.571-130.458-281.702-129.791-282.321-129.171z"/>
<path fill="#2290B2" d="M-273.647-132.221l-1.799,3.67h-1.68l1.763-3.502c-0.202,0.083-0.429,0.107-0.631,0.107
	c-1.143,0-2.24-0.941-2.24-2.514c0-1.668,1.144-2.644,2.645-2.644c1.501,0,2.644,0.941,2.644,2.621
	C-272.944-133.71-273.266-132.995-273.647-132.221z M-275.589-135.711c-0.631,0-1.096,0.453-1.096,1.239
	c0,0.75,0.441,1.239,1.096,1.239c0.631,0,1.096-0.453,1.096-1.239C-274.493-135.259-274.957-135.711-275.589-135.711z"/>
<path fill="#2290B2" d="M-262.112-128.48c-1.382,0-2.681-0.727-2.704-2.502h1.549c0.024,0.762,0.548,1.108,1.156,1.108
	c0.667,0,1.143-0.417,1.143-1.179c0-0.703-0.429-1.168-1.191-1.168h-0.227v-1.346h0.227c0.751,0,1.072-0.464,1.072-1.06
	c0-0.715-0.476-1.084-1.037-1.084c-0.584,0-1.012,0.381-1.048,1.025h-1.549c0.035-1.513,1.167-2.418,2.597-2.418
	c1.502,0,2.586,1.001,2.586,2.43c0,0.917-0.417,1.442-0.977,1.739c0.608,0.322,1.096,0.906,1.096,1.93
	C-259.42-129.314-260.659-128.48-262.112-128.48z"/>
<path fill="#2290B2" d="M-253.462-128.552h-1.68l2.752-7.089h-2.24v1.334h-1.477v-2.728h5.397v1.394L-253.462-128.552z"/>
<path fill="#2290B2" d="M-244.871-128.48c-1.501,0-2.644-0.941-2.644-2.621c0-0.774,0.333-1.489,0.715-2.263l1.787-3.67h1.691
	l-1.763,3.503c0.203-0.084,0.429-0.107,0.631-0.107c1.144,0,2.228,0.941,2.228,2.513C-242.226-129.457-243.37-128.48-244.871-128.48
	z M-244.871-132.352c-0.631,0-1.096,0.453-1.096,1.24c0,0.786,0.464,1.239,1.096,1.239s1.096-0.453,1.096-1.239
	C-243.775-131.864-244.216-132.352-244.871-132.352z"/>
<path fill="#D33D3D" d="M-384.191-91.061v-1.293l2.94-3.416c0.288-0.343,0.409-0.586,0.409-0.951c0-0.586-0.343-0.984-0.951-0.984
	c-0.475,0-0.961,0.243-0.961,1.006h-1.437c0-1.437,1.05-2.299,2.399-2.299c1.393,0,2.388,0.873,2.388,2.288
	c0,0.763-0.298,1.172-0.84,1.802l-2.2,2.554h3.04v1.293H-384.191z"/>
<path fill="#D33D3D" d="M-373.843-91.061h-1.559l2.554-6.578h-2.078v1.238h-1.371v-2.532h5.007v1.293L-373.843-91.061z"/>
<path fill="#D33D3D" d="M-365.849-90.995c-1.393,0-2.52-0.829-2.52-2.355c0-0.961,0.553-1.481,0.984-1.768
	c-0.398-0.277-0.884-0.796-0.884-1.636c0-1.393,1.105-2.244,2.421-2.244c1.316,0,2.41,0.851,2.41,2.244
	c0,0.84-0.486,1.359-0.884,1.636c0.431,0.287,0.995,0.807,0.995,1.768C-363.328-91.824-364.456-90.995-365.849-90.995z
	 M-365.849-94.466c-0.608,0-1.083,0.486-1.083,1.094c0,0.608,0.475,1.084,1.083,1.084s1.084-0.476,1.084-1.084
	C-364.766-93.98-365.241-94.466-365.849-94.466z M-365.849-97.705c-0.564,0-0.984,0.431-0.984,0.994c0,0.575,0.42,0.995,0.984,0.995
	c0.564,0,0.973-0.42,0.973-0.995C-364.876-97.274-365.286-97.705-365.849-97.705z"/>
<path fill="#D33D3D" d="M-353.207-91.061v-6.323l-1.602,1.393v-1.548l1.602-1.393h1.437v7.871H-353.207z"/>
<path fill="#2290B2" d="M-382.102-75.311v-6.323l-1.602,1.393v-1.548l1.602-1.393h1.437v7.871H-382.102z"/>
<path fill="#2290B2" d="M-369.288-75.245c-1.282,0-2.399-0.84-2.399-2.343v-3.316c0-1.504,1.117-2.343,2.399-2.343
	c1.283,0,2.388,0.84,2.388,2.343v3.316C-366.9-76.085-368.005-75.245-369.288-75.245z M-368.337-80.882
	c0-0.664-0.387-1.072-0.951-1.072c-0.564,0-0.961,0.409-0.961,1.072v3.283c0,0.663,0.398,1.062,0.961,1.062
	c0.564,0,0.951-0.398,0.951-1.062V-80.882z"/>
<path fill="#2290B2" d="M-361.294-75.245c-1.282,0-2.399-0.84-2.399-2.343v-3.316c0-1.504,1.117-2.343,2.399-2.343
	c1.283,0,2.388,0.84,2.388,2.343v3.316C-358.906-76.085-360.012-75.245-361.294-75.245z M-360.343-80.882
	c0-0.664-0.387-1.072-0.951-1.072s-0.961,0.409-0.961,1.072v3.283c0,0.663,0.398,1.062,0.961,1.062s0.951-0.398,0.951-1.062V-80.882
	z"/>
<path fill="#2290B2" d="M-351.487-78.716l-1.67,3.405h-1.559l1.636-3.25c-0.188,0.077-0.398,0.099-0.586,0.099
	c-1.061,0-2.078-0.873-2.078-2.333c0-1.547,1.061-2.454,2.454-2.454c1.393,0,2.454,0.873,2.454,2.432
	C-350.835-80.098-351.134-79.434-351.487-78.716z M-353.289-81.955c-0.586,0-1.017,0.42-1.017,1.15c0,0.696,0.409,1.15,1.017,1.15
	c0.586,0,1.017-0.42,1.017-1.15S-352.703-81.955-353.289-81.955z"/>
<path fill="#2290B2" d="M-340.774-75.245c-1.393,0-2.454-0.873-2.454-2.432c0-0.718,0.309-1.382,0.663-2.1l1.658-3.405h1.57
	l-1.636,3.25c0.188-0.078,0.398-0.099,0.586-0.099c1.061,0,2.067,0.873,2.067,2.332C-338.32-76.151-339.381-75.245-340.774-75.245z
	 M-340.774-78.838c-0.586,0-1.017,0.421-1.017,1.15c0,0.729,0.431,1.15,1.017,1.15c0.586,0,1.017-0.421,1.017-1.15
	C-339.757-78.384-340.166-78.838-340.774-78.838z"/>
<path fill="#2290B2" d="M-332.79-75.245c-1.283,0-2.487-0.675-2.509-2.321h1.437c0.022,0.707,0.509,1.028,1.072,1.028
	c0.619,0,1.061-0.387,1.061-1.094c0-0.652-0.398-1.084-1.105-1.084h-0.21v-1.249h0.21c0.697,0,0.995-0.431,0.995-0.984
	c0-0.663-0.442-1.006-0.962-1.006c-0.542,0-0.939,0.353-0.972,0.951h-1.437c0.033-1.404,1.083-2.244,2.409-2.244
	c1.393,0,2.399,0.929,2.399,2.255c0,0.851-0.387,1.338-0.906,1.614c0.564,0.298,1.017,0.84,1.017,1.791
	C-330.292-76.019-331.442-75.245-332.79-75.245z"/>
<path fill="#2290B2" d="M-325.029-75.311v-6.323l-1.602,1.393v-1.548l1.602-1.393h1.437v7.871H-325.029z"/>
<path fill="#2290B2" d="M-221.945,197.61c-1.473,0-2.592-0.314-3.547-1.283l1.228-1.228c0.614,0.614,1.446,0.818,2.347,0.818
	c1.119,0,1.719-0.423,1.719-1.201c0-0.341-0.095-0.628-0.3-0.818c-0.191-0.177-0.409-0.273-0.86-0.341l-1.173-0.163
	c-0.832-0.123-1.446-0.382-1.883-0.805c-0.464-0.464-0.696-1.091-0.696-1.91c0-1.733,1.283-2.947,3.384-2.947
	c1.337,0,2.306,0.327,3.138,1.132l-1.201,1.187c-0.614-0.587-1.351-0.669-1.992-0.669c-1.009,0-1.501,0.559-1.501,1.228
	c0,0.245,0.082,0.505,0.286,0.696c0.191,0.177,0.505,0.327,0.9,0.382l1.146,0.164c0.887,0.123,1.446,0.368,1.856,0.75
	c0.519,0.491,0.75,1.201,0.75,2.061C-218.343,196.545-219.912,197.61-221.945,197.61z"/>
<path fill="#2290B2" d="M-280.191,197.61c-1.473,0-2.592-0.314-3.547-1.283l1.228-1.228c0.614,0.614,1.446,0.818,2.347,0.818
	c1.119,0,1.719-0.423,1.719-1.201c0-0.341-0.095-0.628-0.3-0.818c-0.191-0.177-0.409-0.273-0.86-0.341l-1.173-0.163
	c-0.832-0.123-1.446-0.382-1.883-0.805c-0.464-0.464-0.696-1.091-0.696-1.91c0-1.733,1.283-2.947,3.384-2.947
	c1.337,0,2.306,0.327,3.138,1.132l-1.201,1.187c-0.614-0.587-1.351-0.669-1.992-0.669c-1.009,0-1.501,0.559-1.501,1.228
	c0,0.245,0.082,0.505,0.286,0.696c0.191,0.177,0.505,0.327,0.9,0.382l1.146,0.164c0.887,0.123,1.446,0.368,1.855,0.75
	c0.519,0.491,0.75,1.201,0.75,2.061C-276.589,196.545-278.158,197.61-280.191,197.61z"/>
<rect x="-170.81" y="-42.185" fill="none" width="120.75" height="5.244"/>
<text transform="matrix(1 0 0 1 -136.6972 -37.9135)" fill="#2290B2" font-family="'DINPro-Bold'" font-size="6">rhône -alpes</text>
<rect x="-183.911" y="-28.095" fill="none" width="120.75" height="5.244"/>
<text transform="matrix(1 0 0 1 -136.9367 -23.8232)" fill="#2290B2" font-family="'DINPro-Bold'" font-size="6">alsace</text>
<g>
	<rect x="7.353" y="3.642" fill="none" stroke="#D33D3D" stroke-miterlimit="10" width="151.96" height="38.348"/>
	<g>
		<path fill="#D33D3D" d="M24.875,24.799V10.556h2.183v11.763h5.072v2.48H24.875z"/>
		<path fill="#D33D3D" d="M38.932,24.799V10.556h2.183v14.243H38.932z"/>
		<path fill="#D33D3D" d="M52.486,24.919c-1.193,0-2.198-0.521-3.015-1.561c-0.486-0.62-0.785-1.34-0.91-2.141
			c-0.126-0.8-0.188-1.98-0.188-3.54c0-1.561,0.062-2.741,0.188-3.541c0.125-0.82,0.424-1.521,0.91-2.141
			c0.816-1.04,1.821-1.561,3.015-1.561c2.151,0,3.737,1.601,4.114,4.501h-2.214c-0.236-1.22-0.833-2.021-1.885-2.021
			c-0.597,0-1.067,0.24-1.397,0.74c-0.455,0.62-0.55,1.261-0.55,4.021c0,2.76,0.095,3.4,0.55,4.021c0.33,0.5,0.801,0.74,1.397,0.74
			c1.052,0,1.648-0.801,1.885-2.021H56.6C56.223,23.318,54.622,24.919,52.486,24.919z"/>
		<path fill="#D33D3D" d="M63.513,24.799V10.556h7.364v2.48h-5.182v3.341h4.412v2.48h-4.412v3.461h5.182v2.48H63.513z"/>
		<path fill="#D33D3D" d="M84.652,24.799l-4.428-8.742v8.742h-2.183V10.556h1.947l4.428,8.722v-8.722h2.183v14.243H84.652z"/>
		<path fill="#D33D3D" d="M97.973,24.919c-1.193,0-2.198-0.521-3.015-1.561c-0.486-0.62-0.785-1.34-0.91-2.141
			c-0.126-0.8-0.188-1.98-0.188-3.54c0-1.561,0.062-2.741,0.188-3.541c0.125-0.82,0.424-1.521,0.91-2.141
			c0.816-1.04,1.821-1.561,3.015-1.561c2.151,0,3.737,1.601,4.114,4.501h-2.214c-0.236-1.22-0.833-2.021-1.885-2.021
			c-0.597,0-1.067,0.24-1.397,0.74c-0.455,0.62-0.55,1.261-0.55,4.021c0,2.76,0.095,3.4,0.55,4.021c0.33,0.5,0.801,0.74,1.397,0.74
			c1.052,0,1.648-0.801,1.885-2.021h2.214C101.711,23.318,100.109,24.919,97.973,24.919z"/>
		<path fill="#D33D3D" d="M109.001,24.799V10.556h2.183v14.243H109.001z"/>
		<path fill="#D33D3D" d="M118.817,24.799V10.556h7.364v2.48H121v3.341h4.412v2.48H121v3.461h5.182v2.48H118.817z M122.869,9.176
			h-1.366l1.005-3.401h2.151L122.869,9.176z"/>
		<path fill="#D33D3D" d="M136.424,24.919c-1.696,0-2.983-0.46-4.083-1.881l1.414-1.8c0.706,0.9,1.664,1.2,2.7,1.2
			c1.287,0,1.979-0.62,1.979-1.761c0-0.5-0.11-0.92-0.346-1.2c-0.22-0.26-0.471-0.4-0.989-0.5l-1.351-0.24
			c-0.957-0.18-1.664-0.56-2.166-1.18c-0.534-0.681-0.801-1.601-0.801-2.801c0-2.541,1.476-4.321,3.894-4.321
			c1.539,0,2.653,0.48,3.611,1.66l-1.382,1.741c-0.706-0.86-1.555-0.98-2.292-0.98c-1.162,0-1.728,0.82-1.728,1.8
			c0,0.36,0.095,0.74,0.33,1.021c0.22,0.26,0.581,0.48,1.036,0.561l1.319,0.24c1.021,0.18,1.664,0.54,2.135,1.1
			c0.597,0.721,0.863,1.761,0.863,3.021C140.569,23.358,138.763,24.919,136.424,24.919z"/>
	</g>
	<g>
		<g>
			<path fill="#D33D3D" d="M48.523,38.332v-7.833h4.051v1.364h-2.85V33.7h2.427v1.364h-2.427v1.903h2.85v1.364H48.523z"/>
			<path fill="#D33D3D" d="M60.15,38.332l-2.435-4.808v4.808h-1.201v-7.833h1.071l2.436,4.796v-4.796h1.201v7.833H60.15z"/>
			<path fill="#D33D3D" d="M71.39,31.863v1.925h2.427v1.364H71.39v3.18H70.19v-7.833h4.05v1.364H71.39z"/>
			<path fill="#D33D3D" d="M81.315,38.332l-1.201-3.125h-0.863v3.125H78.05v-7.833h2.41c1.252,0,1.995,1.089,1.995,2.398
				c0,1.1-0.527,1.782-1.123,2.057l1.374,3.377H81.315z M80.382,31.863h-1.131v2.068h1.131c0.527,0,0.872-0.429,0.872-1.034
				C81.255,32.292,80.909,31.863,80.382,31.863z"/>
			<path fill="#D33D3D" d="M89.963,38.332L89.6,36.946h-2.185l-0.372,1.386h-1.252l2.237-7.833h0.941l2.246,7.833H89.963z
				 M88.529,32.809l-0.777,2.85h1.529L88.529,32.809z"/>
			<path fill="#D33D3D" d="M98.377,38.332l-2.436-4.808v4.808h-1.2v-7.833h1.07l2.436,4.796v-4.796h1.2v7.833H98.377z"/>
			<path fill="#D33D3D" d="M105.703,38.398c-0.656,0-1.209-0.286-1.658-0.858c-0.268-0.341-0.432-0.737-0.501-1.177
				s-0.104-1.089-0.104-1.947c0-0.858,0.034-1.507,0.104-1.947c0.069-0.451,0.233-0.836,0.501-1.177
				c0.449-0.572,1.002-0.858,1.658-0.858c1.183,0,2.056,0.88,2.263,2.475h-1.218c-0.13-0.671-0.458-1.111-1.036-1.111
				c-0.328,0-0.588,0.132-0.769,0.407c-0.251,0.341-0.303,0.693-0.303,2.211s0.052,1.87,0.303,2.211
				c0.181,0.275,0.44,0.407,0.769,0.407c0.578,0,0.906-0.44,1.036-1.111h1.218C107.758,37.518,106.878,38.398,105.703,38.398z"/>
			<path fill="#D33D3D" d="M111.767,38.332v-7.833h4.051v1.364h-2.851V33.7h2.427v1.364h-2.427v1.903h2.851v1.364H111.767z"/>
		</g>
	</g>
</g>
</svg>
